<?xml version="1.0" encoding="utf-8" standalone="no"?>
<!DOCTYPE svg PUBLIC "-//W3C//DTD SVG 1.1//EN"
  "http://www.w3.org/Graphics/SVG/1.1/DTD/svg11.dtd">
<svg height="310.86825pt" version="1.1" viewBox="0 0 414.46375 310.86825" width="414.46375pt" xmlns="http://www.w3.org/2000/svg" xmlns:xlink="http://www.w3.org/1999/xlink">
 <metadata>
  <rdf:RDF xmlns:cc="http://creativecommons.org/ns#" xmlns:dc="http://purl.org/dc/elements/1.1/" xmlns:rdf="http://www.w3.org/1999/02/22-rdf-syntax-ns#">
   <cc:Work>
    <dc:type rdf:resource="http://purl.org/dc/dcmitype/StillImage"/>
    <dc:date>2021-08-23T14:33:40.778236</dc:date>
    <dc:format>image/svg+xml</dc:format>
    <dc:creator>
     <cc:Agent>
      <dc:title>Matplotlib v3.4.3, https://matplotlib.org/</dc:title>
     </cc:Agent>
    </dc:creator>
   </cc:Work>
  </rdf:RDF>
 </metadata>
 <defs>
  <style type="text/css">*{stroke-linecap:butt;stroke-linejoin:round;}</style>
 </defs>
 <g id="figure_1">
  <g id="patch_1">
   <path d="M 0 310.86825 
L 414.46375 310.86825 
L 414.46375 0 
L 0 0 
z
" style="fill:#ffffff;"/>
  </g>
  <g id="axes_1">
   <g id="patch_2">
    <path d="M 50.14375 273.312 
L 407.26375 273.312 
L 407.26375 7.2 
L 50.14375 7.2 
z
" style="fill:#ffffff;"/>
   </g>
   <g id="patch_3">
    <path clip-path="url(#p278d683e42)" d="M 66.62181 273.312 
L 68.243841 273.312 
L 68.243841 272.10801 
L 66.62181 272.10801 
z
" style="fill:#1f77b4;"/>
   </g>
   <g id="patch_4">
    <path clip-path="url(#p278d683e42)" d="M 68.243841 273.312 
L 69.865873 273.312 
L 69.865873 272.10801 
L 68.243841 272.10801 
z
" style="fill:#1f77b4;"/>
   </g>
   <g id="patch_5">
    <path clip-path="url(#p278d683e42)" d="M 69.865873 273.312 
L 71.487905 273.312 
L 71.487905 271.506014 
L 69.865873 271.506014 
z
" style="fill:#1f77b4;"/>
   </g>
   <g id="patch_6">
    <path clip-path="url(#p278d683e42)" d="M 71.487905 273.312 
L 73.109937 273.312 
L 73.109937 270.904019 
L 71.487905 270.904019 
z
" style="fill:#1f77b4;"/>
   </g>
   <g id="patch_7">
    <path clip-path="url(#p278d683e42)" d="M 73.109937 273.312 
L 74.731969 273.312 
L 74.731969 268.496038 
L 73.109937 268.496038 
z
" style="fill:#1f77b4;"/>
   </g>
   <g id="patch_8">
    <path clip-path="url(#p278d683e42)" d="M 74.731969 273.312 
L 76.354001 273.312 
L 76.354001 264.282071 
L 74.731969 264.282071 
z
" style="fill:#1f77b4;"/>
   </g>
   <g id="patch_9">
    <path clip-path="url(#p278d683e42)" d="M 76.354001 273.312 
L 77.976032 273.312 
L 77.976032 264.884067 
L 76.354001 264.884067 
z
" style="fill:#1f77b4;"/>
   </g>
   <g id="patch_10">
    <path clip-path="url(#p278d683e42)" d="M 77.976032 273.312 
L 79.598064 273.312 
L 79.598064 266.690052 
L 77.976032 266.690052 
z
" style="fill:#1f77b4;"/>
   </g>
   <g id="patch_11">
    <path clip-path="url(#p278d683e42)" d="M 79.598064 273.312 
L 81.220096 273.312 
L 81.220096 264.282071 
L 79.598064 264.282071 
z
" style="fill:#1f77b4;"/>
   </g>
   <g id="patch_12">
    <path clip-path="url(#p278d683e42)" d="M 81.220096 273.312 
L 82.842128 273.312 
L 82.842128 267.292048 
L 81.220096 267.292048 
z
" style="fill:#1f77b4;"/>
   </g>
   <g id="patch_13">
    <path clip-path="url(#p278d683e42)" d="M 82.842128 273.312 
L 84.46416 273.312 
L 84.46416 255.252143 
L 82.842128 255.252143 
z
" style="fill:#1f77b4;"/>
   </g>
   <g id="patch_14">
    <path clip-path="url(#p278d683e42)" d="M 84.46416 273.312 
L 86.086192 273.312 
L 86.086192 258.262119 
L 84.46416 258.262119 
z
" style="fill:#1f77b4;"/>
   </g>
   <g id="patch_15">
    <path clip-path="url(#p278d683e42)" d="M 86.086192 273.312 
L 87.708223 273.312 
L 87.708223 261.272095 
L 86.086192 261.272095 
z
" style="fill:#1f77b4;"/>
   </g>
   <g id="patch_16">
    <path clip-path="url(#p278d683e42)" d="M 87.708223 273.312 
L 89.330255 273.312 
L 89.330255 252.242166 
L 87.708223 252.242166 
z
" style="fill:#1f77b4;"/>
   </g>
   <g id="patch_17">
    <path clip-path="url(#p278d683e42)" d="M 89.330255 273.312 
L 90.952287 273.312 
L 90.952287 252.242166 
L 89.330255 252.242166 
z
" style="fill:#1f77b4;"/>
   </g>
   <g id="patch_18">
    <path clip-path="url(#p278d683e42)" d="M 90.952287 273.312 
L 92.574319 273.312 
L 92.574319 257.660124 
L 90.952287 257.660124 
z
" style="fill:#1f77b4;"/>
   </g>
   <g id="patch_19">
    <path clip-path="url(#p278d683e42)" d="M 92.574319 273.312 
L 94.196351 273.312 
L 94.196351 254.650147 
L 92.574319 254.650147 
z
" style="fill:#1f77b4;"/>
   </g>
   <g id="patch_20">
    <path clip-path="url(#p278d683e42)" d="M 94.196351 273.312 
L 95.818383 273.312 
L 95.818383 248.0282 
L 94.196351 248.0282 
z
" style="fill:#1f77b4;"/>
   </g>
   <g id="patch_21">
    <path clip-path="url(#p278d683e42)" d="M 95.818383 273.312 
L 97.440414 273.312 
L 97.440414 249.23219 
L 95.818383 249.23219 
z
" style="fill:#1f77b4;"/>
   </g>
   <g id="patch_22">
    <path clip-path="url(#p278d683e42)" d="M 97.440414 273.312 
L 99.062446 273.312 
L 99.062446 257.058128 
L 97.440414 257.058128 
z
" style="fill:#1f77b4;"/>
   </g>
   <g id="patch_23">
    <path clip-path="url(#p278d683e42)" d="M 99.062446 273.312 
L 100.684478 273.312 
L 100.684478 245.620219 
L 99.062446 245.620219 
z
" style="fill:#1f77b4;"/>
   </g>
   <g id="patch_24">
    <path clip-path="url(#p278d683e42)" d="M 100.684478 273.312 
L 102.30651 273.312 
L 102.30651 246.824209 
L 100.684478 246.824209 
z
" style="fill:#1f77b4;"/>
   </g>
   <g id="patch_25">
    <path clip-path="url(#p278d683e42)" d="M 102.30651 273.312 
L 103.928542 273.312 
L 103.928542 251.640171 
L 102.30651 251.640171 
z
" style="fill:#1f77b4;"/>
   </g>
   <g id="patch_26">
    <path clip-path="url(#p278d683e42)" d="M 103.928542 273.312 
L 105.550574 273.312 
L 105.550574 246.824209 
L 103.928542 246.824209 
z
" style="fill:#1f77b4;"/>
   </g>
   <g id="patch_27">
    <path clip-path="url(#p278d683e42)" d="M 105.550574 273.312 
L 107.172605 273.312 
L 107.172605 245.018223 
L 105.550574 245.018223 
z
" style="fill:#1f77b4;"/>
   </g>
   <g id="patch_28">
    <path clip-path="url(#p278d683e42)" d="M 107.172605 273.312 
L 108.794637 273.312 
L 108.794637 243.212238 
L 107.172605 243.212238 
z
" style="fill:#1f77b4;"/>
   </g>
   <g id="patch_29">
    <path clip-path="url(#p278d683e42)" d="M 108.794637 273.312 
L 110.416669 273.312 
L 110.416669 236.59029 
L 108.794637 236.59029 
z
" style="fill:#1f77b4;"/>
   </g>
   <g id="patch_30">
    <path clip-path="url(#p278d683e42)" d="M 110.416669 273.312 
L 112.038701 273.312 
L 112.038701 240.804257 
L 110.416669 240.804257 
z
" style="fill:#1f77b4;"/>
   </g>
   <g id="patch_31">
    <path clip-path="url(#p278d683e42)" d="M 112.038701 273.312 
L 113.660733 273.312 
L 113.660733 238.998271 
L 112.038701 238.998271 
z
" style="fill:#1f77b4;"/>
   </g>
   <g id="patch_32">
    <path clip-path="url(#p278d683e42)" d="M 113.660733 273.312 
L 115.282765 273.312 
L 115.282765 241.406252 
L 113.660733 241.406252 
z
" style="fill:#1f77b4;"/>
   </g>
   <g id="patch_33">
    <path clip-path="url(#p278d683e42)" d="M 115.282765 273.312 
L 116.904796 273.312 
L 116.904796 230.570337 
L 115.282765 230.570337 
z
" style="fill:#1f77b4;"/>
   </g>
   <g id="patch_34">
    <path clip-path="url(#p278d683e42)" d="M 116.904796 273.312 
L 118.526828 273.312 
L 118.526828 231.172333 
L 116.904796 231.172333 
z
" style="fill:#1f77b4;"/>
   </g>
   <g id="patch_35">
    <path clip-path="url(#p278d683e42)" d="M 118.526828 273.312 
L 120.14886 273.312 
L 120.14886 235.386299 
L 118.526828 235.386299 
z
" style="fill:#1f77b4;"/>
   </g>
   <g id="patch_36">
    <path clip-path="url(#p278d683e42)" d="M 120.14886 273.312 
L 121.770892 273.312 
L 121.770892 238.396276 
L 120.14886 238.396276 
z
" style="fill:#1f77b4;"/>
   </g>
   <g id="patch_37">
    <path clip-path="url(#p278d683e42)" d="M 121.770892 273.312 
L 123.392924 273.312 
L 123.392924 230.570337 
L 121.770892 230.570337 
z
" style="fill:#1f77b4;"/>
   </g>
   <g id="patch_38">
    <path clip-path="url(#p278d683e42)" d="M 123.392924 273.312 
L 125.014956 273.312 
L 125.014956 226.958366 
L 123.392924 226.958366 
z
" style="fill:#1f77b4;"/>
   </g>
   <g id="patch_39">
    <path clip-path="url(#p278d683e42)" d="M 125.014956 273.312 
L 126.636987 273.312 
L 126.636987 226.958366 
L 125.014956 226.958366 
z
" style="fill:#1f77b4;"/>
   </g>
   <g id="patch_40">
    <path clip-path="url(#p278d683e42)" d="M 126.636987 273.312 
L 128.259019 273.312 
L 128.259019 228.162356 
L 126.636987 228.162356 
z
" style="fill:#1f77b4;"/>
   </g>
   <g id="patch_41">
    <path clip-path="url(#p278d683e42)" d="M 128.259019 273.312 
L 129.881051 273.312 
L 129.881051 219.132428 
L 128.259019 219.132428 
z
" style="fill:#1f77b4;"/>
   </g>
   <g id="patch_42">
    <path clip-path="url(#p278d683e42)" d="M 129.881051 273.312 
L 131.503083 273.312 
L 131.503083 220.938413 
L 129.881051 220.938413 
z
" style="fill:#1f77b4;"/>
   </g>
   <g id="patch_43">
    <path clip-path="url(#p278d683e42)" d="M 131.503083 273.312 
L 133.125115 273.312 
L 133.125115 225.754375 
L 131.503083 225.754375 
z
" style="fill:#1f77b4;"/>
   </g>
   <g id="patch_44">
    <path clip-path="url(#p278d683e42)" d="M 133.125115 273.312 
L 134.747147 273.312 
L 134.747147 219.734423 
L 133.125115 219.734423 
z
" style="fill:#1f77b4;"/>
   </g>
   <g id="patch_45">
    <path clip-path="url(#p278d683e42)" d="M 134.747147 273.312 
L 136.369178 273.312 
L 136.369178 215.520456 
L 134.747147 215.520456 
z
" style="fill:#1f77b4;"/>
   </g>
   <g id="patch_46">
    <path clip-path="url(#p278d683e42)" d="M 136.369178 273.312 
L 137.99121 273.312 
L 137.99121 228.162356 
L 136.369178 228.162356 
z
" style="fill:#1f77b4;"/>
   </g>
   <g id="patch_47">
    <path clip-path="url(#p278d683e42)" d="M 137.99121 273.312 
L 139.613242 273.312 
L 139.613242 220.938413 
L 137.99121 220.938413 
z
" style="fill:#1f77b4;"/>
   </g>
   <g id="patch_48">
    <path clip-path="url(#p278d683e42)" d="M 139.613242 273.312 
L 141.235274 273.312 
L 141.235274 225.15238 
L 139.613242 225.15238 
z
" style="fill:#1f77b4;"/>
   </g>
   <g id="patch_49">
    <path clip-path="url(#p278d683e42)" d="M 141.235274 273.312 
L 142.857306 273.312 
L 142.857306 212.51048 
L 141.235274 212.51048 
z
" style="fill:#1f77b4;"/>
   </g>
   <g id="patch_50">
    <path clip-path="url(#p278d683e42)" d="M 142.857306 273.312 
L 144.479338 273.312 
L 144.479338 218.530432 
L 142.857306 218.530432 
z
" style="fill:#1f77b4;"/>
   </g>
   <g id="patch_51">
    <path clip-path="url(#p278d683e42)" d="M 144.479338 273.312 
L 146.101369 273.312 
L 146.101369 221.540409 
L 144.479338 221.540409 
z
" style="fill:#1f77b4;"/>
   </g>
   <g id="patch_52">
    <path clip-path="url(#p278d683e42)" d="M 146.101369 273.312 
L 147.723401 273.312 
L 147.723401 215.520456 
L 146.101369 215.520456 
z
" style="fill:#1f77b4;"/>
   </g>
   <g id="patch_53">
    <path clip-path="url(#p278d683e42)" d="M 147.723401 273.312 
L 149.345433 273.312 
L 149.345433 218.530432 
L 147.723401 218.530432 
z
" style="fill:#1f77b4;"/>
   </g>
   <g id="patch_54">
    <path clip-path="url(#p278d683e42)" d="M 149.345433 273.312 
L 150.967465 273.312 
L 150.967465 211.306489 
L 149.345433 211.306489 
z
" style="fill:#1f77b4;"/>
   </g>
   <g id="patch_55">
    <path clip-path="url(#p278d683e42)" d="M 150.967465 273.312 
L 152.589497 273.312 
L 152.589497 217.326442 
L 150.967465 217.326442 
z
" style="fill:#1f77b4;"/>
   </g>
   <g id="patch_56">
    <path clip-path="url(#p278d683e42)" d="M 152.589497 273.312 
L 154.211529 273.312 
L 154.211529 216.724447 
L 152.589497 216.724447 
z
" style="fill:#1f77b4;"/>
   </g>
   <g id="patch_57">
    <path clip-path="url(#p278d683e42)" d="M 154.211529 273.312 
L 155.83356 273.312 
L 155.83356 190.236656 
L 154.211529 190.236656 
z
" style="fill:#1f77b4;"/>
   </g>
   <g id="patch_58">
    <path clip-path="url(#p278d683e42)" d="M 155.83356 273.312 
L 157.455592 273.312 
L 157.455592 198.062594 
L 155.83356 198.062594 
z
" style="fill:#1f77b4;"/>
   </g>
   <g id="patch_59">
    <path clip-path="url(#p278d683e42)" d="M 157.455592 273.312 
L 159.077624 273.312 
L 159.077624 216.724447 
L 157.455592 216.724447 
z
" style="fill:#1f77b4;"/>
   </g>
   <g id="patch_60">
    <path clip-path="url(#p278d683e42)" d="M 159.077624 273.312 
L 160.699656 273.312 
L 160.699656 202.276561 
L 159.077624 202.276561 
z
" style="fill:#1f77b4;"/>
   </g>
   <g id="patch_61">
    <path clip-path="url(#p278d683e42)" d="M 160.699656 273.312 
L 162.321688 273.312 
L 162.321688 205.888532 
L 160.699656 205.888532 
z
" style="fill:#1f77b4;"/>
   </g>
   <g id="patch_62">
    <path clip-path="url(#p278d683e42)" d="M 162.321688 273.312 
L 163.94372 273.312 
L 163.94372 216.122451 
L 162.321688 216.122451 
z
" style="fill:#1f77b4;"/>
   </g>
   <g id="patch_63">
    <path clip-path="url(#p278d683e42)" d="M 163.94372 273.312 
L 165.565751 273.312 
L 165.565751 203.480551 
L 163.94372 203.480551 
z
" style="fill:#1f77b4;"/>
   </g>
   <g id="patch_64">
    <path clip-path="url(#p278d683e42)" d="M 165.565751 273.312 
L 167.187783 273.312 
L 167.187783 204.684542 
L 165.565751 204.684542 
z
" style="fill:#1f77b4;"/>
   </g>
   <g id="patch_65">
    <path clip-path="url(#p278d683e42)" d="M 167.187783 273.312 
L 168.809815 273.312 
L 168.809815 199.86858 
L 167.187783 199.86858 
z
" style="fill:#1f77b4;"/>
   </g>
   <g id="patch_66">
    <path clip-path="url(#p278d683e42)" d="M 168.809815 273.312 
L 170.431847 273.312 
L 170.431847 195.052618 
L 168.809815 195.052618 
z
" style="fill:#1f77b4;"/>
   </g>
   <g id="patch_67">
    <path clip-path="url(#p278d683e42)" d="M 170.431847 273.312 
L 172.053879 273.312 
L 172.053879 196.858603 
L 170.431847 196.858603 
z
" style="fill:#1f77b4;"/>
   </g>
   <g id="patch_68">
    <path clip-path="url(#p278d683e42)" d="M 172.053879 273.312 
L 173.675911 273.312 
L 173.675911 195.052618 
L 172.053879 195.052618 
z
" style="fill:#1f77b4;"/>
   </g>
   <g id="patch_69">
    <path clip-path="url(#p278d683e42)" d="M 173.675911 273.312 
L 175.297943 273.312 
L 175.297943 184.818698 
L 173.675911 184.818698 
z
" style="fill:#1f77b4;"/>
   </g>
   <g id="patch_70">
    <path clip-path="url(#p278d683e42)" d="M 175.297943 273.312 
L 176.919974 273.312 
L 176.919974 198.664589 
L 175.297943 198.664589 
z
" style="fill:#1f77b4;"/>
   </g>
   <g id="patch_71">
    <path clip-path="url(#p278d683e42)" d="M 176.919974 273.312 
L 178.542006 273.312 
L 178.542006 191.440646 
L 176.919974 191.440646 
z
" style="fill:#1f77b4;"/>
   </g>
   <g id="patch_72">
    <path clip-path="url(#p278d683e42)" d="M 178.542006 273.312 
L 180.164038 273.312 
L 180.164038 197.460599 
L 178.542006 197.460599 
z
" style="fill:#1f77b4;"/>
   </g>
   <g id="patch_73">
    <path clip-path="url(#p278d683e42)" d="M 180.164038 273.312 
L 181.78607 273.312 
L 181.78607 200.470575 
L 180.164038 200.470575 
z
" style="fill:#1f77b4;"/>
   </g>
   <g id="patch_74">
    <path clip-path="url(#p278d683e42)" d="M 181.78607 273.312 
L 183.408102 273.312 
L 183.408102 194.450622 
L 181.78607 194.450622 
z
" style="fill:#1f77b4;"/>
   </g>
   <g id="patch_75">
    <path clip-path="url(#p278d683e42)" d="M 183.408102 273.312 
L 185.030134 273.312 
L 185.030134 195.052618 
L 183.408102 195.052618 
z
" style="fill:#1f77b4;"/>
   </g>
   <g id="patch_76">
    <path clip-path="url(#p278d683e42)" d="M 185.030134 273.312 
L 186.652165 273.312 
L 186.652165 181.808722 
L 185.030134 181.808722 
z
" style="fill:#1f77b4;"/>
   </g>
   <g id="patch_77">
    <path clip-path="url(#p278d683e42)" d="M 186.652165 273.312 
L 188.274197 273.312 
L 188.274197 180.604732 
L 186.652165 180.604732 
z
" style="fill:#1f77b4;"/>
   </g>
   <g id="patch_78">
    <path clip-path="url(#p278d683e42)" d="M 188.274197 273.312 
L 189.896229 273.312 
L 189.896229 180.604732 
L 188.274197 180.604732 
z
" style="fill:#1f77b4;"/>
   </g>
   <g id="patch_79">
    <path clip-path="url(#p278d683e42)" d="M 189.896229 273.312 
L 191.518261 273.312 
L 191.518261 187.828675 
L 189.896229 187.828675 
z
" style="fill:#1f77b4;"/>
   </g>
   <g id="patch_80">
    <path clip-path="url(#p278d683e42)" d="M 191.518261 273.312 
L 193.140293 273.312 
L 193.140293 190.236656 
L 191.518261 190.236656 
z
" style="fill:#1f77b4;"/>
   </g>
   <g id="patch_81">
    <path clip-path="url(#p278d683e42)" d="M 193.140293 273.312 
L 194.762325 273.312 
L 194.762325 186.022689 
L 193.140293 186.022689 
z
" style="fill:#1f77b4;"/>
   </g>
   <g id="patch_82">
    <path clip-path="url(#p278d683e42)" d="M 194.762325 273.312 
L 196.384356 273.312 
L 196.384356 182.410717 
L 194.762325 182.410717 
z
" style="fill:#1f77b4;"/>
   </g>
   <g id="patch_83">
    <path clip-path="url(#p278d683e42)" d="M 196.384356 273.312 
L 198.006388 273.312 
L 198.006388 156.524922 
L 196.384356 156.524922 
z
" style="fill:#1f77b4;"/>
   </g>
   <g id="patch_84">
    <path clip-path="url(#p278d683e42)" d="M 198.006388 273.312 
L 199.62842 273.312 
L 199.62842 164.35086 
L 198.006388 164.35086 
z
" style="fill:#1f77b4;"/>
   </g>
   <g id="patch_85">
    <path clip-path="url(#p278d683e42)" d="M 199.62842 273.312 
L 201.250452 273.312 
L 201.250452 167.962831 
L 199.62842 167.962831 
z
" style="fill:#1f77b4;"/>
   </g>
   <g id="patch_86">
    <path clip-path="url(#p278d683e42)" d="M 201.250452 273.312 
L 202.872484 273.312 
L 202.872484 180.002736 
L 201.250452 180.002736 
z
" style="fill:#1f77b4;"/>
   </g>
   <g id="patch_87">
    <path clip-path="url(#p278d683e42)" d="M 202.872484 273.312 
L 204.494516 273.312 
L 204.494516 155.320931 
L 202.872484 155.320931 
z
" style="fill:#1f77b4;"/>
   </g>
   <g id="patch_88">
    <path clip-path="url(#p278d683e42)" d="M 204.494516 273.312 
L 206.116547 273.312 
L 206.116547 174.584779 
L 204.494516 174.584779 
z
" style="fill:#1f77b4;"/>
   </g>
   <g id="patch_89">
    <path clip-path="url(#p278d683e42)" d="M 206.116547 273.312 
L 207.738579 273.312 
L 207.738579 152.91295 
L 206.116547 152.91295 
z
" style="fill:#1f77b4;"/>
   </g>
   <g id="patch_90">
    <path clip-path="url(#p278d683e42)" d="M 207.738579 273.312 
L 209.360611 273.312 
L 209.360611 154.718936 
L 207.738579 154.718936 
z
" style="fill:#1f77b4;"/>
   </g>
   <g id="patch_91">
    <path clip-path="url(#p278d683e42)" d="M 209.360611 273.312 
L 210.982643 273.312 
L 210.982643 169.166822 
L 209.360611 169.166822 
z
" style="fill:#1f77b4;"/>
   </g>
   <g id="patch_92">
    <path clip-path="url(#p278d683e42)" d="M 210.982643 273.312 
L 212.604675 273.312 
L 212.604675 157.728912 
L 210.982643 157.728912 
z
" style="fill:#1f77b4;"/>
   </g>
   <g id="patch_93">
    <path clip-path="url(#p278d683e42)" d="M 212.604675 273.312 
L 214.226707 273.312 
L 214.226707 166.758841 
L 212.604675 166.758841 
z
" style="fill:#1f77b4;"/>
   </g>
   <g id="patch_94">
    <path clip-path="url(#p278d683e42)" d="M 214.226707 273.312 
L 215.848738 273.312 
L 215.848738 157.728912 
L 214.226707 157.728912 
z
" style="fill:#1f77b4;"/>
   </g>
   <g id="patch_95">
    <path clip-path="url(#p278d683e42)" d="M 215.848738 273.312 
L 217.47077 273.312 
L 217.47077 153.514945 
L 215.848738 153.514945 
z
" style="fill:#1f77b4;"/>
   </g>
   <g id="patch_96">
    <path clip-path="url(#p278d683e42)" d="M 217.47077 273.312 
L 219.092802 273.312 
L 219.092802 154.718936 
L 217.47077 154.718936 
z
" style="fill:#1f77b4;"/>
   </g>
   <g id="patch_97">
    <path clip-path="url(#p278d683e42)" d="M 219.092802 273.312 
L 220.714834 273.312 
L 220.714834 150.504969 
L 219.092802 150.504969 
z
" style="fill:#1f77b4;"/>
   </g>
   <g id="patch_98">
    <path clip-path="url(#p278d683e42)" d="M 220.714834 273.312 
L 222.336866 273.312 
L 222.336866 158.932903 
L 220.714834 158.932903 
z
" style="fill:#1f77b4;"/>
   </g>
   <g id="patch_99">
    <path clip-path="url(#p278d683e42)" d="M 222.336866 273.312 
L 223.958898 273.312 
L 223.958898 167.360836 
L 222.336866 167.360836 
z
" style="fill:#1f77b4;"/>
   </g>
   <g id="patch_100">
    <path clip-path="url(#p278d683e42)" d="M 223.958898 273.312 
L 225.580929 273.312 
L 225.580929 155.320931 
L 223.958898 155.320931 
z
" style="fill:#1f77b4;"/>
   </g>
   <g id="patch_101">
    <path clip-path="url(#p278d683e42)" d="M 225.580929 273.312 
L 227.202961 273.312 
L 227.202961 149.300979 
L 225.580929 149.300979 
z
" style="fill:#1f77b4;"/>
   </g>
   <g id="patch_102">
    <path clip-path="url(#p278d683e42)" d="M 227.202961 273.312 
L 228.824993 273.312 
L 228.824993 159.534898 
L 227.202961 159.534898 
z
" style="fill:#1f77b4;"/>
   </g>
   <g id="patch_103">
    <path clip-path="url(#p278d683e42)" d="M 228.824993 273.312 
L 230.447025 273.312 
L 230.447025 151.70896 
L 228.824993 151.70896 
z
" style="fill:#1f77b4;"/>
   </g>
   <g id="patch_104">
    <path clip-path="url(#p278d683e42)" d="M 230.447025 273.312 
L 232.069057 273.312 
L 232.069057 148.698983 
L 230.447025 148.698983 
z
" style="fill:#1f77b4;"/>
   </g>
   <g id="patch_105">
    <path clip-path="url(#p278d683e42)" d="M 232.069057 273.312 
L 233.691089 273.312 
L 233.691089 131.241121 
L 232.069057 131.241121 
z
" style="fill:#1f77b4;"/>
   </g>
   <g id="patch_106">
    <path clip-path="url(#p278d683e42)" d="M 233.691089 273.312 
L 235.31312 273.312 
L 235.31312 137.863069 
L 233.691089 137.863069 
z
" style="fill:#1f77b4;"/>
   </g>
   <g id="patch_107">
    <path clip-path="url(#p278d683e42)" d="M 235.31312 273.312 
L 236.935152 273.312 
L 236.935152 151.106964 
L 235.31312 151.106964 
z
" style="fill:#1f77b4;"/>
   </g>
   <g id="patch_108">
    <path clip-path="url(#p278d683e42)" d="M 236.935152 273.312 
L 238.557184 273.312 
L 238.557184 152.310955 
L 236.935152 152.310955 
z
" style="fill:#1f77b4;"/>
   </g>
   <g id="patch_109">
    <path clip-path="url(#p278d683e42)" d="M 238.557184 273.312 
L 240.179216 273.312 
L 240.179216 145.689007 
L 238.557184 145.689007 
z
" style="fill:#1f77b4;"/>
   </g>
   <g id="patch_110">
    <path clip-path="url(#p278d683e42)" d="M 240.179216 273.312 
L 241.801248 273.312 
L 241.801248 158.330907 
L 240.179216 158.330907 
z
" style="fill:#1f77b4;"/>
   </g>
   <g id="patch_111">
    <path clip-path="url(#p278d683e42)" d="M 241.801248 273.312 
L 243.42328 273.312 
L 243.42328 137.261074 
L 241.801248 137.261074 
z
" style="fill:#1f77b4;"/>
   </g>
   <g id="patch_112">
    <path clip-path="url(#p278d683e42)" d="M 243.42328 273.312 
L 245.045311 273.312 
L 245.045311 125.823164 
L 243.42328 125.823164 
z
" style="fill:#1f77b4;"/>
   </g>
   <g id="patch_113">
    <path clip-path="url(#p278d683e42)" d="M 245.045311 273.312 
L 246.667343 273.312 
L 246.667343 151.70896 
L 245.045311 151.70896 
z
" style="fill:#1f77b4;"/>
   </g>
   <g id="patch_114">
    <path clip-path="url(#p278d683e42)" d="M 246.667343 273.312 
L 248.289375 273.312 
L 248.289375 142.077036 
L 246.667343 142.077036 
z
" style="fill:#1f77b4;"/>
   </g>
   <g id="patch_115">
    <path clip-path="url(#p278d683e42)" d="M 248.289375 273.312 
L 249.911407 273.312 
L 249.911407 125.823164 
L 248.289375 125.823164 
z
" style="fill:#1f77b4;"/>
   </g>
   <g id="patch_116">
    <path clip-path="url(#p278d683e42)" d="M 249.911407 273.312 
L 251.533439 273.312 
L 251.533439 135.455088 
L 249.911407 135.455088 
z
" style="fill:#1f77b4;"/>
   </g>
   <g id="patch_117">
    <path clip-path="url(#p278d683e42)" d="M 251.533439 273.312 
L 253.155471 273.312 
L 253.155471 134.251097 
L 251.533439 134.251097 
z
" style="fill:#1f77b4;"/>
   </g>
   <g id="patch_118">
    <path clip-path="url(#p278d683e42)" d="M 253.155471 273.312 
L 254.777502 273.312 
L 254.777502 133.649102 
L 253.155471 133.649102 
z
" style="fill:#1f77b4;"/>
   </g>
   <g id="patch_119">
    <path clip-path="url(#p278d683e42)" d="M 254.777502 273.312 
L 256.399534 273.312 
L 256.399534 136.659078 
L 254.777502 136.659078 
z
" style="fill:#1f77b4;"/>
   </g>
   <g id="patch_120">
    <path clip-path="url(#p278d683e42)" d="M 256.399534 273.312 
L 258.021566 273.312 
L 258.021566 134.853093 
L 256.399534 134.853093 
z
" style="fill:#1f77b4;"/>
   </g>
   <g id="patch_121">
    <path clip-path="url(#p278d683e42)" d="M 258.021566 273.312 
L 259.643598 273.312 
L 259.643598 127.027154 
L 258.021566 127.027154 
z
" style="fill:#1f77b4;"/>
   </g>
   <g id="patch_122">
    <path clip-path="url(#p278d683e42)" d="M 259.643598 273.312 
L 261.26563 273.312 
L 261.26563 122.813188 
L 259.643598 122.813188 
z
" style="fill:#1f77b4;"/>
   </g>
   <g id="patch_123">
    <path clip-path="url(#p278d683e42)" d="M 261.26563 273.312 
L 262.887662 273.312 
L 262.887662 124.017178 
L 261.26563 124.017178 
z
" style="fill:#1f77b4;"/>
   </g>
   <g id="patch_124">
    <path clip-path="url(#p278d683e42)" d="M 262.887662 273.312 
L 264.509693 273.312 
L 264.509693 125.823164 
L 262.887662 125.823164 
z
" style="fill:#1f77b4;"/>
   </g>
   <g id="patch_125">
    <path clip-path="url(#p278d683e42)" d="M 264.509693 273.312 
L 266.131725 273.312 
L 266.131725 130.037131 
L 264.509693 130.037131 
z
" style="fill:#1f77b4;"/>
   </g>
   <g id="patch_126">
    <path clip-path="url(#p278d683e42)" d="M 266.131725 273.312 
L 267.753757 273.312 
L 267.753757 127.62915 
L 266.131725 127.62915 
z
" style="fill:#1f77b4;"/>
   </g>
   <g id="patch_127">
    <path clip-path="url(#p278d683e42)" d="M 267.753757 273.312 
L 269.375789 273.312 
L 269.375789 117.39523 
L 267.753757 117.39523 
z
" style="fill:#1f77b4;"/>
   </g>
   <g id="patch_128">
    <path clip-path="url(#p278d683e42)" d="M 269.375789 273.312 
L 270.997821 273.312 
L 270.997821 121.609197 
L 269.375789 121.609197 
z
" style="fill:#1f77b4;"/>
   </g>
   <g id="patch_129">
    <path clip-path="url(#p278d683e42)" d="M 270.997821 273.312 
L 272.619853 273.312 
L 272.619853 122.211192 
L 270.997821 122.211192 
z
" style="fill:#1f77b4;"/>
   </g>
   <g id="patch_130">
    <path clip-path="url(#p278d683e42)" d="M 272.619853 273.312 
L 274.241884 273.312 
L 274.241884 111.375278 
L 272.619853 111.375278 
z
" style="fill:#1f77b4;"/>
   </g>
   <g id="patch_131">
    <path clip-path="url(#p278d683e42)" d="M 274.241884 273.312 
L 275.863916 273.312 
L 275.863916 127.62915 
L 274.241884 127.62915 
z
" style="fill:#1f77b4;"/>
   </g>
   <g id="patch_132">
    <path clip-path="url(#p278d683e42)" d="M 275.863916 273.312 
L 277.485948 273.312 
L 277.485948 105.957321 
L 275.863916 105.957321 
z
" style="fill:#1f77b4;"/>
   </g>
   <g id="patch_133">
    <path clip-path="url(#p278d683e42)" d="M 277.485948 273.312 
L 279.10798 273.312 
L 279.10798 136.057083 
L 277.485948 136.057083 
z
" style="fill:#1f77b4;"/>
   </g>
   <g id="patch_134">
    <path clip-path="url(#p278d683e42)" d="M 279.10798 273.312 
L 280.730012 273.312 
L 280.730012 108.365302 
L 279.10798 108.365302 
z
" style="fill:#1f77b4;"/>
   </g>
   <g id="patch_135">
    <path clip-path="url(#p278d683e42)" d="M 280.730012 273.312 
L 282.352044 273.312 
L 282.352044 127.027154 
L 280.730012 127.027154 
z
" style="fill:#1f77b4;"/>
   </g>
   <g id="patch_136">
    <path clip-path="url(#p278d683e42)" d="M 282.352044 273.312 
L 283.974075 273.312 
L 283.974075 107.161311 
L 282.352044 107.161311 
z
" style="fill:#1f77b4;"/>
   </g>
   <g id="patch_137">
    <path clip-path="url(#p278d683e42)" d="M 283.974075 273.312 
L 285.596107 273.312 
L 285.596107 121.007202 
L 283.974075 121.007202 
z
" style="fill:#1f77b4;"/>
   </g>
   <g id="patch_138">
    <path clip-path="url(#p278d683e42)" d="M 285.596107 273.312 
L 287.218139 273.312 
L 287.218139 99.335373 
L 285.596107 99.335373 
z
" style="fill:#1f77b4;"/>
   </g>
   <g id="patch_139">
    <path clip-path="url(#p278d683e42)" d="M 287.218139 273.312 
L 288.840171 273.312 
L 288.840171 101.743354 
L 287.218139 101.743354 
z
" style="fill:#1f77b4;"/>
   </g>
   <g id="patch_140">
    <path clip-path="url(#p278d683e42)" d="M 288.840171 273.312 
L 290.462203 273.312 
L 290.462203 113.181264 
L 288.840171 113.181264 
z
" style="fill:#1f77b4;"/>
   </g>
   <g id="patch_141">
    <path clip-path="url(#p278d683e42)" d="M 290.462203 273.312 
L 292.084235 273.312 
L 292.084235 106.559316 
L 290.462203 106.559316 
z
" style="fill:#1f77b4;"/>
   </g>
   <g id="patch_142">
    <path clip-path="url(#p278d683e42)" d="M 292.084235 273.312 
L 293.706266 273.312 
L 293.706266 110.773283 
L 292.084235 110.773283 
z
" style="fill:#1f77b4;"/>
   </g>
   <g id="patch_143">
    <path clip-path="url(#p278d683e42)" d="M 293.706266 273.312 
L 295.328298 273.312 
L 295.328298 85.489482 
L 293.706266 85.489482 
z
" style="fill:#1f77b4;"/>
   </g>
   <g id="patch_144">
    <path clip-path="url(#p278d683e42)" d="M 295.328298 273.312 
L 296.95033 273.312 
L 296.95033 116.19124 
L 295.328298 116.19124 
z
" style="fill:#1f77b4;"/>
   </g>
   <g id="patch_145">
    <path clip-path="url(#p278d683e42)" d="M 296.95033 273.312 
L 298.572362 273.312 
L 298.572362 90.907439 
L 296.95033 90.907439 
z
" style="fill:#1f77b4;"/>
   </g>
   <g id="patch_146">
    <path clip-path="url(#p278d683e42)" d="M 298.572362 273.312 
L 300.194394 273.312 
L 300.194394 72.847582 
L 298.572362 72.847582 
z
" style="fill:#1f77b4;"/>
   </g>
   <g id="patch_147">
    <path clip-path="url(#p278d683e42)" d="M 300.194394 273.312 
L 301.816426 273.312 
L 301.816426 91.509435 
L 300.194394 91.509435 
z
" style="fill:#1f77b4;"/>
   </g>
   <g id="patch_148">
    <path clip-path="url(#p278d683e42)" d="M 301.816426 273.312 
L 303.438458 273.312 
L 303.438458 93.917416 
L 301.816426 93.917416 
z
" style="fill:#1f77b4;"/>
   </g>
   <g id="patch_149">
    <path clip-path="url(#p278d683e42)" d="M 303.438458 273.312 
L 305.060489 273.312 
L 305.060489 83.081501 
L 303.438458 83.081501 
z
" style="fill:#1f77b4;"/>
   </g>
   <g id="patch_150">
    <path clip-path="url(#p278d683e42)" d="M 305.060489 273.312 
L 306.682521 273.312 
L 306.682521 77.663544 
L 305.060489 77.663544 
z
" style="fill:#1f77b4;"/>
   </g>
   <g id="patch_151">
    <path clip-path="url(#p278d683e42)" d="M 306.682521 273.312 
L 308.304553 273.312 
L 308.304553 116.19124 
L 306.682521 116.19124 
z
" style="fill:#1f77b4;"/>
   </g>
   <g id="patch_152">
    <path clip-path="url(#p278d683e42)" d="M 308.304553 273.312 
L 309.926585 273.312 
L 309.926585 86.693473 
L 308.304553 86.693473 
z
" style="fill:#1f77b4;"/>
   </g>
   <g id="patch_153">
    <path clip-path="url(#p278d683e42)" d="M 309.926585 273.312 
L 311.548617 273.312 
L 311.548617 109.569292 
L 309.926585 109.569292 
z
" style="fill:#1f77b4;"/>
   </g>
   <g id="patch_154">
    <path clip-path="url(#p278d683e42)" d="M 311.548617 273.312 
L 313.170649 273.312 
L 313.170649 76.459553 
L 311.548617 76.459553 
z
" style="fill:#1f77b4;"/>
   </g>
   <g id="patch_155">
    <path clip-path="url(#p278d683e42)" d="M 313.170649 273.312 
L 314.79268 273.312 
L 314.79268 80.67352 
L 313.170649 80.67352 
z
" style="fill:#1f77b4;"/>
   </g>
   <g id="patch_156">
    <path clip-path="url(#p278d683e42)" d="M 314.79268 273.312 
L 316.414712 273.312 
L 316.414712 76.459553 
L 314.79268 76.459553 
z
" style="fill:#1f77b4;"/>
   </g>
   <g id="patch_157">
    <path clip-path="url(#p278d683e42)" d="M 316.414712 273.312 
L 318.036744 273.312 
L 318.036744 90.907439 
L 316.414712 90.907439 
z
" style="fill:#1f77b4;"/>
   </g>
   <g id="patch_158">
    <path clip-path="url(#p278d683e42)" d="M 318.036744 273.312 
L 319.658776 273.312 
L 319.658776 86.091477 
L 318.036744 86.091477 
z
" style="fill:#1f77b4;"/>
   </g>
   <g id="patch_159">
    <path clip-path="url(#p278d683e42)" d="M 319.658776 273.312 
L 321.280808 273.312 
L 321.280808 98.131382 
L 319.658776 98.131382 
z
" style="fill:#1f77b4;"/>
   </g>
   <g id="patch_160">
    <path clip-path="url(#p278d683e42)" d="M 321.280808 273.312 
L 322.90284 273.312 
L 322.90284 77.663544 
L 321.280808 77.663544 
z
" style="fill:#1f77b4;"/>
   </g>
   <g id="patch_161">
    <path clip-path="url(#p278d683e42)" d="M 322.90284 273.312 
L 324.524871 273.312 
L 324.524871 89.101454 
L 322.90284 89.101454 
z
" style="fill:#1f77b4;"/>
   </g>
   <g id="patch_162">
    <path clip-path="url(#p278d683e42)" d="M 324.524871 273.312 
L 326.146903 273.312 
L 326.146903 81.275515 
L 324.524871 81.275515 
z
" style="fill:#1f77b4;"/>
   </g>
   <g id="patch_163">
    <path clip-path="url(#p278d683e42)" d="M 326.146903 273.312 
L 327.768935 273.312 
L 327.768935 91.509435 
L 326.146903 91.509435 
z
" style="fill:#1f77b4;"/>
   </g>
   <g id="patch_164">
    <path clip-path="url(#p278d683e42)" d="M 327.768935 273.312 
L 329.390967 273.312 
L 329.390967 77.663544 
L 327.768935 77.663544 
z
" style="fill:#1f77b4;"/>
   </g>
   <g id="patch_165">
    <path clip-path="url(#p278d683e42)" d="M 329.390967 273.312 
L 331.012999 273.312 
L 331.012999 65.623639 
L 329.390967 65.623639 
z
" style="fill:#1f77b4;"/>
   </g>
   <g id="patch_166">
    <path clip-path="url(#p278d683e42)" d="M 331.012999 273.312 
L 332.635031 273.312 
L 332.635031 89.703449 
L 331.012999 89.703449 
z
" style="fill:#1f77b4;"/>
   </g>
   <g id="patch_167">
    <path clip-path="url(#p278d683e42)" d="M 332.635031 273.312 
L 334.257062 273.312 
L 334.257062 55.991715 
L 332.635031 55.991715 
z
" style="fill:#1f77b4;"/>
   </g>
   <g id="patch_168">
    <path clip-path="url(#p278d683e42)" d="M 334.257062 273.312 
L 335.879094 273.312 
L 335.879094 83.081501 
L 334.257062 83.081501 
z
" style="fill:#1f77b4;"/>
   </g>
   <g id="patch_169">
    <path clip-path="url(#p278d683e42)" d="M 335.879094 273.312 
L 337.501126 273.312 
L 337.501126 74.051572 
L 335.879094 74.051572 
z
" style="fill:#1f77b4;"/>
   </g>
   <g id="patch_170">
    <path clip-path="url(#p278d683e42)" d="M 337.501126 273.312 
L 339.123158 273.312 
L 339.123158 80.071525 
L 337.501126 80.071525 
z
" style="fill:#1f77b4;"/>
   </g>
   <g id="patch_171">
    <path clip-path="url(#p278d683e42)" d="M 339.123158 273.312 
L 340.74519 273.312 
L 340.74519 74.051572 
L 339.123158 74.051572 
z
" style="fill:#1f77b4;"/>
   </g>
   <g id="patch_172">
    <path clip-path="url(#p278d683e42)" d="M 340.74519 273.312 
L 342.367222 273.312 
L 342.367222 73.449577 
L 340.74519 73.449577 
z
" style="fill:#1f77b4;"/>
   </g>
   <g id="patch_173">
    <path clip-path="url(#p278d683e42)" d="M 342.367222 273.312 
L 343.989253 273.312 
L 343.989253 72.847582 
L 342.367222 72.847582 
z
" style="fill:#1f77b4;"/>
   </g>
   <g id="patch_174">
    <path clip-path="url(#p278d683e42)" d="M 343.989253 273.312 
L 345.611285 273.312 
L 345.611285 62.613663 
L 343.989253 62.613663 
z
" style="fill:#1f77b4;"/>
   </g>
   <g id="patch_175">
    <path clip-path="url(#p278d683e42)" d="M 345.611285 273.312 
L 347.233317 273.312 
L 347.233317 65.021644 
L 345.611285 65.021644 
z
" style="fill:#1f77b4;"/>
   </g>
   <g id="patch_176">
    <path clip-path="url(#p278d683e42)" d="M 347.233317 273.312 
L 348.855349 273.312 
L 348.855349 71.643591 
L 347.233317 71.643591 
z
" style="fill:#1f77b4;"/>
   </g>
   <g id="patch_177">
    <path clip-path="url(#p278d683e42)" d="M 348.855349 273.312 
L 350.477381 273.312 
L 350.477381 56.59371 
L 348.855349 56.59371 
z
" style="fill:#1f77b4;"/>
   </g>
   <g id="patch_178">
    <path clip-path="url(#p278d683e42)" d="M 350.477381 273.312 
L 352.099413 273.312 
L 352.099413 52.379743 
L 350.477381 52.379743 
z
" style="fill:#1f77b4;"/>
   </g>
   <g id="patch_179">
    <path clip-path="url(#p278d683e42)" d="M 352.099413 273.312 
L 353.721444 273.312 
L 353.721444 72.847582 
L 352.099413 72.847582 
z
" style="fill:#1f77b4;"/>
   </g>
   <g id="patch_180">
    <path clip-path="url(#p278d683e42)" d="M 353.721444 273.312 
L 355.343476 273.312 
L 355.343476 54.787724 
L 353.721444 54.787724 
z
" style="fill:#1f77b4;"/>
   </g>
   <g id="patch_181">
    <path clip-path="url(#p278d683e42)" d="M 355.343476 273.312 
L 356.965508 273.312 
L 356.965508 72.847582 
L 355.343476 72.847582 
z
" style="fill:#1f77b4;"/>
   </g>
   <g id="patch_182">
    <path clip-path="url(#p278d683e42)" d="M 356.965508 273.312 
L 358.58754 273.312 
L 358.58754 77.061549 
L 356.965508 77.061549 
z
" style="fill:#1f77b4;"/>
   </g>
   <g id="patch_183">
    <path clip-path="url(#p278d683e42)" d="M 358.58754 273.312 
L 360.209572 273.312 
L 360.209572 83.683496 
L 358.58754 83.683496 
z
" style="fill:#1f77b4;"/>
   </g>
   <g id="patch_184">
    <path clip-path="url(#p278d683e42)" d="M 360.209572 273.312 
L 361.831604 273.312 
L 361.831604 54.185729 
L 360.209572 54.185729 
z
" style="fill:#1f77b4;"/>
   </g>
   <g id="patch_185">
    <path clip-path="url(#p278d683e42)" d="M 361.831604 273.312 
L 363.453635 273.312 
L 363.453635 45.1558 
L 361.831604 45.1558 
z
" style="fill:#1f77b4;"/>
   </g>
   <g id="patch_186">
    <path clip-path="url(#p278d683e42)" d="M 363.453635 273.312 
L 365.075667 273.312 
L 365.075667 45.757796 
L 363.453635 45.757796 
z
" style="fill:#1f77b4;"/>
   </g>
   <g id="patch_187">
    <path clip-path="url(#p278d683e42)" d="M 365.075667 273.312 
L 366.697699 273.312 
L 366.697699 41.543829 
L 365.075667 41.543829 
z
" style="fill:#1f77b4;"/>
   </g>
   <g id="patch_188">
    <path clip-path="url(#p278d683e42)" d="M 366.697699 273.312 
L 368.319731 273.312 
L 368.319731 51.175753 
L 366.697699 51.175753 
z
" style="fill:#1f77b4;"/>
   </g>
   <g id="patch_189">
    <path clip-path="url(#p278d683e42)" d="M 368.319731 273.312 
L 369.941763 273.312 
L 369.941763 42.747819 
L 368.319731 42.747819 
z
" style="fill:#1f77b4;"/>
   </g>
   <g id="patch_190">
    <path clip-path="url(#p278d683e42)" d="M 369.941763 273.312 
L 371.563795 273.312 
L 371.563795 54.185729 
L 369.941763 54.185729 
z
" style="fill:#1f77b4;"/>
   </g>
   <g id="patch_191">
    <path clip-path="url(#p278d683e42)" d="M 371.563795 273.312 
L 373.185826 273.312 
L 373.185826 70.439601 
L 371.563795 70.439601 
z
" style="fill:#1f77b4;"/>
   </g>
   <g id="patch_192">
    <path clip-path="url(#p278d683e42)" d="M 373.185826 273.312 
L 374.807858 273.312 
L 374.807858 48.767772 
L 373.185826 48.767772 
z
" style="fill:#1f77b4;"/>
   </g>
   <g id="patch_193">
    <path clip-path="url(#p278d683e42)" d="M 374.807858 273.312 
L 376.42989 273.312 
L 376.42989 50.573758 
L 374.807858 50.573758 
z
" style="fill:#1f77b4;"/>
   </g>
   <g id="patch_194">
    <path clip-path="url(#p278d683e42)" d="M 376.42989 273.312 
L 378.051922 273.312 
L 378.051922 19.872 
L 376.42989 19.872 
z
" style="fill:#1f77b4;"/>
   </g>
   <g id="patch_195">
    <path clip-path="url(#p278d683e42)" d="M 378.051922 273.312 
L 379.673954 273.312 
L 379.673954 46.359791 
L 378.051922 46.359791 
z
" style="fill:#1f77b4;"/>
   </g>
   <g id="patch_196">
    <path clip-path="url(#p278d683e42)" d="M 379.673954 273.312 
L 381.295986 273.312 
L 381.295986 76.459553 
L 379.673954 76.459553 
z
" style="fill:#1f77b4;"/>
   </g>
   <g id="patch_197">
    <path clip-path="url(#p278d683e42)" d="M 381.295986 273.312 
L 382.918017 273.312 
L 382.918017 37.329862 
L 381.295986 37.329862 
z
" style="fill:#1f77b4;"/>
   </g>
   <g id="patch_198">
    <path clip-path="url(#p278d683e42)" d="M 382.918017 273.312 
L 384.540049 273.312 
L 384.540049 24.085967 
L 382.918017 24.085967 
z
" style="fill:#1f77b4;"/>
   </g>
   <g id="patch_199">
    <path clip-path="url(#p278d683e42)" d="M 384.540049 273.312 
L 386.162081 273.312 
L 386.162081 40.339838 
L 384.540049 40.339838 
z
" style="fill:#1f77b4;"/>
   </g>
   <g id="patch_200">
    <path clip-path="url(#p278d683e42)" d="M 386.162081 273.312 
L 387.784113 273.312 
L 387.784113 46.359791 
L 386.162081 46.359791 
z
" style="fill:#1f77b4;"/>
   </g>
   <g id="patch_201">
    <path clip-path="url(#p278d683e42)" d="M 387.784113 273.312 
L 389.406145 273.312 
L 389.406145 45.1558 
L 387.784113 45.1558 
z
" style="fill:#1f77b4;"/>
   </g>
   <g id="patch_202">
    <path clip-path="url(#p278d683e42)" d="M 389.406145 273.312 
L 391.028177 273.312 
L 391.028177 20.473995 
L 389.406145 20.473995 
z
" style="fill:#1f77b4;"/>
   </g>
   <g id="matplotlib.axis_1">
    <g id="xtick_1">
     <g id="line2d_1">
      <defs>
       <path d="M 0 0 
L 0 3.5 
" id="m3cc8a26377" style="stroke:#000000;stroke-width:0.8;"/>
      </defs>
      <g>
       <use style="stroke:#000000;stroke-width:0.8;" x="66.376477" xlink:href="#m3cc8a26377" y="273.312"/>
      </g>
     </g>
     <g id="text_1">
      <!-- 0.0 -->
      <g transform="translate(58.424915 287.910437)scale(0.1 -0.1)">
       <defs>
        <path d="M 2034 4250 
Q 1547 4250 1301 3770 
Q 1056 3291 1056 2328 
Q 1056 1369 1301 889 
Q 1547 409 2034 409 
Q 2525 409 2770 889 
Q 3016 1369 3016 2328 
Q 3016 3291 2770 3770 
Q 2525 4250 2034 4250 
z
M 2034 4750 
Q 2819 4750 3233 4129 
Q 3647 3509 3647 2328 
Q 3647 1150 3233 529 
Q 2819 -91 2034 -91 
Q 1250 -91 836 529 
Q 422 1150 422 2328 
Q 422 3509 836 4129 
Q 1250 4750 2034 4750 
z
" id="DejaVuSans-30" transform="scale(0.015625)"/>
        <path d="M 684 794 
L 1344 794 
L 1344 0 
L 684 0 
L 684 794 
z
" id="DejaVuSans-2e" transform="scale(0.015625)"/>
       </defs>
       <use xlink:href="#DejaVuSans-30"/>
       <use x="63.623047" xlink:href="#DejaVuSans-2e"/>
       <use x="95.410156" xlink:href="#DejaVuSans-30"/>
      </g>
     </g>
    </g>
    <g id="xtick_2">
     <g id="line2d_2">
      <g>
       <use style="stroke:#000000;stroke-width:0.8;" x="131.307386" xlink:href="#m3cc8a26377" y="273.312"/>
      </g>
     </g>
     <g id="text_2">
      <!-- 0.2 -->
      <g transform="translate(123.355824 287.910437)scale(0.1 -0.1)">
       <defs>
        <path d="M 1228 531 
L 3431 531 
L 3431 0 
L 469 0 
L 469 531 
Q 828 903 1448 1529 
Q 2069 2156 2228 2338 
Q 2531 2678 2651 2914 
Q 2772 3150 2772 3378 
Q 2772 3750 2511 3984 
Q 2250 4219 1831 4219 
Q 1534 4219 1204 4116 
Q 875 4013 500 3803 
L 500 4441 
Q 881 4594 1212 4672 
Q 1544 4750 1819 4750 
Q 2544 4750 2975 4387 
Q 3406 4025 3406 3419 
Q 3406 3131 3298 2873 
Q 3191 2616 2906 2266 
Q 2828 2175 2409 1742 
Q 1991 1309 1228 531 
z
" id="DejaVuSans-32" transform="scale(0.015625)"/>
       </defs>
       <use xlink:href="#DejaVuSans-30"/>
       <use x="63.623047" xlink:href="#DejaVuSans-2e"/>
       <use x="95.410156" xlink:href="#DejaVuSans-32"/>
      </g>
     </g>
    </g>
    <g id="xtick_3">
     <g id="line2d_3">
      <g>
       <use style="stroke:#000000;stroke-width:0.8;" x="196.238295" xlink:href="#m3cc8a26377" y="273.312"/>
      </g>
     </g>
     <g id="text_3">
      <!-- 0.4 -->
      <g transform="translate(188.286733 287.910437)scale(0.1 -0.1)">
       <defs>
        <path d="M 2419 4116 
L 825 1625 
L 2419 1625 
L 2419 4116 
z
M 2253 4666 
L 3047 4666 
L 3047 1625 
L 3713 1625 
L 3713 1100 
L 3047 1100 
L 3047 0 
L 2419 0 
L 2419 1100 
L 313 1100 
L 313 1709 
L 2253 4666 
z
" id="DejaVuSans-34" transform="scale(0.015625)"/>
       </defs>
       <use xlink:href="#DejaVuSans-30"/>
       <use x="63.623047" xlink:href="#DejaVuSans-2e"/>
       <use x="95.410156" xlink:href="#DejaVuSans-34"/>
      </g>
     </g>
    </g>
    <g id="xtick_4">
     <g id="line2d_4">
      <g>
       <use style="stroke:#000000;stroke-width:0.8;" x="261.169205" xlink:href="#m3cc8a26377" y="273.312"/>
      </g>
     </g>
     <g id="text_4">
      <!-- 0.6 -->
      <g transform="translate(253.217642 287.910437)scale(0.1 -0.1)">
       <defs>
        <path d="M 2113 2584 
Q 1688 2584 1439 2293 
Q 1191 2003 1191 1497 
Q 1191 994 1439 701 
Q 1688 409 2113 409 
Q 2538 409 2786 701 
Q 3034 994 3034 1497 
Q 3034 2003 2786 2293 
Q 2538 2584 2113 2584 
z
M 3366 4563 
L 3366 3988 
Q 3128 4100 2886 4159 
Q 2644 4219 2406 4219 
Q 1781 4219 1451 3797 
Q 1122 3375 1075 2522 
Q 1259 2794 1537 2939 
Q 1816 3084 2150 3084 
Q 2853 3084 3261 2657 
Q 3669 2231 3669 1497 
Q 3669 778 3244 343 
Q 2819 -91 2113 -91 
Q 1303 -91 875 529 
Q 447 1150 447 2328 
Q 447 3434 972 4092 
Q 1497 4750 2381 4750 
Q 2619 4750 2861 4703 
Q 3103 4656 3366 4563 
z
" id="DejaVuSans-36" transform="scale(0.015625)"/>
       </defs>
       <use xlink:href="#DejaVuSans-30"/>
       <use x="63.623047" xlink:href="#DejaVuSans-2e"/>
       <use x="95.410156" xlink:href="#DejaVuSans-36"/>
      </g>
     </g>
    </g>
    <g id="xtick_5">
     <g id="line2d_5">
      <g>
       <use style="stroke:#000000;stroke-width:0.8;" x="326.100114" xlink:href="#m3cc8a26377" y="273.312"/>
      </g>
     </g>
     <g id="text_5">
      <!-- 0.8 -->
      <g transform="translate(318.148551 287.910437)scale(0.1 -0.1)">
       <defs>
        <path d="M 2034 2216 
Q 1584 2216 1326 1975 
Q 1069 1734 1069 1313 
Q 1069 891 1326 650 
Q 1584 409 2034 409 
Q 2484 409 2743 651 
Q 3003 894 3003 1313 
Q 3003 1734 2745 1975 
Q 2488 2216 2034 2216 
z
M 1403 2484 
Q 997 2584 770 2862 
Q 544 3141 544 3541 
Q 544 4100 942 4425 
Q 1341 4750 2034 4750 
Q 2731 4750 3128 4425 
Q 3525 4100 3525 3541 
Q 3525 3141 3298 2862 
Q 3072 2584 2669 2484 
Q 3125 2378 3379 2068 
Q 3634 1759 3634 1313 
Q 3634 634 3220 271 
Q 2806 -91 2034 -91 
Q 1263 -91 848 271 
Q 434 634 434 1313 
Q 434 1759 690 2068 
Q 947 2378 1403 2484 
z
M 1172 3481 
Q 1172 3119 1398 2916 
Q 1625 2713 2034 2713 
Q 2441 2713 2670 2916 
Q 2900 3119 2900 3481 
Q 2900 3844 2670 4047 
Q 2441 4250 2034 4250 
Q 1625 4250 1398 4047 
Q 1172 3844 1172 3481 
z
" id="DejaVuSans-38" transform="scale(0.015625)"/>
       </defs>
       <use xlink:href="#DejaVuSans-30"/>
       <use x="63.623047" xlink:href="#DejaVuSans-2e"/>
       <use x="95.410156" xlink:href="#DejaVuSans-38"/>
      </g>
     </g>
    </g>
    <g id="xtick_6">
     <g id="line2d_6">
      <g>
       <use style="stroke:#000000;stroke-width:0.8;" x="391.031023" xlink:href="#m3cc8a26377" y="273.312"/>
      </g>
     </g>
     <g id="text_6">
      <!-- 1.0 -->
      <g transform="translate(383.07946 287.910437)scale(0.1 -0.1)">
       <defs>
        <path d="M 794 531 
L 1825 531 
L 1825 4091 
L 703 3866 
L 703 4441 
L 1819 4666 
L 2450 4666 
L 2450 531 
L 3481 531 
L 3481 0 
L 794 0 
L 794 531 
z
" id="DejaVuSans-31" transform="scale(0.015625)"/>
       </defs>
       <use xlink:href="#DejaVuSans-31"/>
       <use x="63.623047" xlink:href="#DejaVuSans-2e"/>
       <use x="95.410156" xlink:href="#DejaVuSans-30"/>
      </g>
     </g>
    </g>
    <g id="text_7">
     <!-- Propagation direction -->
     <g transform="translate(175.221719 301.588562)scale(0.1 -0.1)">
      <defs>
       <path d="M 1259 4147 
L 1259 2394 
L 2053 2394 
Q 2494 2394 2734 2622 
Q 2975 2850 2975 3272 
Q 2975 3691 2734 3919 
Q 2494 4147 2053 4147 
L 1259 4147 
z
M 628 4666 
L 2053 4666 
Q 2838 4666 3239 4311 
Q 3641 3956 3641 3272 
Q 3641 2581 3239 2228 
Q 2838 1875 2053 1875 
L 1259 1875 
L 1259 0 
L 628 0 
L 628 4666 
z
" id="DejaVuSans-50" transform="scale(0.015625)"/>
       <path d="M 2631 2963 
Q 2534 3019 2420 3045 
Q 2306 3072 2169 3072 
Q 1681 3072 1420 2755 
Q 1159 2438 1159 1844 
L 1159 0 
L 581 0 
L 581 3500 
L 1159 3500 
L 1159 2956 
Q 1341 3275 1631 3429 
Q 1922 3584 2338 3584 
Q 2397 3584 2469 3576 
Q 2541 3569 2628 3553 
L 2631 2963 
z
" id="DejaVuSans-72" transform="scale(0.015625)"/>
       <path d="M 1959 3097 
Q 1497 3097 1228 2736 
Q 959 2375 959 1747 
Q 959 1119 1226 758 
Q 1494 397 1959 397 
Q 2419 397 2687 759 
Q 2956 1122 2956 1747 
Q 2956 2369 2687 2733 
Q 2419 3097 1959 3097 
z
M 1959 3584 
Q 2709 3584 3137 3096 
Q 3566 2609 3566 1747 
Q 3566 888 3137 398 
Q 2709 -91 1959 -91 
Q 1206 -91 779 398 
Q 353 888 353 1747 
Q 353 2609 779 3096 
Q 1206 3584 1959 3584 
z
" id="DejaVuSans-6f" transform="scale(0.015625)"/>
       <path d="M 1159 525 
L 1159 -1331 
L 581 -1331 
L 581 3500 
L 1159 3500 
L 1159 2969 
Q 1341 3281 1617 3432 
Q 1894 3584 2278 3584 
Q 2916 3584 3314 3078 
Q 3713 2572 3713 1747 
Q 3713 922 3314 415 
Q 2916 -91 2278 -91 
Q 1894 -91 1617 61 
Q 1341 213 1159 525 
z
M 3116 1747 
Q 3116 2381 2855 2742 
Q 2594 3103 2138 3103 
Q 1681 3103 1420 2742 
Q 1159 2381 1159 1747 
Q 1159 1113 1420 752 
Q 1681 391 2138 391 
Q 2594 391 2855 752 
Q 3116 1113 3116 1747 
z
" id="DejaVuSans-70" transform="scale(0.015625)"/>
       <path d="M 2194 1759 
Q 1497 1759 1228 1600 
Q 959 1441 959 1056 
Q 959 750 1161 570 
Q 1363 391 1709 391 
Q 2188 391 2477 730 
Q 2766 1069 2766 1631 
L 2766 1759 
L 2194 1759 
z
M 3341 1997 
L 3341 0 
L 2766 0 
L 2766 531 
Q 2569 213 2275 61 
Q 1981 -91 1556 -91 
Q 1019 -91 701 211 
Q 384 513 384 1019 
Q 384 1609 779 1909 
Q 1175 2209 1959 2209 
L 2766 2209 
L 2766 2266 
Q 2766 2663 2505 2880 
Q 2244 3097 1772 3097 
Q 1472 3097 1187 3025 
Q 903 2953 641 2809 
L 641 3341 
Q 956 3463 1253 3523 
Q 1550 3584 1831 3584 
Q 2591 3584 2966 3190 
Q 3341 2797 3341 1997 
z
" id="DejaVuSans-61" transform="scale(0.015625)"/>
       <path d="M 2906 1791 
Q 2906 2416 2648 2759 
Q 2391 3103 1925 3103 
Q 1463 3103 1205 2759 
Q 947 2416 947 1791 
Q 947 1169 1205 825 
Q 1463 481 1925 481 
Q 2391 481 2648 825 
Q 2906 1169 2906 1791 
z
M 3481 434 
Q 3481 -459 3084 -895 
Q 2688 -1331 1869 -1331 
Q 1566 -1331 1297 -1286 
Q 1028 -1241 775 -1147 
L 775 -588 
Q 1028 -725 1275 -790 
Q 1522 -856 1778 -856 
Q 2344 -856 2625 -561 
Q 2906 -266 2906 331 
L 2906 616 
Q 2728 306 2450 153 
Q 2172 0 1784 0 
Q 1141 0 747 490 
Q 353 981 353 1791 
Q 353 2603 747 3093 
Q 1141 3584 1784 3584 
Q 2172 3584 2450 3431 
Q 2728 3278 2906 2969 
L 2906 3500 
L 3481 3500 
L 3481 434 
z
" id="DejaVuSans-67" transform="scale(0.015625)"/>
       <path d="M 1172 4494 
L 1172 3500 
L 2356 3500 
L 2356 3053 
L 1172 3053 
L 1172 1153 
Q 1172 725 1289 603 
Q 1406 481 1766 481 
L 2356 481 
L 2356 0 
L 1766 0 
Q 1100 0 847 248 
Q 594 497 594 1153 
L 594 3053 
L 172 3053 
L 172 3500 
L 594 3500 
L 594 4494 
L 1172 4494 
z
" id="DejaVuSans-74" transform="scale(0.015625)"/>
       <path d="M 603 3500 
L 1178 3500 
L 1178 0 
L 603 0 
L 603 3500 
z
M 603 4863 
L 1178 4863 
L 1178 4134 
L 603 4134 
L 603 4863 
z
" id="DejaVuSans-69" transform="scale(0.015625)"/>
       <path d="M 3513 2113 
L 3513 0 
L 2938 0 
L 2938 2094 
Q 2938 2591 2744 2837 
Q 2550 3084 2163 3084 
Q 1697 3084 1428 2787 
Q 1159 2491 1159 1978 
L 1159 0 
L 581 0 
L 581 3500 
L 1159 3500 
L 1159 2956 
Q 1366 3272 1645 3428 
Q 1925 3584 2291 3584 
Q 2894 3584 3203 3211 
Q 3513 2838 3513 2113 
z
" id="DejaVuSans-6e" transform="scale(0.015625)"/>
       <path id="DejaVuSans-20" transform="scale(0.015625)"/>
       <path d="M 2906 2969 
L 2906 4863 
L 3481 4863 
L 3481 0 
L 2906 0 
L 2906 525 
Q 2725 213 2448 61 
Q 2172 -91 1784 -91 
Q 1150 -91 751 415 
Q 353 922 353 1747 
Q 353 2572 751 3078 
Q 1150 3584 1784 3584 
Q 2172 3584 2448 3432 
Q 2725 3281 2906 2969 
z
M 947 1747 
Q 947 1113 1208 752 
Q 1469 391 1925 391 
Q 2381 391 2643 752 
Q 2906 1113 2906 1747 
Q 2906 2381 2643 2742 
Q 2381 3103 1925 3103 
Q 1469 3103 1208 2742 
Q 947 2381 947 1747 
z
" id="DejaVuSans-64" transform="scale(0.015625)"/>
       <path d="M 3597 1894 
L 3597 1613 
L 953 1613 
Q 991 1019 1311 708 
Q 1631 397 2203 397 
Q 2534 397 2845 478 
Q 3156 559 3463 722 
L 3463 178 
Q 3153 47 2828 -22 
Q 2503 -91 2169 -91 
Q 1331 -91 842 396 
Q 353 884 353 1716 
Q 353 2575 817 3079 
Q 1281 3584 2069 3584 
Q 2775 3584 3186 3129 
Q 3597 2675 3597 1894 
z
M 3022 2063 
Q 3016 2534 2758 2815 
Q 2500 3097 2075 3097 
Q 1594 3097 1305 2825 
Q 1016 2553 972 2059 
L 3022 2063 
z
" id="DejaVuSans-65" transform="scale(0.015625)"/>
       <path d="M 3122 3366 
L 3122 2828 
Q 2878 2963 2633 3030 
Q 2388 3097 2138 3097 
Q 1578 3097 1268 2742 
Q 959 2388 959 1747 
Q 959 1106 1268 751 
Q 1578 397 2138 397 
Q 2388 397 2633 464 
Q 2878 531 3122 666 
L 3122 134 
Q 2881 22 2623 -34 
Q 2366 -91 2075 -91 
Q 1284 -91 818 406 
Q 353 903 353 1747 
Q 353 2603 823 3093 
Q 1294 3584 2113 3584 
Q 2378 3584 2631 3529 
Q 2884 3475 3122 3366 
z
" id="DejaVuSans-63" transform="scale(0.015625)"/>
      </defs>
      <use xlink:href="#DejaVuSans-50"/>
      <use x="58.552734" xlink:href="#DejaVuSans-72"/>
      <use x="97.416016" xlink:href="#DejaVuSans-6f"/>
      <use x="158.597656" xlink:href="#DejaVuSans-70"/>
      <use x="222.074219" xlink:href="#DejaVuSans-61"/>
      <use x="283.353516" xlink:href="#DejaVuSans-67"/>
      <use x="346.830078" xlink:href="#DejaVuSans-61"/>
      <use x="408.109375" xlink:href="#DejaVuSans-74"/>
      <use x="447.318359" xlink:href="#DejaVuSans-69"/>
      <use x="475.101562" xlink:href="#DejaVuSans-6f"/>
      <use x="536.283203" xlink:href="#DejaVuSans-6e"/>
      <use x="599.662109" xlink:href="#DejaVuSans-20"/>
      <use x="631.449219" xlink:href="#DejaVuSans-64"/>
      <use x="694.925781" xlink:href="#DejaVuSans-69"/>
      <use x="722.708984" xlink:href="#DejaVuSans-72"/>
      <use x="761.572266" xlink:href="#DejaVuSans-65"/>
      <use x="823.095703" xlink:href="#DejaVuSans-63"/>
      <use x="878.076172" xlink:href="#DejaVuSans-74"/>
      <use x="917.285156" xlink:href="#DejaVuSans-69"/>
      <use x="945.068359" xlink:href="#DejaVuSans-6f"/>
      <use x="1006.25" xlink:href="#DejaVuSans-6e"/>
     </g>
    </g>
   </g>
   <g id="matplotlib.axis_2">
    <g id="ytick_1">
     <g id="line2d_7">
      <defs>
       <path d="M 0 0 
L -3.5 0 
" id="m8220341039" style="stroke:#000000;stroke-width:0.8;"/>
      </defs>
      <g>
       <use style="stroke:#000000;stroke-width:0.8;" x="50.14375" xlink:href="#m8220341039" y="273.312"/>
      </g>
     </g>
     <g id="text_8">
      <!-- 0.00 -->
      <g transform="translate(20.878125 277.111219)scale(0.1 -0.1)">
       <use xlink:href="#DejaVuSans-30"/>
       <use x="63.623047" xlink:href="#DejaVuSans-2e"/>
       <use x="95.410156" xlink:href="#DejaVuSans-30"/>
       <use x="159.033203" xlink:href="#DejaVuSans-30"/>
      </g>
     </g>
    </g>
    <g id="ytick_2">
     <g id="line2d_8">
      <g>
       <use style="stroke:#000000;stroke-width:0.8;" x="50.14375" xlink:href="#m8220341039" y="243.235247"/>
      </g>
     </g>
     <g id="text_9">
      <!-- 0.25 -->
      <g transform="translate(20.878125 247.034466)scale(0.1 -0.1)">
       <defs>
        <path d="M 691 4666 
L 3169 4666 
L 3169 4134 
L 1269 4134 
L 1269 2991 
Q 1406 3038 1543 3061 
Q 1681 3084 1819 3084 
Q 2600 3084 3056 2656 
Q 3513 2228 3513 1497 
Q 3513 744 3044 326 
Q 2575 -91 1722 -91 
Q 1428 -91 1123 -41 
Q 819 9 494 109 
L 494 744 
Q 775 591 1075 516 
Q 1375 441 1709 441 
Q 2250 441 2565 725 
Q 2881 1009 2881 1497 
Q 2881 1984 2565 2268 
Q 2250 2553 1709 2553 
Q 1456 2553 1204 2497 
Q 953 2441 691 2322 
L 691 4666 
z
" id="DejaVuSans-35" transform="scale(0.015625)"/>
       </defs>
       <use xlink:href="#DejaVuSans-30"/>
       <use x="63.623047" xlink:href="#DejaVuSans-2e"/>
       <use x="95.410156" xlink:href="#DejaVuSans-32"/>
       <use x="159.033203" xlink:href="#DejaVuSans-35"/>
      </g>
     </g>
    </g>
    <g id="ytick_3">
     <g id="line2d_9">
      <g>
       <use style="stroke:#000000;stroke-width:0.8;" x="50.14375" xlink:href="#m8220341039" y="213.158494"/>
      </g>
     </g>
     <g id="text_10">
      <!-- 0.50 -->
      <g transform="translate(20.878125 216.957713)scale(0.1 -0.1)">
       <use xlink:href="#DejaVuSans-30"/>
       <use x="63.623047" xlink:href="#DejaVuSans-2e"/>
       <use x="95.410156" xlink:href="#DejaVuSans-35"/>
       <use x="159.033203" xlink:href="#DejaVuSans-30"/>
      </g>
     </g>
    </g>
    <g id="ytick_4">
     <g id="line2d_10">
      <g>
       <use style="stroke:#000000;stroke-width:0.8;" x="50.14375" xlink:href="#m8220341039" y="183.081741"/>
      </g>
     </g>
     <g id="text_11">
      <!-- 0.75 -->
      <g transform="translate(20.878125 186.88096)scale(0.1 -0.1)">
       <defs>
        <path d="M 525 4666 
L 3525 4666 
L 3525 4397 
L 1831 0 
L 1172 0 
L 2766 4134 
L 525 4134 
L 525 4666 
z
" id="DejaVuSans-37" transform="scale(0.015625)"/>
       </defs>
       <use xlink:href="#DejaVuSans-30"/>
       <use x="63.623047" xlink:href="#DejaVuSans-2e"/>
       <use x="95.410156" xlink:href="#DejaVuSans-37"/>
       <use x="159.033203" xlink:href="#DejaVuSans-35"/>
      </g>
     </g>
    </g>
    <g id="ytick_5">
     <g id="line2d_11">
      <g>
       <use style="stroke:#000000;stroke-width:0.8;" x="50.14375" xlink:href="#m8220341039" y="153.004988"/>
      </g>
     </g>
     <g id="text_12">
      <!-- 1.00 -->
      <g transform="translate(20.878125 156.804207)scale(0.1 -0.1)">
       <use xlink:href="#DejaVuSans-31"/>
       <use x="63.623047" xlink:href="#DejaVuSans-2e"/>
       <use x="95.410156" xlink:href="#DejaVuSans-30"/>
       <use x="159.033203" xlink:href="#DejaVuSans-30"/>
      </g>
     </g>
    </g>
    <g id="ytick_6">
     <g id="line2d_12">
      <g>
       <use style="stroke:#000000;stroke-width:0.8;" x="50.14375" xlink:href="#m8220341039" y="122.928235"/>
      </g>
     </g>
     <g id="text_13">
      <!-- 1.25 -->
      <g transform="translate(20.878125 126.727453)scale(0.1 -0.1)">
       <use xlink:href="#DejaVuSans-31"/>
       <use x="63.623047" xlink:href="#DejaVuSans-2e"/>
       <use x="95.410156" xlink:href="#DejaVuSans-32"/>
       <use x="159.033203" xlink:href="#DejaVuSans-35"/>
      </g>
     </g>
    </g>
    <g id="ytick_7">
     <g id="line2d_13">
      <g>
       <use style="stroke:#000000;stroke-width:0.8;" x="50.14375" xlink:href="#m8220341039" y="92.851482"/>
      </g>
     </g>
     <g id="text_14">
      <!-- 1.50 -->
      <g transform="translate(20.878125 96.6507)scale(0.1 -0.1)">
       <use xlink:href="#DejaVuSans-31"/>
       <use x="63.623047" xlink:href="#DejaVuSans-2e"/>
       <use x="95.410156" xlink:href="#DejaVuSans-35"/>
       <use x="159.033203" xlink:href="#DejaVuSans-30"/>
      </g>
     </g>
    </g>
    <g id="ytick_8">
     <g id="line2d_14">
      <g>
       <use style="stroke:#000000;stroke-width:0.8;" x="50.14375" xlink:href="#m8220341039" y="62.774729"/>
      </g>
     </g>
     <g id="text_15">
      <!-- 1.75 -->
      <g transform="translate(20.878125 66.573947)scale(0.1 -0.1)">
       <use xlink:href="#DejaVuSans-31"/>
       <use x="63.623047" xlink:href="#DejaVuSans-2e"/>
       <use x="95.410156" xlink:href="#DejaVuSans-37"/>
       <use x="159.033203" xlink:href="#DejaVuSans-35"/>
      </g>
     </g>
    </g>
    <g id="ytick_9">
     <g id="line2d_15">
      <g>
       <use style="stroke:#000000;stroke-width:0.8;" x="50.14375" xlink:href="#m8220341039" y="32.697976"/>
      </g>
     </g>
     <g id="text_16">
      <!-- 2.00 -->
      <g transform="translate(20.878125 36.497194)scale(0.1 -0.1)">
       <use xlink:href="#DejaVuSans-32"/>
       <use x="63.623047" xlink:href="#DejaVuSans-2e"/>
       <use x="95.410156" xlink:href="#DejaVuSans-30"/>
       <use x="159.033203" xlink:href="#DejaVuSans-30"/>
      </g>
     </g>
    </g>
    <g id="text_17">
     <!-- Probability density -->
     <g transform="translate(14.798438 186.606781)rotate(-90)scale(0.1 -0.1)">
      <defs>
       <path d="M 3116 1747 
Q 3116 2381 2855 2742 
Q 2594 3103 2138 3103 
Q 1681 3103 1420 2742 
Q 1159 2381 1159 1747 
Q 1159 1113 1420 752 
Q 1681 391 2138 391 
Q 2594 391 2855 752 
Q 3116 1113 3116 1747 
z
M 1159 2969 
Q 1341 3281 1617 3432 
Q 1894 3584 2278 3584 
Q 2916 3584 3314 3078 
Q 3713 2572 3713 1747 
Q 3713 922 3314 415 
Q 2916 -91 2278 -91 
Q 1894 -91 1617 61 
Q 1341 213 1159 525 
L 1159 0 
L 581 0 
L 581 4863 
L 1159 4863 
L 1159 2969 
z
" id="DejaVuSans-62" transform="scale(0.015625)"/>
       <path d="M 603 4863 
L 1178 4863 
L 1178 0 
L 603 0 
L 603 4863 
z
" id="DejaVuSans-6c" transform="scale(0.015625)"/>
       <path d="M 2059 -325 
Q 1816 -950 1584 -1140 
Q 1353 -1331 966 -1331 
L 506 -1331 
L 506 -850 
L 844 -850 
Q 1081 -850 1212 -737 
Q 1344 -625 1503 -206 
L 1606 56 
L 191 3500 
L 800 3500 
L 1894 763 
L 2988 3500 
L 3597 3500 
L 2059 -325 
z
" id="DejaVuSans-79" transform="scale(0.015625)"/>
       <path d="M 2834 3397 
L 2834 2853 
Q 2591 2978 2328 3040 
Q 2066 3103 1784 3103 
Q 1356 3103 1142 2972 
Q 928 2841 928 2578 
Q 928 2378 1081 2264 
Q 1234 2150 1697 2047 
L 1894 2003 
Q 2506 1872 2764 1633 
Q 3022 1394 3022 966 
Q 3022 478 2636 193 
Q 2250 -91 1575 -91 
Q 1294 -91 989 -36 
Q 684 19 347 128 
L 347 722 
Q 666 556 975 473 
Q 1284 391 1588 391 
Q 1994 391 2212 530 
Q 2431 669 2431 922 
Q 2431 1156 2273 1281 
Q 2116 1406 1581 1522 
L 1381 1569 
Q 847 1681 609 1914 
Q 372 2147 372 2553 
Q 372 3047 722 3315 
Q 1072 3584 1716 3584 
Q 2034 3584 2315 3537 
Q 2597 3491 2834 3397 
z
" id="DejaVuSans-73" transform="scale(0.015625)"/>
      </defs>
      <use xlink:href="#DejaVuSans-50"/>
      <use x="58.552734" xlink:href="#DejaVuSans-72"/>
      <use x="97.416016" xlink:href="#DejaVuSans-6f"/>
      <use x="158.597656" xlink:href="#DejaVuSans-62"/>
      <use x="222.074219" xlink:href="#DejaVuSans-61"/>
      <use x="283.353516" xlink:href="#DejaVuSans-62"/>
      <use x="346.830078" xlink:href="#DejaVuSans-69"/>
      <use x="374.613281" xlink:href="#DejaVuSans-6c"/>
      <use x="402.396484" xlink:href="#DejaVuSans-69"/>
      <use x="430.179688" xlink:href="#DejaVuSans-74"/>
      <use x="469.388672" xlink:href="#DejaVuSans-79"/>
      <use x="528.568359" xlink:href="#DejaVuSans-20"/>
      <use x="560.355469" xlink:href="#DejaVuSans-64"/>
      <use x="623.832031" xlink:href="#DejaVuSans-65"/>
      <use x="685.355469" xlink:href="#DejaVuSans-6e"/>
      <use x="748.734375" xlink:href="#DejaVuSans-73"/>
      <use x="800.833984" xlink:href="#DejaVuSans-69"/>
      <use x="828.617188" xlink:href="#DejaVuSans-74"/>
      <use x="867.826172" xlink:href="#DejaVuSans-79"/>
     </g>
    </g>
   </g>
   <g id="line2d_16">
    <path clip-path="url(#p278d683e42)" d="M 66.376477 273.312 
L 391.031023 32.697976 
L 391.031023 32.697976 
" style="fill:none;stroke:#ff7f0e;stroke-linecap:square;stroke-width:1.5;"/>
   </g>
   <g id="patch_203">
    <path d="M 50.14375 273.312 
L 50.14375 7.2 
" style="fill:none;stroke:#000000;stroke-linecap:square;stroke-linejoin:miter;stroke-width:0.8;"/>
   </g>
   <g id="patch_204">
    <path d="M 407.26375 273.312 
L 407.26375 7.2 
" style="fill:none;stroke:#000000;stroke-linecap:square;stroke-linejoin:miter;stroke-width:0.8;"/>
   </g>
   <g id="patch_205">
    <path d="M 50.14375 273.312 
L 407.26375 273.312 
" style="fill:none;stroke:#000000;stroke-linecap:square;stroke-linejoin:miter;stroke-width:0.8;"/>
   </g>
   <g id="patch_206">
    <path d="M 50.14375 7.2 
L 407.26375 7.2 
" style="fill:none;stroke:#000000;stroke-linecap:square;stroke-linejoin:miter;stroke-width:0.8;"/>
   </g>
  </g>
 </g>
 <defs>
  <clipPath id="p278d683e42">
   <rect height="266.112" width="357.12" x="50.14375" y="7.2"/>
  </clipPath>
 </defs>
</svg>
