<?xml version="1.0" encoding="utf-8" standalone="no"?>
<!DOCTYPE svg PUBLIC "-//W3C//DTD SVG 1.1//EN"
  "http://www.w3.org/Graphics/SVG/1.1/DTD/svg11.dtd">
<svg height="310.86825pt" version="1.1" viewBox="0 0 408.10125 310.86825" width="408.10125pt" xmlns="http://www.w3.org/2000/svg" xmlns:xlink="http://www.w3.org/1999/xlink">
 <metadata>
  <rdf:RDF xmlns:cc="http://creativecommons.org/ns#" xmlns:dc="http://purl.org/dc/elements/1.1/" xmlns:rdf="http://www.w3.org/1999/02/22-rdf-syntax-ns#">
   <cc:Work>
    <dc:type rdf:resource="http://purl.org/dc/dcmitype/StillImage"/>
    <dc:date>2021-08-24T04:27:53.467436</dc:date>
    <dc:format>image/svg+xml</dc:format>
    <dc:creator>
     <cc:Agent>
      <dc:title>Matplotlib v3.4.3, https://matplotlib.org/</dc:title>
     </cc:Agent>
    </dc:creator>
   </cc:Work>
  </rdf:RDF>
 </metadata>
 <defs>
  <style type="text/css">*{stroke-linecap:butt;stroke-linejoin:round;}</style>
 </defs>
 <g id="figure_1">
  <g id="patch_1">
   <path d="M 0 310.86825 
L 408.10125 310.86825 
L 408.10125 0 
L 0 0 
z
" style="fill:#ffffff;"/>
  </g>
  <g id="axes_1">
   <g id="patch_2">
    <path d="M 43.78125 273.312 
L 400.90125 273.312 
L 400.90125 7.2 
L 43.78125 7.2 
z
" style="fill:#ffffff;"/>
   </g>
   <g id="patch_3">
    <path clip-path="url(#p79f686c795)" d="M 60.764614 273.312 
L 62.378567 273.312 
L 62.378567 269.660127 
L 60.764614 269.660127 
z
" style="fill:#1f77b4;"/>
   </g>
   <g id="patch_4">
    <path clip-path="url(#p79f686c795)" d="M 62.378567 273.312 
L 63.992521 273.312 
L 63.992521 266.738628 
L 62.378567 266.738628 
z
" style="fill:#1f77b4;"/>
   </g>
   <g id="patch_5">
    <path clip-path="url(#p79f686c795)" d="M 63.992521 273.312 
L 65.606474 273.312 
L 65.606474 255.783009 
L 63.992521 255.783009 
z
" style="fill:#1f77b4;"/>
   </g>
   <g id="patch_6">
    <path clip-path="url(#p79f686c795)" d="M 65.606474 273.312 
L 67.220427 273.312 
L 67.220427 260.165256 
L 65.606474 260.165256 
z
" style="fill:#1f77b4;"/>
   </g>
   <g id="patch_7">
    <path clip-path="url(#p79f686c795)" d="M 67.220427 273.312 
L 68.83438 273.312 
L 68.83438 263.086755 
L 67.220427 263.086755 
z
" style="fill:#1f77b4;"/>
   </g>
   <g id="patch_8">
    <path clip-path="url(#p79f686c795)" d="M 68.83438 273.312 
L 70.448334 273.312 
L 70.448334 252.131135 
L 68.83438 252.131135 
z
" style="fill:#1f77b4;"/>
   </g>
   <g id="patch_9">
    <path clip-path="url(#p79f686c795)" d="M 70.448334 273.312 
L 72.062287 273.312 
L 72.062287 249.940012 
L 70.448334 249.940012 
z
" style="fill:#1f77b4;"/>
   </g>
   <g id="patch_10">
    <path clip-path="url(#p79f686c795)" d="M 72.062287 273.312 
L 73.67624 273.312 
L 73.67624 243.36664 
L 72.062287 243.36664 
z
" style="fill:#1f77b4;"/>
   </g>
   <g id="patch_11">
    <path clip-path="url(#p79f686c795)" d="M 73.67624 273.312 
L 75.290194 273.312 
L 75.290194 232.41102 
L 73.67624 232.41102 
z
" style="fill:#1f77b4;"/>
   </g>
   <g id="patch_12">
    <path clip-path="url(#p79f686c795)" d="M 75.290194 273.312 
L 76.904147 273.312 
L 76.904147 238.984392 
L 75.290194 238.984392 
z
" style="fill:#1f77b4;"/>
   </g>
   <g id="patch_13">
    <path clip-path="url(#p79f686c795)" d="M 76.904147 273.312 
L 78.5181 273.312 
L 78.5181 237.523643 
L 76.904147 237.523643 
z
" style="fill:#1f77b4;"/>
   </g>
   <g id="patch_14">
    <path clip-path="url(#p79f686c795)" d="M 78.5181 273.312 
L 80.132054 273.312 
L 80.132054 228.028772 
L 78.5181 228.028772 
z
" style="fill:#1f77b4;"/>
   </g>
   <g id="patch_15">
    <path clip-path="url(#p79f686c795)" d="M 80.132054 273.312 
L 81.746007 273.312 
L 81.746007 221.455401 
L 80.132054 221.455401 
z
" style="fill:#1f77b4;"/>
   </g>
   <g id="patch_16">
    <path clip-path="url(#p79f686c795)" d="M 81.746007 273.312 
L 83.35996 273.312 
L 83.35996 217.073153 
L 81.746007 217.073153 
z
" style="fill:#1f77b4;"/>
   </g>
   <g id="patch_17">
    <path clip-path="url(#p79f686c795)" d="M 83.35996 273.312 
L 84.973913 273.312 
L 84.973913 222.91615 
L 83.35996 222.91615 
z
" style="fill:#1f77b4;"/>
   </g>
   <g id="patch_18">
    <path clip-path="url(#p79f686c795)" d="M 84.973913 273.312 
L 86.587867 273.312 
L 86.587867 224.376899 
L 84.973913 224.376899 
z
" style="fill:#1f77b4;"/>
   </g>
   <g id="patch_19">
    <path clip-path="url(#p79f686c795)" d="M 86.587867 273.312 
L 88.20182 273.312 
L 88.20182 210.499781 
L 86.587867 210.499781 
z
" style="fill:#1f77b4;"/>
   </g>
   <g id="patch_20">
    <path clip-path="url(#p79f686c795)" d="M 88.20182 273.312 
L 89.815773 273.312 
L 89.815773 214.882029 
L 88.20182 214.882029 
z
" style="fill:#1f77b4;"/>
   </g>
   <g id="patch_21">
    <path clip-path="url(#p79f686c795)" d="M 89.815773 273.312 
L 91.429727 273.312 
L 91.429727 205.387159 
L 89.815773 205.387159 
z
" style="fill:#1f77b4;"/>
   </g>
   <g id="patch_22">
    <path clip-path="url(#p79f686c795)" d="M 91.429727 273.312 
L 93.04368 273.312 
L 93.04368 206.847908 
L 91.429727 206.847908 
z
" style="fill:#1f77b4;"/>
   </g>
   <g id="patch_23">
    <path clip-path="url(#p79f686c795)" d="M 93.04368 273.312 
L 94.657633 273.312 
L 94.657633 210.499781 
L 93.04368 210.499781 
z
" style="fill:#1f77b4;"/>
   </g>
   <g id="patch_24">
    <path clip-path="url(#p79f686c795)" d="M 94.657633 273.312 
L 96.271586 273.312 
L 96.271586 199.544161 
L 94.657633 199.544161 
z
" style="fill:#1f77b4;"/>
   </g>
   <g id="patch_25">
    <path clip-path="url(#p79f686c795)" d="M 96.271586 273.312 
L 97.88554 273.312 
L 97.88554 187.127793 
L 96.271586 187.127793 
z
" style="fill:#1f77b4;"/>
   </g>
   <g id="patch_26">
    <path clip-path="url(#p79f686c795)" d="M 97.88554 273.312 
L 99.499493 273.312 
L 99.499493 185.667043 
L 97.88554 185.667043 
z
" style="fill:#1f77b4;"/>
   </g>
   <g id="patch_27">
    <path clip-path="url(#p79f686c795)" d="M 99.499493 273.312 
L 101.113446 273.312 
L 101.113446 186.397418 
L 99.499493 186.397418 
z
" style="fill:#1f77b4;"/>
   </g>
   <g id="patch_28">
    <path clip-path="url(#p79f686c795)" d="M 101.113446 273.312 
L 102.7274 273.312 
L 102.7274 192.240415 
L 101.113446 192.240415 
z
" style="fill:#1f77b4;"/>
   </g>
   <g id="patch_29">
    <path clip-path="url(#p79f686c795)" d="M 102.7274 273.312 
L 104.341353 273.312 
L 104.341353 187.858167 
L 102.7274 187.858167 
z
" style="fill:#1f77b4;"/>
   </g>
   <g id="patch_30">
    <path clip-path="url(#p79f686c795)" d="M 104.341353 273.312 
L 105.955306 273.312 
L 105.955306 179.824046 
L 104.341353 179.824046 
z
" style="fill:#1f77b4;"/>
   </g>
   <g id="patch_31">
    <path clip-path="url(#p79f686c795)" d="M 105.955306 273.312 
L 107.569259 273.312 
L 107.569259 178.363297 
L 105.955306 178.363297 
z
" style="fill:#1f77b4;"/>
   </g>
   <g id="patch_32">
    <path clip-path="url(#p79f686c795)" d="M 107.569259 273.312 
L 109.183213 273.312 
L 109.183213 173.981049 
L 107.569259 173.981049 
z
" style="fill:#1f77b4;"/>
   </g>
   <g id="patch_33">
    <path clip-path="url(#p79f686c795)" d="M 109.183213 273.312 
L 110.797166 273.312 
L 110.797166 170.329176 
L 109.183213 170.329176 
z
" style="fill:#1f77b4;"/>
   </g>
   <g id="patch_34">
    <path clip-path="url(#p79f686c795)" d="M 110.797166 273.312 
L 112.411119 273.312 
L 112.411119 160.834305 
L 110.797166 160.834305 
z
" style="fill:#1f77b4;"/>
   </g>
   <g id="patch_35">
    <path clip-path="url(#p79f686c795)" d="M 112.411119 273.312 
L 114.025073 273.312 
L 114.025073 154.991308 
L 112.411119 154.991308 
z
" style="fill:#1f77b4;"/>
   </g>
   <g id="patch_36">
    <path clip-path="url(#p79f686c795)" d="M 114.025073 273.312 
L 115.639026 273.312 
L 115.639026 163.755804 
L 114.025073 163.755804 
z
" style="fill:#1f77b4;"/>
   </g>
   <g id="patch_37">
    <path clip-path="url(#p79f686c795)" d="M 115.639026 273.312 
L 117.252979 273.312 
L 117.252979 160.834305 
L 115.639026 160.834305 
z
" style="fill:#1f77b4;"/>
   </g>
   <g id="patch_38">
    <path clip-path="url(#p79f686c795)" d="M 117.252979 273.312 
L 118.866932 273.312 
L 118.866932 141.844565 
L 117.252979 141.844565 
z
" style="fill:#1f77b4;"/>
   </g>
   <g id="patch_39">
    <path clip-path="url(#p79f686c795)" d="M 118.866932 273.312 
L 120.480886 273.312 
L 120.480886 147.687562 
L 118.866932 147.687562 
z
" style="fill:#1f77b4;"/>
   </g>
   <g id="patch_40">
    <path clip-path="url(#p79f686c795)" d="M 120.480886 273.312 
L 122.094839 273.312 
L 122.094839 145.496438 
L 120.480886 145.496438 
z
" style="fill:#1f77b4;"/>
   </g>
   <g id="patch_41">
    <path clip-path="url(#p79f686c795)" d="M 122.094839 273.312 
L 123.708792 273.312 
L 123.708792 134.540818 
L 122.094839 134.540818 
z
" style="fill:#1f77b4;"/>
   </g>
   <g id="patch_42">
    <path clip-path="url(#p79f686c795)" d="M 123.708792 273.312 
L 125.322746 273.312 
L 125.322746 133.080069 
L 123.708792 133.080069 
z
" style="fill:#1f77b4;"/>
   </g>
   <g id="patch_43">
    <path clip-path="url(#p79f686c795)" d="M 125.322746 273.312 
L 126.936699 273.312 
L 126.936699 130.888945 
L 125.322746 130.888945 
z
" style="fill:#1f77b4;"/>
   </g>
   <g id="patch_44">
    <path clip-path="url(#p79f686c795)" d="M 126.936699 273.312 
L 128.550652 273.312 
L 128.550652 141.844565 
L 126.936699 141.844565 
z
" style="fill:#1f77b4;"/>
   </g>
   <g id="patch_45">
    <path clip-path="url(#p79f686c795)" d="M 128.550652 273.312 
L 130.164606 273.312 
L 130.164606 150.609061 
L 128.550652 150.609061 
z
" style="fill:#1f77b4;"/>
   </g>
   <g id="patch_46">
    <path clip-path="url(#p79f686c795)" d="M 130.164606 273.312 
L 131.778559 273.312 
L 131.778559 122.12445 
L 130.164606 122.12445 
z
" style="fill:#1f77b4;"/>
   </g>
   <g id="patch_47">
    <path clip-path="url(#p79f686c795)" d="M 131.778559 273.312 
L 133.392512 273.312 
L 133.392512 116.281452 
L 131.778559 116.281452 
z
" style="fill:#1f77b4;"/>
   </g>
   <g id="patch_48">
    <path clip-path="url(#p79f686c795)" d="M 133.392512 273.312 
L 135.006465 273.312 
L 135.006465 120.6637 
L 133.392512 120.6637 
z
" style="fill:#1f77b4;"/>
   </g>
   <g id="patch_49">
    <path clip-path="url(#p79f686c795)" d="M 135.006465 273.312 
L 136.620419 273.312 
L 136.620419 114.090329 
L 135.006465 114.090329 
z
" style="fill:#1f77b4;"/>
   </g>
   <g id="patch_50">
    <path clip-path="url(#p79f686c795)" d="M 136.620419 273.312 
L 138.234372 273.312 
L 138.234372 140.383816 
L 136.620419 140.383816 
z
" style="fill:#1f77b4;"/>
   </g>
   <g id="patch_51">
    <path clip-path="url(#p79f686c795)" d="M 138.234372 273.312 
L 139.848325 273.312 
L 139.848325 125.776323 
L 138.234372 125.776323 
z
" style="fill:#1f77b4;"/>
   </g>
   <g id="patch_52">
    <path clip-path="url(#p79f686c795)" d="M 139.848325 273.312 
L 141.462279 273.312 
L 141.462279 109.708081 
L 139.848325 109.708081 
z
" style="fill:#1f77b4;"/>
   </g>
   <g id="patch_53">
    <path clip-path="url(#p79f686c795)" d="M 141.462279 273.312 
L 143.076232 273.312 
L 143.076232 104.595458 
L 141.462279 104.595458 
z
" style="fill:#1f77b4;"/>
   </g>
   <g id="patch_54">
    <path clip-path="url(#p79f686c795)" d="M 143.076232 273.312 
L 144.690185 273.312 
L 144.690185 123.585199 
L 143.076232 123.585199 
z
" style="fill:#1f77b4;"/>
   </g>
   <g id="patch_55">
    <path clip-path="url(#p79f686c795)" d="M 144.690185 273.312 
L 146.304138 273.312 
L 146.304138 84.144968 
L 144.690185 84.144968 
z
" style="fill:#1f77b4;"/>
   </g>
   <g id="patch_56">
    <path clip-path="url(#p79f686c795)" d="M 146.304138 273.312 
L 147.918092 273.312 
L 147.918092 86.336092 
L 146.304138 86.336092 
z
" style="fill:#1f77b4;"/>
   </g>
   <g id="patch_57">
    <path clip-path="url(#p79f686c795)" d="M 147.918092 273.312 
L 149.532045 273.312 
L 149.532045 100.943585 
L 147.918092 100.943585 
z
" style="fill:#1f77b4;"/>
   </g>
   <g id="patch_58">
    <path clip-path="url(#p79f686c795)" d="M 149.532045 273.312 
L 151.145998 273.312 
L 151.145998 120.6637 
L 149.532045 120.6637 
z
" style="fill:#1f77b4;"/>
   </g>
   <g id="patch_59">
    <path clip-path="url(#p79f686c795)" d="M 151.145998 273.312 
L 152.759952 273.312 
L 152.759952 109.708081 
L 151.145998 109.708081 
z
" style="fill:#1f77b4;"/>
   </g>
   <g id="patch_60">
    <path clip-path="url(#p79f686c795)" d="M 152.759952 273.312 
L 154.373905 273.312 
L 154.373905 91.448715 
L 152.759952 91.448715 
z
" style="fill:#1f77b4;"/>
   </g>
   <g id="patch_61">
    <path clip-path="url(#p79f686c795)" d="M 154.373905 273.312 
L 155.987858 273.312 
L 155.987858 98.022086 
L 154.373905 98.022086 
z
" style="fill:#1f77b4;"/>
   </g>
   <g id="patch_62">
    <path clip-path="url(#p79f686c795)" d="M 155.987858 273.312 
L 157.601811 273.312 
L 157.601811 100.21321 
L 155.987858 100.21321 
z
" style="fill:#1f77b4;"/>
   </g>
   <g id="patch_63">
    <path clip-path="url(#p79f686c795)" d="M 157.601811 273.312 
L 159.215765 273.312 
L 159.215765 70.26785 
L 157.601811 70.26785 
z
" style="fill:#1f77b4;"/>
   </g>
   <g id="patch_64">
    <path clip-path="url(#p79f686c795)" d="M 159.215765 273.312 
L 160.829718 273.312 
L 160.829718 100.943585 
L 159.215765 100.943585 
z
" style="fill:#1f77b4;"/>
   </g>
   <g id="patch_65">
    <path clip-path="url(#p79f686c795)" d="M 160.829718 273.312 
L 162.443671 273.312 
L 162.443671 87.796841 
L 160.829718 87.796841 
z
" style="fill:#1f77b4;"/>
   </g>
   <g id="patch_66">
    <path clip-path="url(#p79f686c795)" d="M 162.443671 273.312 
L 164.057625 273.312 
L 164.057625 92.179089 
L 162.443671 92.179089 
z
" style="fill:#1f77b4;"/>
   </g>
   <g id="patch_67">
    <path clip-path="url(#p79f686c795)" d="M 164.057625 273.312 
L 165.671578 273.312 
L 165.671578 75.380473 
L 164.057625 75.380473 
z
" style="fill:#1f77b4;"/>
   </g>
   <g id="patch_68">
    <path clip-path="url(#p79f686c795)" d="M 165.671578 273.312 
L 167.285531 273.312 
L 167.285531 86.336092 
L 165.671578 86.336092 
z
" style="fill:#1f77b4;"/>
   </g>
   <g id="patch_69">
    <path clip-path="url(#p79f686c795)" d="M 167.285531 273.312 
L 168.899484 273.312 
L 168.899484 66.615977 
L 167.285531 66.615977 
z
" style="fill:#1f77b4;"/>
   </g>
   <g id="patch_70">
    <path clip-path="url(#p79f686c795)" d="M 168.899484 273.312 
L 170.513438 273.312 
L 170.513438 46.895862 
L 168.899484 46.895862 
z
" style="fill:#1f77b4;"/>
   </g>
   <g id="patch_71">
    <path clip-path="url(#p79f686c795)" d="M 170.513438 273.312 
L 172.127391 273.312 
L 172.127391 78.301971 
L 170.513438 78.301971 
z
" style="fill:#1f77b4;"/>
   </g>
   <g id="patch_72">
    <path clip-path="url(#p79f686c795)" d="M 172.127391 273.312 
L 173.741344 273.312 
L 173.741344 52.738859 
L 172.127391 52.738859 
z
" style="fill:#1f77b4;"/>
   </g>
   <g id="patch_73">
    <path clip-path="url(#p79f686c795)" d="M 173.741344 273.312 
L 175.355298 273.312 
L 175.355298 68.076726 
L 173.741344 68.076726 
z
" style="fill:#1f77b4;"/>
   </g>
   <g id="patch_74">
    <path clip-path="url(#p79f686c795)" d="M 175.355298 273.312 
L 176.969251 273.312 
L 176.969251 56.390732 
L 175.355298 56.390732 
z
" style="fill:#1f77b4;"/>
   </g>
   <g id="patch_75">
    <path clip-path="url(#p79f686c795)" d="M 176.969251 273.312 
L 178.583204 273.312 
L 178.583204 62.964104 
L 176.969251 62.964104 
z
" style="fill:#1f77b4;"/>
   </g>
   <g id="patch_76">
    <path clip-path="url(#p79f686c795)" d="M 178.583204 273.312 
L 180.197157 273.312 
L 180.197157 61.503354 
L 178.583204 61.503354 
z
" style="fill:#1f77b4;"/>
   </g>
   <g id="patch_77">
    <path clip-path="url(#p79f686c795)" d="M 180.197157 273.312 
L 181.811111 273.312 
L 181.811111 73.189349 
L 180.197157 73.189349 
z
" style="fill:#1f77b4;"/>
   </g>
   <g id="patch_78">
    <path clip-path="url(#p79f686c795)" d="M 181.811111 273.312 
L 183.425064 273.312 
L 183.425064 68.807101 
L 181.811111 68.807101 
z
" style="fill:#1f77b4;"/>
   </g>
   <g id="patch_79">
    <path clip-path="url(#p79f686c795)" d="M 183.425064 273.312 
L 185.039017 273.312 
L 185.039017 65.885602 
L 183.425064 65.885602 
z
" style="fill:#1f77b4;"/>
   </g>
   <g id="patch_80">
    <path clip-path="url(#p79f686c795)" d="M 185.039017 273.312 
L 186.652971 273.312 
L 186.652971 37.400991 
L 185.039017 37.400991 
z
" style="fill:#1f77b4;"/>
   </g>
   <g id="patch_81">
    <path clip-path="url(#p79f686c795)" d="M 186.652971 273.312 
L 188.266924 273.312 
L 188.266924 76.110847 
L 186.652971 76.110847 
z
" style="fill:#1f77b4;"/>
   </g>
   <g id="patch_82">
    <path clip-path="url(#p79f686c795)" d="M 188.266924 273.312 
L 189.880877 273.312 
L 189.880877 79.032346 
L 188.266924 79.032346 
z
" style="fill:#1f77b4;"/>
   </g>
   <g id="patch_83">
    <path clip-path="url(#p79f686c795)" d="M 189.880877 273.312 
L 191.494831 273.312 
L 191.494831 37.400991 
L 189.880877 37.400991 
z
" style="fill:#1f77b4;"/>
   </g>
   <g id="patch_84">
    <path clip-path="url(#p79f686c795)" d="M 191.494831 273.312 
L 193.108784 273.312 
L 193.108784 28.636496 
L 191.494831 28.636496 
z
" style="fill:#1f77b4;"/>
   </g>
   <g id="patch_85">
    <path clip-path="url(#p79f686c795)" d="M 193.108784 273.312 
L 194.722737 273.312 
L 194.722737 60.042605 
L 193.108784 60.042605 
z
" style="fill:#1f77b4;"/>
   </g>
   <g id="patch_86">
    <path clip-path="url(#p79f686c795)" d="M 194.722737 273.312 
L 196.33669 273.312 
L 196.33669 49.086986 
L 194.722737 49.086986 
z
" style="fill:#1f77b4;"/>
   </g>
   <g id="patch_87">
    <path clip-path="url(#p79f686c795)" d="M 196.33669 273.312 
L 197.950644 273.312 
L 197.950644 54.929983 
L 196.33669 54.929983 
z
" style="fill:#1f77b4;"/>
   </g>
   <g id="patch_88">
    <path clip-path="url(#p79f686c795)" d="M 197.950644 273.312 
L 199.564597 273.312 
L 199.564597 37.400991 
L 197.950644 37.400991 
z
" style="fill:#1f77b4;"/>
   </g>
   <g id="patch_89">
    <path clip-path="url(#p79f686c795)" d="M 199.564597 273.312 
L 201.17855 273.312 
L 201.17855 49.086986 
L 199.564597 49.086986 
z
" style="fill:#1f77b4;"/>
   </g>
   <g id="patch_90">
    <path clip-path="url(#p79f686c795)" d="M 201.17855 273.312 
L 202.792504 273.312 
L 202.792504 30.82762 
L 201.17855 30.82762 
z
" style="fill:#1f77b4;"/>
   </g>
   <g id="patch_91">
    <path clip-path="url(#p79f686c795)" d="M 202.792504 273.312 
L 204.406457 273.312 
L 204.406457 48.356611 
L 202.792504 48.356611 
z
" style="fill:#1f77b4;"/>
   </g>
   <g id="patch_92">
    <path clip-path="url(#p79f686c795)" d="M 204.406457 273.312 
L 206.02041 273.312 
L 206.02041 37.400991 
L 204.406457 37.400991 
z
" style="fill:#1f77b4;"/>
   </g>
   <g id="patch_93">
    <path clip-path="url(#p79f686c795)" d="M 206.02041 273.312 
L 207.634363 273.312 
L 207.634363 46.165487 
L 206.02041 46.165487 
z
" style="fill:#1f77b4;"/>
   </g>
   <g id="patch_94">
    <path clip-path="url(#p79f686c795)" d="M 207.634363 273.312 
L 209.248317 273.312 
L 209.248317 68.076726 
L 207.634363 68.076726 
z
" style="fill:#1f77b4;"/>
   </g>
   <g id="patch_95">
    <path clip-path="url(#p79f686c795)" d="M 209.248317 273.312 
L 210.86227 273.312 
L 210.86227 54.929983 
L 209.248317 54.929983 
z
" style="fill:#1f77b4;"/>
   </g>
   <g id="patch_96">
    <path clip-path="url(#p79f686c795)" d="M 210.86227 273.312 
L 212.476223 273.312 
L 212.476223 30.82762 
L 210.86227 30.82762 
z
" style="fill:#1f77b4;"/>
   </g>
   <g id="patch_97">
    <path clip-path="url(#p79f686c795)" d="M 212.476223 273.312 
L 214.090177 273.312 
L 214.090177 21.332749 
L 212.476223 21.332749 
z
" style="fill:#1f77b4;"/>
   </g>
   <g id="patch_98">
    <path clip-path="url(#p79f686c795)" d="M 214.090177 273.312 
L 215.70413 273.312 
L 215.70413 56.390732 
L 214.090177 56.390732 
z
" style="fill:#1f77b4;"/>
   </g>
   <g id="patch_99">
    <path clip-path="url(#p79f686c795)" d="M 215.70413 273.312 
L 217.318083 273.312 
L 217.318083 19.872 
L 215.70413 19.872 
z
" style="fill:#1f77b4;"/>
   </g>
   <g id="patch_100">
    <path clip-path="url(#p79f686c795)" d="M 217.318083 273.312 
L 218.932036 273.312 
L 218.932036 32.288369 
L 217.318083 32.288369 
z
" style="fill:#1f77b4;"/>
   </g>
   <g id="patch_101">
    <path clip-path="url(#p79f686c795)" d="M 218.932036 273.312 
L 220.54599 273.312 
L 220.54599 52.738859 
L 218.932036 52.738859 
z
" style="fill:#1f77b4;"/>
   </g>
   <g id="patch_102">
    <path clip-path="url(#p79f686c795)" d="M 220.54599 273.312 
L 222.159943 273.312 
L 222.159943 52.008484 
L 220.54599 52.008484 
z
" style="fill:#1f77b4;"/>
   </g>
   <g id="patch_103">
    <path clip-path="url(#p79f686c795)" d="M 222.159943 273.312 
L 223.773896 273.312 
L 223.773896 39.592115 
L 222.159943 39.592115 
z
" style="fill:#1f77b4;"/>
   </g>
   <g id="patch_104">
    <path clip-path="url(#p79f686c795)" d="M 223.773896 273.312 
L 225.38785 273.312 
L 225.38785 66.615977 
L 223.773896 66.615977 
z
" style="fill:#1f77b4;"/>
   </g>
   <g id="patch_105">
    <path clip-path="url(#p79f686c795)" d="M 225.38785 273.312 
L 227.001803 273.312 
L 227.001803 41.052865 
L 225.38785 41.052865 
z
" style="fill:#1f77b4;"/>
   </g>
   <g id="patch_106">
    <path clip-path="url(#p79f686c795)" d="M 227.001803 273.312 
L 228.615756 273.312 
L 228.615756 65.155228 
L 227.001803 65.155228 
z
" style="fill:#1f77b4;"/>
   </g>
   <g id="patch_107">
    <path clip-path="url(#p79f686c795)" d="M 228.615756 273.312 
L 230.229709 273.312 
L 230.229709 41.783239 
L 228.615756 41.783239 
z
" style="fill:#1f77b4;"/>
   </g>
   <g id="patch_108">
    <path clip-path="url(#p79f686c795)" d="M 230.229709 273.312 
L 231.843663 273.312 
L 231.843663 54.199608 
L 230.229709 54.199608 
z
" style="fill:#1f77b4;"/>
   </g>
   <g id="patch_109">
    <path clip-path="url(#p79f686c795)" d="M 231.843663 273.312 
L 233.457616 273.312 
L 233.457616 48.356611 
L 231.843663 48.356611 
z
" style="fill:#1f77b4;"/>
   </g>
   <g id="patch_110">
    <path clip-path="url(#p79f686c795)" d="M 233.457616 273.312 
L 235.071569 273.312 
L 235.071569 47.626236 
L 233.457616 47.626236 
z
" style="fill:#1f77b4;"/>
   </g>
   <g id="patch_111">
    <path clip-path="url(#p79f686c795)" d="M 235.071569 273.312 
L 236.685523 273.312 
L 236.685523 33.749118 
L 235.071569 33.749118 
z
" style="fill:#1f77b4;"/>
   </g>
   <g id="patch_112">
    <path clip-path="url(#p79f686c795)" d="M 236.685523 273.312 
L 238.299476 273.312 
L 238.299476 54.199608 
L 236.685523 54.199608 
z
" style="fill:#1f77b4;"/>
   </g>
   <g id="patch_113">
    <path clip-path="url(#p79f686c795)" d="M 238.299476 273.312 
L 239.913429 273.312 
L 239.913429 62.233729 
L 238.299476 62.233729 
z
" style="fill:#1f77b4;"/>
   </g>
   <g id="patch_114">
    <path clip-path="url(#p79f686c795)" d="M 239.913429 273.312 
L 241.527383 273.312 
L 241.527383 60.77298 
L 239.913429 60.77298 
z
" style="fill:#1f77b4;"/>
   </g>
   <g id="patch_115">
    <path clip-path="url(#p79f686c795)" d="M 241.527383 273.312 
L 243.141336 273.312 
L 243.141336 46.895862 
L 241.527383 46.895862 
z
" style="fill:#1f77b4;"/>
   </g>
   <g id="patch_116">
    <path clip-path="url(#p79f686c795)" d="M 243.141336 273.312 
L 244.755289 273.312 
L 244.755289 43.974363 
L 243.141336 43.974363 
z
" style="fill:#1f77b4;"/>
   </g>
   <g id="patch_117">
    <path clip-path="url(#p79f686c795)" d="M 244.755289 273.312 
L 246.369242 273.312 
L 246.369242 20.602375 
L 244.755289 20.602375 
z
" style="fill:#1f77b4;"/>
   </g>
   <g id="patch_118">
    <path clip-path="url(#p79f686c795)" d="M 246.369242 273.312 
L 247.983196 273.312 
L 247.983196 43.974363 
L 246.369242 43.974363 
z
" style="fill:#1f77b4;"/>
   </g>
   <g id="patch_119">
    <path clip-path="url(#p79f686c795)" d="M 247.983196 273.312 
L 249.597149 273.312 
L 249.597149 46.165487 
L 247.983196 46.165487 
z
" style="fill:#1f77b4;"/>
   </g>
   <g id="patch_120">
    <path clip-path="url(#p79f686c795)" d="M 249.597149 273.312 
L 251.211102 273.312 
L 251.211102 56.390732 
L 249.597149 56.390732 
z
" style="fill:#1f77b4;"/>
   </g>
   <g id="patch_121">
    <path clip-path="url(#p79f686c795)" d="M 251.211102 273.312 
L 252.825056 273.312 
L 252.825056 78.301971 
L 251.211102 78.301971 
z
" style="fill:#1f77b4;"/>
   </g>
   <g id="patch_122">
    <path clip-path="url(#p79f686c795)" d="M 252.825056 273.312 
L 254.439009 273.312 
L 254.439009 65.885602 
L 252.825056 65.885602 
z
" style="fill:#1f77b4;"/>
   </g>
   <g id="patch_123">
    <path clip-path="url(#p79f686c795)" d="M 254.439009 273.312 
L 256.052962 273.312 
L 256.052962 65.885602 
L 254.439009 65.885602 
z
" style="fill:#1f77b4;"/>
   </g>
   <g id="patch_124">
    <path clip-path="url(#p79f686c795)" d="M 256.052962 273.312 
L 257.666915 273.312 
L 257.666915 54.929983 
L 256.052962 54.929983 
z
" style="fill:#1f77b4;"/>
   </g>
   <g id="patch_125">
    <path clip-path="url(#p79f686c795)" d="M 257.666915 273.312 
L 259.280869 273.312 
L 259.280869 35.209867 
L 257.666915 35.209867 
z
" style="fill:#1f77b4;"/>
   </g>
   <g id="patch_126">
    <path clip-path="url(#p79f686c795)" d="M 259.280869 273.312 
L 260.894822 273.312 
L 260.894822 53.469233 
L 259.280869 53.469233 
z
" style="fill:#1f77b4;"/>
   </g>
   <g id="patch_127">
    <path clip-path="url(#p79f686c795)" d="M 260.894822 273.312 
L 262.508775 273.312 
L 262.508775 73.919723 
L 260.894822 73.919723 
z
" style="fill:#1f77b4;"/>
   </g>
   <g id="patch_128">
    <path clip-path="url(#p79f686c795)" d="M 262.508775 273.312 
L 264.122729 273.312 
L 264.122729 54.199608 
L 262.508775 54.199608 
z
" style="fill:#1f77b4;"/>
   </g>
   <g id="patch_129">
    <path clip-path="url(#p79f686c795)" d="M 264.122729 273.312 
L 265.736682 273.312 
L 265.736682 77.571597 
L 264.122729 77.571597 
z
" style="fill:#1f77b4;"/>
   </g>
   <g id="patch_130">
    <path clip-path="url(#p79f686c795)" d="M 265.736682 273.312 
L 267.350635 273.312 
L 267.350635 75.380473 
L 265.736682 75.380473 
z
" style="fill:#1f77b4;"/>
   </g>
   <g id="patch_131">
    <path clip-path="url(#p79f686c795)" d="M 267.350635 273.312 
L 268.964588 273.312 
L 268.964588 60.042605 
L 267.350635 60.042605 
z
" style="fill:#1f77b4;"/>
   </g>
   <g id="patch_132">
    <path clip-path="url(#p79f686c795)" d="M 268.964588 273.312 
L 270.578542 273.312 
L 270.578542 74.650098 
L 268.964588 74.650098 
z
" style="fill:#1f77b4;"/>
   </g>
   <g id="patch_133">
    <path clip-path="url(#p79f686c795)" d="M 270.578542 273.312 
L 272.192495 273.312 
L 272.192495 70.998225 
L 270.578542 70.998225 
z
" style="fill:#1f77b4;"/>
   </g>
   <g id="patch_134">
    <path clip-path="url(#p79f686c795)" d="M 272.192495 273.312 
L 273.806448 273.312 
L 273.806448 78.301971 
L 272.192495 78.301971 
z
" style="fill:#1f77b4;"/>
   </g>
   <g id="patch_135">
    <path clip-path="url(#p79f686c795)" d="M 273.806448 273.312 
L 275.420402 273.312 
L 275.420402 56.390732 
L 273.806448 56.390732 
z
" style="fill:#1f77b4;"/>
   </g>
   <g id="patch_136">
    <path clip-path="url(#p79f686c795)" d="M 275.420402 273.312 
L 277.034355 273.312 
L 277.034355 76.841222 
L 275.420402 76.841222 
z
" style="fill:#1f77b4;"/>
   </g>
   <g id="patch_137">
    <path clip-path="url(#p79f686c795)" d="M 277.034355 273.312 
L 278.648308 273.312 
L 278.648308 85.605718 
L 277.034355 85.605718 
z
" style="fill:#1f77b4;"/>
   </g>
   <g id="patch_138">
    <path clip-path="url(#p79f686c795)" d="M 278.648308 273.312 
L 280.262261 273.312 
L 280.262261 78.301971 
L 278.648308 78.301971 
z
" style="fill:#1f77b4;"/>
   </g>
   <g id="patch_139">
    <path clip-path="url(#p79f686c795)" d="M 280.262261 273.312 
L 281.876215 273.312 
L 281.876215 95.830963 
L 280.262261 95.830963 
z
" style="fill:#1f77b4;"/>
   </g>
   <g id="patch_140">
    <path clip-path="url(#p79f686c795)" d="M 281.876215 273.312 
L 283.490168 273.312 
L 283.490168 73.919723 
L 281.876215 73.919723 
z
" style="fill:#1f77b4;"/>
   </g>
   <g id="patch_141">
    <path clip-path="url(#p79f686c795)" d="M 283.490168 273.312 
L 285.104121 273.312 
L 285.104121 84.144968 
L 283.490168 84.144968 
z
" style="fill:#1f77b4;"/>
   </g>
   <g id="patch_142">
    <path clip-path="url(#p79f686c795)" d="M 285.104121 273.312 
L 286.718075 273.312 
L 286.718075 86.336092 
L 285.104121 86.336092 
z
" style="fill:#1f77b4;"/>
   </g>
   <g id="patch_143">
    <path clip-path="url(#p79f686c795)" d="M 286.718075 273.312 
L 288.332028 273.312 
L 288.332028 89.257591 
L 286.718075 89.257591 
z
" style="fill:#1f77b4;"/>
   </g>
   <g id="patch_144">
    <path clip-path="url(#p79f686c795)" d="M 288.332028 273.312 
L 289.945981 273.312 
L 289.945981 87.066467 
L 288.332028 87.066467 
z
" style="fill:#1f77b4;"/>
   </g>
   <g id="patch_145">
    <path clip-path="url(#p79f686c795)" d="M 289.945981 273.312 
L 291.559935 273.312 
L 291.559935 106.056207 
L 289.945981 106.056207 
z
" style="fill:#1f77b4;"/>
   </g>
   <g id="patch_146">
    <path clip-path="url(#p79f686c795)" d="M 291.559935 273.312 
L 293.173888 273.312 
L 293.173888 71.728599 
L 291.559935 71.728599 
z
" style="fill:#1f77b4;"/>
   </g>
   <g id="patch_147">
    <path clip-path="url(#p79f686c795)" d="M 293.173888 273.312 
L 294.787841 273.312 
L 294.787841 94.370213 
L 293.173888 94.370213 
z
" style="fill:#1f77b4;"/>
   </g>
   <g id="patch_148">
    <path clip-path="url(#p79f686c795)" d="M 294.787841 273.312 
L 296.401794 273.312 
L 296.401794 103.134709 
L 294.787841 103.134709 
z
" style="fill:#1f77b4;"/>
   </g>
   <g id="patch_149">
    <path clip-path="url(#p79f686c795)" d="M 296.401794 273.312 
L 298.015748 273.312 
L 298.015748 94.370213 
L 296.401794 94.370213 
z
" style="fill:#1f77b4;"/>
   </g>
   <g id="patch_150">
    <path clip-path="url(#p79f686c795)" d="M 298.015748 273.312 
L 299.629701 273.312 
L 299.629701 126.506697 
L 298.015748 126.506697 
z
" style="fill:#1f77b4;"/>
   </g>
   <g id="patch_151">
    <path clip-path="url(#p79f686c795)" d="M 299.629701 273.312 
L 301.243654 273.312 
L 301.243654 106.056207 
L 299.629701 106.056207 
z
" style="fill:#1f77b4;"/>
   </g>
   <g id="patch_152">
    <path clip-path="url(#p79f686c795)" d="M 301.243654 273.312 
L 302.857608 273.312 
L 302.857608 93.639839 
L 301.243654 93.639839 
z
" style="fill:#1f77b4;"/>
   </g>
   <g id="patch_153">
    <path clip-path="url(#p79f686c795)" d="M 302.857608 273.312 
L 304.471561 273.312 
L 304.471561 126.506697 
L 302.857608 126.506697 
z
" style="fill:#1f77b4;"/>
   </g>
   <g id="patch_154">
    <path clip-path="url(#p79f686c795)" d="M 304.471561 273.312 
L 306.085514 273.312 
L 306.085514 113.359954 
L 304.471561 113.359954 
z
" style="fill:#1f77b4;"/>
   </g>
   <g id="patch_155">
    <path clip-path="url(#p79f686c795)" d="M 306.085514 273.312 
L 307.699467 273.312 
L 307.699467 103.134709 
L 306.085514 103.134709 
z
" style="fill:#1f77b4;"/>
   </g>
   <g id="patch_156">
    <path clip-path="url(#p79f686c795)" d="M 307.699467 273.312 
L 309.313421 273.312 
L 309.313421 136.001568 
L 307.699467 136.001568 
z
" style="fill:#1f77b4;"/>
   </g>
   <g id="patch_157">
    <path clip-path="url(#p79f686c795)" d="M 309.313421 273.312 
L 310.927374 273.312 
L 310.927374 106.786582 
L 309.313421 106.786582 
z
" style="fill:#1f77b4;"/>
   </g>
   <g id="patch_158">
    <path clip-path="url(#p79f686c795)" d="M 310.927374 273.312 
L 312.541327 273.312 
L 312.541327 134.540818 
L 310.927374 134.540818 
z
" style="fill:#1f77b4;"/>
   </g>
   <g id="patch_159">
    <path clip-path="url(#p79f686c795)" d="M 312.541327 273.312 
L 314.155281 273.312 
L 314.155281 135.271193 
L 312.541327 135.271193 
z
" style="fill:#1f77b4;"/>
   </g>
   <g id="patch_160">
    <path clip-path="url(#p79f686c795)" d="M 314.155281 273.312 
L 315.769234 273.312 
L 315.769234 143.305314 
L 314.155281 143.305314 
z
" style="fill:#1f77b4;"/>
   </g>
   <g id="patch_161">
    <path clip-path="url(#p79f686c795)" d="M 315.769234 273.312 
L 317.383187 273.312 
L 317.383187 141.11419 
L 315.769234 141.11419 
z
" style="fill:#1f77b4;"/>
   </g>
   <g id="patch_162">
    <path clip-path="url(#p79f686c795)" d="M 317.383187 273.312 
L 318.99714 273.312 
L 318.99714 135.271193 
L 317.383187 135.271193 
z
" style="fill:#1f77b4;"/>
   </g>
   <g id="patch_163">
    <path clip-path="url(#p79f686c795)" d="M 318.99714 273.312 
L 320.611094 273.312 
L 320.611094 138.192692 
L 318.99714 138.192692 
z
" style="fill:#1f77b4;"/>
   </g>
   <g id="patch_164">
    <path clip-path="url(#p79f686c795)" d="M 320.611094 273.312 
L 322.225047 273.312 
L 322.225047 153.530559 
L 320.611094 153.530559 
z
" style="fill:#1f77b4;"/>
   </g>
   <g id="patch_165">
    <path clip-path="url(#p79f686c795)" d="M 322.225047 273.312 
L 323.839 273.312 
L 323.839 136.001568 
L 322.225047 136.001568 
z
" style="fill:#1f77b4;"/>
   </g>
   <g id="patch_166">
    <path clip-path="url(#p79f686c795)" d="M 323.839 273.312 
L 325.452954 273.312 
L 325.452954 160.103931 
L 323.839 160.103931 
z
" style="fill:#1f77b4;"/>
   </g>
   <g id="patch_167">
    <path clip-path="url(#p79f686c795)" d="M 325.452954 273.312 
L 327.066907 273.312 
L 327.066907 145.496438 
L 325.452954 145.496438 
z
" style="fill:#1f77b4;"/>
   </g>
   <g id="patch_168">
    <path clip-path="url(#p79f686c795)" d="M 327.066907 273.312 
L 328.68086 273.312 
L 328.68086 157.912807 
L 327.066907 157.912807 
z
" style="fill:#1f77b4;"/>
   </g>
   <g id="patch_169">
    <path clip-path="url(#p79f686c795)" d="M 328.68086 273.312 
L 330.294813 273.312 
L 330.294813 156.452058 
L 328.68086 156.452058 
z
" style="fill:#1f77b4;"/>
   </g>
   <g id="patch_170">
    <path clip-path="url(#p79f686c795)" d="M 330.294813 273.312 
L 331.908767 273.312 
L 331.908767 173.250674 
L 330.294813 173.250674 
z
" style="fill:#1f77b4;"/>
   </g>
   <g id="patch_171">
    <path clip-path="url(#p79f686c795)" d="M 331.908767 273.312 
L 333.52272 273.312 
L 333.52272 160.834305 
L 331.908767 160.834305 
z
" style="fill:#1f77b4;"/>
   </g>
   <g id="patch_172">
    <path clip-path="url(#p79f686c795)" d="M 333.52272 273.312 
L 335.136673 273.312 
L 335.136673 158.643182 
L 333.52272 158.643182 
z
" style="fill:#1f77b4;"/>
   </g>
   <g id="patch_173">
    <path clip-path="url(#p79f686c795)" d="M 335.136673 273.312 
L 336.750627 273.312 
L 336.750627 167.407677 
L 335.136673 167.407677 
z
" style="fill:#1f77b4;"/>
   </g>
   <g id="patch_174">
    <path clip-path="url(#p79f686c795)" d="M 336.750627 273.312 
L 338.36458 273.312 
L 338.36458 185.667043 
L 336.750627 185.667043 
z
" style="fill:#1f77b4;"/>
   </g>
   <g id="patch_175">
    <path clip-path="url(#p79f686c795)" d="M 338.36458 273.312 
L 339.978533 273.312 
L 339.978533 176.172173 
L 338.36458 176.172173 
z
" style="fill:#1f77b4;"/>
   </g>
   <g id="patch_176">
    <path clip-path="url(#p79f686c795)" d="M 339.978533 273.312 
L 341.592487 273.312 
L 341.592487 175.441798 
L 339.978533 175.441798 
z
" style="fill:#1f77b4;"/>
   </g>
   <g id="patch_177">
    <path clip-path="url(#p79f686c795)" d="M 341.592487 273.312 
L 343.20644 273.312 
L 343.20644 179.093671 
L 341.592487 179.093671 
z
" style="fill:#1f77b4;"/>
   </g>
   <g id="patch_178">
    <path clip-path="url(#p79f686c795)" d="M 343.20644 273.312 
L 344.820393 273.312 
L 344.820393 184.936669 
L 343.20644 184.936669 
z
" style="fill:#1f77b4;"/>
   </g>
   <g id="patch_179">
    <path clip-path="url(#p79f686c795)" d="M 344.820393 273.312 
L 346.434346 273.312 
L 346.434346 179.824046 
L 344.820393 179.824046 
z
" style="fill:#1f77b4;"/>
   </g>
   <g id="patch_180">
    <path clip-path="url(#p79f686c795)" d="M 346.434346 273.312 
L 348.0483 273.312 
L 348.0483 194.431539 
L 346.434346 194.431539 
z
" style="fill:#1f77b4;"/>
   </g>
   <g id="patch_181">
    <path clip-path="url(#p79f686c795)" d="M 348.0483 273.312 
L 349.662253 273.312 
L 349.662253 175.441798 
L 348.0483 175.441798 
z
" style="fill:#1f77b4;"/>
   </g>
   <g id="patch_182">
    <path clip-path="url(#p79f686c795)" d="M 349.662253 273.312 
L 351.276206 273.312 
L 351.276206 186.397418 
L 349.662253 186.397418 
z
" style="fill:#1f77b4;"/>
   </g>
   <g id="patch_183">
    <path clip-path="url(#p79f686c795)" d="M 351.276206 273.312 
L 352.89016 273.312 
L 352.89016 209.769406 
L 351.276206 209.769406 
z
" style="fill:#1f77b4;"/>
   </g>
   <g id="patch_184">
    <path clip-path="url(#p79f686c795)" d="M 352.89016 273.312 
L 354.504113 273.312 
L 354.504113 210.499781 
L 352.89016 210.499781 
z
" style="fill:#1f77b4;"/>
   </g>
   <g id="patch_185">
    <path clip-path="url(#p79f686c795)" d="M 354.504113 273.312 
L 356.118066 273.312 
L 356.118066 211.96053 
L 354.504113 211.96053 
z
" style="fill:#1f77b4;"/>
   </g>
   <g id="patch_186">
    <path clip-path="url(#p79f686c795)" d="M 356.118066 273.312 
L 357.732019 273.312 
L 357.732019 214.151654 
L 356.118066 214.151654 
z
" style="fill:#1f77b4;"/>
   </g>
   <g id="patch_187">
    <path clip-path="url(#p79f686c795)" d="M 357.732019 273.312 
L 359.345973 273.312 
L 359.345973 206.847908 
L 357.732019 206.847908 
z
" style="fill:#1f77b4;"/>
   </g>
   <g id="patch_188">
    <path clip-path="url(#p79f686c795)" d="M 359.345973 273.312 
L 360.959926 273.312 
L 360.959926 225.837648 
L 359.345973 225.837648 
z
" style="fill:#1f77b4;"/>
   </g>
   <g id="patch_189">
    <path clip-path="url(#p79f686c795)" d="M 360.959926 273.312 
L 362.573879 273.312 
L 362.573879 225.837648 
L 360.959926 225.837648 
z
" style="fill:#1f77b4;"/>
   </g>
   <g id="patch_190">
    <path clip-path="url(#p79f686c795)" d="M 362.573879 273.312 
L 364.187833 273.312 
L 364.187833 228.759147 
L 362.573879 228.759147 
z
" style="fill:#1f77b4;"/>
   </g>
   <g id="patch_191">
    <path clip-path="url(#p79f686c795)" d="M 364.187833 273.312 
L 365.801786 273.312 
L 365.801786 231.680646 
L 364.187833 231.680646 
z
" style="fill:#1f77b4;"/>
   </g>
   <g id="patch_192">
    <path clip-path="url(#p79f686c795)" d="M 365.801786 273.312 
L 367.415739 273.312 
L 367.415739 234.602144 
L 365.801786 234.602144 
z
" style="fill:#1f77b4;"/>
   </g>
   <g id="patch_193">
    <path clip-path="url(#p79f686c795)" d="M 367.415739 273.312 
L 369.029692 273.312 
L 369.029692 245.557764 
L 367.415739 245.557764 
z
" style="fill:#1f77b4;"/>
   </g>
   <g id="patch_194">
    <path clip-path="url(#p79f686c795)" d="M 369.029692 273.312 
L 370.643646 273.312 
L 370.643646 245.557764 
L 369.029692 245.557764 
z
" style="fill:#1f77b4;"/>
   </g>
   <g id="patch_195">
    <path clip-path="url(#p79f686c795)" d="M 370.643646 273.312 
L 372.257599 273.312 
L 372.257599 241.90589 
L 370.643646 241.90589 
z
" style="fill:#1f77b4;"/>
   </g>
   <g id="patch_196">
    <path clip-path="url(#p79f686c795)" d="M 372.257599 273.312 
L 373.871552 273.312 
L 373.871552 252.86151 
L 372.257599 252.86151 
z
" style="fill:#1f77b4;"/>
   </g>
   <g id="patch_197">
    <path clip-path="url(#p79f686c795)" d="M 373.871552 273.312 
L 375.485506 273.312 
L 375.485506 252.131135 
L 373.871552 252.131135 
z
" style="fill:#1f77b4;"/>
   </g>
   <g id="patch_198">
    <path clip-path="url(#p79f686c795)" d="M 375.485506 273.312 
L 377.099459 273.312 
L 377.099459 253.591885 
L 375.485506 253.591885 
z
" style="fill:#1f77b4;"/>
   </g>
   <g id="patch_199">
    <path clip-path="url(#p79f686c795)" d="M 377.099459 273.312 
L 378.713412 273.312 
L 378.713412 258.704507 
L 377.099459 258.704507 
z
" style="fill:#1f77b4;"/>
   </g>
   <g id="patch_200">
    <path clip-path="url(#p79f686c795)" d="M 378.713412 273.312 
L 380.327365 273.312 
L 380.327365 261.626006 
L 378.713412 261.626006 
z
" style="fill:#1f77b4;"/>
   </g>
   <g id="patch_201">
    <path clip-path="url(#p79f686c795)" d="M 380.327365 273.312 
L 381.941319 273.312 
L 381.941319 262.35638 
L 380.327365 262.35638 
z
" style="fill:#1f77b4;"/>
   </g>
   <g id="patch_202">
    <path clip-path="url(#p79f686c795)" d="M 381.941319 273.312 
L 383.555272 273.312 
L 383.555272 268.199378 
L 381.941319 268.199378 
z
" style="fill:#1f77b4;"/>
   </g>
   <g id="matplotlib.axis_1">
    <g id="xtick_1">
     <g id="line2d_1">
      <defs>
       <path d="M 0 0 
L 0 3.5 
" id="m3b589178ab" style="stroke:#000000;stroke-width:0.8;"/>
      </defs>
      <g>
       <use style="stroke:#000000;stroke-width:0.8;" x="60.013977" xlink:href="#m3b589178ab" y="273.312"/>
      </g>
     </g>
     <g id="text_1">
      <!-- 0.0 -->
      <g transform="translate(52.062415 287.910437)scale(0.1 -0.1)">
       <defs>
        <path d="M 2034 4250 
Q 1547 4250 1301 3770 
Q 1056 3291 1056 2328 
Q 1056 1369 1301 889 
Q 1547 409 2034 409 
Q 2525 409 2770 889 
Q 3016 1369 3016 2328 
Q 3016 3291 2770 3770 
Q 2525 4250 2034 4250 
z
M 2034 4750 
Q 2819 4750 3233 4129 
Q 3647 3509 3647 2328 
Q 3647 1150 3233 529 
Q 2819 -91 2034 -91 
Q 1250 -91 836 529 
Q 422 1150 422 2328 
Q 422 3509 836 4129 
Q 1250 4750 2034 4750 
z
" id="DejaVuSans-30" transform="scale(0.015625)"/>
        <path d="M 684 794 
L 1344 794 
L 1344 0 
L 684 0 
L 684 794 
z
" id="DejaVuSans-2e" transform="scale(0.015625)"/>
       </defs>
       <use xlink:href="#DejaVuSans-30"/>
       <use x="63.623047" xlink:href="#DejaVuSans-2e"/>
       <use x="95.410156" xlink:href="#DejaVuSans-30"/>
      </g>
     </g>
    </g>
    <g id="xtick_2">
     <g id="line2d_2">
      <g>
       <use style="stroke:#000000;stroke-width:0.8;" x="101.350278" xlink:href="#m3b589178ab" y="273.312"/>
      </g>
     </g>
     <g id="text_2">
      <!-- 0.2 -->
      <g transform="translate(93.398715 287.910437)scale(0.1 -0.1)">
       <defs>
        <path d="M 1228 531 
L 3431 531 
L 3431 0 
L 469 0 
L 469 531 
Q 828 903 1448 1529 
Q 2069 2156 2228 2338 
Q 2531 2678 2651 2914 
Q 2772 3150 2772 3378 
Q 2772 3750 2511 3984 
Q 2250 4219 1831 4219 
Q 1534 4219 1204 4116 
Q 875 4013 500 3803 
L 500 4441 
Q 881 4594 1212 4672 
Q 1544 4750 1819 4750 
Q 2544 4750 2975 4387 
Q 3406 4025 3406 3419 
Q 3406 3131 3298 2873 
Q 3191 2616 2906 2266 
Q 2828 2175 2409 1742 
Q 1991 1309 1228 531 
z
" id="DejaVuSans-32" transform="scale(0.015625)"/>
       </defs>
       <use xlink:href="#DejaVuSans-30"/>
       <use x="63.623047" xlink:href="#DejaVuSans-2e"/>
       <use x="95.410156" xlink:href="#DejaVuSans-32"/>
      </g>
     </g>
    </g>
    <g id="xtick_3">
     <g id="line2d_3">
      <g>
       <use style="stroke:#000000;stroke-width:0.8;" x="142.686578" xlink:href="#m3b589178ab" y="273.312"/>
      </g>
     </g>
     <g id="text_3">
      <!-- 0.4 -->
      <g transform="translate(134.735016 287.910437)scale(0.1 -0.1)">
       <defs>
        <path d="M 2419 4116 
L 825 1625 
L 2419 1625 
L 2419 4116 
z
M 2253 4666 
L 3047 4666 
L 3047 1625 
L 3713 1625 
L 3713 1100 
L 3047 1100 
L 3047 0 
L 2419 0 
L 2419 1100 
L 313 1100 
L 313 1709 
L 2253 4666 
z
" id="DejaVuSans-34" transform="scale(0.015625)"/>
       </defs>
       <use xlink:href="#DejaVuSans-30"/>
       <use x="63.623047" xlink:href="#DejaVuSans-2e"/>
       <use x="95.410156" xlink:href="#DejaVuSans-34"/>
      </g>
     </g>
    </g>
    <g id="xtick_4">
     <g id="line2d_4">
      <g>
       <use style="stroke:#000000;stroke-width:0.8;" x="184.022879" xlink:href="#m3b589178ab" y="273.312"/>
      </g>
     </g>
     <g id="text_4">
      <!-- 0.6 -->
      <g transform="translate(176.071316 287.910437)scale(0.1 -0.1)">
       <defs>
        <path d="M 2113 2584 
Q 1688 2584 1439 2293 
Q 1191 2003 1191 1497 
Q 1191 994 1439 701 
Q 1688 409 2113 409 
Q 2538 409 2786 701 
Q 3034 994 3034 1497 
Q 3034 2003 2786 2293 
Q 2538 2584 2113 2584 
z
M 3366 4563 
L 3366 3988 
Q 3128 4100 2886 4159 
Q 2644 4219 2406 4219 
Q 1781 4219 1451 3797 
Q 1122 3375 1075 2522 
Q 1259 2794 1537 2939 
Q 1816 3084 2150 3084 
Q 2853 3084 3261 2657 
Q 3669 2231 3669 1497 
Q 3669 778 3244 343 
Q 2819 -91 2113 -91 
Q 1303 -91 875 529 
Q 447 1150 447 2328 
Q 447 3434 972 4092 
Q 1497 4750 2381 4750 
Q 2619 4750 2861 4703 
Q 3103 4656 3366 4563 
z
" id="DejaVuSans-36" transform="scale(0.015625)"/>
       </defs>
       <use xlink:href="#DejaVuSans-30"/>
       <use x="63.623047" xlink:href="#DejaVuSans-2e"/>
       <use x="95.410156" xlink:href="#DejaVuSans-36"/>
      </g>
     </g>
    </g>
    <g id="xtick_5">
     <g id="line2d_5">
      <g>
       <use style="stroke:#000000;stroke-width:0.8;" x="225.35918" xlink:href="#m3b589178ab" y="273.312"/>
      </g>
     </g>
     <g id="text_5">
      <!-- 0.8 -->
      <g transform="translate(217.407617 287.910437)scale(0.1 -0.1)">
       <defs>
        <path d="M 2034 2216 
Q 1584 2216 1326 1975 
Q 1069 1734 1069 1313 
Q 1069 891 1326 650 
Q 1584 409 2034 409 
Q 2484 409 2743 651 
Q 3003 894 3003 1313 
Q 3003 1734 2745 1975 
Q 2488 2216 2034 2216 
z
M 1403 2484 
Q 997 2584 770 2862 
Q 544 3141 544 3541 
Q 544 4100 942 4425 
Q 1341 4750 2034 4750 
Q 2731 4750 3128 4425 
Q 3525 4100 3525 3541 
Q 3525 3141 3298 2862 
Q 3072 2584 2669 2484 
Q 3125 2378 3379 2068 
Q 3634 1759 3634 1313 
Q 3634 634 3220 271 
Q 2806 -91 2034 -91 
Q 1263 -91 848 271 
Q 434 634 434 1313 
Q 434 1759 690 2068 
Q 947 2378 1403 2484 
z
M 1172 3481 
Q 1172 3119 1398 2916 
Q 1625 2713 2034 2713 
Q 2441 2713 2670 2916 
Q 2900 3119 2900 3481 
Q 2900 3844 2670 4047 
Q 2441 4250 2034 4250 
Q 1625 4250 1398 4047 
Q 1172 3844 1172 3481 
z
" id="DejaVuSans-38" transform="scale(0.015625)"/>
       </defs>
       <use xlink:href="#DejaVuSans-30"/>
       <use x="63.623047" xlink:href="#DejaVuSans-2e"/>
       <use x="95.410156" xlink:href="#DejaVuSans-38"/>
      </g>
     </g>
    </g>
    <g id="xtick_6">
     <g id="line2d_6">
      <g>
       <use style="stroke:#000000;stroke-width:0.8;" x="266.69548" xlink:href="#m3b589178ab" y="273.312"/>
      </g>
     </g>
     <g id="text_6">
      <!-- 1.0 -->
      <g transform="translate(258.743918 287.910437)scale(0.1 -0.1)">
       <defs>
        <path d="M 794 531 
L 1825 531 
L 1825 4091 
L 703 3866 
L 703 4441 
L 1819 4666 
L 2450 4666 
L 2450 531 
L 3481 531 
L 3481 0 
L 794 0 
L 794 531 
z
" id="DejaVuSans-31" transform="scale(0.015625)"/>
       </defs>
       <use xlink:href="#DejaVuSans-31"/>
       <use x="63.623047" xlink:href="#DejaVuSans-2e"/>
       <use x="95.410156" xlink:href="#DejaVuSans-30"/>
      </g>
     </g>
    </g>
    <g id="xtick_7">
     <g id="line2d_7">
      <g>
       <use style="stroke:#000000;stroke-width:0.8;" x="308.031781" xlink:href="#m3b589178ab" y="273.312"/>
      </g>
     </g>
     <g id="text_7">
      <!-- 1.2 -->
      <g transform="translate(300.080218 287.910437)scale(0.1 -0.1)">
       <use xlink:href="#DejaVuSans-31"/>
       <use x="63.623047" xlink:href="#DejaVuSans-2e"/>
       <use x="95.410156" xlink:href="#DejaVuSans-32"/>
      </g>
     </g>
    </g>
    <g id="xtick_8">
     <g id="line2d_8">
      <g>
       <use style="stroke:#000000;stroke-width:0.8;" x="349.368081" xlink:href="#m3b589178ab" y="273.312"/>
      </g>
     </g>
     <g id="text_8">
      <!-- 1.4 -->
      <g transform="translate(341.416519 287.910437)scale(0.1 -0.1)">
       <use xlink:href="#DejaVuSans-31"/>
       <use x="63.623047" xlink:href="#DejaVuSans-2e"/>
       <use x="95.410156" xlink:href="#DejaVuSans-34"/>
      </g>
     </g>
    </g>
    <g id="xtick_9">
     <g id="line2d_9">
      <g>
       <use style="stroke:#000000;stroke-width:0.8;" x="390.704382" xlink:href="#m3b589178ab" y="273.312"/>
      </g>
     </g>
     <g id="text_9">
      <!-- 1.6 -->
      <g transform="translate(382.752819 287.910437)scale(0.1 -0.1)">
       <use xlink:href="#DejaVuSans-31"/>
       <use x="63.623047" xlink:href="#DejaVuSans-2e"/>
       <use x="95.410156" xlink:href="#DejaVuSans-36"/>
      </g>
     </g>
    </g>
    <g id="text_10">
     <!-- Angle with normal (rad) -->
     <g transform="translate(163.023281 301.588562)scale(0.1 -0.1)">
      <defs>
       <path d="M 2188 4044 
L 1331 1722 
L 3047 1722 
L 2188 4044 
z
M 1831 4666 
L 2547 4666 
L 4325 0 
L 3669 0 
L 3244 1197 
L 1141 1197 
L 716 0 
L 50 0 
L 1831 4666 
z
" id="DejaVuSans-41" transform="scale(0.015625)"/>
       <path d="M 3513 2113 
L 3513 0 
L 2938 0 
L 2938 2094 
Q 2938 2591 2744 2837 
Q 2550 3084 2163 3084 
Q 1697 3084 1428 2787 
Q 1159 2491 1159 1978 
L 1159 0 
L 581 0 
L 581 3500 
L 1159 3500 
L 1159 2956 
Q 1366 3272 1645 3428 
Q 1925 3584 2291 3584 
Q 2894 3584 3203 3211 
Q 3513 2838 3513 2113 
z
" id="DejaVuSans-6e" transform="scale(0.015625)"/>
       <path d="M 2906 1791 
Q 2906 2416 2648 2759 
Q 2391 3103 1925 3103 
Q 1463 3103 1205 2759 
Q 947 2416 947 1791 
Q 947 1169 1205 825 
Q 1463 481 1925 481 
Q 2391 481 2648 825 
Q 2906 1169 2906 1791 
z
M 3481 434 
Q 3481 -459 3084 -895 
Q 2688 -1331 1869 -1331 
Q 1566 -1331 1297 -1286 
Q 1028 -1241 775 -1147 
L 775 -588 
Q 1028 -725 1275 -790 
Q 1522 -856 1778 -856 
Q 2344 -856 2625 -561 
Q 2906 -266 2906 331 
L 2906 616 
Q 2728 306 2450 153 
Q 2172 0 1784 0 
Q 1141 0 747 490 
Q 353 981 353 1791 
Q 353 2603 747 3093 
Q 1141 3584 1784 3584 
Q 2172 3584 2450 3431 
Q 2728 3278 2906 2969 
L 2906 3500 
L 3481 3500 
L 3481 434 
z
" id="DejaVuSans-67" transform="scale(0.015625)"/>
       <path d="M 603 4863 
L 1178 4863 
L 1178 0 
L 603 0 
L 603 4863 
z
" id="DejaVuSans-6c" transform="scale(0.015625)"/>
       <path d="M 3597 1894 
L 3597 1613 
L 953 1613 
Q 991 1019 1311 708 
Q 1631 397 2203 397 
Q 2534 397 2845 478 
Q 3156 559 3463 722 
L 3463 178 
Q 3153 47 2828 -22 
Q 2503 -91 2169 -91 
Q 1331 -91 842 396 
Q 353 884 353 1716 
Q 353 2575 817 3079 
Q 1281 3584 2069 3584 
Q 2775 3584 3186 3129 
Q 3597 2675 3597 1894 
z
M 3022 2063 
Q 3016 2534 2758 2815 
Q 2500 3097 2075 3097 
Q 1594 3097 1305 2825 
Q 1016 2553 972 2059 
L 3022 2063 
z
" id="DejaVuSans-65" transform="scale(0.015625)"/>
       <path id="DejaVuSans-20" transform="scale(0.015625)"/>
       <path d="M 269 3500 
L 844 3500 
L 1563 769 
L 2278 3500 
L 2956 3500 
L 3675 769 
L 4391 3500 
L 4966 3500 
L 4050 0 
L 3372 0 
L 2619 2869 
L 1863 0 
L 1184 0 
L 269 3500 
z
" id="DejaVuSans-77" transform="scale(0.015625)"/>
       <path d="M 603 3500 
L 1178 3500 
L 1178 0 
L 603 0 
L 603 3500 
z
M 603 4863 
L 1178 4863 
L 1178 4134 
L 603 4134 
L 603 4863 
z
" id="DejaVuSans-69" transform="scale(0.015625)"/>
       <path d="M 1172 4494 
L 1172 3500 
L 2356 3500 
L 2356 3053 
L 1172 3053 
L 1172 1153 
Q 1172 725 1289 603 
Q 1406 481 1766 481 
L 2356 481 
L 2356 0 
L 1766 0 
Q 1100 0 847 248 
Q 594 497 594 1153 
L 594 3053 
L 172 3053 
L 172 3500 
L 594 3500 
L 594 4494 
L 1172 4494 
z
" id="DejaVuSans-74" transform="scale(0.015625)"/>
       <path d="M 3513 2113 
L 3513 0 
L 2938 0 
L 2938 2094 
Q 2938 2591 2744 2837 
Q 2550 3084 2163 3084 
Q 1697 3084 1428 2787 
Q 1159 2491 1159 1978 
L 1159 0 
L 581 0 
L 581 4863 
L 1159 4863 
L 1159 2956 
Q 1366 3272 1645 3428 
Q 1925 3584 2291 3584 
Q 2894 3584 3203 3211 
Q 3513 2838 3513 2113 
z
" id="DejaVuSans-68" transform="scale(0.015625)"/>
       <path d="M 1959 3097 
Q 1497 3097 1228 2736 
Q 959 2375 959 1747 
Q 959 1119 1226 758 
Q 1494 397 1959 397 
Q 2419 397 2687 759 
Q 2956 1122 2956 1747 
Q 2956 2369 2687 2733 
Q 2419 3097 1959 3097 
z
M 1959 3584 
Q 2709 3584 3137 3096 
Q 3566 2609 3566 1747 
Q 3566 888 3137 398 
Q 2709 -91 1959 -91 
Q 1206 -91 779 398 
Q 353 888 353 1747 
Q 353 2609 779 3096 
Q 1206 3584 1959 3584 
z
" id="DejaVuSans-6f" transform="scale(0.015625)"/>
       <path d="M 2631 2963 
Q 2534 3019 2420 3045 
Q 2306 3072 2169 3072 
Q 1681 3072 1420 2755 
Q 1159 2438 1159 1844 
L 1159 0 
L 581 0 
L 581 3500 
L 1159 3500 
L 1159 2956 
Q 1341 3275 1631 3429 
Q 1922 3584 2338 3584 
Q 2397 3584 2469 3576 
Q 2541 3569 2628 3553 
L 2631 2963 
z
" id="DejaVuSans-72" transform="scale(0.015625)"/>
       <path d="M 3328 2828 
Q 3544 3216 3844 3400 
Q 4144 3584 4550 3584 
Q 5097 3584 5394 3201 
Q 5691 2819 5691 2113 
L 5691 0 
L 5113 0 
L 5113 2094 
Q 5113 2597 4934 2840 
Q 4756 3084 4391 3084 
Q 3944 3084 3684 2787 
Q 3425 2491 3425 1978 
L 3425 0 
L 2847 0 
L 2847 2094 
Q 2847 2600 2669 2842 
Q 2491 3084 2119 3084 
Q 1678 3084 1418 2786 
Q 1159 2488 1159 1978 
L 1159 0 
L 581 0 
L 581 3500 
L 1159 3500 
L 1159 2956 
Q 1356 3278 1631 3431 
Q 1906 3584 2284 3584 
Q 2666 3584 2933 3390 
Q 3200 3197 3328 2828 
z
" id="DejaVuSans-6d" transform="scale(0.015625)"/>
       <path d="M 2194 1759 
Q 1497 1759 1228 1600 
Q 959 1441 959 1056 
Q 959 750 1161 570 
Q 1363 391 1709 391 
Q 2188 391 2477 730 
Q 2766 1069 2766 1631 
L 2766 1759 
L 2194 1759 
z
M 3341 1997 
L 3341 0 
L 2766 0 
L 2766 531 
Q 2569 213 2275 61 
Q 1981 -91 1556 -91 
Q 1019 -91 701 211 
Q 384 513 384 1019 
Q 384 1609 779 1909 
Q 1175 2209 1959 2209 
L 2766 2209 
L 2766 2266 
Q 2766 2663 2505 2880 
Q 2244 3097 1772 3097 
Q 1472 3097 1187 3025 
Q 903 2953 641 2809 
L 641 3341 
Q 956 3463 1253 3523 
Q 1550 3584 1831 3584 
Q 2591 3584 2966 3190 
Q 3341 2797 3341 1997 
z
" id="DejaVuSans-61" transform="scale(0.015625)"/>
       <path d="M 1984 4856 
Q 1566 4138 1362 3434 
Q 1159 2731 1159 2009 
Q 1159 1288 1364 580 
Q 1569 -128 1984 -844 
L 1484 -844 
Q 1016 -109 783 600 
Q 550 1309 550 2009 
Q 550 2706 781 3412 
Q 1013 4119 1484 4856 
L 1984 4856 
z
" id="DejaVuSans-28" transform="scale(0.015625)"/>
       <path d="M 2906 2969 
L 2906 4863 
L 3481 4863 
L 3481 0 
L 2906 0 
L 2906 525 
Q 2725 213 2448 61 
Q 2172 -91 1784 -91 
Q 1150 -91 751 415 
Q 353 922 353 1747 
Q 353 2572 751 3078 
Q 1150 3584 1784 3584 
Q 2172 3584 2448 3432 
Q 2725 3281 2906 2969 
z
M 947 1747 
Q 947 1113 1208 752 
Q 1469 391 1925 391 
Q 2381 391 2643 752 
Q 2906 1113 2906 1747 
Q 2906 2381 2643 2742 
Q 2381 3103 1925 3103 
Q 1469 3103 1208 2742 
Q 947 2381 947 1747 
z
" id="DejaVuSans-64" transform="scale(0.015625)"/>
       <path d="M 513 4856 
L 1013 4856 
Q 1481 4119 1714 3412 
Q 1947 2706 1947 2009 
Q 1947 1309 1714 600 
Q 1481 -109 1013 -844 
L 513 -844 
Q 928 -128 1133 580 
Q 1338 1288 1338 2009 
Q 1338 2731 1133 3434 
Q 928 4138 513 4856 
z
" id="DejaVuSans-29" transform="scale(0.015625)"/>
      </defs>
      <use xlink:href="#DejaVuSans-41"/>
      <use x="68.408203" xlink:href="#DejaVuSans-6e"/>
      <use x="131.787109" xlink:href="#DejaVuSans-67"/>
      <use x="195.263672" xlink:href="#DejaVuSans-6c"/>
      <use x="223.046875" xlink:href="#DejaVuSans-65"/>
      <use x="284.570312" xlink:href="#DejaVuSans-20"/>
      <use x="316.357422" xlink:href="#DejaVuSans-77"/>
      <use x="398.144531" xlink:href="#DejaVuSans-69"/>
      <use x="425.927734" xlink:href="#DejaVuSans-74"/>
      <use x="465.136719" xlink:href="#DejaVuSans-68"/>
      <use x="528.515625" xlink:href="#DejaVuSans-20"/>
      <use x="560.302734" xlink:href="#DejaVuSans-6e"/>
      <use x="623.681641" xlink:href="#DejaVuSans-6f"/>
      <use x="684.863281" xlink:href="#DejaVuSans-72"/>
      <use x="724.226562" xlink:href="#DejaVuSans-6d"/>
      <use x="821.638672" xlink:href="#DejaVuSans-61"/>
      <use x="882.917969" xlink:href="#DejaVuSans-6c"/>
      <use x="910.701172" xlink:href="#DejaVuSans-20"/>
      <use x="942.488281" xlink:href="#DejaVuSans-28"/>
      <use x="981.501953" xlink:href="#DejaVuSans-72"/>
      <use x="1022.615234" xlink:href="#DejaVuSans-61"/>
      <use x="1083.894531" xlink:href="#DejaVuSans-64"/>
      <use x="1147.371094" xlink:href="#DejaVuSans-29"/>
     </g>
    </g>
   </g>
   <g id="matplotlib.axis_2">
    <g id="ytick_1">
     <g id="line2d_10">
      <defs>
       <path d="M 0 0 
L -3.5 0 
" id="m1681c3e45b" style="stroke:#000000;stroke-width:0.8;"/>
      </defs>
      <g>
       <use style="stroke:#000000;stroke-width:0.8;" x="43.78125" xlink:href="#m1681c3e45b" y="273.312"/>
      </g>
     </g>
     <g id="text_11">
      <!-- 0.0 -->
      <g transform="translate(20.878125 277.111219)scale(0.1 -0.1)">
       <use xlink:href="#DejaVuSans-30"/>
       <use x="63.623047" xlink:href="#DejaVuSans-2e"/>
       <use x="95.410156" xlink:href="#DejaVuSans-30"/>
      </g>
     </g>
    </g>
    <g id="ytick_2">
     <g id="line2d_11">
      <g>
       <use style="stroke:#000000;stroke-width:0.8;" x="43.78125" xlink:href="#m1681c3e45b" y="227.684673"/>
      </g>
     </g>
     <g id="text_12">
      <!-- 0.2 -->
      <g transform="translate(20.878125 231.483892)scale(0.1 -0.1)">
       <use xlink:href="#DejaVuSans-30"/>
       <use x="63.623047" xlink:href="#DejaVuSans-2e"/>
       <use x="95.410156" xlink:href="#DejaVuSans-32"/>
      </g>
     </g>
    </g>
    <g id="ytick_3">
     <g id="line2d_12">
      <g>
       <use style="stroke:#000000;stroke-width:0.8;" x="43.78125" xlink:href="#m1681c3e45b" y="182.057347"/>
      </g>
     </g>
     <g id="text_13">
      <!-- 0.4 -->
      <g transform="translate(20.878125 185.856566)scale(0.1 -0.1)">
       <use xlink:href="#DejaVuSans-30"/>
       <use x="63.623047" xlink:href="#DejaVuSans-2e"/>
       <use x="95.410156" xlink:href="#DejaVuSans-34"/>
      </g>
     </g>
    </g>
    <g id="ytick_4">
     <g id="line2d_13">
      <g>
       <use style="stroke:#000000;stroke-width:0.8;" x="43.78125" xlink:href="#m1681c3e45b" y="136.43002"/>
      </g>
     </g>
     <g id="text_14">
      <!-- 0.6 -->
      <g transform="translate(20.878125 140.229239)scale(0.1 -0.1)">
       <use xlink:href="#DejaVuSans-30"/>
       <use x="63.623047" xlink:href="#DejaVuSans-2e"/>
       <use x="95.410156" xlink:href="#DejaVuSans-36"/>
      </g>
     </g>
    </g>
    <g id="ytick_5">
     <g id="line2d_14">
      <g>
       <use style="stroke:#000000;stroke-width:0.8;" x="43.78125" xlink:href="#m1681c3e45b" y="90.802694"/>
      </g>
     </g>
     <g id="text_15">
      <!-- 0.8 -->
      <g transform="translate(20.878125 94.601913)scale(0.1 -0.1)">
       <use xlink:href="#DejaVuSans-30"/>
       <use x="63.623047" xlink:href="#DejaVuSans-2e"/>
       <use x="95.410156" xlink:href="#DejaVuSans-38"/>
      </g>
     </g>
    </g>
    <g id="ytick_6">
     <g id="line2d_15">
      <g>
       <use style="stroke:#000000;stroke-width:0.8;" x="43.78125" xlink:href="#m1681c3e45b" y="45.175367"/>
      </g>
     </g>
     <g id="text_16">
      <!-- 1.0 -->
      <g transform="translate(20.878125 48.974586)scale(0.1 -0.1)">
       <use xlink:href="#DejaVuSans-31"/>
       <use x="63.623047" xlink:href="#DejaVuSans-2e"/>
       <use x="95.410156" xlink:href="#DejaVuSans-30"/>
      </g>
     </g>
    </g>
    <g id="text_17">
     <!-- Probability density -->
     <g transform="translate(14.798438 186.606781)rotate(-90)scale(0.1 -0.1)">
      <defs>
       <path d="M 1259 4147 
L 1259 2394 
L 2053 2394 
Q 2494 2394 2734 2622 
Q 2975 2850 2975 3272 
Q 2975 3691 2734 3919 
Q 2494 4147 2053 4147 
L 1259 4147 
z
M 628 4666 
L 2053 4666 
Q 2838 4666 3239 4311 
Q 3641 3956 3641 3272 
Q 3641 2581 3239 2228 
Q 2838 1875 2053 1875 
L 1259 1875 
L 1259 0 
L 628 0 
L 628 4666 
z
" id="DejaVuSans-50" transform="scale(0.015625)"/>
       <path d="M 3116 1747 
Q 3116 2381 2855 2742 
Q 2594 3103 2138 3103 
Q 1681 3103 1420 2742 
Q 1159 2381 1159 1747 
Q 1159 1113 1420 752 
Q 1681 391 2138 391 
Q 2594 391 2855 752 
Q 3116 1113 3116 1747 
z
M 1159 2969 
Q 1341 3281 1617 3432 
Q 1894 3584 2278 3584 
Q 2916 3584 3314 3078 
Q 3713 2572 3713 1747 
Q 3713 922 3314 415 
Q 2916 -91 2278 -91 
Q 1894 -91 1617 61 
Q 1341 213 1159 525 
L 1159 0 
L 581 0 
L 581 4863 
L 1159 4863 
L 1159 2969 
z
" id="DejaVuSans-62" transform="scale(0.015625)"/>
       <path d="M 2059 -325 
Q 1816 -950 1584 -1140 
Q 1353 -1331 966 -1331 
L 506 -1331 
L 506 -850 
L 844 -850 
Q 1081 -850 1212 -737 
Q 1344 -625 1503 -206 
L 1606 56 
L 191 3500 
L 800 3500 
L 1894 763 
L 2988 3500 
L 3597 3500 
L 2059 -325 
z
" id="DejaVuSans-79" transform="scale(0.015625)"/>
       <path d="M 2834 3397 
L 2834 2853 
Q 2591 2978 2328 3040 
Q 2066 3103 1784 3103 
Q 1356 3103 1142 2972 
Q 928 2841 928 2578 
Q 928 2378 1081 2264 
Q 1234 2150 1697 2047 
L 1894 2003 
Q 2506 1872 2764 1633 
Q 3022 1394 3022 966 
Q 3022 478 2636 193 
Q 2250 -91 1575 -91 
Q 1294 -91 989 -36 
Q 684 19 347 128 
L 347 722 
Q 666 556 975 473 
Q 1284 391 1588 391 
Q 1994 391 2212 530 
Q 2431 669 2431 922 
Q 2431 1156 2273 1281 
Q 2116 1406 1581 1522 
L 1381 1569 
Q 847 1681 609 1914 
Q 372 2147 372 2553 
Q 372 3047 722 3315 
Q 1072 3584 1716 3584 
Q 2034 3584 2315 3537 
Q 2597 3491 2834 3397 
z
" id="DejaVuSans-73" transform="scale(0.015625)"/>
      </defs>
      <use xlink:href="#DejaVuSans-50"/>
      <use x="58.552734" xlink:href="#DejaVuSans-72"/>
      <use x="97.416016" xlink:href="#DejaVuSans-6f"/>
      <use x="158.597656" xlink:href="#DejaVuSans-62"/>
      <use x="222.074219" xlink:href="#DejaVuSans-61"/>
      <use x="283.353516" xlink:href="#DejaVuSans-62"/>
      <use x="346.830078" xlink:href="#DejaVuSans-69"/>
      <use x="374.613281" xlink:href="#DejaVuSans-6c"/>
      <use x="402.396484" xlink:href="#DejaVuSans-69"/>
      <use x="430.179688" xlink:href="#DejaVuSans-74"/>
      <use x="469.388672" xlink:href="#DejaVuSans-79"/>
      <use x="528.568359" xlink:href="#DejaVuSans-20"/>
      <use x="560.355469" xlink:href="#DejaVuSans-64"/>
      <use x="623.832031" xlink:href="#DejaVuSans-65"/>
      <use x="685.355469" xlink:href="#DejaVuSans-6e"/>
      <use x="748.734375" xlink:href="#DejaVuSans-73"/>
      <use x="800.833984" xlink:href="#DejaVuSans-69"/>
      <use x="828.617188" xlink:href="#DejaVuSans-74"/>
      <use x="867.826172" xlink:href="#DejaVuSans-79"/>
     </g>
    </g>
   </g>
   <g id="line2d_16">
    <path clip-path="url(#p79f686c795)" d="M 60.013977 273.312 
L 79.837728 229.816691 
L 90.237073 207.538112 
L 99.01152 189.249264 
L 106.811029 173.496974 
L 113.960578 159.554481 
L 120.460169 147.350089 
L 126.63478 136.216568 
L 132.484411 126.119742 
L 138.009063 117.016257 
L 143.208736 108.85578 
L 148.408408 101.111566 
L 153.283101 94.246863 
L 157.832814 88.198928 
L 162.382528 82.509743 
L 166.932241 77.190333 
L 171.156975 72.591004 
L 175.381709 68.327093 
L 179.281463 64.695057 
L 183.181217 61.360071 
L 187.080972 58.326883 
L 190.655746 55.815278 
L 194.230521 53.563908 
L 197.805296 51.575465 
L 201.380071 49.852328 
L 204.629866 48.517806 
L 207.879661 47.405573 
L 211.129456 46.516729 
L 214.379252 45.852153 
L 217.629047 45.412502 
L 220.878842 45.19821 
L 224.128637 45.20949 
L 227.378433 45.446331 
L 230.628228 45.908498 
L 233.878023 46.595534 
L 237.127818 47.50676 
L 240.377614 48.641275 
L 243.627409 49.997957 
L 247.202184 51.745302 
L 250.776958 53.757751 
L 254.351733 56.032895 
L 257.926508 58.568013 
L 261.501283 61.360071 
L 265.401037 64.695057 
L 269.300791 68.327093 
L 273.200546 72.251008 
L 277.425279 76.824802 
L 281.650013 81.726939 
L 286.199727 87.363958 
L 290.74944 93.361345 
L 295.624133 100.173796 
L 300.498826 107.371427 
L 305.698498 115.455396 
L 311.22315 124.481926 
L 316.747802 133.933715 
L 322.597433 144.374977 
L 328.772044 155.843697 
L 335.596614 169.005695 
L 342.746164 183.281185 
L 350.870652 200.022344 
L 359.970079 219.304939 
L 371.019383 243.26748 
L 384.668523 273.312 
L 384.668523 273.312 
" style="fill:none;stroke:#ff7f0e;stroke-linecap:square;stroke-width:1.5;"/>
   </g>
   <g id="patch_203">
    <path d="M 43.78125 273.312 
L 43.78125 7.2 
" style="fill:none;stroke:#000000;stroke-linecap:square;stroke-linejoin:miter;stroke-width:0.8;"/>
   </g>
   <g id="patch_204">
    <path d="M 400.90125 273.312 
L 400.90125 7.2 
" style="fill:none;stroke:#000000;stroke-linecap:square;stroke-linejoin:miter;stroke-width:0.8;"/>
   </g>
   <g id="patch_205">
    <path d="M 43.78125 273.312 
L 400.90125 273.312 
" style="fill:none;stroke:#000000;stroke-linecap:square;stroke-linejoin:miter;stroke-width:0.8;"/>
   </g>
   <g id="patch_206">
    <path d="M 43.78125 7.2 
L 400.90125 7.2 
" style="fill:none;stroke:#000000;stroke-linecap:square;stroke-linejoin:miter;stroke-width:0.8;"/>
   </g>
  </g>
 </g>
 <defs>
  <clipPath id="p79f686c795">
   <rect height="266.112" width="357.12" x="43.78125" y="7.2"/>
  </clipPath>
 </defs>
</svg>
