<?xml version="1.0" encoding="utf-8" standalone="no"?>
<!DOCTYPE svg PUBLIC "-//W3C//DTD SVG 1.1//EN"
  "http://www.w3.org/Graphics/SVG/1.1/DTD/svg11.dtd">
<svg height="310.86825pt" version="1.1" viewBox="0 0 414.46375 310.86825" width="414.46375pt" xmlns="http://www.w3.org/2000/svg" xmlns:xlink="http://www.w3.org/1999/xlink">
 <metadata>
  <rdf:RDF xmlns:cc="http://creativecommons.org/ns#" xmlns:dc="http://purl.org/dc/elements/1.1/" xmlns:rdf="http://www.w3.org/1999/02/22-rdf-syntax-ns#">
   <cc:Work>
    <dc:type rdf:resource="http://purl.org/dc/dcmitype/StillImage"/>
    <dc:date>2021-08-24T04:27:51.896516</dc:date>
    <dc:format>image/svg+xml</dc:format>
    <dc:creator>
     <cc:Agent>
      <dc:title>Matplotlib v3.4.3, https://matplotlib.org/</dc:title>
     </cc:Agent>
    </dc:creator>
   </cc:Work>
  </rdf:RDF>
 </metadata>
 <defs>
  <style type="text/css">*{stroke-linecap:butt;stroke-linejoin:round;}</style>
 </defs>
 <g id="figure_1">
  <g id="patch_1">
   <path d="M 0 310.86825 
L 414.46375 310.86825 
L 414.46375 0 
L 0 0 
z
" style="fill:#ffffff;"/>
  </g>
  <g id="axes_1">
   <g id="patch_2">
    <path d="M 50.14375 273.312 
L 407.26375 273.312 
L 407.26375 7.2 
L 50.14375 7.2 
z
" style="fill:#ffffff;"/>
   </g>
   <g id="patch_3">
    <path clip-path="url(#p53a59d5849)" d="M 68.125159 273.312 
L 69.739677 273.312 
L 69.739677 270.845431 
L 68.125159 270.845431 
z
" style="fill:#1f77b4;"/>
   </g>
   <g id="patch_4">
    <path clip-path="url(#p53a59d5849)" d="M 69.739677 273.312 
L 71.354196 273.312 
L 71.354196 266.528934 
L 69.739677 266.528934 
z
" style="fill:#1f77b4;"/>
   </g>
   <g id="patch_5">
    <path clip-path="url(#p53a59d5849)" d="M 71.354196 273.312 
L 72.968715 273.312 
L 72.968715 269.612146 
L 71.354196 269.612146 
z
" style="fill:#1f77b4;"/>
   </g>
   <g id="patch_6">
    <path clip-path="url(#p53a59d5849)" d="M 72.968715 273.312 
L 74.583233 273.312 
L 74.583233 268.995504 
L 72.968715 268.995504 
z
" style="fill:#1f77b4;"/>
   </g>
   <g id="patch_7">
    <path clip-path="url(#p53a59d5849)" d="M 74.583233 273.312 
L 76.197752 273.312 
L 76.197752 264.679007 
L 74.583233 264.679007 
z
" style="fill:#1f77b4;"/>
   </g>
   <g id="patch_8">
    <path clip-path="url(#p53a59d5849)" d="M 76.197752 273.312 
L 77.812271 273.312 
L 77.812271 264.062365 
L 76.197752 264.062365 
z
" style="fill:#1f77b4;"/>
   </g>
   <g id="patch_9">
    <path clip-path="url(#p53a59d5849)" d="M 77.812271 273.312 
L 79.426789 273.312 
L 79.426789 264.679007 
L 77.812271 264.679007 
z
" style="fill:#1f77b4;"/>
   </g>
   <g id="patch_10">
    <path clip-path="url(#p53a59d5849)" d="M 79.426789 273.312 
L 81.041308 273.312 
L 81.041308 264.679007 
L 79.426789 264.679007 
z
" style="fill:#1f77b4;"/>
   </g>
   <g id="patch_11">
    <path clip-path="url(#p53a59d5849)" d="M 81.041308 273.312 
L 82.655826 273.312 
L 82.655826 259.129226 
L 81.041308 259.129226 
z
" style="fill:#1f77b4;"/>
   </g>
   <g id="patch_12">
    <path clip-path="url(#p53a59d5849)" d="M 82.655826 273.312 
L 84.270345 273.312 
L 84.270345 265.29565 
L 82.655826 265.29565 
z
" style="fill:#1f77b4;"/>
   </g>
   <g id="patch_13">
    <path clip-path="url(#p53a59d5849)" d="M 84.270345 273.312 
L 85.884864 273.312 
L 85.884864 258.512584 
L 84.270345 258.512584 
z
" style="fill:#1f77b4;"/>
   </g>
   <g id="patch_14">
    <path clip-path="url(#p53a59d5849)" d="M 85.884864 273.312 
L 87.499382 273.312 
L 87.499382 259.129226 
L 85.884864 259.129226 
z
" style="fill:#1f77b4;"/>
   </g>
   <g id="patch_15">
    <path clip-path="url(#p53a59d5849)" d="M 87.499382 273.312 
L 89.113901 273.312 
L 89.113901 254.81273 
L 87.499382 254.81273 
z
" style="fill:#1f77b4;"/>
   </g>
   <g id="patch_16">
    <path clip-path="url(#p53a59d5849)" d="M 89.113901 273.312 
L 90.728419 273.312 
L 90.728419 259.745869 
L 89.113901 259.745869 
z
" style="fill:#1f77b4;"/>
   </g>
   <g id="patch_17">
    <path clip-path="url(#p53a59d5849)" d="M 90.728419 273.312 
L 92.342938 273.312 
L 92.342938 259.745869 
L 90.728419 259.745869 
z
" style="fill:#1f77b4;"/>
   </g>
   <g id="patch_18">
    <path clip-path="url(#p53a59d5849)" d="M 92.342938 273.312 
L 93.957457 273.312 
L 93.957457 250.496234 
L 92.342938 250.496234 
z
" style="fill:#1f77b4;"/>
   </g>
   <g id="patch_19">
    <path clip-path="url(#p53a59d5849)" d="M 93.957457 273.312 
L 95.571975 273.312 
L 95.571975 256.046015 
L 93.957457 256.046015 
z
" style="fill:#1f77b4;"/>
   </g>
   <g id="patch_20">
    <path clip-path="url(#p53a59d5849)" d="M 95.571975 273.312 
L 97.186494 273.312 
L 97.186494 251.112876 
L 95.571975 251.112876 
z
" style="fill:#1f77b4;"/>
   </g>
   <g id="patch_21">
    <path clip-path="url(#p53a59d5849)" d="M 97.186494 273.312 
L 98.801013 273.312 
L 98.801013 249.262949 
L 97.186494 249.262949 
z
" style="fill:#1f77b4;"/>
   </g>
   <g id="patch_22">
    <path clip-path="url(#p53a59d5849)" d="M 98.801013 273.312 
L 100.415531 273.312 
L 100.415531 252.346161 
L 98.801013 252.346161 
z
" style="fill:#1f77b4;"/>
   </g>
   <g id="patch_23">
    <path clip-path="url(#p53a59d5849)" d="M 100.415531 273.312 
L 102.03005 273.312 
L 102.03005 244.32981 
L 100.415531 244.32981 
z
" style="fill:#1f77b4;"/>
   </g>
   <g id="patch_24">
    <path clip-path="url(#p53a59d5849)" d="M 102.03005 273.312 
L 103.644568 273.312 
L 103.644568 251.112876 
L 102.03005 251.112876 
z
" style="fill:#1f77b4;"/>
   </g>
   <g id="patch_25">
    <path clip-path="url(#p53a59d5849)" d="M 103.644568 273.312 
L 105.259087 273.312 
L 105.259087 245.563095 
L 103.644568 245.563095 
z
" style="fill:#1f77b4;"/>
   </g>
   <g id="patch_26">
    <path clip-path="url(#p53a59d5849)" d="M 105.259087 273.312 
L 106.873606 273.312 
L 106.873606 249.262949 
L 105.259087 249.262949 
z
" style="fill:#1f77b4;"/>
   </g>
   <g id="patch_27">
    <path clip-path="url(#p53a59d5849)" d="M 106.873606 273.312 
L 108.488124 273.312 
L 108.488124 231.380321 
L 106.873606 231.380321 
z
" style="fill:#1f77b4;"/>
   </g>
   <g id="patch_28">
    <path clip-path="url(#p53a59d5849)" d="M 108.488124 273.312 
L 110.102643 273.312 
L 110.102643 243.713168 
L 108.488124 243.713168 
z
" style="fill:#1f77b4;"/>
   </g>
   <g id="patch_29">
    <path clip-path="url(#p53a59d5849)" d="M 110.102643 273.312 
L 111.717161 273.312 
L 111.717161 236.930102 
L 110.102643 236.930102 
z
" style="fill:#1f77b4;"/>
   </g>
   <g id="patch_30">
    <path clip-path="url(#p53a59d5849)" d="M 111.717161 273.312 
L 113.33168 273.312 
L 113.33168 240.013314 
L 111.717161 240.013314 
z
" style="fill:#1f77b4;"/>
   </g>
   <g id="patch_31">
    <path clip-path="url(#p53a59d5849)" d="M 113.33168 273.312 
L 114.946199 273.312 
L 114.946199 238.163387 
L 113.33168 238.163387 
z
" style="fill:#1f77b4;"/>
   </g>
   <g id="patch_32">
    <path clip-path="url(#p53a59d5849)" d="M 114.946199 273.312 
L 116.560717 273.312 
L 116.560717 244.946453 
L 114.946199 244.946453 
z
" style="fill:#1f77b4;"/>
   </g>
   <g id="patch_33">
    <path clip-path="url(#p53a59d5849)" d="M 116.560717 273.312 
L 118.175236 273.312 
L 118.175236 237.546745 
L 116.560717 237.546745 
z
" style="fill:#1f77b4;"/>
   </g>
   <g id="patch_34">
    <path clip-path="url(#p53a59d5849)" d="M 118.175236 273.312 
L 119.789755 273.312 
L 119.789755 227.063825 
L 118.175236 227.063825 
z
" style="fill:#1f77b4;"/>
   </g>
   <g id="patch_35">
    <path clip-path="url(#p53a59d5849)" d="M 119.789755 273.312 
L 121.404273 273.312 
L 121.404273 225.83054 
L 119.789755 225.83054 
z
" style="fill:#1f77b4;"/>
   </g>
   <g id="patch_36">
    <path clip-path="url(#p53a59d5849)" d="M 121.404273 273.312 
L 123.018792 273.312 
L 123.018792 216.580905 
L 121.404273 216.580905 
z
" style="fill:#1f77b4;"/>
   </g>
   <g id="patch_37">
    <path clip-path="url(#p53a59d5849)" d="M 123.018792 273.312 
L 124.63331 273.312 
L 124.63331 233.846891 
L 123.018792 233.846891 
z
" style="fill:#1f77b4;"/>
   </g>
   <g id="patch_38">
    <path clip-path="url(#p53a59d5849)" d="M 124.63331 273.312 
L 126.247829 273.312 
L 126.247829 223.363971 
L 124.63331 223.363971 
z
" style="fill:#1f77b4;"/>
   </g>
   <g id="patch_39">
    <path clip-path="url(#p53a59d5849)" d="M 126.247829 273.312 
L 127.862348 273.312 
L 127.862348 220.897401 
L 126.247829 220.897401 
z
" style="fill:#1f77b4;"/>
   </g>
   <g id="patch_40">
    <path clip-path="url(#p53a59d5849)" d="M 127.862348 273.312 
L 129.476866 273.312 
L 129.476866 225.213898 
L 127.862348 225.213898 
z
" style="fill:#1f77b4;"/>
   </g>
   <g id="patch_41">
    <path clip-path="url(#p53a59d5849)" d="M 129.476866 273.312 
L 131.091385 273.312 
L 131.091385 224.597255 
L 129.476866 224.597255 
z
" style="fill:#1f77b4;"/>
   </g>
   <g id="patch_42">
    <path clip-path="url(#p53a59d5849)" d="M 131.091385 273.312 
L 132.705903 273.312 
L 132.705903 221.514044 
L 131.091385 221.514044 
z
" style="fill:#1f77b4;"/>
   </g>
   <g id="patch_43">
    <path clip-path="url(#p53a59d5849)" d="M 132.705903 273.312 
L 134.320422 273.312 
L 134.320422 223.980613 
L 132.705903 223.980613 
z
" style="fill:#1f77b4;"/>
   </g>
   <g id="patch_44">
    <path clip-path="url(#p53a59d5849)" d="M 134.320422 273.312 
L 135.934941 273.312 
L 135.934941 215.964263 
L 134.320422 215.964263 
z
" style="fill:#1f77b4;"/>
   </g>
   <g id="patch_45">
    <path clip-path="url(#p53a59d5849)" d="M 135.934941 273.312 
L 137.549459 273.312 
L 137.549459 221.514044 
L 135.934941 221.514044 
z
" style="fill:#1f77b4;"/>
   </g>
   <g id="patch_46">
    <path clip-path="url(#p53a59d5849)" d="M 137.549459 273.312 
L 139.163978 273.312 
L 139.163978 223.980613 
L 137.549459 223.980613 
z
" style="fill:#1f77b4;"/>
   </g>
   <g id="patch_47">
    <path clip-path="url(#p53a59d5849)" d="M 139.163978 273.312 
L 140.778496 273.312 
L 140.778496 222.747328 
L 139.163978 222.747328 
z
" style="fill:#1f77b4;"/>
   </g>
   <g id="patch_48">
    <path clip-path="url(#p53a59d5849)" d="M 140.778496 273.312 
L 142.393015 273.312 
L 142.393015 222.130686 
L 140.778496 222.130686 
z
" style="fill:#1f77b4;"/>
   </g>
   <g id="patch_49">
    <path clip-path="url(#p53a59d5849)" d="M 142.393015 273.312 
L 144.007534 273.312 
L 144.007534 199.931562 
L 142.393015 199.931562 
z
" style="fill:#1f77b4;"/>
   </g>
   <g id="patch_50">
    <path clip-path="url(#p53a59d5849)" d="M 144.007534 273.312 
L 145.622052 273.312 
L 145.622052 217.197547 
L 144.007534 217.197547 
z
" style="fill:#1f77b4;"/>
   </g>
   <g id="patch_51">
    <path clip-path="url(#p53a59d5849)" d="M 145.622052 273.312 
L 147.236571 273.312 
L 147.236571 206.714628 
L 145.622052 206.714628 
z
" style="fill:#1f77b4;"/>
   </g>
   <g id="patch_52">
    <path clip-path="url(#p53a59d5849)" d="M 147.236571 273.312 
L 148.85109 273.312 
L 148.85109 216.580905 
L 147.236571 216.580905 
z
" style="fill:#1f77b4;"/>
   </g>
   <g id="patch_53">
    <path clip-path="url(#p53a59d5849)" d="M 148.85109 273.312 
L 150.465608 273.312 
L 150.465608 215.34762 
L 148.85109 215.34762 
z
" style="fill:#1f77b4;"/>
   </g>
   <g id="patch_54">
    <path clip-path="url(#p53a59d5849)" d="M 150.465608 273.312 
L 152.080127 273.312 
L 152.080127 212.264409 
L 150.465608 212.264409 
z
" style="fill:#1f77b4;"/>
   </g>
   <g id="patch_55">
    <path clip-path="url(#p53a59d5849)" d="M 152.080127 273.312 
L 153.694645 273.312 
L 153.694645 204.864701 
L 152.080127 204.864701 
z
" style="fill:#1f77b4;"/>
   </g>
   <g id="patch_56">
    <path clip-path="url(#p53a59d5849)" d="M 153.694645 273.312 
L 155.309164 273.312 
L 155.309164 211.031124 
L 153.694645 211.031124 
z
" style="fill:#1f77b4;"/>
   </g>
   <g id="patch_57">
    <path clip-path="url(#p53a59d5849)" d="M 155.309164 273.312 
L 156.923683 273.312 
L 156.923683 207.33127 
L 155.309164 207.33127 
z
" style="fill:#1f77b4;"/>
   </g>
   <g id="patch_58">
    <path clip-path="url(#p53a59d5849)" d="M 156.923683 273.312 
L 158.538201 273.312 
L 158.538201 198.081635 
L 156.923683 198.081635 
z
" style="fill:#1f77b4;"/>
   </g>
   <g id="patch_59">
    <path clip-path="url(#p53a59d5849)" d="M 158.538201 273.312 
L 160.15272 273.312 
L 160.15272 209.181197 
L 158.538201 209.181197 
z
" style="fill:#1f77b4;"/>
   </g>
   <g id="patch_60">
    <path clip-path="url(#p53a59d5849)" d="M 160.15272 273.312 
L 161.767238 273.312 
L 161.767238 198.698277 
L 160.15272 198.698277 
z
" style="fill:#1f77b4;"/>
   </g>
   <g id="patch_61">
    <path clip-path="url(#p53a59d5849)" d="M 161.767238 273.312 
L 163.381757 273.312 
L 163.381757 198.081635 
L 161.767238 198.081635 
z
" style="fill:#1f77b4;"/>
   </g>
   <g id="patch_62">
    <path clip-path="url(#p53a59d5849)" d="M 163.381757 273.312 
L 164.996276 273.312 
L 164.996276 208.564555 
L 163.381757 208.564555 
z
" style="fill:#1f77b4;"/>
   </g>
   <g id="patch_63">
    <path clip-path="url(#p53a59d5849)" d="M 164.996276 273.312 
L 166.610794 273.312 
L 166.610794 196.84835 
L 164.996276 196.84835 
z
" style="fill:#1f77b4;"/>
   </g>
   <g id="patch_64">
    <path clip-path="url(#p53a59d5849)" d="M 166.610794 273.312 
L 168.225313 273.312 
L 168.225313 196.84835 
L 166.610794 196.84835 
z
" style="fill:#1f77b4;"/>
   </g>
   <g id="patch_65">
    <path clip-path="url(#p53a59d5849)" d="M 168.225313 273.312 
L 169.839832 273.312 
L 169.839832 196.84835 
L 168.225313 196.84835 
z
" style="fill:#1f77b4;"/>
   </g>
   <g id="patch_66">
    <path clip-path="url(#p53a59d5849)" d="M 169.839832 273.312 
L 171.45435 273.312 
L 171.45435 206.097985 
L 169.839832 206.097985 
z
" style="fill:#1f77b4;"/>
   </g>
   <g id="patch_67">
    <path clip-path="url(#p53a59d5849)" d="M 171.45435 273.312 
L 173.068869 273.312 
L 173.068869 189.448642 
L 171.45435 189.448642 
z
" style="fill:#1f77b4;"/>
   </g>
   <g id="patch_68">
    <path clip-path="url(#p53a59d5849)" d="M 173.068869 273.312 
L 174.683387 273.312 
L 174.683387 205.481343 
L 173.068869 205.481343 
z
" style="fill:#1f77b4;"/>
   </g>
   <g id="patch_69">
    <path clip-path="url(#p53a59d5849)" d="M 174.683387 273.312 
L 176.297906 273.312 
L 176.297906 190.681927 
L 174.683387 190.681927 
z
" style="fill:#1f77b4;"/>
   </g>
   <g id="patch_70">
    <path clip-path="url(#p53a59d5849)" d="M 176.297906 273.312 
L 177.912425 273.312 
L 177.912425 186.365431 
L 176.297906 186.365431 
z
" style="fill:#1f77b4;"/>
   </g>
   <g id="patch_71">
    <path clip-path="url(#p53a59d5849)" d="M 177.912425 273.312 
L 179.526943 273.312 
L 179.526943 199.931562 
L 177.912425 199.931562 
z
" style="fill:#1f77b4;"/>
   </g>
   <g id="patch_72">
    <path clip-path="url(#p53a59d5849)" d="M 179.526943 273.312 
L 181.141462 273.312 
L 181.141462 180.81565 
L 179.526943 180.81565 
z
" style="fill:#1f77b4;"/>
   </g>
   <g id="patch_73">
    <path clip-path="url(#p53a59d5849)" d="M 181.141462 273.312 
L 182.75598 273.312 
L 182.75598 184.515504 
L 181.141462 184.515504 
z
" style="fill:#1f77b4;"/>
   </g>
   <g id="patch_74">
    <path clip-path="url(#p53a59d5849)" d="M 182.75598 273.312 
L 184.370499 273.312 
L 184.370499 196.231708 
L 182.75598 196.231708 
z
" style="fill:#1f77b4;"/>
   </g>
   <g id="patch_75">
    <path clip-path="url(#p53a59d5849)" d="M 184.370499 273.312 
L 185.985018 273.312 
L 185.985018 176.499153 
L 184.370499 176.499153 
z
" style="fill:#1f77b4;"/>
   </g>
   <g id="patch_76">
    <path clip-path="url(#p53a59d5849)" d="M 185.985018 273.312 
L 187.599536 273.312 
L 187.599536 170.33273 
L 185.985018 170.33273 
z
" style="fill:#1f77b4;"/>
   </g>
   <g id="patch_77">
    <path clip-path="url(#p53a59d5849)" d="M 187.599536 273.312 
L 189.214055 273.312 
L 189.214055 186.365431 
L 187.599536 186.365431 
z
" style="fill:#1f77b4;"/>
   </g>
   <g id="patch_78">
    <path clip-path="url(#p53a59d5849)" d="M 189.214055 273.312 
L 190.828574 273.312 
L 190.828574 182.665577 
L 189.214055 182.665577 
z
" style="fill:#1f77b4;"/>
   </g>
   <g id="patch_79">
    <path clip-path="url(#p53a59d5849)" d="M 190.828574 273.312 
L 192.443092 273.312 
L 192.443092 187.598715 
L 190.828574 187.598715 
z
" style="fill:#1f77b4;"/>
   </g>
   <g id="patch_80">
    <path clip-path="url(#p53a59d5849)" d="M 192.443092 273.312 
L 194.057611 273.312 
L 194.057611 166.632876 
L 192.443092 166.632876 
z
" style="fill:#1f77b4;"/>
   </g>
   <g id="patch_81">
    <path clip-path="url(#p53a59d5849)" d="M 194.057611 273.312 
L 195.672129 273.312 
L 195.672129 172.799299 
L 194.057611 172.799299 
z
" style="fill:#1f77b4;"/>
   </g>
   <g id="patch_82">
    <path clip-path="url(#p53a59d5849)" d="M 195.672129 273.312 
L 197.286648 273.312 
L 197.286648 178.34908 
L 195.672129 178.34908 
z
" style="fill:#1f77b4;"/>
   </g>
   <g id="patch_83">
    <path clip-path="url(#p53a59d5849)" d="M 197.286648 273.312 
L 198.901167 273.312 
L 198.901167 188.215358 
L 197.286648 188.215358 
z
" style="fill:#1f77b4;"/>
   </g>
   <g id="patch_84">
    <path clip-path="url(#p53a59d5849)" d="M 198.901167 273.312 
L 200.515685 273.312 
L 200.515685 169.099445 
L 198.901167 169.099445 
z
" style="fill:#1f77b4;"/>
   </g>
   <g id="patch_85">
    <path clip-path="url(#p53a59d5849)" d="M 200.515685 273.312 
L 202.130204 273.312 
L 202.130204 165.399591 
L 200.515685 165.399591 
z
" style="fill:#1f77b4;"/>
   </g>
   <g id="patch_86">
    <path clip-path="url(#p53a59d5849)" d="M 202.130204 273.312 
L 203.744722 273.312 
L 203.744722 175.882511 
L 202.130204 175.882511 
z
" style="fill:#1f77b4;"/>
   </g>
   <g id="patch_87">
    <path clip-path="url(#p53a59d5849)" d="M 203.744722 273.312 
L 205.359241 273.312 
L 205.359241 166.632876 
L 203.744722 166.632876 
z
" style="fill:#1f77b4;"/>
   </g>
   <g id="patch_88">
    <path clip-path="url(#p53a59d5849)" d="M 205.359241 273.312 
L 206.97376 273.312 
L 206.97376 149.366891 
L 205.359241 149.366891 
z
" style="fill:#1f77b4;"/>
   </g>
   <g id="patch_89">
    <path clip-path="url(#p53a59d5849)" d="M 206.97376 273.312 
L 208.588278 273.312 
L 208.588278 169.716088 
L 206.97376 169.716088 
z
" style="fill:#1f77b4;"/>
   </g>
   <g id="patch_90">
    <path clip-path="url(#p53a59d5849)" d="M 208.588278 273.312 
L 210.202797 273.312 
L 210.202797 172.182657 
L 208.588278 172.182657 
z
" style="fill:#1f77b4;"/>
   </g>
   <g id="patch_91">
    <path clip-path="url(#p53a59d5849)" d="M 210.202797 273.312 
L 211.817315 273.312 
L 211.817315 164.166307 
L 210.202797 164.166307 
z
" style="fill:#1f77b4;"/>
   </g>
   <g id="patch_92">
    <path clip-path="url(#p53a59d5849)" d="M 211.817315 273.312 
L 213.431834 273.312 
L 213.431834 159.84981 
L 211.817315 159.84981 
z
" style="fill:#1f77b4;"/>
   </g>
   <g id="patch_93">
    <path clip-path="url(#p53a59d5849)" d="M 213.431834 273.312 
L 215.046353 273.312 
L 215.046353 156.149956 
L 213.431834 156.149956 
z
" style="fill:#1f77b4;"/>
   </g>
   <g id="patch_94">
    <path clip-path="url(#p53a59d5849)" d="M 215.046353 273.312 
L 216.660871 273.312 
L 216.660871 164.782949 
L 215.046353 164.782949 
z
" style="fill:#1f77b4;"/>
   </g>
   <g id="patch_95">
    <path clip-path="url(#p53a59d5849)" d="M 216.660871 273.312 
L 218.27539 273.312 
L 218.27539 161.699737 
L 216.660871 161.699737 
z
" style="fill:#1f77b4;"/>
   </g>
   <g id="patch_96">
    <path clip-path="url(#p53a59d5849)" d="M 218.27539 273.312 
L 219.889909 273.312 
L 219.889909 153.683387 
L 218.27539 153.683387 
z
" style="fill:#1f77b4;"/>
   </g>
   <g id="patch_97">
    <path clip-path="url(#p53a59d5849)" d="M 219.889909 273.312 
L 221.504427 273.312 
L 221.504427 150.600175 
L 219.889909 150.600175 
z
" style="fill:#1f77b4;"/>
   </g>
   <g id="patch_98">
    <path clip-path="url(#p53a59d5849)" d="M 221.504427 273.312 
L 223.118946 273.312 
L 223.118946 164.166307 
L 221.504427 164.166307 
z
" style="fill:#1f77b4;"/>
   </g>
   <g id="patch_99">
    <path clip-path="url(#p53a59d5849)" d="M 223.118946 273.312 
L 224.733464 273.312 
L 224.733464 155.533314 
L 223.118946 155.533314 
z
" style="fill:#1f77b4;"/>
   </g>
   <g id="patch_100">
    <path clip-path="url(#p53a59d5849)" d="M 224.733464 273.312 
L 226.347983 273.312 
L 226.347983 146.283679 
L 224.733464 146.283679 
z
" style="fill:#1f77b4;"/>
   </g>
   <g id="patch_101">
    <path clip-path="url(#p53a59d5849)" d="M 226.347983 273.312 
L 227.962502 273.312 
L 227.962502 166.016234 
L 226.347983 166.016234 
z
" style="fill:#1f77b4;"/>
   </g>
   <g id="patch_102">
    <path clip-path="url(#p53a59d5849)" d="M 227.962502 273.312 
L 229.57702 273.312 
L 229.57702 148.750248 
L 227.962502 148.750248 
z
" style="fill:#1f77b4;"/>
   </g>
   <g id="patch_103">
    <path clip-path="url(#p53a59d5849)" d="M 229.57702 273.312 
L 231.191539 273.312 
L 231.191539 135.184117 
L 229.57702 135.184117 
z
" style="fill:#1f77b4;"/>
   </g>
   <g id="patch_104">
    <path clip-path="url(#p53a59d5849)" d="M 231.191539 273.312 
L 232.806057 273.312 
L 232.806057 154.916672 
L 231.191539 154.916672 
z
" style="fill:#1f77b4;"/>
   </g>
   <g id="patch_105">
    <path clip-path="url(#p53a59d5849)" d="M 232.806057 273.312 
L 234.420576 273.312 
L 234.420576 144.433752 
L 232.806057 144.433752 
z
" style="fill:#1f77b4;"/>
   </g>
   <g id="patch_106">
    <path clip-path="url(#p53a59d5849)" d="M 234.420576 273.312 
L 236.035095 273.312 
L 236.035095 145.050394 
L 234.420576 145.050394 
z
" style="fill:#1f77b4;"/>
   </g>
   <g id="patch_107">
    <path clip-path="url(#p53a59d5849)" d="M 236.035095 273.312 
L 237.649613 273.312 
L 237.649613 155.533314 
L 236.035095 155.533314 
z
" style="fill:#1f77b4;"/>
   </g>
   <g id="patch_108">
    <path clip-path="url(#p53a59d5849)" d="M 237.649613 273.312 
L 239.264132 273.312 
L 239.264132 142.583825 
L 237.649613 142.583825 
z
" style="fill:#1f77b4;"/>
   </g>
   <g id="patch_109">
    <path clip-path="url(#p53a59d5849)" d="M 239.264132 273.312 
L 240.878651 273.312 
L 240.878651 133.950832 
L 239.264132 133.950832 
z
" style="fill:#1f77b4;"/>
   </g>
   <g id="patch_110">
    <path clip-path="url(#p53a59d5849)" d="M 240.878651 273.312 
L 242.493169 273.312 
L 242.493169 145.050394 
L 240.878651 145.050394 
z
" style="fill:#1f77b4;"/>
   </g>
   <g id="patch_111">
    <path clip-path="url(#p53a59d5849)" d="M 242.493169 273.312 
L 244.107688 273.312 
L 244.107688 159.233168 
L 242.493169 159.233168 
z
" style="fill:#1f77b4;"/>
   </g>
   <g id="patch_112">
    <path clip-path="url(#p53a59d5849)" d="M 244.107688 273.312 
L 245.722206 273.312 
L 245.722206 133.33419 
L 244.107688 133.33419 
z
" style="fill:#1f77b4;"/>
   </g>
   <g id="patch_113">
    <path clip-path="url(#p53a59d5849)" d="M 245.722206 273.312 
L 247.336725 273.312 
L 247.336725 130.250978 
L 245.722206 130.250978 
z
" style="fill:#1f77b4;"/>
   </g>
   <g id="patch_114">
    <path clip-path="url(#p53a59d5849)" d="M 247.336725 273.312 
L 248.951244 273.312 
L 248.951244 141.967182 
L 247.336725 141.967182 
z
" style="fill:#1f77b4;"/>
   </g>
   <g id="patch_115">
    <path clip-path="url(#p53a59d5849)" d="M 248.951244 273.312 
L 250.565762 273.312 
L 250.565762 138.883971 
L 248.951244 138.883971 
z
" style="fill:#1f77b4;"/>
   </g>
   <g id="patch_116">
    <path clip-path="url(#p53a59d5849)" d="M 250.565762 273.312 
L 252.180281 273.312 
L 252.180281 119.768058 
L 250.565762 119.768058 
z
" style="fill:#1f77b4;"/>
   </g>
   <g id="patch_117">
    <path clip-path="url(#p53a59d5849)" d="M 252.180281 273.312 
L 253.794799 273.312 
L 253.794799 116.684847 
L 252.180281 116.684847 
z
" style="fill:#1f77b4;"/>
   </g>
   <g id="patch_118">
    <path clip-path="url(#p53a59d5849)" d="M 253.794799 273.312 
L 255.409318 273.312 
L 255.409318 130.86762 
L 253.794799 130.86762 
z
" style="fill:#1f77b4;"/>
   </g>
   <g id="patch_119">
    <path clip-path="url(#p53a59d5849)" d="M 255.409318 273.312 
L 257.023837 273.312 
L 257.023837 132.717547 
L 255.409318 132.717547 
z
" style="fill:#1f77b4;"/>
   </g>
   <g id="patch_120">
    <path clip-path="url(#p53a59d5849)" d="M 257.023837 273.312 
L 258.638355 273.312 
L 258.638355 141.35054 
L 257.023837 141.35054 
z
" style="fill:#1f77b4;"/>
   </g>
   <g id="patch_121">
    <path clip-path="url(#p53a59d5849)" d="M 258.638355 273.312 
L 260.252874 273.312 
L 260.252874 136.417401 
L 258.638355 136.417401 
z
" style="fill:#1f77b4;"/>
   </g>
   <g id="patch_122">
    <path clip-path="url(#p53a59d5849)" d="M 260.252874 273.312 
L 261.867392 273.312 
L 261.867392 140.733898 
L 260.252874 140.733898 
z
" style="fill:#1f77b4;"/>
   </g>
   <g id="patch_123">
    <path clip-path="url(#p53a59d5849)" d="M 261.867392 273.312 
L 263.481911 273.312 
L 263.481911 129.017693 
L 261.867392 129.017693 
z
" style="fill:#1f77b4;"/>
   </g>
   <g id="patch_124">
    <path clip-path="url(#p53a59d5849)" d="M 263.481911 273.312 
L 265.09643 273.312 
L 265.09643 107.435212 
L 263.481911 107.435212 
z
" style="fill:#1f77b4;"/>
   </g>
   <g id="patch_125">
    <path clip-path="url(#p53a59d5849)" d="M 265.09643 273.312 
L 266.710948 273.312 
L 266.710948 125.934482 
L 265.09643 125.934482 
z
" style="fill:#1f77b4;"/>
   </g>
   <g id="patch_126">
    <path clip-path="url(#p53a59d5849)" d="M 266.710948 273.312 
L 268.325467 273.312 
L 268.325467 116.068204 
L 266.710948 116.068204 
z
" style="fill:#1f77b4;"/>
   </g>
   <g id="patch_127">
    <path clip-path="url(#p53a59d5849)" d="M 268.325467 273.312 
L 269.939986 273.312 
L 269.939986 100.652146 
L 268.325467 100.652146 
z
" style="fill:#1f77b4;"/>
   </g>
   <g id="patch_128">
    <path clip-path="url(#p53a59d5849)" d="M 269.939986 273.312 
L 271.554504 273.312 
L 271.554504 112.36835 
L 269.939986 112.36835 
z
" style="fill:#1f77b4;"/>
   </g>
   <g id="patch_129">
    <path clip-path="url(#p53a59d5849)" d="M 271.554504 273.312 
L 273.169023 273.312 
L 273.169023 111.135066 
L 271.554504 111.135066 
z
" style="fill:#1f77b4;"/>
   </g>
   <g id="patch_130">
    <path clip-path="url(#p53a59d5849)" d="M 273.169023 273.312 
L 274.783541 273.312 
L 274.783541 126.551124 
L 273.169023 126.551124 
z
" style="fill:#1f77b4;"/>
   </g>
   <g id="patch_131">
    <path clip-path="url(#p53a59d5849)" d="M 274.783541 273.312 
L 276.39806 273.312 
L 276.39806 120.384701 
L 274.783541 120.384701 
z
" style="fill:#1f77b4;"/>
   </g>
   <g id="patch_132">
    <path clip-path="url(#p53a59d5849)" d="M 276.39806 273.312 
L 278.012579 273.312 
L 278.012579 124.701197 
L 276.39806 124.701197 
z
" style="fill:#1f77b4;"/>
   </g>
   <g id="patch_133">
    <path clip-path="url(#p53a59d5849)" d="M 278.012579 273.312 
L 279.627097 273.312 
L 279.627097 117.918131 
L 278.012579 117.918131 
z
" style="fill:#1f77b4;"/>
   </g>
   <g id="patch_134">
    <path clip-path="url(#p53a59d5849)" d="M 279.627097 273.312 
L 281.241616 273.312 
L 281.241616 100.035504 
L 279.627097 100.035504 
z
" style="fill:#1f77b4;"/>
   </g>
   <g id="patch_135">
    <path clip-path="url(#p53a59d5849)" d="M 281.241616 273.312 
L 282.856134 273.312 
L 282.856134 109.901781 
L 281.241616 109.901781 
z
" style="fill:#1f77b4;"/>
   </g>
   <g id="patch_136">
    <path clip-path="url(#p53a59d5849)" d="M 282.856134 273.312 
L 284.470653 273.312 
L 284.470653 101.268788 
L 282.856134 101.268788 
z
" style="fill:#1f77b4;"/>
   </g>
   <g id="patch_137">
    <path clip-path="url(#p53a59d5849)" d="M 284.470653 273.312 
L 286.085172 273.312 
L 286.085172 126.551124 
L 284.470653 126.551124 
z
" style="fill:#1f77b4;"/>
   </g>
   <g id="patch_138">
    <path clip-path="url(#p53a59d5849)" d="M 286.085172 273.312 
L 287.69969 273.312 
L 287.69969 100.035504 
L 286.085172 100.035504 
z
" style="fill:#1f77b4;"/>
   </g>
   <g id="patch_139">
    <path clip-path="url(#p53a59d5849)" d="M 287.69969 273.312 
L 289.314209 273.312 
L 289.314209 119.151416 
L 287.69969 119.151416 
z
" style="fill:#1f77b4;"/>
   </g>
   <g id="patch_140">
    <path clip-path="url(#p53a59d5849)" d="M 289.314209 273.312 
L 290.928728 273.312 
L 290.928728 104.352 
L 289.314209 104.352 
z
" style="fill:#1f77b4;"/>
   </g>
   <g id="patch_141">
    <path clip-path="url(#p53a59d5849)" d="M 290.928728 273.312 
L 292.543246 273.312 
L 292.543246 106.201927 
L 290.928728 106.201927 
z
" style="fill:#1f77b4;"/>
   </g>
   <g id="patch_142">
    <path clip-path="url(#p53a59d5849)" d="M 292.543246 273.312 
L 294.157765 273.312 
L 294.157765 120.384701 
L 292.543246 120.384701 
z
" style="fill:#1f77b4;"/>
   </g>
   <g id="patch_143">
    <path clip-path="url(#p53a59d5849)" d="M 294.157765 273.312 
L 295.772283 273.312 
L 295.772283 95.719007 
L 294.157765 95.719007 
z
" style="fill:#1f77b4;"/>
   </g>
   <g id="patch_144">
    <path clip-path="url(#p53a59d5849)" d="M 295.772283 273.312 
L 297.386802 273.312 
L 297.386802 100.652146 
L 295.772283 100.652146 
z
" style="fill:#1f77b4;"/>
   </g>
   <g id="patch_145">
    <path clip-path="url(#p53a59d5849)" d="M 297.386802 273.312 
L 299.001321 273.312 
L 299.001321 101.268788 
L 297.386802 101.268788 
z
" style="fill:#1f77b4;"/>
   </g>
   <g id="patch_146">
    <path clip-path="url(#p53a59d5849)" d="M 299.001321 273.312 
L 300.615839 273.312 
L 300.615839 93.86908 
L 299.001321 93.86908 
z
" style="fill:#1f77b4;"/>
   </g>
   <g id="patch_147">
    <path clip-path="url(#p53a59d5849)" d="M 300.615839 273.312 
L 302.230358 273.312 
L 302.230358 93.252438 
L 300.615839 93.252438 
z
" style="fill:#1f77b4;"/>
   </g>
   <g id="patch_148">
    <path clip-path="url(#p53a59d5849)" d="M 302.230358 273.312 
L 303.844876 273.312 
L 303.844876 69.820029 
L 302.230358 69.820029 
z
" style="fill:#1f77b4;"/>
   </g>
   <g id="patch_149">
    <path clip-path="url(#p53a59d5849)" d="M 303.844876 273.312 
L 305.459395 273.312 
L 305.459395 97.568934 
L 303.844876 97.568934 
z
" style="fill:#1f77b4;"/>
   </g>
   <g id="patch_150">
    <path clip-path="url(#p53a59d5849)" d="M 305.459395 273.312 
L 307.073914 273.312 
L 307.073914 77.219737 
L 305.459395 77.219737 
z
" style="fill:#1f77b4;"/>
   </g>
   <g id="patch_151">
    <path clip-path="url(#p53a59d5849)" d="M 307.073914 273.312 
L 308.688432 273.312 
L 308.688432 77.219737 
L 307.073914 77.219737 
z
" style="fill:#1f77b4;"/>
   </g>
   <g id="patch_152">
    <path clip-path="url(#p53a59d5849)" d="M 308.688432 273.312 
L 310.302951 273.312 
L 310.302951 109.285139 
L 308.688432 109.285139 
z
" style="fill:#1f77b4;"/>
   </g>
   <g id="patch_153">
    <path clip-path="url(#p53a59d5849)" d="M 310.302951 273.312 
L 311.91747 273.312 
L 311.91747 93.86908 
L 310.302951 93.86908 
z
" style="fill:#1f77b4;"/>
   </g>
   <g id="patch_154">
    <path clip-path="url(#p53a59d5849)" d="M 311.91747 273.312 
L 313.531988 273.312 
L 313.531988 87.702657 
L 311.91747 87.702657 
z
" style="fill:#1f77b4;"/>
   </g>
   <g id="patch_155">
    <path clip-path="url(#p53a59d5849)" d="M 313.531988 273.312 
L 315.146507 273.312 
L 315.146507 75.986453 
L 313.531988 75.986453 
z
" style="fill:#1f77b4;"/>
   </g>
   <g id="patch_156">
    <path clip-path="url(#p53a59d5849)" d="M 315.146507 273.312 
L 316.761025 273.312 
L 316.761025 82.152876 
L 315.146507 82.152876 
z
" style="fill:#1f77b4;"/>
   </g>
   <g id="patch_157">
    <path clip-path="url(#p53a59d5849)" d="M 316.761025 273.312 
L 318.375544 273.312 
L 318.375544 72.903241 
L 316.761025 72.903241 
z
" style="fill:#1f77b4;"/>
   </g>
   <g id="patch_158">
    <path clip-path="url(#p53a59d5849)" d="M 318.375544 273.312 
L 319.990063 273.312 
L 319.990063 78.453022 
L 318.375544 78.453022 
z
" style="fill:#1f77b4;"/>
   </g>
   <g id="patch_159">
    <path clip-path="url(#p53a59d5849)" d="M 319.990063 273.312 
L 321.604581 273.312 
L 321.604581 70.436672 
L 319.990063 70.436672 
z
" style="fill:#1f77b4;"/>
   </g>
   <g id="patch_160">
    <path clip-path="url(#p53a59d5849)" d="M 321.604581 273.312 
L 323.2191 273.312 
L 323.2191 81.536234 
L 321.604581 81.536234 
z
" style="fill:#1f77b4;"/>
   </g>
   <g id="patch_161">
    <path clip-path="url(#p53a59d5849)" d="M 323.2191 273.312 
L 324.833618 273.312 
L 324.833618 81.536234 
L 323.2191 81.536234 
z
" style="fill:#1f77b4;"/>
   </g>
   <g id="patch_162">
    <path clip-path="url(#p53a59d5849)" d="M 324.833618 273.312 
L 326.448137 273.312 
L 326.448137 82.152876 
L 324.833618 82.152876 
z
" style="fill:#1f77b4;"/>
   </g>
   <g id="patch_163">
    <path clip-path="url(#p53a59d5849)" d="M 326.448137 273.312 
L 328.062656 273.312 
L 328.062656 40.221197 
L 326.448137 40.221197 
z
" style="fill:#1f77b4;"/>
   </g>
   <g id="patch_164">
    <path clip-path="url(#p53a59d5849)" d="M 328.062656 273.312 
L 329.677174 273.312 
L 329.677174 71.669956 
L 328.062656 71.669956 
z
" style="fill:#1f77b4;"/>
   </g>
   <g id="patch_165">
    <path clip-path="url(#p53a59d5849)" d="M 329.677174 273.312 
L 331.291693 273.312 
L 331.291693 94.485723 
L 329.677174 94.485723 
z
" style="fill:#1f77b4;"/>
   </g>
   <g id="patch_166">
    <path clip-path="url(#p53a59d5849)" d="M 331.291693 273.312 
L 332.906211 273.312 
L 332.906211 74.753168 
L 331.291693 74.753168 
z
" style="fill:#1f77b4;"/>
   </g>
   <g id="patch_167">
    <path clip-path="url(#p53a59d5849)" d="M 332.906211 273.312 
L 334.52073 273.312 
L 334.52073 66.736818 
L 332.906211 66.736818 
z
" style="fill:#1f77b4;"/>
   </g>
   <g id="patch_168">
    <path clip-path="url(#p53a59d5849)" d="M 334.52073 273.312 
L 336.135249 273.312 
L 336.135249 74.753168 
L 334.52073 74.753168 
z
" style="fill:#1f77b4;"/>
   </g>
   <g id="patch_169">
    <path clip-path="url(#p53a59d5849)" d="M 336.135249 273.312 
L 337.749767 273.312 
L 337.749767 75.36981 
L 336.135249 75.36981 
z
" style="fill:#1f77b4;"/>
   </g>
   <g id="patch_170">
    <path clip-path="url(#p53a59d5849)" d="M 337.749767 273.312 
L 339.364286 273.312 
L 339.364286 63.036964 
L 337.749767 63.036964 
z
" style="fill:#1f77b4;"/>
   </g>
   <g id="patch_171">
    <path clip-path="url(#p53a59d5849)" d="M 339.364286 273.312 
L 340.978805 273.312 
L 340.978805 60.570394 
L 339.364286 60.570394 
z
" style="fill:#1f77b4;"/>
   </g>
   <g id="patch_172">
    <path clip-path="url(#p53a59d5849)" d="M 340.978805 273.312 
L 342.593323 273.312 
L 342.593323 67.970102 
L 340.978805 67.970102 
z
" style="fill:#1f77b4;"/>
   </g>
   <g id="patch_173">
    <path clip-path="url(#p53a59d5849)" d="M 342.593323 273.312 
L 344.207842 273.312 
L 344.207842 45.154336 
L 342.593323 45.154336 
z
" style="fill:#1f77b4;"/>
   </g>
   <g id="patch_174">
    <path clip-path="url(#p53a59d5849)" d="M 344.207842 273.312 
L 345.82236 273.312 
L 345.82236 63.653606 
L 344.207842 63.653606 
z
" style="fill:#1f77b4;"/>
   </g>
   <g id="patch_175">
    <path clip-path="url(#p53a59d5849)" d="M 345.82236 273.312 
L 347.436879 273.312 
L 347.436879 41.454482 
L 345.82236 41.454482 
z
" style="fill:#1f77b4;"/>
   </g>
   <g id="patch_176">
    <path clip-path="url(#p53a59d5849)" d="M 347.436879 273.312 
L 349.051398 273.312 
L 349.051398 44.537693 
L 347.436879 44.537693 
z
" style="fill:#1f77b4;"/>
   </g>
   <g id="patch_177">
    <path clip-path="url(#p53a59d5849)" d="M 349.051398 273.312 
L 350.665916 273.312 
L 350.665916 62.420321 
L 349.051398 62.420321 
z
" style="fill:#1f77b4;"/>
   </g>
   <g id="patch_178">
    <path clip-path="url(#p53a59d5849)" d="M 350.665916 273.312 
L 352.280435 273.312 
L 352.280435 78.453022 
L 350.665916 78.453022 
z
" style="fill:#1f77b4;"/>
   </g>
   <g id="patch_179">
    <path clip-path="url(#p53a59d5849)" d="M 352.280435 273.312 
L 353.894953 273.312 
L 353.894953 58.720467 
L 352.280435 58.720467 
z
" style="fill:#1f77b4;"/>
   </g>
   <g id="patch_180">
    <path clip-path="url(#p53a59d5849)" d="M 353.894953 273.312 
L 355.509472 273.312 
L 355.509472 50.704117 
L 353.894953 50.704117 
z
" style="fill:#1f77b4;"/>
   </g>
   <g id="patch_181">
    <path clip-path="url(#p53a59d5849)" d="M 355.509472 273.312 
L 357.123991 273.312 
L 357.123991 65.503533 
L 355.509472 65.503533 
z
" style="fill:#1f77b4;"/>
   </g>
   <g id="patch_182">
    <path clip-path="url(#p53a59d5849)" d="M 357.123991 273.312 
L 358.738509 273.312 
L 358.738509 55.020613 
L 357.123991 55.020613 
z
" style="fill:#1f77b4;"/>
   </g>
   <g id="patch_183">
    <path clip-path="url(#p53a59d5849)" d="M 358.738509 273.312 
L 360.353028 273.312 
L 360.353028 68.586745 
L 358.738509 68.586745 
z
" style="fill:#1f77b4;"/>
   </g>
   <g id="patch_184">
    <path clip-path="url(#p53a59d5849)" d="M 360.353028 273.312 
L 361.967547 273.312 
L 361.967547 61.803679 
L 360.353028 61.803679 
z
" style="fill:#1f77b4;"/>
   </g>
   <g id="patch_185">
    <path clip-path="url(#p53a59d5849)" d="M 361.967547 273.312 
L 363.582065 273.312 
L 363.582065 27.88835 
L 361.967547 27.88835 
z
" style="fill:#1f77b4;"/>
   </g>
   <g id="patch_186">
    <path clip-path="url(#p53a59d5849)" d="M 363.582065 273.312 
L 365.196584 273.312 
L 365.196584 53.787328 
L 363.582065 53.787328 
z
" style="fill:#1f77b4;"/>
   </g>
   <g id="patch_187">
    <path clip-path="url(#p53a59d5849)" d="M 365.196584 273.312 
L 366.811102 273.312 
L 366.811102 39.604555 
L 365.196584 39.604555 
z
" style="fill:#1f77b4;"/>
   </g>
   <g id="patch_188">
    <path clip-path="url(#p53a59d5849)" d="M 366.811102 273.312 
L 368.425621 273.312 
L 368.425621 57.487182 
L 366.811102 57.487182 
z
" style="fill:#1f77b4;"/>
   </g>
   <g id="patch_189">
    <path clip-path="url(#p53a59d5849)" d="M 368.425621 273.312 
L 370.04014 273.312 
L 370.04014 54.403971 
L 368.425621 54.403971 
z
" style="fill:#1f77b4;"/>
   </g>
   <g id="patch_190">
    <path clip-path="url(#p53a59d5849)" d="M 370.04014 273.312 
L 371.654658 273.312 
L 371.654658 31.588204 
L 370.04014 31.588204 
z
" style="fill:#1f77b4;"/>
   </g>
   <g id="patch_191">
    <path clip-path="url(#p53a59d5849)" d="M 371.654658 273.312 
L 373.269177 273.312 
L 373.269177 49.470832 
L 371.654658 49.470832 
z
" style="fill:#1f77b4;"/>
   </g>
   <g id="patch_192">
    <path clip-path="url(#p53a59d5849)" d="M 373.269177 273.312 
L 374.883695 273.312 
L 374.883695 46.38762 
L 373.269177 46.38762 
z
" style="fill:#1f77b4;"/>
   </g>
   <g id="patch_193">
    <path clip-path="url(#p53a59d5849)" d="M 374.883695 273.312 
L 376.498214 273.312 
L 376.498214 26.038423 
L 374.883695 26.038423 
z
" style="fill:#1f77b4;"/>
   </g>
   <g id="patch_194">
    <path clip-path="url(#p53a59d5849)" d="M 376.498214 273.312 
L 378.112733 273.312 
L 378.112733 35.288058 
L 376.498214 35.288058 
z
" style="fill:#1f77b4;"/>
   </g>
   <g id="patch_195">
    <path clip-path="url(#p53a59d5849)" d="M 378.112733 273.312 
L 379.727251 273.312 
L 379.727251 32.821489 
L 378.112733 32.821489 
z
" style="fill:#1f77b4;"/>
   </g>
   <g id="patch_196">
    <path clip-path="url(#p53a59d5849)" d="M 379.727251 273.312 
L 381.34177 273.312 
L 381.34177 37.754628 
L 379.727251 37.754628 
z
" style="fill:#1f77b4;"/>
   </g>
   <g id="patch_197">
    <path clip-path="url(#p53a59d5849)" d="M 381.34177 273.312 
L 382.956289 273.312 
L 382.956289 43.304409 
L 381.34177 43.304409 
z
" style="fill:#1f77b4;"/>
   </g>
   <g id="patch_198">
    <path clip-path="url(#p53a59d5849)" d="M 382.956289 273.312 
L 384.570807 273.312 
L 384.570807 45.154336 
L 382.956289 45.154336 
z
" style="fill:#1f77b4;"/>
   </g>
   <g id="patch_199">
    <path clip-path="url(#p53a59d5849)" d="M 384.570807 273.312 
L 386.185326 273.312 
L 386.185326 29.738277 
L 384.570807 29.738277 
z
" style="fill:#1f77b4;"/>
   </g>
   <g id="patch_200">
    <path clip-path="url(#p53a59d5849)" d="M 386.185326 273.312 
L 387.799844 273.312 
L 387.799844 43.921051 
L 386.185326 43.921051 
z
" style="fill:#1f77b4;"/>
   </g>
   <g id="patch_201">
    <path clip-path="url(#p53a59d5849)" d="M 387.799844 273.312 
L 389.414363 273.312 
L 389.414363 29.738277 
L 387.799844 29.738277 
z
" style="fill:#1f77b4;"/>
   </g>
   <g id="patch_202">
    <path clip-path="url(#p53a59d5849)" d="M 389.414363 273.312 
L 391.028882 273.312 
L 391.028882 19.872 
L 389.414363 19.872 
z
" style="fill:#1f77b4;"/>
   </g>
   <g id="matplotlib.axis_1">
    <g id="xtick_1">
     <g id="line2d_1">
      <defs>
       <path d="M 0 0 
L 0 3.5 
" id="m7cd0619df4" style="stroke:#000000;stroke-width:0.8;"/>
      </defs>
      <g>
       <use style="stroke:#000000;stroke-width:0.8;" x="66.376477" xlink:href="#m7cd0619df4" y="273.312"/>
      </g>
     </g>
     <g id="text_1">
      <!-- 0.0 -->
      <g transform="translate(58.424915 287.910437)scale(0.1 -0.1)">
       <defs>
        <path d="M 2034 4250 
Q 1547 4250 1301 3770 
Q 1056 3291 1056 2328 
Q 1056 1369 1301 889 
Q 1547 409 2034 409 
Q 2525 409 2770 889 
Q 3016 1369 3016 2328 
Q 3016 3291 2770 3770 
Q 2525 4250 2034 4250 
z
M 2034 4750 
Q 2819 4750 3233 4129 
Q 3647 3509 3647 2328 
Q 3647 1150 3233 529 
Q 2819 -91 2034 -91 
Q 1250 -91 836 529 
Q 422 1150 422 2328 
Q 422 3509 836 4129 
Q 1250 4750 2034 4750 
z
" id="DejaVuSans-30" transform="scale(0.015625)"/>
        <path d="M 684 794 
L 1344 794 
L 1344 0 
L 684 0 
L 684 794 
z
" id="DejaVuSans-2e" transform="scale(0.015625)"/>
       </defs>
       <use xlink:href="#DejaVuSans-30"/>
       <use x="63.623047" xlink:href="#DejaVuSans-2e"/>
       <use x="95.410156" xlink:href="#DejaVuSans-30"/>
      </g>
     </g>
    </g>
    <g id="xtick_2">
     <g id="line2d_2">
      <g>
       <use style="stroke:#000000;stroke-width:0.8;" x="131.307386" xlink:href="#m7cd0619df4" y="273.312"/>
      </g>
     </g>
     <g id="text_2">
      <!-- 0.2 -->
      <g transform="translate(123.355824 287.910437)scale(0.1 -0.1)">
       <defs>
        <path d="M 1228 531 
L 3431 531 
L 3431 0 
L 469 0 
L 469 531 
Q 828 903 1448 1529 
Q 2069 2156 2228 2338 
Q 2531 2678 2651 2914 
Q 2772 3150 2772 3378 
Q 2772 3750 2511 3984 
Q 2250 4219 1831 4219 
Q 1534 4219 1204 4116 
Q 875 4013 500 3803 
L 500 4441 
Q 881 4594 1212 4672 
Q 1544 4750 1819 4750 
Q 2544 4750 2975 4387 
Q 3406 4025 3406 3419 
Q 3406 3131 3298 2873 
Q 3191 2616 2906 2266 
Q 2828 2175 2409 1742 
Q 1991 1309 1228 531 
z
" id="DejaVuSans-32" transform="scale(0.015625)"/>
       </defs>
       <use xlink:href="#DejaVuSans-30"/>
       <use x="63.623047" xlink:href="#DejaVuSans-2e"/>
       <use x="95.410156" xlink:href="#DejaVuSans-32"/>
      </g>
     </g>
    </g>
    <g id="xtick_3">
     <g id="line2d_3">
      <g>
       <use style="stroke:#000000;stroke-width:0.8;" x="196.238295" xlink:href="#m7cd0619df4" y="273.312"/>
      </g>
     </g>
     <g id="text_3">
      <!-- 0.4 -->
      <g transform="translate(188.286733 287.910437)scale(0.1 -0.1)">
       <defs>
        <path d="M 2419 4116 
L 825 1625 
L 2419 1625 
L 2419 4116 
z
M 2253 4666 
L 3047 4666 
L 3047 1625 
L 3713 1625 
L 3713 1100 
L 3047 1100 
L 3047 0 
L 2419 0 
L 2419 1100 
L 313 1100 
L 313 1709 
L 2253 4666 
z
" id="DejaVuSans-34" transform="scale(0.015625)"/>
       </defs>
       <use xlink:href="#DejaVuSans-30"/>
       <use x="63.623047" xlink:href="#DejaVuSans-2e"/>
       <use x="95.410156" xlink:href="#DejaVuSans-34"/>
      </g>
     </g>
    </g>
    <g id="xtick_4">
     <g id="line2d_4">
      <g>
       <use style="stroke:#000000;stroke-width:0.8;" x="261.169205" xlink:href="#m7cd0619df4" y="273.312"/>
      </g>
     </g>
     <g id="text_4">
      <!-- 0.6 -->
      <g transform="translate(253.217642 287.910437)scale(0.1 -0.1)">
       <defs>
        <path d="M 2113 2584 
Q 1688 2584 1439 2293 
Q 1191 2003 1191 1497 
Q 1191 994 1439 701 
Q 1688 409 2113 409 
Q 2538 409 2786 701 
Q 3034 994 3034 1497 
Q 3034 2003 2786 2293 
Q 2538 2584 2113 2584 
z
M 3366 4563 
L 3366 3988 
Q 3128 4100 2886 4159 
Q 2644 4219 2406 4219 
Q 1781 4219 1451 3797 
Q 1122 3375 1075 2522 
Q 1259 2794 1537 2939 
Q 1816 3084 2150 3084 
Q 2853 3084 3261 2657 
Q 3669 2231 3669 1497 
Q 3669 778 3244 343 
Q 2819 -91 2113 -91 
Q 1303 -91 875 529 
Q 447 1150 447 2328 
Q 447 3434 972 4092 
Q 1497 4750 2381 4750 
Q 2619 4750 2861 4703 
Q 3103 4656 3366 4563 
z
" id="DejaVuSans-36" transform="scale(0.015625)"/>
       </defs>
       <use xlink:href="#DejaVuSans-30"/>
       <use x="63.623047" xlink:href="#DejaVuSans-2e"/>
       <use x="95.410156" xlink:href="#DejaVuSans-36"/>
      </g>
     </g>
    </g>
    <g id="xtick_5">
     <g id="line2d_5">
      <g>
       <use style="stroke:#000000;stroke-width:0.8;" x="326.100114" xlink:href="#m7cd0619df4" y="273.312"/>
      </g>
     </g>
     <g id="text_5">
      <!-- 0.8 -->
      <g transform="translate(318.148551 287.910437)scale(0.1 -0.1)">
       <defs>
        <path d="M 2034 2216 
Q 1584 2216 1326 1975 
Q 1069 1734 1069 1313 
Q 1069 891 1326 650 
Q 1584 409 2034 409 
Q 2484 409 2743 651 
Q 3003 894 3003 1313 
Q 3003 1734 2745 1975 
Q 2488 2216 2034 2216 
z
M 1403 2484 
Q 997 2584 770 2862 
Q 544 3141 544 3541 
Q 544 4100 942 4425 
Q 1341 4750 2034 4750 
Q 2731 4750 3128 4425 
Q 3525 4100 3525 3541 
Q 3525 3141 3298 2862 
Q 3072 2584 2669 2484 
Q 3125 2378 3379 2068 
Q 3634 1759 3634 1313 
Q 3634 634 3220 271 
Q 2806 -91 2034 -91 
Q 1263 -91 848 271 
Q 434 634 434 1313 
Q 434 1759 690 2068 
Q 947 2378 1403 2484 
z
M 1172 3481 
Q 1172 3119 1398 2916 
Q 1625 2713 2034 2713 
Q 2441 2713 2670 2916 
Q 2900 3119 2900 3481 
Q 2900 3844 2670 4047 
Q 2441 4250 2034 4250 
Q 1625 4250 1398 4047 
Q 1172 3844 1172 3481 
z
" id="DejaVuSans-38" transform="scale(0.015625)"/>
       </defs>
       <use xlink:href="#DejaVuSans-30"/>
       <use x="63.623047" xlink:href="#DejaVuSans-2e"/>
       <use x="95.410156" xlink:href="#DejaVuSans-38"/>
      </g>
     </g>
    </g>
    <g id="xtick_6">
     <g id="line2d_6">
      <g>
       <use style="stroke:#000000;stroke-width:0.8;" x="391.031023" xlink:href="#m7cd0619df4" y="273.312"/>
      </g>
     </g>
     <g id="text_6">
      <!-- 1.0 -->
      <g transform="translate(383.07946 287.910437)scale(0.1 -0.1)">
       <defs>
        <path d="M 794 531 
L 1825 531 
L 1825 4091 
L 703 3866 
L 703 4441 
L 1819 4666 
L 2450 4666 
L 2450 531 
L 3481 531 
L 3481 0 
L 794 0 
L 794 531 
z
" id="DejaVuSans-31" transform="scale(0.015625)"/>
       </defs>
       <use xlink:href="#DejaVuSans-31"/>
       <use x="63.623047" xlink:href="#DejaVuSans-2e"/>
       <use x="95.410156" xlink:href="#DejaVuSans-30"/>
      </g>
     </g>
    </g>
    <g id="text_7">
     <!-- Propagation direction -->
     <g transform="translate(175.221719 301.588562)scale(0.1 -0.1)">
      <defs>
       <path d="M 1259 4147 
L 1259 2394 
L 2053 2394 
Q 2494 2394 2734 2622 
Q 2975 2850 2975 3272 
Q 2975 3691 2734 3919 
Q 2494 4147 2053 4147 
L 1259 4147 
z
M 628 4666 
L 2053 4666 
Q 2838 4666 3239 4311 
Q 3641 3956 3641 3272 
Q 3641 2581 3239 2228 
Q 2838 1875 2053 1875 
L 1259 1875 
L 1259 0 
L 628 0 
L 628 4666 
z
" id="DejaVuSans-50" transform="scale(0.015625)"/>
       <path d="M 2631 2963 
Q 2534 3019 2420 3045 
Q 2306 3072 2169 3072 
Q 1681 3072 1420 2755 
Q 1159 2438 1159 1844 
L 1159 0 
L 581 0 
L 581 3500 
L 1159 3500 
L 1159 2956 
Q 1341 3275 1631 3429 
Q 1922 3584 2338 3584 
Q 2397 3584 2469 3576 
Q 2541 3569 2628 3553 
L 2631 2963 
z
" id="DejaVuSans-72" transform="scale(0.015625)"/>
       <path d="M 1959 3097 
Q 1497 3097 1228 2736 
Q 959 2375 959 1747 
Q 959 1119 1226 758 
Q 1494 397 1959 397 
Q 2419 397 2687 759 
Q 2956 1122 2956 1747 
Q 2956 2369 2687 2733 
Q 2419 3097 1959 3097 
z
M 1959 3584 
Q 2709 3584 3137 3096 
Q 3566 2609 3566 1747 
Q 3566 888 3137 398 
Q 2709 -91 1959 -91 
Q 1206 -91 779 398 
Q 353 888 353 1747 
Q 353 2609 779 3096 
Q 1206 3584 1959 3584 
z
" id="DejaVuSans-6f" transform="scale(0.015625)"/>
       <path d="M 1159 525 
L 1159 -1331 
L 581 -1331 
L 581 3500 
L 1159 3500 
L 1159 2969 
Q 1341 3281 1617 3432 
Q 1894 3584 2278 3584 
Q 2916 3584 3314 3078 
Q 3713 2572 3713 1747 
Q 3713 922 3314 415 
Q 2916 -91 2278 -91 
Q 1894 -91 1617 61 
Q 1341 213 1159 525 
z
M 3116 1747 
Q 3116 2381 2855 2742 
Q 2594 3103 2138 3103 
Q 1681 3103 1420 2742 
Q 1159 2381 1159 1747 
Q 1159 1113 1420 752 
Q 1681 391 2138 391 
Q 2594 391 2855 752 
Q 3116 1113 3116 1747 
z
" id="DejaVuSans-70" transform="scale(0.015625)"/>
       <path d="M 2194 1759 
Q 1497 1759 1228 1600 
Q 959 1441 959 1056 
Q 959 750 1161 570 
Q 1363 391 1709 391 
Q 2188 391 2477 730 
Q 2766 1069 2766 1631 
L 2766 1759 
L 2194 1759 
z
M 3341 1997 
L 3341 0 
L 2766 0 
L 2766 531 
Q 2569 213 2275 61 
Q 1981 -91 1556 -91 
Q 1019 -91 701 211 
Q 384 513 384 1019 
Q 384 1609 779 1909 
Q 1175 2209 1959 2209 
L 2766 2209 
L 2766 2266 
Q 2766 2663 2505 2880 
Q 2244 3097 1772 3097 
Q 1472 3097 1187 3025 
Q 903 2953 641 2809 
L 641 3341 
Q 956 3463 1253 3523 
Q 1550 3584 1831 3584 
Q 2591 3584 2966 3190 
Q 3341 2797 3341 1997 
z
" id="DejaVuSans-61" transform="scale(0.015625)"/>
       <path d="M 2906 1791 
Q 2906 2416 2648 2759 
Q 2391 3103 1925 3103 
Q 1463 3103 1205 2759 
Q 947 2416 947 1791 
Q 947 1169 1205 825 
Q 1463 481 1925 481 
Q 2391 481 2648 825 
Q 2906 1169 2906 1791 
z
M 3481 434 
Q 3481 -459 3084 -895 
Q 2688 -1331 1869 -1331 
Q 1566 -1331 1297 -1286 
Q 1028 -1241 775 -1147 
L 775 -588 
Q 1028 -725 1275 -790 
Q 1522 -856 1778 -856 
Q 2344 -856 2625 -561 
Q 2906 -266 2906 331 
L 2906 616 
Q 2728 306 2450 153 
Q 2172 0 1784 0 
Q 1141 0 747 490 
Q 353 981 353 1791 
Q 353 2603 747 3093 
Q 1141 3584 1784 3584 
Q 2172 3584 2450 3431 
Q 2728 3278 2906 2969 
L 2906 3500 
L 3481 3500 
L 3481 434 
z
" id="DejaVuSans-67" transform="scale(0.015625)"/>
       <path d="M 1172 4494 
L 1172 3500 
L 2356 3500 
L 2356 3053 
L 1172 3053 
L 1172 1153 
Q 1172 725 1289 603 
Q 1406 481 1766 481 
L 2356 481 
L 2356 0 
L 1766 0 
Q 1100 0 847 248 
Q 594 497 594 1153 
L 594 3053 
L 172 3053 
L 172 3500 
L 594 3500 
L 594 4494 
L 1172 4494 
z
" id="DejaVuSans-74" transform="scale(0.015625)"/>
       <path d="M 603 3500 
L 1178 3500 
L 1178 0 
L 603 0 
L 603 3500 
z
M 603 4863 
L 1178 4863 
L 1178 4134 
L 603 4134 
L 603 4863 
z
" id="DejaVuSans-69" transform="scale(0.015625)"/>
       <path d="M 3513 2113 
L 3513 0 
L 2938 0 
L 2938 2094 
Q 2938 2591 2744 2837 
Q 2550 3084 2163 3084 
Q 1697 3084 1428 2787 
Q 1159 2491 1159 1978 
L 1159 0 
L 581 0 
L 581 3500 
L 1159 3500 
L 1159 2956 
Q 1366 3272 1645 3428 
Q 1925 3584 2291 3584 
Q 2894 3584 3203 3211 
Q 3513 2838 3513 2113 
z
" id="DejaVuSans-6e" transform="scale(0.015625)"/>
       <path id="DejaVuSans-20" transform="scale(0.015625)"/>
       <path d="M 2906 2969 
L 2906 4863 
L 3481 4863 
L 3481 0 
L 2906 0 
L 2906 525 
Q 2725 213 2448 61 
Q 2172 -91 1784 -91 
Q 1150 -91 751 415 
Q 353 922 353 1747 
Q 353 2572 751 3078 
Q 1150 3584 1784 3584 
Q 2172 3584 2448 3432 
Q 2725 3281 2906 2969 
z
M 947 1747 
Q 947 1113 1208 752 
Q 1469 391 1925 391 
Q 2381 391 2643 752 
Q 2906 1113 2906 1747 
Q 2906 2381 2643 2742 
Q 2381 3103 1925 3103 
Q 1469 3103 1208 2742 
Q 947 2381 947 1747 
z
" id="DejaVuSans-64" transform="scale(0.015625)"/>
       <path d="M 3597 1894 
L 3597 1613 
L 953 1613 
Q 991 1019 1311 708 
Q 1631 397 2203 397 
Q 2534 397 2845 478 
Q 3156 559 3463 722 
L 3463 178 
Q 3153 47 2828 -22 
Q 2503 -91 2169 -91 
Q 1331 -91 842 396 
Q 353 884 353 1716 
Q 353 2575 817 3079 
Q 1281 3584 2069 3584 
Q 2775 3584 3186 3129 
Q 3597 2675 3597 1894 
z
M 3022 2063 
Q 3016 2534 2758 2815 
Q 2500 3097 2075 3097 
Q 1594 3097 1305 2825 
Q 1016 2553 972 2059 
L 3022 2063 
z
" id="DejaVuSans-65" transform="scale(0.015625)"/>
       <path d="M 3122 3366 
L 3122 2828 
Q 2878 2963 2633 3030 
Q 2388 3097 2138 3097 
Q 1578 3097 1268 2742 
Q 959 2388 959 1747 
Q 959 1106 1268 751 
Q 1578 397 2138 397 
Q 2388 397 2633 464 
Q 2878 531 3122 666 
L 3122 134 
Q 2881 22 2623 -34 
Q 2366 -91 2075 -91 
Q 1284 -91 818 406 
Q 353 903 353 1747 
Q 353 2603 823 3093 
Q 1294 3584 2113 3584 
Q 2378 3584 2631 3529 
Q 2884 3475 3122 3366 
z
" id="DejaVuSans-63" transform="scale(0.015625)"/>
      </defs>
      <use xlink:href="#DejaVuSans-50"/>
      <use x="58.552734" xlink:href="#DejaVuSans-72"/>
      <use x="97.416016" xlink:href="#DejaVuSans-6f"/>
      <use x="158.597656" xlink:href="#DejaVuSans-70"/>
      <use x="222.074219" xlink:href="#DejaVuSans-61"/>
      <use x="283.353516" xlink:href="#DejaVuSans-67"/>
      <use x="346.830078" xlink:href="#DejaVuSans-61"/>
      <use x="408.109375" xlink:href="#DejaVuSans-74"/>
      <use x="447.318359" xlink:href="#DejaVuSans-69"/>
      <use x="475.101562" xlink:href="#DejaVuSans-6f"/>
      <use x="536.283203" xlink:href="#DejaVuSans-6e"/>
      <use x="599.662109" xlink:href="#DejaVuSans-20"/>
      <use x="631.449219" xlink:href="#DejaVuSans-64"/>
      <use x="694.925781" xlink:href="#DejaVuSans-69"/>
      <use x="722.708984" xlink:href="#DejaVuSans-72"/>
      <use x="761.572266" xlink:href="#DejaVuSans-65"/>
      <use x="823.095703" xlink:href="#DejaVuSans-63"/>
      <use x="878.076172" xlink:href="#DejaVuSans-74"/>
      <use x="917.285156" xlink:href="#DejaVuSans-69"/>
      <use x="945.068359" xlink:href="#DejaVuSans-6f"/>
      <use x="1006.25" xlink:href="#DejaVuSans-6e"/>
     </g>
    </g>
   </g>
   <g id="matplotlib.axis_2">
    <g id="ytick_1">
     <g id="line2d_7">
      <defs>
       <path d="M 0 0 
L -3.5 0 
" id="mc6a081d119" style="stroke:#000000;stroke-width:0.8;"/>
      </defs>
      <g>
       <use style="stroke:#000000;stroke-width:0.8;" x="50.14375" xlink:href="#mc6a081d119" y="273.312"/>
      </g>
     </g>
     <g id="text_8">
      <!-- 0.00 -->
      <g transform="translate(20.878125 277.111219)scale(0.1 -0.1)">
       <use xlink:href="#DejaVuSans-30"/>
       <use x="63.623047" xlink:href="#DejaVuSans-2e"/>
       <use x="95.410156" xlink:href="#DejaVuSans-30"/>
       <use x="159.033203" xlink:href="#DejaVuSans-30"/>
      </g>
     </g>
    </g>
    <g id="ytick_2">
     <g id="line2d_8">
      <g>
       <use style="stroke:#000000;stroke-width:0.8;" x="50.14375" xlink:href="#mc6a081d119" y="242.646157"/>
      </g>
     </g>
     <g id="text_9">
      <!-- 0.25 -->
      <g transform="translate(20.878125 246.445376)scale(0.1 -0.1)">
       <defs>
        <path d="M 691 4666 
L 3169 4666 
L 3169 4134 
L 1269 4134 
L 1269 2991 
Q 1406 3038 1543 3061 
Q 1681 3084 1819 3084 
Q 2600 3084 3056 2656 
Q 3513 2228 3513 1497 
Q 3513 744 3044 326 
Q 2575 -91 1722 -91 
Q 1428 -91 1123 -41 
Q 819 9 494 109 
L 494 744 
Q 775 591 1075 516 
Q 1375 441 1709 441 
Q 2250 441 2565 725 
Q 2881 1009 2881 1497 
Q 2881 1984 2565 2268 
Q 2250 2553 1709 2553 
Q 1456 2553 1204 2497 
Q 953 2441 691 2322 
L 691 4666 
z
" id="DejaVuSans-35" transform="scale(0.015625)"/>
       </defs>
       <use xlink:href="#DejaVuSans-30"/>
       <use x="63.623047" xlink:href="#DejaVuSans-2e"/>
       <use x="95.410156" xlink:href="#DejaVuSans-32"/>
       <use x="159.033203" xlink:href="#DejaVuSans-35"/>
      </g>
     </g>
    </g>
    <g id="ytick_3">
     <g id="line2d_9">
      <g>
       <use style="stroke:#000000;stroke-width:0.8;" x="50.14375" xlink:href="#mc6a081d119" y="211.980314"/>
      </g>
     </g>
     <g id="text_10">
      <!-- 0.50 -->
      <g transform="translate(20.878125 215.779533)scale(0.1 -0.1)">
       <use xlink:href="#DejaVuSans-30"/>
       <use x="63.623047" xlink:href="#DejaVuSans-2e"/>
       <use x="95.410156" xlink:href="#DejaVuSans-35"/>
       <use x="159.033203" xlink:href="#DejaVuSans-30"/>
      </g>
     </g>
    </g>
    <g id="ytick_4">
     <g id="line2d_10">
      <g>
       <use style="stroke:#000000;stroke-width:0.8;" x="50.14375" xlink:href="#mc6a081d119" y="181.314471"/>
      </g>
     </g>
     <g id="text_11">
      <!-- 0.75 -->
      <g transform="translate(20.878125 185.11369)scale(0.1 -0.1)">
       <defs>
        <path d="M 525 4666 
L 3525 4666 
L 3525 4397 
L 1831 0 
L 1172 0 
L 2766 4134 
L 525 4134 
L 525 4666 
z
" id="DejaVuSans-37" transform="scale(0.015625)"/>
       </defs>
       <use xlink:href="#DejaVuSans-30"/>
       <use x="63.623047" xlink:href="#DejaVuSans-2e"/>
       <use x="95.410156" xlink:href="#DejaVuSans-37"/>
       <use x="159.033203" xlink:href="#DejaVuSans-35"/>
      </g>
     </g>
    </g>
    <g id="ytick_5">
     <g id="line2d_11">
      <g>
       <use style="stroke:#000000;stroke-width:0.8;" x="50.14375" xlink:href="#mc6a081d119" y="150.648628"/>
      </g>
     </g>
     <g id="text_12">
      <!-- 1.00 -->
      <g transform="translate(20.878125 154.447847)scale(0.1 -0.1)">
       <use xlink:href="#DejaVuSans-31"/>
       <use x="63.623047" xlink:href="#DejaVuSans-2e"/>
       <use x="95.410156" xlink:href="#DejaVuSans-30"/>
       <use x="159.033203" xlink:href="#DejaVuSans-30"/>
      </g>
     </g>
    </g>
    <g id="ytick_6">
     <g id="line2d_12">
      <g>
       <use style="stroke:#000000;stroke-width:0.8;" x="50.14375" xlink:href="#mc6a081d119" y="119.982785"/>
      </g>
     </g>
     <g id="text_13">
      <!-- 1.25 -->
      <g transform="translate(20.878125 123.782004)scale(0.1 -0.1)">
       <use xlink:href="#DejaVuSans-31"/>
       <use x="63.623047" xlink:href="#DejaVuSans-2e"/>
       <use x="95.410156" xlink:href="#DejaVuSans-32"/>
       <use x="159.033203" xlink:href="#DejaVuSans-35"/>
      </g>
     </g>
    </g>
    <g id="ytick_7">
     <g id="line2d_13">
      <g>
       <use style="stroke:#000000;stroke-width:0.8;" x="50.14375" xlink:href="#mc6a081d119" y="89.316943"/>
      </g>
     </g>
     <g id="text_14">
      <!-- 1.50 -->
      <g transform="translate(20.878125 93.116161)scale(0.1 -0.1)">
       <use xlink:href="#DejaVuSans-31"/>
       <use x="63.623047" xlink:href="#DejaVuSans-2e"/>
       <use x="95.410156" xlink:href="#DejaVuSans-35"/>
       <use x="159.033203" xlink:href="#DejaVuSans-30"/>
      </g>
     </g>
    </g>
    <g id="ytick_8">
     <g id="line2d_14">
      <g>
       <use style="stroke:#000000;stroke-width:0.8;" x="50.14375" xlink:href="#mc6a081d119" y="58.6511"/>
      </g>
     </g>
     <g id="text_15">
      <!-- 1.75 -->
      <g transform="translate(20.878125 62.450318)scale(0.1 -0.1)">
       <use xlink:href="#DejaVuSans-31"/>
       <use x="63.623047" xlink:href="#DejaVuSans-2e"/>
       <use x="95.410156" xlink:href="#DejaVuSans-37"/>
       <use x="159.033203" xlink:href="#DejaVuSans-35"/>
      </g>
     </g>
    </g>
    <g id="ytick_9">
     <g id="line2d_15">
      <g>
       <use style="stroke:#000000;stroke-width:0.8;" x="50.14375" xlink:href="#mc6a081d119" y="27.985257"/>
      </g>
     </g>
     <g id="text_16">
      <!-- 2.00 -->
      <g transform="translate(20.878125 31.784476)scale(0.1 -0.1)">
       <use xlink:href="#DejaVuSans-32"/>
       <use x="63.623047" xlink:href="#DejaVuSans-2e"/>
       <use x="95.410156" xlink:href="#DejaVuSans-30"/>
       <use x="159.033203" xlink:href="#DejaVuSans-30"/>
      </g>
     </g>
    </g>
    <g id="text_17">
     <!-- Probability density -->
     <g transform="translate(14.798438 186.606781)rotate(-90)scale(0.1 -0.1)">
      <defs>
       <path d="M 3116 1747 
Q 3116 2381 2855 2742 
Q 2594 3103 2138 3103 
Q 1681 3103 1420 2742 
Q 1159 2381 1159 1747 
Q 1159 1113 1420 752 
Q 1681 391 2138 391 
Q 2594 391 2855 752 
Q 3116 1113 3116 1747 
z
M 1159 2969 
Q 1341 3281 1617 3432 
Q 1894 3584 2278 3584 
Q 2916 3584 3314 3078 
Q 3713 2572 3713 1747 
Q 3713 922 3314 415 
Q 2916 -91 2278 -91 
Q 1894 -91 1617 61 
Q 1341 213 1159 525 
L 1159 0 
L 581 0 
L 581 4863 
L 1159 4863 
L 1159 2969 
z
" id="DejaVuSans-62" transform="scale(0.015625)"/>
       <path d="M 603 4863 
L 1178 4863 
L 1178 0 
L 603 0 
L 603 4863 
z
" id="DejaVuSans-6c" transform="scale(0.015625)"/>
       <path d="M 2059 -325 
Q 1816 -950 1584 -1140 
Q 1353 -1331 966 -1331 
L 506 -1331 
L 506 -850 
L 844 -850 
Q 1081 -850 1212 -737 
Q 1344 -625 1503 -206 
L 1606 56 
L 191 3500 
L 800 3500 
L 1894 763 
L 2988 3500 
L 3597 3500 
L 2059 -325 
z
" id="DejaVuSans-79" transform="scale(0.015625)"/>
       <path d="M 2834 3397 
L 2834 2853 
Q 2591 2978 2328 3040 
Q 2066 3103 1784 3103 
Q 1356 3103 1142 2972 
Q 928 2841 928 2578 
Q 928 2378 1081 2264 
Q 1234 2150 1697 2047 
L 1894 2003 
Q 2506 1872 2764 1633 
Q 3022 1394 3022 966 
Q 3022 478 2636 193 
Q 2250 -91 1575 -91 
Q 1294 -91 989 -36 
Q 684 19 347 128 
L 347 722 
Q 666 556 975 473 
Q 1284 391 1588 391 
Q 1994 391 2212 530 
Q 2431 669 2431 922 
Q 2431 1156 2273 1281 
Q 2116 1406 1581 1522 
L 1381 1569 
Q 847 1681 609 1914 
Q 372 2147 372 2553 
Q 372 3047 722 3315 
Q 1072 3584 1716 3584 
Q 2034 3584 2315 3537 
Q 2597 3491 2834 3397 
z
" id="DejaVuSans-73" transform="scale(0.015625)"/>
      </defs>
      <use xlink:href="#DejaVuSans-50"/>
      <use x="58.552734" xlink:href="#DejaVuSans-72"/>
      <use x="97.416016" xlink:href="#DejaVuSans-6f"/>
      <use x="158.597656" xlink:href="#DejaVuSans-62"/>
      <use x="222.074219" xlink:href="#DejaVuSans-61"/>
      <use x="283.353516" xlink:href="#DejaVuSans-62"/>
      <use x="346.830078" xlink:href="#DejaVuSans-69"/>
      <use x="374.613281" xlink:href="#DejaVuSans-6c"/>
      <use x="402.396484" xlink:href="#DejaVuSans-69"/>
      <use x="430.179688" xlink:href="#DejaVuSans-74"/>
      <use x="469.388672" xlink:href="#DejaVuSans-79"/>
      <use x="528.568359" xlink:href="#DejaVuSans-20"/>
      <use x="560.355469" xlink:href="#DejaVuSans-64"/>
      <use x="623.832031" xlink:href="#DejaVuSans-65"/>
      <use x="685.355469" xlink:href="#DejaVuSans-6e"/>
      <use x="748.734375" xlink:href="#DejaVuSans-73"/>
      <use x="800.833984" xlink:href="#DejaVuSans-69"/>
      <use x="828.617188" xlink:href="#DejaVuSans-74"/>
      <use x="867.826172" xlink:href="#DejaVuSans-79"/>
     </g>
    </g>
   </g>
   <g id="line2d_16">
    <path clip-path="url(#p53a59d5849)" d="M 66.376477 273.312 
L 391.031023 27.985257 
L 391.031023 27.985257 
" style="fill:none;stroke:#ff7f0e;stroke-linecap:square;stroke-width:1.5;"/>
   </g>
   <g id="patch_203">
    <path d="M 50.14375 273.312 
L 50.14375 7.2 
" style="fill:none;stroke:#000000;stroke-linecap:square;stroke-linejoin:miter;stroke-width:0.8;"/>
   </g>
   <g id="patch_204">
    <path d="M 407.26375 273.312 
L 407.26375 7.2 
" style="fill:none;stroke:#000000;stroke-linecap:square;stroke-linejoin:miter;stroke-width:0.8;"/>
   </g>
   <g id="patch_205">
    <path d="M 50.14375 273.312 
L 407.26375 273.312 
" style="fill:none;stroke:#000000;stroke-linecap:square;stroke-linejoin:miter;stroke-width:0.8;"/>
   </g>
   <g id="patch_206">
    <path d="M 50.14375 7.2 
L 407.26375 7.2 
" style="fill:none;stroke:#000000;stroke-linecap:square;stroke-linejoin:miter;stroke-width:0.8;"/>
   </g>
  </g>
 </g>
 <defs>
  <clipPath id="p53a59d5849">
   <rect height="266.112" width="357.12" x="50.14375" y="7.2"/>
  </clipPath>
 </defs>
</svg>
