<?xml version="1.0" encoding="utf-8" standalone="no"?>
<!DOCTYPE svg PUBLIC "-//W3C//DTD SVG 1.1//EN"
  "http://www.w3.org/Graphics/SVG/1.1/DTD/svg11.dtd">
<svg height="310.86825pt" version="1.1" viewBox="0 0 408.10125 310.86825" width="408.10125pt" xmlns="http://www.w3.org/2000/svg" xmlns:xlink="http://www.w3.org/1999/xlink">
 <metadata>
  <rdf:RDF xmlns:cc="http://creativecommons.org/ns#" xmlns:dc="http://purl.org/dc/elements/1.1/" xmlns:rdf="http://www.w3.org/1999/02/22-rdf-syntax-ns#">
   <cc:Work>
    <dc:type rdf:resource="http://purl.org/dc/dcmitype/StillImage"/>
    <dc:date>2021-08-23T14:33:42.314615</dc:date>
    <dc:format>image/svg+xml</dc:format>
    <dc:creator>
     <cc:Agent>
      <dc:title>Matplotlib v3.4.3, https://matplotlib.org/</dc:title>
     </cc:Agent>
    </dc:creator>
   </cc:Work>
  </rdf:RDF>
 </metadata>
 <defs>
  <style type="text/css">*{stroke-linecap:butt;stroke-linejoin:round;}</style>
 </defs>
 <g id="figure_1">
  <g id="patch_1">
   <path d="M 0 310.86825 
L 408.10125 310.86825 
L 408.10125 0 
L 0 0 
z
" style="fill:#ffffff;"/>
  </g>
  <g id="axes_1">
   <g id="patch_2">
    <path d="M 43.78125 273.312 
L 400.90125 273.312 
L 400.90125 7.2 
L 43.78125 7.2 
z
" style="fill:#ffffff;"/>
   </g>
   <g id="patch_3">
    <path clip-path="url(#p3a44b248cd)" d="M 60.879407 273.312 
L 62.497571 273.312 
L 62.497571 269.859139 
L 60.879407 269.859139 
z
" style="fill:#1f77b4;"/>
   </g>
   <g id="patch_4">
    <path clip-path="url(#p3a44b248cd)" d="M 62.497571 273.312 
L 64.115736 273.312 
L 64.115736 268.477995 
L 62.497571 268.477995 
z
" style="fill:#1f77b4;"/>
   </g>
   <g id="patch_5">
    <path clip-path="url(#p3a44b248cd)" d="M 64.115736 273.312 
L 65.733901 273.312 
L 65.733901 262.953417 
L 64.115736 262.953417 
z
" style="fill:#1f77b4;"/>
   </g>
   <g id="patch_6">
    <path clip-path="url(#p3a44b248cd)" d="M 65.733901 273.312 
L 67.352065 273.312 
L 67.352065 256.047695 
L 65.733901 256.047695 
z
" style="fill:#1f77b4;"/>
   </g>
   <g id="patch_7">
    <path clip-path="url(#p3a44b248cd)" d="M 67.352065 273.312 
L 68.97023 273.312 
L 68.97023 260.8817 
L 67.352065 260.8817 
z
" style="fill:#1f77b4;"/>
   </g>
   <g id="patch_8">
    <path clip-path="url(#p3a44b248cd)" d="M 68.97023 273.312 
L 70.588395 273.312 
L 70.588395 245.689112 
L 68.97023 245.689112 
z
" style="fill:#1f77b4;"/>
   </g>
   <g id="patch_9">
    <path clip-path="url(#p3a44b248cd)" d="M 70.588395 273.312 
L 72.206559 273.312 
L 72.206559 243.617395 
L 70.588395 243.617395 
z
" style="fill:#1f77b4;"/>
   </g>
   <g id="patch_10">
    <path clip-path="url(#p3a44b248cd)" d="M 72.206559 273.312 
L 73.824724 273.312 
L 73.824724 240.855106 
L 72.206559 240.855106 
z
" style="fill:#1f77b4;"/>
   </g>
   <g id="patch_11">
    <path clip-path="url(#p3a44b248cd)" d="M 73.824724 273.312 
L 75.442889 273.312 
L 75.442889 243.617395 
L 73.824724 243.617395 
z
" style="fill:#1f77b4;"/>
   </g>
   <g id="patch_12">
    <path clip-path="url(#p3a44b248cd)" d="M 75.442889 273.312 
L 77.061053 273.312 
L 77.061053 238.092817 
L 75.442889 238.092817 
z
" style="fill:#1f77b4;"/>
   </g>
   <g id="patch_13">
    <path clip-path="url(#p3a44b248cd)" d="M 77.061053 273.312 
L 78.679218 273.312 
L 78.679218 242.926823 
L 77.061053 242.926823 
z
" style="fill:#1f77b4;"/>
   </g>
   <g id="patch_14">
    <path clip-path="url(#p3a44b248cd)" d="M 78.679218 273.312 
L 80.297383 273.312 
L 80.297383 228.424807 
L 78.679218 228.424807 
z
" style="fill:#1f77b4;"/>
   </g>
   <g id="patch_15">
    <path clip-path="url(#p3a44b248cd)" d="M 80.297383 273.312 
L 81.915547 273.312 
L 81.915547 227.734234 
L 80.297383 227.734234 
z
" style="fill:#1f77b4;"/>
   </g>
   <g id="patch_16">
    <path clip-path="url(#p3a44b248cd)" d="M 81.915547 273.312 
L 83.533712 273.312 
L 83.533712 220.828512 
L 81.915547 220.828512 
z
" style="fill:#1f77b4;"/>
   </g>
   <g id="patch_17">
    <path clip-path="url(#p3a44b248cd)" d="M 83.533712 273.312 
L 85.151877 273.312 
L 85.151877 231.187095 
L 83.533712 231.187095 
z
" style="fill:#1f77b4;"/>
   </g>
   <g id="patch_18">
    <path clip-path="url(#p3a44b248cd)" d="M 85.151877 273.312 
L 86.770041 273.312 
L 86.770041 228.424807 
L 85.151877 228.424807 
z
" style="fill:#1f77b4;"/>
   </g>
   <g id="patch_19">
    <path clip-path="url(#p3a44b248cd)" d="M 86.770041 273.312 
L 88.388206 273.312 
L 88.388206 221.519084 
L 86.770041 221.519084 
z
" style="fill:#1f77b4;"/>
   </g>
   <g id="patch_20">
    <path clip-path="url(#p3a44b248cd)" d="M 88.388206 273.312 
L 90.006371 273.312 
L 90.006371 211.851074 
L 88.388206 211.851074 
z
" style="fill:#1f77b4;"/>
   </g>
   <g id="patch_21">
    <path clip-path="url(#p3a44b248cd)" d="M 90.006371 273.312 
L 91.624535 273.312 
L 91.624535 210.469929 
L 90.006371 210.469929 
z
" style="fill:#1f77b4;"/>
   </g>
   <g id="patch_22">
    <path clip-path="url(#p3a44b248cd)" d="M 91.624535 273.312 
L 93.2427 273.312 
L 93.2427 208.398213 
L 91.624535 208.398213 
z
" style="fill:#1f77b4;"/>
   </g>
   <g id="patch_23">
    <path clip-path="url(#p3a44b248cd)" d="M 93.2427 273.312 
L 94.860865 273.312 
L 94.860865 209.088785 
L 93.2427 209.088785 
z
" style="fill:#1f77b4;"/>
   </g>
   <g id="patch_24">
    <path clip-path="url(#p3a44b248cd)" d="M 94.860865 273.312 
L 96.479029 273.312 
L 96.479029 202.183063 
L 94.860865 202.183063 
z
" style="fill:#1f77b4;"/>
   </g>
   <g id="patch_25">
    <path clip-path="url(#p3a44b248cd)" d="M 96.479029 273.312 
L 98.097194 273.312 
L 98.097194 193.896196 
L 96.479029 193.896196 
z
" style="fill:#1f77b4;"/>
   </g>
   <g id="patch_26">
    <path clip-path="url(#p3a44b248cd)" d="M 98.097194 273.312 
L 99.715359 273.312 
L 99.715359 198.730202 
L 98.097194 198.730202 
z
" style="fill:#1f77b4;"/>
   </g>
   <g id="patch_27">
    <path clip-path="url(#p3a44b248cd)" d="M 99.715359 273.312 
L 101.333523 273.312 
L 101.333523 189.752763 
L 99.715359 189.752763 
z
" style="fill:#1f77b4;"/>
   </g>
   <g id="patch_28">
    <path clip-path="url(#p3a44b248cd)" d="M 101.333523 273.312 
L 102.951688 273.312 
L 102.951688 176.631891 
L 101.333523 176.631891 
z
" style="fill:#1f77b4;"/>
   </g>
   <g id="patch_29">
    <path clip-path="url(#p3a44b248cd)" d="M 102.951688 273.312 
L 104.569853 273.312 
L 104.569853 184.228185 
L 102.951688 184.228185 
z
" style="fill:#1f77b4;"/>
   </g>
   <g id="patch_30">
    <path clip-path="url(#p3a44b248cd)" d="M 104.569853 273.312 
L 106.188017 273.312 
L 106.188017 177.322463 
L 104.569853 177.322463 
z
" style="fill:#1f77b4;"/>
   </g>
   <g id="patch_31">
    <path clip-path="url(#p3a44b248cd)" d="M 106.188017 273.312 
L 107.806182 273.312 
L 107.806182 171.107313 
L 106.188017 171.107313 
z
" style="fill:#1f77b4;"/>
   </g>
   <g id="patch_32">
    <path clip-path="url(#p3a44b248cd)" d="M 107.806182 273.312 
L 109.424347 273.312 
L 109.424347 169.035597 
L 107.806182 169.035597 
z
" style="fill:#1f77b4;"/>
   </g>
   <g id="patch_33">
    <path clip-path="url(#p3a44b248cd)" d="M 109.424347 273.312 
L 111.042511 273.312 
L 111.042511 186.990474 
L 109.424347 186.990474 
z
" style="fill:#1f77b4;"/>
   </g>
   <g id="patch_34">
    <path clip-path="url(#p3a44b248cd)" d="M 111.042511 273.312 
L 112.660676 273.312 
L 112.660676 191.82448 
L 111.042511 191.82448 
z
" style="fill:#1f77b4;"/>
   </g>
   <g id="patch_35">
    <path clip-path="url(#p3a44b248cd)" d="M 112.660676 273.312 
L 114.278841 273.312 
L 114.278841 175.250747 
L 112.660676 175.250747 
z
" style="fill:#1f77b4;"/>
   </g>
   <g id="patch_36">
    <path clip-path="url(#p3a44b248cd)" d="M 114.278841 273.312 
L 115.897005 273.312 
L 115.897005 168.345025 
L 114.278841 168.345025 
z
" style="fill:#1f77b4;"/>
   </g>
   <g id="patch_37">
    <path clip-path="url(#p3a44b248cd)" d="M 115.897005 273.312 
L 117.51517 273.312 
L 117.51517 164.201591 
L 115.897005 164.201591 
z
" style="fill:#1f77b4;"/>
   </g>
   <g id="patch_38">
    <path clip-path="url(#p3a44b248cd)" d="M 117.51517 273.312 
L 119.133335 273.312 
L 119.133335 157.295869 
L 117.51517 157.295869 
z
" style="fill:#1f77b4;"/>
   </g>
   <g id="patch_39">
    <path clip-path="url(#p3a44b248cd)" d="M 119.133335 273.312 
L 120.751499 273.312 
L 120.751499 159.367586 
L 119.133335 159.367586 
z
" style="fill:#1f77b4;"/>
   </g>
   <g id="patch_40">
    <path clip-path="url(#p3a44b248cd)" d="M 120.751499 273.312 
L 122.369664 273.312 
L 122.369664 127.601264 
L 120.751499 127.601264 
z
" style="fill:#1f77b4;"/>
   </g>
   <g id="patch_41">
    <path clip-path="url(#p3a44b248cd)" d="M 122.369664 273.312 
L 123.987829 273.312 
L 123.987829 156.605297 
L 122.369664 156.605297 
z
" style="fill:#1f77b4;"/>
   </g>
   <g id="patch_42">
    <path clip-path="url(#p3a44b248cd)" d="M 123.987829 273.312 
L 125.605993 273.312 
L 125.605993 147.627858 
L 123.987829 147.627858 
z
" style="fill:#1f77b4;"/>
   </g>
   <g id="patch_43">
    <path clip-path="url(#p3a44b248cd)" d="M 125.605993 273.312 
L 127.224158 273.312 
L 127.224158 136.578703 
L 125.605993 136.578703 
z
" style="fill:#1f77b4;"/>
   </g>
   <g id="patch_44">
    <path clip-path="url(#p3a44b248cd)" d="M 127.224158 273.312 
L 128.842323 273.312 
L 128.842323 149.699575 
L 127.224158 149.699575 
z
" style="fill:#1f77b4;"/>
   </g>
   <g id="patch_45">
    <path clip-path="url(#p3a44b248cd)" d="M 128.842323 273.312 
L 130.460487 273.312 
L 130.460487 144.865569 
L 128.842323 144.865569 
z
" style="fill:#1f77b4;"/>
   </g>
   <g id="patch_46">
    <path clip-path="url(#p3a44b248cd)" d="M 130.460487 273.312 
L 132.078652 273.312 
L 132.078652 151.771292 
L 130.460487 151.771292 
z
" style="fill:#1f77b4;"/>
   </g>
   <g id="patch_47">
    <path clip-path="url(#p3a44b248cd)" d="M 132.078652 273.312 
L 133.696817 273.312 
L 133.696817 141.412708 
L 132.078652 141.412708 
z
" style="fill:#1f77b4;"/>
   </g>
   <g id="patch_48">
    <path clip-path="url(#p3a44b248cd)" d="M 133.696817 273.312 
L 135.314981 273.312 
L 135.314981 141.412708 
L 133.696817 141.412708 
z
" style="fill:#1f77b4;"/>
   </g>
   <g id="patch_49">
    <path clip-path="url(#p3a44b248cd)" d="M 135.314981 273.312 
L 136.933146 273.312 
L 136.933146 123.457831 
L 135.314981 123.457831 
z
" style="fill:#1f77b4;"/>
   </g>
   <g id="patch_50">
    <path clip-path="url(#p3a44b248cd)" d="M 136.933146 273.312 
L 138.551311 273.312 
L 138.551311 115.861537 
L 136.933146 115.861537 
z
" style="fill:#1f77b4;"/>
   </g>
   <g id="patch_51">
    <path clip-path="url(#p3a44b248cd)" d="M 138.551311 273.312 
L 140.169475 273.312 
L 140.169475 121.386114 
L 138.551311 121.386114 
z
" style="fill:#1f77b4;"/>
   </g>
   <g id="patch_52">
    <path clip-path="url(#p3a44b248cd)" d="M 140.169475 273.312 
L 141.78764 273.312 
L 141.78764 124.148403 
L 140.169475 124.148403 
z
" style="fill:#1f77b4;"/>
   </g>
   <g id="patch_53">
    <path clip-path="url(#p3a44b248cd)" d="M 141.78764 273.312 
L 143.405805 273.312 
L 143.405805 106.884098 
L 141.78764 106.884098 
z
" style="fill:#1f77b4;"/>
   </g>
   <g id="patch_54">
    <path clip-path="url(#p3a44b248cd)" d="M 143.405805 273.312 
L 145.023969 273.312 
L 145.023969 106.884098 
L 143.405805 106.884098 
z
" style="fill:#1f77b4;"/>
   </g>
   <g id="patch_55">
    <path clip-path="url(#p3a44b248cd)" d="M 145.023969 273.312 
L 146.642134 273.312 
L 146.642134 108.955815 
L 145.023969 108.955815 
z
" style="fill:#1f77b4;"/>
   </g>
   <g id="patch_56">
    <path clip-path="url(#p3a44b248cd)" d="M 146.642134 273.312 
L 148.260299 273.312 
L 148.260299 107.57467 
L 146.642134 107.57467 
z
" style="fill:#1f77b4;"/>
   </g>
   <g id="patch_57">
    <path clip-path="url(#p3a44b248cd)" d="M 148.260299 273.312 
L 149.878463 273.312 
L 149.878463 99.978376 
L 148.260299 99.978376 
z
" style="fill:#1f77b4;"/>
   </g>
   <g id="patch_58">
    <path clip-path="url(#p3a44b248cd)" d="M 149.878463 273.312 
L 151.496628 273.312 
L 151.496628 117.933253 
L 149.878463 117.933253 
z
" style="fill:#1f77b4;"/>
   </g>
   <g id="patch_59">
    <path clip-path="url(#p3a44b248cd)" d="M 151.496628 273.312 
L 153.114793 273.312 
L 153.114793 127.601264 
L 151.496628 127.601264 
z
" style="fill:#1f77b4;"/>
   </g>
   <g id="patch_60">
    <path clip-path="url(#p3a44b248cd)" d="M 153.114793 273.312 
L 154.732957 273.312 
L 154.732957 120.00497 
L 153.114793 120.00497 
z
" style="fill:#1f77b4;"/>
   </g>
   <g id="patch_61">
    <path clip-path="url(#p3a44b248cd)" d="M 154.732957 273.312 
L 156.351122 273.312 
L 156.351122 127.601264 
L 154.732957 127.601264 
z
" style="fill:#1f77b4;"/>
   </g>
   <g id="patch_62">
    <path clip-path="url(#p3a44b248cd)" d="M 156.351122 273.312 
L 157.969287 273.312 
L 157.969287 99.287804 
L 156.351122 99.287804 
z
" style="fill:#1f77b4;"/>
   </g>
   <g id="patch_63">
    <path clip-path="url(#p3a44b248cd)" d="M 157.969287 273.312 
L 159.587451 273.312 
L 159.587451 88.929221 
L 157.969287 88.929221 
z
" style="fill:#1f77b4;"/>
   </g>
   <g id="patch_64">
    <path clip-path="url(#p3a44b248cd)" d="M 159.587451 273.312 
L 161.205616 273.312 
L 161.205616 101.35952 
L 159.587451 101.35952 
z
" style="fill:#1f77b4;"/>
   </g>
   <g id="patch_65">
    <path clip-path="url(#p3a44b248cd)" d="M 161.205616 273.312 
L 162.823781 273.312 
L 162.823781 91.69151 
L 161.205616 91.69151 
z
" style="fill:#1f77b4;"/>
   </g>
   <g id="patch_66">
    <path clip-path="url(#p3a44b248cd)" d="M 162.823781 273.312 
L 164.441945 273.312 
L 164.441945 90.310365 
L 162.823781 90.310365 
z
" style="fill:#1f77b4;"/>
   </g>
   <g id="patch_67">
    <path clip-path="url(#p3a44b248cd)" d="M 164.441945 273.312 
L 166.06011 273.312 
L 166.06011 89.619793 
L 164.441945 89.619793 
z
" style="fill:#1f77b4;"/>
   </g>
   <g id="patch_68">
    <path clip-path="url(#p3a44b248cd)" d="M 166.06011 273.312 
L 167.678275 273.312 
L 167.678275 86.857504 
L 166.06011 86.857504 
z
" style="fill:#1f77b4;"/>
   </g>
   <g id="patch_69">
    <path clip-path="url(#p3a44b248cd)" d="M 167.678275 273.312 
L 169.296439 273.312 
L 169.296439 86.857504 
L 167.678275 86.857504 
z
" style="fill:#1f77b4;"/>
   </g>
   <g id="patch_70">
    <path clip-path="url(#p3a44b248cd)" d="M 169.296439 273.312 
L 170.914604 273.312 
L 170.914604 84.095215 
L 169.296439 84.095215 
z
" style="fill:#1f77b4;"/>
   </g>
   <g id="patch_71">
    <path clip-path="url(#p3a44b248cd)" d="M 170.914604 273.312 
L 172.532769 273.312 
L 172.532769 79.26121 
L 170.914604 79.26121 
z
" style="fill:#1f77b4;"/>
   </g>
   <g id="patch_72">
    <path clip-path="url(#p3a44b248cd)" d="M 172.532769 273.312 
L 174.150933 273.312 
L 174.150933 84.785787 
L 172.532769 84.785787 
z
" style="fill:#1f77b4;"/>
   </g>
   <g id="patch_73">
    <path clip-path="url(#p3a44b248cd)" d="M 174.150933 273.312 
L 175.769098 273.312 
L 175.769098 80.642354 
L 174.150933 80.642354 
z
" style="fill:#1f77b4;"/>
   </g>
   <g id="patch_74">
    <path clip-path="url(#p3a44b248cd)" d="M 175.769098 273.312 
L 177.387263 273.312 
L 177.387263 79.951782 
L 175.769098 79.951782 
z
" style="fill:#1f77b4;"/>
   </g>
   <g id="patch_75">
    <path clip-path="url(#p3a44b248cd)" d="M 177.387263 273.312 
L 179.005427 273.312 
L 179.005427 84.095215 
L 177.387263 84.095215 
z
" style="fill:#1f77b4;"/>
   </g>
   <g id="patch_76">
    <path clip-path="url(#p3a44b248cd)" d="M 179.005427 273.312 
L 180.623592 273.312 
L 180.623592 72.355488 
L 179.005427 72.355488 
z
" style="fill:#1f77b4;"/>
   </g>
   <g id="patch_77">
    <path clip-path="url(#p3a44b248cd)" d="M 180.623592 273.312 
L 182.241756 273.312 
L 182.241756 82.023499 
L 180.623592 82.023499 
z
" style="fill:#1f77b4;"/>
   </g>
   <g id="patch_78">
    <path clip-path="url(#p3a44b248cd)" d="M 182.241756 273.312 
L 183.859921 273.312 
L 183.859921 88.929221 
L 182.241756 88.929221 
z
" style="fill:#1f77b4;"/>
   </g>
   <g id="patch_79">
    <path clip-path="url(#p3a44b248cd)" d="M 183.859921 273.312 
L 185.478086 273.312 
L 185.478086 40.589166 
L 183.859921 40.589166 
z
" style="fill:#1f77b4;"/>
   </g>
   <g id="patch_80">
    <path clip-path="url(#p3a44b248cd)" d="M 185.478086 273.312 
L 187.09625 273.312 
L 187.09625 77.880065 
L 185.478086 77.880065 
z
" style="fill:#1f77b4;"/>
   </g>
   <g id="patch_81">
    <path clip-path="url(#p3a44b248cd)" d="M 187.09625 273.312 
L 188.714415 273.312 
L 188.714415 69.593199 
L 187.09625 69.593199 
z
" style="fill:#1f77b4;"/>
   </g>
   <g id="patch_82">
    <path clip-path="url(#p3a44b248cd)" d="M 188.714415 273.312 
L 190.33258 273.312 
L 190.33258 68.212054 
L 188.714415 68.212054 
z
" style="fill:#1f77b4;"/>
   </g>
   <g id="patch_83">
    <path clip-path="url(#p3a44b248cd)" d="M 190.33258 273.312 
L 191.950744 273.312 
L 191.950744 68.902627 
L 190.33258 68.902627 
z
" style="fill:#1f77b4;"/>
   </g>
   <g id="patch_84">
    <path clip-path="url(#p3a44b248cd)" d="M 191.950744 273.312 
L 193.568909 273.312 
L 193.568909 77.880065 
L 191.950744 77.880065 
z
" style="fill:#1f77b4;"/>
   </g>
   <g id="patch_85">
    <path clip-path="url(#p3a44b248cd)" d="M 193.568909 273.312 
L 195.187074 273.312 
L 195.187074 57.162899 
L 193.568909 57.162899 
z
" style="fill:#1f77b4;"/>
   </g>
   <g id="patch_86">
    <path clip-path="url(#p3a44b248cd)" d="M 195.187074 273.312 
L 196.805238 273.312 
L 196.805238 66.83091 
L 195.187074 66.83091 
z
" style="fill:#1f77b4;"/>
   </g>
   <g id="patch_87">
    <path clip-path="url(#p3a44b248cd)" d="M 196.805238 273.312 
L 198.423403 273.312 
L 198.423403 70.974343 
L 196.805238 70.974343 
z
" style="fill:#1f77b4;"/>
   </g>
   <g id="patch_88">
    <path clip-path="url(#p3a44b248cd)" d="M 198.423403 273.312 
L 200.041568 273.312 
L 200.041568 64.068621 
L 198.423403 64.068621 
z
" style="fill:#1f77b4;"/>
   </g>
   <g id="patch_89">
    <path clip-path="url(#p3a44b248cd)" d="M 200.041568 273.312 
L 201.659732 273.312 
L 201.659732 69.593199 
L 200.041568 69.593199 
z
" style="fill:#1f77b4;"/>
   </g>
   <g id="patch_90">
    <path clip-path="url(#p3a44b248cd)" d="M 201.659732 273.312 
L 203.277897 273.312 
L 203.277897 51.638322 
L 201.659732 51.638322 
z
" style="fill:#1f77b4;"/>
   </g>
   <g id="patch_91">
    <path clip-path="url(#p3a44b248cd)" d="M 203.277897 273.312 
L 204.896062 273.312 
L 204.896062 50.257177 
L 203.277897 50.257177 
z
" style="fill:#1f77b4;"/>
   </g>
   <g id="patch_92">
    <path clip-path="url(#p3a44b248cd)" d="M 204.896062 273.312 
L 206.514226 273.312 
L 206.514226 54.40061 
L 204.896062 54.40061 
z
" style="fill:#1f77b4;"/>
   </g>
   <g id="patch_93">
    <path clip-path="url(#p3a44b248cd)" d="M 206.514226 273.312 
L 208.132391 273.312 
L 208.132391 48.876033 
L 206.514226 48.876033 
z
" style="fill:#1f77b4;"/>
   </g>
   <g id="patch_94">
    <path clip-path="url(#p3a44b248cd)" d="M 208.132391 273.312 
L 209.750556 273.312 
L 209.750556 68.902627 
L 208.132391 68.902627 
z
" style="fill:#1f77b4;"/>
   </g>
   <g id="patch_95">
    <path clip-path="url(#p3a44b248cd)" d="M 209.750556 273.312 
L 211.36872 273.312 
L 211.36872 67.521482 
L 209.750556 67.521482 
z
" style="fill:#1f77b4;"/>
   </g>
   <g id="patch_96">
    <path clip-path="url(#p3a44b248cd)" d="M 211.36872 273.312 
L 212.986885 273.312 
L 212.986885 66.83091 
L 211.36872 66.83091 
z
" style="fill:#1f77b4;"/>
   </g>
   <g id="patch_97">
    <path clip-path="url(#p3a44b248cd)" d="M 212.986885 273.312 
L 214.60505 273.312 
L 214.60505 32.992872 
L 212.986885 32.992872 
z
" style="fill:#1f77b4;"/>
   </g>
   <g id="patch_98">
    <path clip-path="url(#p3a44b248cd)" d="M 214.60505 273.312 
L 216.223214 273.312 
L 216.223214 50.947749 
L 214.60505 50.947749 
z
" style="fill:#1f77b4;"/>
   </g>
   <g id="patch_99">
    <path clip-path="url(#p3a44b248cd)" d="M 216.223214 273.312 
L 217.841379 273.312 
L 217.841379 47.494888 
L 216.223214 47.494888 
z
" style="fill:#1f77b4;"/>
   </g>
   <g id="patch_100">
    <path clip-path="url(#p3a44b248cd)" d="M 217.841379 273.312 
L 219.459544 273.312 
L 219.459544 19.872 
L 217.841379 19.872 
z
" style="fill:#1f77b4;"/>
   </g>
   <g id="patch_101">
    <path clip-path="url(#p3a44b248cd)" d="M 219.459544 273.312 
L 221.077708 273.312 
L 221.077708 39.898594 
L 219.459544 39.898594 
z
" style="fill:#1f77b4;"/>
   </g>
   <g id="patch_102">
    <path clip-path="url(#p3a44b248cd)" d="M 221.077708 273.312 
L 222.695873 273.312 
L 222.695873 77.189493 
L 221.077708 77.189493 
z
" style="fill:#1f77b4;"/>
   </g>
   <g id="patch_103">
    <path clip-path="url(#p3a44b248cd)" d="M 222.695873 273.312 
L 224.314038 273.312 
L 224.314038 34.374016 
L 222.695873 34.374016 
z
" style="fill:#1f77b4;"/>
   </g>
   <g id="patch_104">
    <path clip-path="url(#p3a44b248cd)" d="M 224.314038 273.312 
L 225.932202 273.312 
L 225.932202 61.306332 
L 224.314038 61.306332 
z
" style="fill:#1f77b4;"/>
   </g>
   <g id="patch_105">
    <path clip-path="url(#p3a44b248cd)" d="M 225.932202 273.312 
L 227.550367 273.312 
L 227.550367 58.544044 
L 225.932202 58.544044 
z
" style="fill:#1f77b4;"/>
   </g>
   <g id="patch_106">
    <path clip-path="url(#p3a44b248cd)" d="M 227.550367 273.312 
L 229.168532 273.312 
L 229.168532 53.710038 
L 227.550367 53.710038 
z
" style="fill:#1f77b4;"/>
   </g>
   <g id="patch_107">
    <path clip-path="url(#p3a44b248cd)" d="M 229.168532 273.312 
L 230.786696 273.312 
L 230.786696 60.61576 
L 229.168532 60.61576 
z
" style="fill:#1f77b4;"/>
   </g>
   <g id="patch_108">
    <path clip-path="url(#p3a44b248cd)" d="M 230.786696 273.312 
L 232.404861 273.312 
L 232.404861 48.876033 
L 230.786696 48.876033 
z
" style="fill:#1f77b4;"/>
   </g>
   <g id="patch_109">
    <path clip-path="url(#p3a44b248cd)" d="M 232.404861 273.312 
L 234.023026 273.312 
L 234.023026 57.853471 
L 232.404861 57.853471 
z
" style="fill:#1f77b4;"/>
   </g>
   <g id="patch_110">
    <path clip-path="url(#p3a44b248cd)" d="M 234.023026 273.312 
L 235.64119 273.312 
L 235.64119 75.117777 
L 234.023026 75.117777 
z
" style="fill:#1f77b4;"/>
   </g>
   <g id="patch_111">
    <path clip-path="url(#p3a44b248cd)" d="M 235.64119 273.312 
L 237.259355 273.312 
L 237.259355 53.710038 
L 235.64119 53.710038 
z
" style="fill:#1f77b4;"/>
   </g>
   <g id="patch_112">
    <path clip-path="url(#p3a44b248cd)" d="M 237.259355 273.312 
L 238.87752 273.312 
L 238.87752 82.714071 
L 237.259355 82.714071 
z
" style="fill:#1f77b4;"/>
   </g>
   <g id="patch_113">
    <path clip-path="url(#p3a44b248cd)" d="M 238.87752 273.312 
L 240.495684 273.312 
L 240.495684 48.18546 
L 238.87752 48.18546 
z
" style="fill:#1f77b4;"/>
   </g>
   <g id="patch_114">
    <path clip-path="url(#p3a44b248cd)" d="M 240.495684 273.312 
L 242.113849 273.312 
L 242.113849 57.853471 
L 240.495684 57.853471 
z
" style="fill:#1f77b4;"/>
   </g>
   <g id="patch_115">
    <path clip-path="url(#p3a44b248cd)" d="M 242.113849 273.312 
L 243.732014 273.312 
L 243.732014 61.306332 
L 242.113849 61.306332 
z
" style="fill:#1f77b4;"/>
   </g>
   <g id="patch_116">
    <path clip-path="url(#p3a44b248cd)" d="M 243.732014 273.312 
L 245.350178 273.312 
L 245.350178 53.710038 
L 243.732014 53.710038 
z
" style="fill:#1f77b4;"/>
   </g>
   <g id="patch_117">
    <path clip-path="url(#p3a44b248cd)" d="M 245.350178 273.312 
L 246.968343 273.312 
L 246.968343 61.996905 
L 245.350178 61.996905 
z
" style="fill:#1f77b4;"/>
   </g>
   <g id="patch_118">
    <path clip-path="url(#p3a44b248cd)" d="M 246.968343 273.312 
L 248.586508 273.312 
L 248.586508 66.140338 
L 246.968343 66.140338 
z
" style="fill:#1f77b4;"/>
   </g>
   <g id="patch_119">
    <path clip-path="url(#p3a44b248cd)" d="M 248.586508 273.312 
L 250.204672 273.312 
L 250.204672 70.974343 
L 248.586508 70.974343 
z
" style="fill:#1f77b4;"/>
   </g>
   <g id="patch_120">
    <path clip-path="url(#p3a44b248cd)" d="M 250.204672 273.312 
L 251.822837 273.312 
L 251.822837 57.162899 
L 250.204672 57.162899 
z
" style="fill:#1f77b4;"/>
   </g>
   <g id="patch_121">
    <path clip-path="url(#p3a44b248cd)" d="M 251.822837 273.312 
L 253.441002 273.312 
L 253.441002 59.234616 
L 251.822837 59.234616 
z
" style="fill:#1f77b4;"/>
   </g>
   <g id="patch_122">
    <path clip-path="url(#p3a44b248cd)" d="M 253.441002 273.312 
L 255.059166 273.312 
L 255.059166 70.974343 
L 253.441002 70.974343 
z
" style="fill:#1f77b4;"/>
   </g>
   <g id="patch_123">
    <path clip-path="url(#p3a44b248cd)" d="M 255.059166 273.312 
L 256.677331 273.312 
L 256.677331 69.593199 
L 255.059166 69.593199 
z
" style="fill:#1f77b4;"/>
   </g>
   <g id="patch_124">
    <path clip-path="url(#p3a44b248cd)" d="M 256.677331 273.312 
L 258.295496 273.312 
L 258.295496 63.378049 
L 256.677331 63.378049 
z
" style="fill:#1f77b4;"/>
   </g>
   <g id="patch_125">
    <path clip-path="url(#p3a44b248cd)" d="M 258.295496 273.312 
L 259.91366 273.312 
L 259.91366 78.570638 
L 258.295496 78.570638 
z
" style="fill:#1f77b4;"/>
   </g>
   <g id="patch_126">
    <path clip-path="url(#p3a44b248cd)" d="M 259.91366 273.312 
L 261.531825 273.312 
L 261.531825 56.472327 
L 259.91366 56.472327 
z
" style="fill:#1f77b4;"/>
   </g>
   <g id="patch_127">
    <path clip-path="url(#p3a44b248cd)" d="M 261.531825 273.312 
L 263.14999 273.312 
L 263.14999 70.974343 
L 261.531825 70.974343 
z
" style="fill:#1f77b4;"/>
   </g>
   <g id="patch_128">
    <path clip-path="url(#p3a44b248cd)" d="M 263.14999 273.312 
L 264.768154 273.312 
L 264.768154 79.26121 
L 263.14999 79.26121 
z
" style="fill:#1f77b4;"/>
   </g>
   <g id="patch_129">
    <path clip-path="url(#p3a44b248cd)" d="M 264.768154 273.312 
L 266.386319 273.312 
L 266.386319 57.162899 
L 264.768154 57.162899 
z
" style="fill:#1f77b4;"/>
   </g>
   <g id="patch_130">
    <path clip-path="url(#p3a44b248cd)" d="M 266.386319 273.312 
L 268.004484 273.312 
L 268.004484 94.453798 
L 266.386319 94.453798 
z
" style="fill:#1f77b4;"/>
   </g>
   <g id="patch_131">
    <path clip-path="url(#p3a44b248cd)" d="M 268.004484 273.312 
L 269.622648 273.312 
L 269.622648 87.548076 
L 268.004484 87.548076 
z
" style="fill:#1f77b4;"/>
   </g>
   <g id="patch_132">
    <path clip-path="url(#p3a44b248cd)" d="M 269.622648 273.312 
L 271.240813 273.312 
L 271.240813 88.929221 
L 269.622648 88.929221 
z
" style="fill:#1f77b4;"/>
   </g>
   <g id="patch_133">
    <path clip-path="url(#p3a44b248cd)" d="M 271.240813 273.312 
L 272.858978 273.312 
L 272.858978 67.521482 
L 271.240813 67.521482 
z
" style="fill:#1f77b4;"/>
   </g>
   <g id="patch_134">
    <path clip-path="url(#p3a44b248cd)" d="M 272.858978 273.312 
L 274.477142 273.312 
L 274.477142 58.544044 
L 272.858978 58.544044 
z
" style="fill:#1f77b4;"/>
   </g>
   <g id="patch_135">
    <path clip-path="url(#p3a44b248cd)" d="M 274.477142 273.312 
L 276.095307 273.312 
L 276.095307 86.166932 
L 274.477142 86.166932 
z
" style="fill:#1f77b4;"/>
   </g>
   <g id="patch_136">
    <path clip-path="url(#p3a44b248cd)" d="M 276.095307 273.312 
L 277.713472 273.312 
L 277.713472 84.785787 
L 276.095307 84.785787 
z
" style="fill:#1f77b4;"/>
   </g>
   <g id="patch_137">
    <path clip-path="url(#p3a44b248cd)" d="M 277.713472 273.312 
L 279.331636 273.312 
L 279.331636 84.785787 
L 277.713472 84.785787 
z
" style="fill:#1f77b4;"/>
   </g>
   <g id="patch_138">
    <path clip-path="url(#p3a44b248cd)" d="M 279.331636 273.312 
L 280.949801 273.312 
L 280.949801 104.812381 
L 279.331636 104.812381 
z
" style="fill:#1f77b4;"/>
   </g>
   <g id="patch_139">
    <path clip-path="url(#p3a44b248cd)" d="M 280.949801 273.312 
L 282.567966 273.312 
L 282.567966 76.498921 
L 280.949801 76.498921 
z
" style="fill:#1f77b4;"/>
   </g>
   <g id="patch_140">
    <path clip-path="url(#p3a44b248cd)" d="M 282.567966 273.312 
L 284.18613 273.312 
L 284.18613 97.906659 
L 282.567966 97.906659 
z
" style="fill:#1f77b4;"/>
   </g>
   <g id="patch_141">
    <path clip-path="url(#p3a44b248cd)" d="M 284.18613 273.312 
L 285.804295 273.312 
L 285.804295 79.26121 
L 284.18613 79.26121 
z
" style="fill:#1f77b4;"/>
   </g>
   <g id="patch_142">
    <path clip-path="url(#p3a44b248cd)" d="M 285.804295 273.312 
L 287.42246 273.312 
L 287.42246 93.072654 
L 285.804295 93.072654 
z
" style="fill:#1f77b4;"/>
   </g>
   <g id="patch_143">
    <path clip-path="url(#p3a44b248cd)" d="M 287.42246 273.312 
L 289.040624 273.312 
L 289.040624 94.453798 
L 287.42246 94.453798 
z
" style="fill:#1f77b4;"/>
   </g>
   <g id="patch_144">
    <path clip-path="url(#p3a44b248cd)" d="M 289.040624 273.312 
L 290.658789 273.312 
L 290.658789 93.763226 
L 289.040624 93.763226 
z
" style="fill:#1f77b4;"/>
   </g>
   <g id="patch_145">
    <path clip-path="url(#p3a44b248cd)" d="M 290.658789 273.312 
L 292.276954 273.312 
L 292.276954 86.166932 
L 290.658789 86.166932 
z
" style="fill:#1f77b4;"/>
   </g>
   <g id="patch_146">
    <path clip-path="url(#p3a44b248cd)" d="M 292.276954 273.312 
L 293.895118 273.312 
L 293.895118 101.35952 
L 292.276954 101.35952 
z
" style="fill:#1f77b4;"/>
   </g>
   <g id="patch_147">
    <path clip-path="url(#p3a44b248cd)" d="M 293.895118 273.312 
L 295.513283 273.312 
L 295.513283 88.929221 
L 293.895118 88.929221 
z
" style="fill:#1f77b4;"/>
   </g>
   <g id="patch_148">
    <path clip-path="url(#p3a44b248cd)" d="M 295.513283 273.312 
L 297.131448 273.312 
L 297.131448 111.718104 
L 295.513283 111.718104 
z
" style="fill:#1f77b4;"/>
   </g>
   <g id="patch_149">
    <path clip-path="url(#p3a44b248cd)" d="M 297.131448 273.312 
L 298.749612 273.312 
L 298.749612 94.453798 
L 297.131448 94.453798 
z
" style="fill:#1f77b4;"/>
   </g>
   <g id="patch_150">
    <path clip-path="url(#p3a44b248cd)" d="M 298.749612 273.312 
L 300.367777 273.312 
L 300.367777 97.906659 
L 298.749612 97.906659 
z
" style="fill:#1f77b4;"/>
   </g>
   <g id="patch_151">
    <path clip-path="url(#p3a44b248cd)" d="M 300.367777 273.312 
L 301.985942 273.312 
L 301.985942 132.43527 
L 300.367777 132.43527 
z
" style="fill:#1f77b4;"/>
   </g>
   <g id="patch_152">
    <path clip-path="url(#p3a44b248cd)" d="M 301.985942 273.312 
L 303.604106 273.312 
L 303.604106 132.43527 
L 301.985942 132.43527 
z
" style="fill:#1f77b4;"/>
   </g>
   <g id="patch_153">
    <path clip-path="url(#p3a44b248cd)" d="M 303.604106 273.312 
L 305.222271 273.312 
L 305.222271 123.457831 
L 303.604106 123.457831 
z
" style="fill:#1f77b4;"/>
   </g>
   <g id="patch_154">
    <path clip-path="url(#p3a44b248cd)" d="M 305.222271 273.312 
L 306.840436 273.312 
L 306.840436 120.695542 
L 305.222271 120.695542 
z
" style="fill:#1f77b4;"/>
   </g>
   <g id="patch_155">
    <path clip-path="url(#p3a44b248cd)" d="M 306.840436 273.312 
L 308.4586 273.312 
L 308.4586 135.888131 
L 306.840436 135.888131 
z
" style="fill:#1f77b4;"/>
   </g>
   <g id="patch_156">
    <path clip-path="url(#p3a44b248cd)" d="M 308.4586 273.312 
L 310.076765 273.312 
L 310.076765 138.65042 
L 308.4586 138.65042 
z
" style="fill:#1f77b4;"/>
   </g>
   <g id="patch_157">
    <path clip-path="url(#p3a44b248cd)" d="M 310.076765 273.312 
L 311.69493 273.312 
L 311.69493 152.461864 
L 310.076765 152.461864 
z
" style="fill:#1f77b4;"/>
   </g>
   <g id="patch_158">
    <path clip-path="url(#p3a44b248cd)" d="M 311.69493 273.312 
L 313.313094 273.312 
L 313.313094 136.578703 
L 311.69493 136.578703 
z
" style="fill:#1f77b4;"/>
   </g>
   <g id="patch_159">
    <path clip-path="url(#p3a44b248cd)" d="M 313.313094 273.312 
L 314.931259 273.312 
L 314.931259 140.031564 
L 313.313094 140.031564 
z
" style="fill:#1f77b4;"/>
   </g>
   <g id="patch_160">
    <path clip-path="url(#p3a44b248cd)" d="M 314.931259 273.312 
L 316.549424 273.312 
L 316.549424 140.031564 
L 314.931259 140.031564 
z
" style="fill:#1f77b4;"/>
   </g>
   <g id="patch_161">
    <path clip-path="url(#p3a44b248cd)" d="M 316.549424 273.312 
L 318.167588 273.312 
L 318.167588 138.65042 
L 316.549424 138.65042 
z
" style="fill:#1f77b4;"/>
   </g>
   <g id="patch_162">
    <path clip-path="url(#p3a44b248cd)" d="M 318.167588 273.312 
L 319.785753 273.312 
L 319.785753 142.103281 
L 318.167588 142.103281 
z
" style="fill:#1f77b4;"/>
   </g>
   <g id="patch_163">
    <path clip-path="url(#p3a44b248cd)" d="M 319.785753 273.312 
L 321.403917 273.312 
L 321.403917 157.986441 
L 319.785753 157.986441 
z
" style="fill:#1f77b4;"/>
   </g>
   <g id="patch_164">
    <path clip-path="url(#p3a44b248cd)" d="M 321.403917 273.312 
L 323.022082 273.312 
L 323.022082 168.345025 
L 321.403917 168.345025 
z
" style="fill:#1f77b4;"/>
   </g>
   <g id="patch_165">
    <path clip-path="url(#p3a44b248cd)" d="M 323.022082 273.312 
L 324.640247 273.312 
L 324.640247 153.152436 
L 323.022082 153.152436 
z
" style="fill:#1f77b4;"/>
   </g>
   <g id="patch_166">
    <path clip-path="url(#p3a44b248cd)" d="M 324.640247 273.312 
L 326.258411 273.312 
L 326.258411 164.201591 
L 324.640247 164.201591 
z
" style="fill:#1f77b4;"/>
   </g>
   <g id="patch_167">
    <path clip-path="url(#p3a44b248cd)" d="M 326.258411 273.312 
L 327.876576 273.312 
L 327.876576 135.888131 
L 326.258411 135.888131 
z
" style="fill:#1f77b4;"/>
   </g>
   <g id="patch_168">
    <path clip-path="url(#p3a44b248cd)" d="M 327.876576 273.312 
L 329.494741 273.312 
L 329.494741 172.488458 
L 327.876576 172.488458 
z
" style="fill:#1f77b4;"/>
   </g>
   <g id="patch_169">
    <path clip-path="url(#p3a44b248cd)" d="M 329.494741 273.312 
L 331.112905 273.312 
L 331.112905 171.797886 
L 329.494741 171.797886 
z
" style="fill:#1f77b4;"/>
   </g>
   <g id="patch_170">
    <path clip-path="url(#p3a44b248cd)" d="M 331.112905 273.312 
L 332.73107 273.312 
L 332.73107 175.250747 
L 331.112905 175.250747 
z
" style="fill:#1f77b4;"/>
   </g>
   <g id="patch_171">
    <path clip-path="url(#p3a44b248cd)" d="M 332.73107 273.312 
L 334.349235 273.312 
L 334.349235 181.465896 
L 332.73107 181.465896 
z
" style="fill:#1f77b4;"/>
   </g>
   <g id="patch_172">
    <path clip-path="url(#p3a44b248cd)" d="M 334.349235 273.312 
L 335.967399 273.312 
L 335.967399 176.631891 
L 334.349235 176.631891 
z
" style="fill:#1f77b4;"/>
   </g>
   <g id="patch_173">
    <path clip-path="url(#p3a44b248cd)" d="M 335.967399 273.312 
L 337.585564 273.312 
L 337.585564 175.250747 
L 335.967399 175.250747 
z
" style="fill:#1f77b4;"/>
   </g>
   <g id="patch_174">
    <path clip-path="url(#p3a44b248cd)" d="M 337.585564 273.312 
L 339.203729 273.312 
L 339.203729 182.847041 
L 337.585564 182.847041 
z
" style="fill:#1f77b4;"/>
   </g>
   <g id="patch_175">
    <path clip-path="url(#p3a44b248cd)" d="M 339.203729 273.312 
L 340.821893 273.312 
L 340.821893 182.847041 
L 339.203729 182.847041 
z
" style="fill:#1f77b4;"/>
   </g>
   <g id="patch_176">
    <path clip-path="url(#p3a44b248cd)" d="M 340.821893 273.312 
L 342.440058 273.312 
L 342.440058 186.990474 
L 340.821893 186.990474 
z
" style="fill:#1f77b4;"/>
   </g>
   <g id="patch_177">
    <path clip-path="url(#p3a44b248cd)" d="M 342.440058 273.312 
L 344.058223 273.312 
L 344.058223 179.39418 
L 342.440058 179.39418 
z
" style="fill:#1f77b4;"/>
   </g>
   <g id="patch_178">
    <path clip-path="url(#p3a44b248cd)" d="M 344.058223 273.312 
L 345.676387 273.312 
L 345.676387 186.299902 
L 344.058223 186.299902 
z
" style="fill:#1f77b4;"/>
   </g>
   <g id="patch_179">
    <path clip-path="url(#p3a44b248cd)" d="M 345.676387 273.312 
L 347.294552 273.312 
L 347.294552 192.515052 
L 345.676387 192.515052 
z
" style="fill:#1f77b4;"/>
   </g>
   <g id="patch_180">
    <path clip-path="url(#p3a44b248cd)" d="M 347.294552 273.312 
L 348.912717 273.312 
L 348.912717 192.515052 
L 347.294552 192.515052 
z
" style="fill:#1f77b4;"/>
   </g>
   <g id="patch_181">
    <path clip-path="url(#p3a44b248cd)" d="M 348.912717 273.312 
L 350.530881 273.312 
L 350.530881 209.088785 
L 348.912717 209.088785 
z
" style="fill:#1f77b4;"/>
   </g>
   <g id="patch_182">
    <path clip-path="url(#p3a44b248cd)" d="M 350.530881 273.312 
L 352.149046 273.312 
L 352.149046 207.017068 
L 350.530881 207.017068 
z
" style="fill:#1f77b4;"/>
   </g>
   <g id="patch_183">
    <path clip-path="url(#p3a44b248cd)" d="M 352.149046 273.312 
L 353.767211 273.312 
L 353.767211 193.896196 
L 352.149046 193.896196 
z
" style="fill:#1f77b4;"/>
   </g>
   <g id="patch_184">
    <path clip-path="url(#p3a44b248cd)" d="M 353.767211 273.312 
L 355.385375 273.312 
L 355.385375 215.994507 
L 353.767211 215.994507 
z
" style="fill:#1f77b4;"/>
   </g>
   <g id="patch_185">
    <path clip-path="url(#p3a44b248cd)" d="M 355.385375 273.312 
L 357.00354 273.312 
L 357.00354 215.994507 
L 355.385375 215.994507 
z
" style="fill:#1f77b4;"/>
   </g>
   <g id="patch_186">
    <path clip-path="url(#p3a44b248cd)" d="M 357.00354 273.312 
L 358.621705 273.312 
L 358.621705 212.541646 
L 357.00354 212.541646 
z
" style="fill:#1f77b4;"/>
   </g>
   <g id="patch_187">
    <path clip-path="url(#p3a44b248cd)" d="M 358.621705 273.312 
L 360.239869 273.312 
L 360.239869 223.590801 
L 358.621705 223.590801 
z
" style="fill:#1f77b4;"/>
   </g>
   <g id="patch_188">
    <path clip-path="url(#p3a44b248cd)" d="M 360.239869 273.312 
L 361.858034 273.312 
L 361.858034 231.877668 
L 360.239869 231.877668 
z
" style="fill:#1f77b4;"/>
   </g>
   <g id="patch_189">
    <path clip-path="url(#p3a44b248cd)" d="M 361.858034 273.312 
L 363.476199 273.312 
L 363.476199 227.043662 
L 361.858034 227.043662 
z
" style="fill:#1f77b4;"/>
   </g>
   <g id="patch_190">
    <path clip-path="url(#p3a44b248cd)" d="M 363.476199 273.312 
L 365.094363 273.312 
L 365.094363 236.711673 
L 363.476199 236.711673 
z
" style="fill:#1f77b4;"/>
   </g>
   <g id="patch_191">
    <path clip-path="url(#p3a44b248cd)" d="M 365.094363 273.312 
L 366.712528 273.312 
L 366.712528 227.734234 
L 365.094363 227.734234 
z
" style="fill:#1f77b4;"/>
   </g>
   <g id="patch_192">
    <path clip-path="url(#p3a44b248cd)" d="M 366.712528 273.312 
L 368.330693 273.312 
L 368.330693 240.855106 
L 366.712528 240.855106 
z
" style="fill:#1f77b4;"/>
   </g>
   <g id="patch_193">
    <path clip-path="url(#p3a44b248cd)" d="M 368.330693 273.312 
L 369.948857 273.312 
L 369.948857 236.711673 
L 368.330693 236.711673 
z
" style="fill:#1f77b4;"/>
   </g>
   <g id="patch_194">
    <path clip-path="url(#p3a44b248cd)" d="M 369.948857 273.312 
L 371.567022 273.312 
L 371.567022 244.307967 
L 369.948857 244.307967 
z
" style="fill:#1f77b4;"/>
   </g>
   <g id="patch_195">
    <path clip-path="url(#p3a44b248cd)" d="M 371.567022 273.312 
L 373.185187 273.312 
L 373.185187 246.379684 
L 371.567022 246.379684 
z
" style="fill:#1f77b4;"/>
   </g>
   <g id="patch_196">
    <path clip-path="url(#p3a44b248cd)" d="M 373.185187 273.312 
L 374.803351 273.312 
L 374.803351 249.141973 
L 373.185187 249.141973 
z
" style="fill:#1f77b4;"/>
   </g>
   <g id="patch_197">
    <path clip-path="url(#p3a44b248cd)" d="M 374.803351 273.312 
L 376.421516 273.312 
L 376.421516 258.119411 
L 374.803351 258.119411 
z
" style="fill:#1f77b4;"/>
   </g>
   <g id="patch_198">
    <path clip-path="url(#p3a44b248cd)" d="M 376.421516 273.312 
L 378.039681 273.312 
L 378.039681 260.191128 
L 376.421516 260.191128 
z
" style="fill:#1f77b4;"/>
   </g>
   <g id="patch_199">
    <path clip-path="url(#p3a44b248cd)" d="M 378.039681 273.312 
L 379.657845 273.312 
L 379.657845 259.500556 
L 378.039681 259.500556 
z
" style="fill:#1f77b4;"/>
   </g>
   <g id="patch_200">
    <path clip-path="url(#p3a44b248cd)" d="M 379.657845 273.312 
L 381.27601 273.312 
L 381.27601 266.406278 
L 379.657845 266.406278 
z
" style="fill:#1f77b4;"/>
   </g>
   <g id="patch_201">
    <path clip-path="url(#p3a44b248cd)" d="M 381.27601 273.312 
L 382.894175 273.312 
L 382.894175 269.859139 
L 381.27601 269.859139 
z
" style="fill:#1f77b4;"/>
   </g>
   <g id="patch_202">
    <path clip-path="url(#p3a44b248cd)" d="M 382.894175 273.312 
L 384.512339 273.312 
L 384.512339 271.930856 
L 382.894175 271.930856 
z
" style="fill:#1f77b4;"/>
   </g>
   <g id="matplotlib.axis_1">
    <g id="xtick_1">
     <g id="line2d_1">
      <defs>
       <path d="M 0 0 
L 0 3.5 
" id="mde8910616d" style="stroke:#000000;stroke-width:0.8;"/>
      </defs>
      <g>
       <use style="stroke:#000000;stroke-width:0.8;" x="60.013977" xlink:href="#mde8910616d" y="273.312"/>
      </g>
     </g>
     <g id="text_1">
      <!-- 0.0 -->
      <g transform="translate(52.062415 287.910437)scale(0.1 -0.1)">
       <defs>
        <path d="M 2034 4250 
Q 1547 4250 1301 3770 
Q 1056 3291 1056 2328 
Q 1056 1369 1301 889 
Q 1547 409 2034 409 
Q 2525 409 2770 889 
Q 3016 1369 3016 2328 
Q 3016 3291 2770 3770 
Q 2525 4250 2034 4250 
z
M 2034 4750 
Q 2819 4750 3233 4129 
Q 3647 3509 3647 2328 
Q 3647 1150 3233 529 
Q 2819 -91 2034 -91 
Q 1250 -91 836 529 
Q 422 1150 422 2328 
Q 422 3509 836 4129 
Q 1250 4750 2034 4750 
z
" id="DejaVuSans-30" transform="scale(0.015625)"/>
        <path d="M 684 794 
L 1344 794 
L 1344 0 
L 684 0 
L 684 794 
z
" id="DejaVuSans-2e" transform="scale(0.015625)"/>
       </defs>
       <use xlink:href="#DejaVuSans-30"/>
       <use x="63.623047" xlink:href="#DejaVuSans-2e"/>
       <use x="95.410156" xlink:href="#DejaVuSans-30"/>
      </g>
     </g>
    </g>
    <g id="xtick_2">
     <g id="line2d_2">
      <g>
       <use style="stroke:#000000;stroke-width:0.8;" x="101.350278" xlink:href="#mde8910616d" y="273.312"/>
      </g>
     </g>
     <g id="text_2">
      <!-- 0.2 -->
      <g transform="translate(93.398715 287.910437)scale(0.1 -0.1)">
       <defs>
        <path d="M 1228 531 
L 3431 531 
L 3431 0 
L 469 0 
L 469 531 
Q 828 903 1448 1529 
Q 2069 2156 2228 2338 
Q 2531 2678 2651 2914 
Q 2772 3150 2772 3378 
Q 2772 3750 2511 3984 
Q 2250 4219 1831 4219 
Q 1534 4219 1204 4116 
Q 875 4013 500 3803 
L 500 4441 
Q 881 4594 1212 4672 
Q 1544 4750 1819 4750 
Q 2544 4750 2975 4387 
Q 3406 4025 3406 3419 
Q 3406 3131 3298 2873 
Q 3191 2616 2906 2266 
Q 2828 2175 2409 1742 
Q 1991 1309 1228 531 
z
" id="DejaVuSans-32" transform="scale(0.015625)"/>
       </defs>
       <use xlink:href="#DejaVuSans-30"/>
       <use x="63.623047" xlink:href="#DejaVuSans-2e"/>
       <use x="95.410156" xlink:href="#DejaVuSans-32"/>
      </g>
     </g>
    </g>
    <g id="xtick_3">
     <g id="line2d_3">
      <g>
       <use style="stroke:#000000;stroke-width:0.8;" x="142.686578" xlink:href="#mde8910616d" y="273.312"/>
      </g>
     </g>
     <g id="text_3">
      <!-- 0.4 -->
      <g transform="translate(134.735016 287.910437)scale(0.1 -0.1)">
       <defs>
        <path d="M 2419 4116 
L 825 1625 
L 2419 1625 
L 2419 4116 
z
M 2253 4666 
L 3047 4666 
L 3047 1625 
L 3713 1625 
L 3713 1100 
L 3047 1100 
L 3047 0 
L 2419 0 
L 2419 1100 
L 313 1100 
L 313 1709 
L 2253 4666 
z
" id="DejaVuSans-34" transform="scale(0.015625)"/>
       </defs>
       <use xlink:href="#DejaVuSans-30"/>
       <use x="63.623047" xlink:href="#DejaVuSans-2e"/>
       <use x="95.410156" xlink:href="#DejaVuSans-34"/>
      </g>
     </g>
    </g>
    <g id="xtick_4">
     <g id="line2d_4">
      <g>
       <use style="stroke:#000000;stroke-width:0.8;" x="184.022879" xlink:href="#mde8910616d" y="273.312"/>
      </g>
     </g>
     <g id="text_4">
      <!-- 0.6 -->
      <g transform="translate(176.071316 287.910437)scale(0.1 -0.1)">
       <defs>
        <path d="M 2113 2584 
Q 1688 2584 1439 2293 
Q 1191 2003 1191 1497 
Q 1191 994 1439 701 
Q 1688 409 2113 409 
Q 2538 409 2786 701 
Q 3034 994 3034 1497 
Q 3034 2003 2786 2293 
Q 2538 2584 2113 2584 
z
M 3366 4563 
L 3366 3988 
Q 3128 4100 2886 4159 
Q 2644 4219 2406 4219 
Q 1781 4219 1451 3797 
Q 1122 3375 1075 2522 
Q 1259 2794 1537 2939 
Q 1816 3084 2150 3084 
Q 2853 3084 3261 2657 
Q 3669 2231 3669 1497 
Q 3669 778 3244 343 
Q 2819 -91 2113 -91 
Q 1303 -91 875 529 
Q 447 1150 447 2328 
Q 447 3434 972 4092 
Q 1497 4750 2381 4750 
Q 2619 4750 2861 4703 
Q 3103 4656 3366 4563 
z
" id="DejaVuSans-36" transform="scale(0.015625)"/>
       </defs>
       <use xlink:href="#DejaVuSans-30"/>
       <use x="63.623047" xlink:href="#DejaVuSans-2e"/>
       <use x="95.410156" xlink:href="#DejaVuSans-36"/>
      </g>
     </g>
    </g>
    <g id="xtick_5">
     <g id="line2d_5">
      <g>
       <use style="stroke:#000000;stroke-width:0.8;" x="225.35918" xlink:href="#mde8910616d" y="273.312"/>
      </g>
     </g>
     <g id="text_5">
      <!-- 0.8 -->
      <g transform="translate(217.407617 287.910437)scale(0.1 -0.1)">
       <defs>
        <path d="M 2034 2216 
Q 1584 2216 1326 1975 
Q 1069 1734 1069 1313 
Q 1069 891 1326 650 
Q 1584 409 2034 409 
Q 2484 409 2743 651 
Q 3003 894 3003 1313 
Q 3003 1734 2745 1975 
Q 2488 2216 2034 2216 
z
M 1403 2484 
Q 997 2584 770 2862 
Q 544 3141 544 3541 
Q 544 4100 942 4425 
Q 1341 4750 2034 4750 
Q 2731 4750 3128 4425 
Q 3525 4100 3525 3541 
Q 3525 3141 3298 2862 
Q 3072 2584 2669 2484 
Q 3125 2378 3379 2068 
Q 3634 1759 3634 1313 
Q 3634 634 3220 271 
Q 2806 -91 2034 -91 
Q 1263 -91 848 271 
Q 434 634 434 1313 
Q 434 1759 690 2068 
Q 947 2378 1403 2484 
z
M 1172 3481 
Q 1172 3119 1398 2916 
Q 1625 2713 2034 2713 
Q 2441 2713 2670 2916 
Q 2900 3119 2900 3481 
Q 2900 3844 2670 4047 
Q 2441 4250 2034 4250 
Q 1625 4250 1398 4047 
Q 1172 3844 1172 3481 
z
" id="DejaVuSans-38" transform="scale(0.015625)"/>
       </defs>
       <use xlink:href="#DejaVuSans-30"/>
       <use x="63.623047" xlink:href="#DejaVuSans-2e"/>
       <use x="95.410156" xlink:href="#DejaVuSans-38"/>
      </g>
     </g>
    </g>
    <g id="xtick_6">
     <g id="line2d_6">
      <g>
       <use style="stroke:#000000;stroke-width:0.8;" x="266.69548" xlink:href="#mde8910616d" y="273.312"/>
      </g>
     </g>
     <g id="text_6">
      <!-- 1.0 -->
      <g transform="translate(258.743918 287.910437)scale(0.1 -0.1)">
       <defs>
        <path d="M 794 531 
L 1825 531 
L 1825 4091 
L 703 3866 
L 703 4441 
L 1819 4666 
L 2450 4666 
L 2450 531 
L 3481 531 
L 3481 0 
L 794 0 
L 794 531 
z
" id="DejaVuSans-31" transform="scale(0.015625)"/>
       </defs>
       <use xlink:href="#DejaVuSans-31"/>
       <use x="63.623047" xlink:href="#DejaVuSans-2e"/>
       <use x="95.410156" xlink:href="#DejaVuSans-30"/>
      </g>
     </g>
    </g>
    <g id="xtick_7">
     <g id="line2d_7">
      <g>
       <use style="stroke:#000000;stroke-width:0.8;" x="308.031781" xlink:href="#mde8910616d" y="273.312"/>
      </g>
     </g>
     <g id="text_7">
      <!-- 1.2 -->
      <g transform="translate(300.080218 287.910437)scale(0.1 -0.1)">
       <use xlink:href="#DejaVuSans-31"/>
       <use x="63.623047" xlink:href="#DejaVuSans-2e"/>
       <use x="95.410156" xlink:href="#DejaVuSans-32"/>
      </g>
     </g>
    </g>
    <g id="xtick_8">
     <g id="line2d_8">
      <g>
       <use style="stroke:#000000;stroke-width:0.8;" x="349.368081" xlink:href="#mde8910616d" y="273.312"/>
      </g>
     </g>
     <g id="text_8">
      <!-- 1.4 -->
      <g transform="translate(341.416519 287.910437)scale(0.1 -0.1)">
       <use xlink:href="#DejaVuSans-31"/>
       <use x="63.623047" xlink:href="#DejaVuSans-2e"/>
       <use x="95.410156" xlink:href="#DejaVuSans-34"/>
      </g>
     </g>
    </g>
    <g id="xtick_9">
     <g id="line2d_9">
      <g>
       <use style="stroke:#000000;stroke-width:0.8;" x="390.704382" xlink:href="#mde8910616d" y="273.312"/>
      </g>
     </g>
     <g id="text_9">
      <!-- 1.6 -->
      <g transform="translate(382.752819 287.910437)scale(0.1 -0.1)">
       <use xlink:href="#DejaVuSans-31"/>
       <use x="63.623047" xlink:href="#DejaVuSans-2e"/>
       <use x="95.410156" xlink:href="#DejaVuSans-36"/>
      </g>
     </g>
    </g>
    <g id="text_10">
     <!-- Angle with normal (rad) -->
     <g transform="translate(163.023281 301.588562)scale(0.1 -0.1)">
      <defs>
       <path d="M 2188 4044 
L 1331 1722 
L 3047 1722 
L 2188 4044 
z
M 1831 4666 
L 2547 4666 
L 4325 0 
L 3669 0 
L 3244 1197 
L 1141 1197 
L 716 0 
L 50 0 
L 1831 4666 
z
" id="DejaVuSans-41" transform="scale(0.015625)"/>
       <path d="M 3513 2113 
L 3513 0 
L 2938 0 
L 2938 2094 
Q 2938 2591 2744 2837 
Q 2550 3084 2163 3084 
Q 1697 3084 1428 2787 
Q 1159 2491 1159 1978 
L 1159 0 
L 581 0 
L 581 3500 
L 1159 3500 
L 1159 2956 
Q 1366 3272 1645 3428 
Q 1925 3584 2291 3584 
Q 2894 3584 3203 3211 
Q 3513 2838 3513 2113 
z
" id="DejaVuSans-6e" transform="scale(0.015625)"/>
       <path d="M 2906 1791 
Q 2906 2416 2648 2759 
Q 2391 3103 1925 3103 
Q 1463 3103 1205 2759 
Q 947 2416 947 1791 
Q 947 1169 1205 825 
Q 1463 481 1925 481 
Q 2391 481 2648 825 
Q 2906 1169 2906 1791 
z
M 3481 434 
Q 3481 -459 3084 -895 
Q 2688 -1331 1869 -1331 
Q 1566 -1331 1297 -1286 
Q 1028 -1241 775 -1147 
L 775 -588 
Q 1028 -725 1275 -790 
Q 1522 -856 1778 -856 
Q 2344 -856 2625 -561 
Q 2906 -266 2906 331 
L 2906 616 
Q 2728 306 2450 153 
Q 2172 0 1784 0 
Q 1141 0 747 490 
Q 353 981 353 1791 
Q 353 2603 747 3093 
Q 1141 3584 1784 3584 
Q 2172 3584 2450 3431 
Q 2728 3278 2906 2969 
L 2906 3500 
L 3481 3500 
L 3481 434 
z
" id="DejaVuSans-67" transform="scale(0.015625)"/>
       <path d="M 603 4863 
L 1178 4863 
L 1178 0 
L 603 0 
L 603 4863 
z
" id="DejaVuSans-6c" transform="scale(0.015625)"/>
       <path d="M 3597 1894 
L 3597 1613 
L 953 1613 
Q 991 1019 1311 708 
Q 1631 397 2203 397 
Q 2534 397 2845 478 
Q 3156 559 3463 722 
L 3463 178 
Q 3153 47 2828 -22 
Q 2503 -91 2169 -91 
Q 1331 -91 842 396 
Q 353 884 353 1716 
Q 353 2575 817 3079 
Q 1281 3584 2069 3584 
Q 2775 3584 3186 3129 
Q 3597 2675 3597 1894 
z
M 3022 2063 
Q 3016 2534 2758 2815 
Q 2500 3097 2075 3097 
Q 1594 3097 1305 2825 
Q 1016 2553 972 2059 
L 3022 2063 
z
" id="DejaVuSans-65" transform="scale(0.015625)"/>
       <path id="DejaVuSans-20" transform="scale(0.015625)"/>
       <path d="M 269 3500 
L 844 3500 
L 1563 769 
L 2278 3500 
L 2956 3500 
L 3675 769 
L 4391 3500 
L 4966 3500 
L 4050 0 
L 3372 0 
L 2619 2869 
L 1863 0 
L 1184 0 
L 269 3500 
z
" id="DejaVuSans-77" transform="scale(0.015625)"/>
       <path d="M 603 3500 
L 1178 3500 
L 1178 0 
L 603 0 
L 603 3500 
z
M 603 4863 
L 1178 4863 
L 1178 4134 
L 603 4134 
L 603 4863 
z
" id="DejaVuSans-69" transform="scale(0.015625)"/>
       <path d="M 1172 4494 
L 1172 3500 
L 2356 3500 
L 2356 3053 
L 1172 3053 
L 1172 1153 
Q 1172 725 1289 603 
Q 1406 481 1766 481 
L 2356 481 
L 2356 0 
L 1766 0 
Q 1100 0 847 248 
Q 594 497 594 1153 
L 594 3053 
L 172 3053 
L 172 3500 
L 594 3500 
L 594 4494 
L 1172 4494 
z
" id="DejaVuSans-74" transform="scale(0.015625)"/>
       <path d="M 3513 2113 
L 3513 0 
L 2938 0 
L 2938 2094 
Q 2938 2591 2744 2837 
Q 2550 3084 2163 3084 
Q 1697 3084 1428 2787 
Q 1159 2491 1159 1978 
L 1159 0 
L 581 0 
L 581 4863 
L 1159 4863 
L 1159 2956 
Q 1366 3272 1645 3428 
Q 1925 3584 2291 3584 
Q 2894 3584 3203 3211 
Q 3513 2838 3513 2113 
z
" id="DejaVuSans-68" transform="scale(0.015625)"/>
       <path d="M 1959 3097 
Q 1497 3097 1228 2736 
Q 959 2375 959 1747 
Q 959 1119 1226 758 
Q 1494 397 1959 397 
Q 2419 397 2687 759 
Q 2956 1122 2956 1747 
Q 2956 2369 2687 2733 
Q 2419 3097 1959 3097 
z
M 1959 3584 
Q 2709 3584 3137 3096 
Q 3566 2609 3566 1747 
Q 3566 888 3137 398 
Q 2709 -91 1959 -91 
Q 1206 -91 779 398 
Q 353 888 353 1747 
Q 353 2609 779 3096 
Q 1206 3584 1959 3584 
z
" id="DejaVuSans-6f" transform="scale(0.015625)"/>
       <path d="M 2631 2963 
Q 2534 3019 2420 3045 
Q 2306 3072 2169 3072 
Q 1681 3072 1420 2755 
Q 1159 2438 1159 1844 
L 1159 0 
L 581 0 
L 581 3500 
L 1159 3500 
L 1159 2956 
Q 1341 3275 1631 3429 
Q 1922 3584 2338 3584 
Q 2397 3584 2469 3576 
Q 2541 3569 2628 3553 
L 2631 2963 
z
" id="DejaVuSans-72" transform="scale(0.015625)"/>
       <path d="M 3328 2828 
Q 3544 3216 3844 3400 
Q 4144 3584 4550 3584 
Q 5097 3584 5394 3201 
Q 5691 2819 5691 2113 
L 5691 0 
L 5113 0 
L 5113 2094 
Q 5113 2597 4934 2840 
Q 4756 3084 4391 3084 
Q 3944 3084 3684 2787 
Q 3425 2491 3425 1978 
L 3425 0 
L 2847 0 
L 2847 2094 
Q 2847 2600 2669 2842 
Q 2491 3084 2119 3084 
Q 1678 3084 1418 2786 
Q 1159 2488 1159 1978 
L 1159 0 
L 581 0 
L 581 3500 
L 1159 3500 
L 1159 2956 
Q 1356 3278 1631 3431 
Q 1906 3584 2284 3584 
Q 2666 3584 2933 3390 
Q 3200 3197 3328 2828 
z
" id="DejaVuSans-6d" transform="scale(0.015625)"/>
       <path d="M 2194 1759 
Q 1497 1759 1228 1600 
Q 959 1441 959 1056 
Q 959 750 1161 570 
Q 1363 391 1709 391 
Q 2188 391 2477 730 
Q 2766 1069 2766 1631 
L 2766 1759 
L 2194 1759 
z
M 3341 1997 
L 3341 0 
L 2766 0 
L 2766 531 
Q 2569 213 2275 61 
Q 1981 -91 1556 -91 
Q 1019 -91 701 211 
Q 384 513 384 1019 
Q 384 1609 779 1909 
Q 1175 2209 1959 2209 
L 2766 2209 
L 2766 2266 
Q 2766 2663 2505 2880 
Q 2244 3097 1772 3097 
Q 1472 3097 1187 3025 
Q 903 2953 641 2809 
L 641 3341 
Q 956 3463 1253 3523 
Q 1550 3584 1831 3584 
Q 2591 3584 2966 3190 
Q 3341 2797 3341 1997 
z
" id="DejaVuSans-61" transform="scale(0.015625)"/>
       <path d="M 1984 4856 
Q 1566 4138 1362 3434 
Q 1159 2731 1159 2009 
Q 1159 1288 1364 580 
Q 1569 -128 1984 -844 
L 1484 -844 
Q 1016 -109 783 600 
Q 550 1309 550 2009 
Q 550 2706 781 3412 
Q 1013 4119 1484 4856 
L 1984 4856 
z
" id="DejaVuSans-28" transform="scale(0.015625)"/>
       <path d="M 2906 2969 
L 2906 4863 
L 3481 4863 
L 3481 0 
L 2906 0 
L 2906 525 
Q 2725 213 2448 61 
Q 2172 -91 1784 -91 
Q 1150 -91 751 415 
Q 353 922 353 1747 
Q 353 2572 751 3078 
Q 1150 3584 1784 3584 
Q 2172 3584 2448 3432 
Q 2725 3281 2906 2969 
z
M 947 1747 
Q 947 1113 1208 752 
Q 1469 391 1925 391 
Q 2381 391 2643 752 
Q 2906 1113 2906 1747 
Q 2906 2381 2643 2742 
Q 2381 3103 1925 3103 
Q 1469 3103 1208 2742 
Q 947 2381 947 1747 
z
" id="DejaVuSans-64" transform="scale(0.015625)"/>
       <path d="M 513 4856 
L 1013 4856 
Q 1481 4119 1714 3412 
Q 1947 2706 1947 2009 
Q 1947 1309 1714 600 
Q 1481 -109 1013 -844 
L 513 -844 
Q 928 -128 1133 580 
Q 1338 1288 1338 2009 
Q 1338 2731 1133 3434 
Q 928 4138 513 4856 
z
" id="DejaVuSans-29" transform="scale(0.015625)"/>
      </defs>
      <use xlink:href="#DejaVuSans-41"/>
      <use x="68.408203" xlink:href="#DejaVuSans-6e"/>
      <use x="131.787109" xlink:href="#DejaVuSans-67"/>
      <use x="195.263672" xlink:href="#DejaVuSans-6c"/>
      <use x="223.046875" xlink:href="#DejaVuSans-65"/>
      <use x="284.570312" xlink:href="#DejaVuSans-20"/>
      <use x="316.357422" xlink:href="#DejaVuSans-77"/>
      <use x="398.144531" xlink:href="#DejaVuSans-69"/>
      <use x="425.927734" xlink:href="#DejaVuSans-74"/>
      <use x="465.136719" xlink:href="#DejaVuSans-68"/>
      <use x="528.515625" xlink:href="#DejaVuSans-20"/>
      <use x="560.302734" xlink:href="#DejaVuSans-6e"/>
      <use x="623.681641" xlink:href="#DejaVuSans-6f"/>
      <use x="684.863281" xlink:href="#DejaVuSans-72"/>
      <use x="724.226562" xlink:href="#DejaVuSans-6d"/>
      <use x="821.638672" xlink:href="#DejaVuSans-61"/>
      <use x="882.917969" xlink:href="#DejaVuSans-6c"/>
      <use x="910.701172" xlink:href="#DejaVuSans-20"/>
      <use x="942.488281" xlink:href="#DejaVuSans-28"/>
      <use x="981.501953" xlink:href="#DejaVuSans-72"/>
      <use x="1022.615234" xlink:href="#DejaVuSans-61"/>
      <use x="1083.894531" xlink:href="#DejaVuSans-64"/>
      <use x="1147.371094" xlink:href="#DejaVuSans-29"/>
     </g>
    </g>
   </g>
   <g id="matplotlib.axis_2">
    <g id="ytick_1">
     <g id="line2d_10">
      <defs>
       <path d="M 0 0 
L -3.5 0 
" id="ma4cf720018" style="stroke:#000000;stroke-width:0.8;"/>
      </defs>
      <g>
       <use style="stroke:#000000;stroke-width:0.8;" x="43.78125" xlink:href="#ma4cf720018" y="273.312"/>
      </g>
     </g>
     <g id="text_11">
      <!-- 0.0 -->
      <g transform="translate(20.878125 277.111219)scale(0.1 -0.1)">
       <use xlink:href="#DejaVuSans-30"/>
       <use x="63.623047" xlink:href="#DejaVuSans-2e"/>
       <use x="95.410156" xlink:href="#DejaVuSans-30"/>
      </g>
     </g>
    </g>
    <g id="ytick_2">
     <g id="line2d_11">
      <g>
       <use style="stroke:#000000;stroke-width:0.8;" x="43.78125" xlink:href="#ma4cf720018" y="230.058607"/>
      </g>
     </g>
     <g id="text_12">
      <!-- 0.2 -->
      <g transform="translate(20.878125 233.857825)scale(0.1 -0.1)">
       <use xlink:href="#DejaVuSans-30"/>
       <use x="63.623047" xlink:href="#DejaVuSans-2e"/>
       <use x="95.410156" xlink:href="#DejaVuSans-32"/>
      </g>
     </g>
    </g>
    <g id="ytick_3">
     <g id="line2d_12">
      <g>
       <use style="stroke:#000000;stroke-width:0.8;" x="43.78125" xlink:href="#ma4cf720018" y="186.805213"/>
      </g>
     </g>
     <g id="text_13">
      <!-- 0.4 -->
      <g transform="translate(20.878125 190.604432)scale(0.1 -0.1)">
       <use xlink:href="#DejaVuSans-30"/>
       <use x="63.623047" xlink:href="#DejaVuSans-2e"/>
       <use x="95.410156" xlink:href="#DejaVuSans-34"/>
      </g>
     </g>
    </g>
    <g id="ytick_4">
     <g id="line2d_13">
      <g>
       <use style="stroke:#000000;stroke-width:0.8;" x="43.78125" xlink:href="#ma4cf720018" y="143.55182"/>
      </g>
     </g>
     <g id="text_14">
      <!-- 0.6 -->
      <g transform="translate(20.878125 147.351039)scale(0.1 -0.1)">
       <use xlink:href="#DejaVuSans-30"/>
       <use x="63.623047" xlink:href="#DejaVuSans-2e"/>
       <use x="95.410156" xlink:href="#DejaVuSans-36"/>
      </g>
     </g>
    </g>
    <g id="ytick_5">
     <g id="line2d_14">
      <g>
       <use style="stroke:#000000;stroke-width:0.8;" x="43.78125" xlink:href="#ma4cf720018" y="100.298427"/>
      </g>
     </g>
     <g id="text_15">
      <!-- 0.8 -->
      <g transform="translate(20.878125 104.097645)scale(0.1 -0.1)">
       <use xlink:href="#DejaVuSans-30"/>
       <use x="63.623047" xlink:href="#DejaVuSans-2e"/>
       <use x="95.410156" xlink:href="#DejaVuSans-38"/>
      </g>
     </g>
    </g>
    <g id="ytick_6">
     <g id="line2d_15">
      <g>
       <use style="stroke:#000000;stroke-width:0.8;" x="43.78125" xlink:href="#ma4cf720018" y="57.045033"/>
      </g>
     </g>
     <g id="text_16">
      <!-- 1.0 -->
      <g transform="translate(20.878125 60.844252)scale(0.1 -0.1)">
       <use xlink:href="#DejaVuSans-31"/>
       <use x="63.623047" xlink:href="#DejaVuSans-2e"/>
       <use x="95.410156" xlink:href="#DejaVuSans-30"/>
      </g>
     </g>
    </g>
    <g id="ytick_7">
     <g id="line2d_16">
      <g>
       <use style="stroke:#000000;stroke-width:0.8;" x="43.78125" xlink:href="#ma4cf720018" y="13.79164"/>
      </g>
     </g>
     <g id="text_17">
      <!-- 1.2 -->
      <g transform="translate(20.878125 17.590859)scale(0.1 -0.1)">
       <use xlink:href="#DejaVuSans-31"/>
       <use x="63.623047" xlink:href="#DejaVuSans-2e"/>
       <use x="95.410156" xlink:href="#DejaVuSans-32"/>
      </g>
     </g>
    </g>
    <g id="text_18">
     <!-- Probability density -->
     <g transform="translate(14.798438 186.606781)rotate(-90)scale(0.1 -0.1)">
      <defs>
       <path d="M 1259 4147 
L 1259 2394 
L 2053 2394 
Q 2494 2394 2734 2622 
Q 2975 2850 2975 3272 
Q 2975 3691 2734 3919 
Q 2494 4147 2053 4147 
L 1259 4147 
z
M 628 4666 
L 2053 4666 
Q 2838 4666 3239 4311 
Q 3641 3956 3641 3272 
Q 3641 2581 3239 2228 
Q 2838 1875 2053 1875 
L 1259 1875 
L 1259 0 
L 628 0 
L 628 4666 
z
" id="DejaVuSans-50" transform="scale(0.015625)"/>
       <path d="M 3116 1747 
Q 3116 2381 2855 2742 
Q 2594 3103 2138 3103 
Q 1681 3103 1420 2742 
Q 1159 2381 1159 1747 
Q 1159 1113 1420 752 
Q 1681 391 2138 391 
Q 2594 391 2855 752 
Q 3116 1113 3116 1747 
z
M 1159 2969 
Q 1341 3281 1617 3432 
Q 1894 3584 2278 3584 
Q 2916 3584 3314 3078 
Q 3713 2572 3713 1747 
Q 3713 922 3314 415 
Q 2916 -91 2278 -91 
Q 1894 -91 1617 61 
Q 1341 213 1159 525 
L 1159 0 
L 581 0 
L 581 4863 
L 1159 4863 
L 1159 2969 
z
" id="DejaVuSans-62" transform="scale(0.015625)"/>
       <path d="M 2059 -325 
Q 1816 -950 1584 -1140 
Q 1353 -1331 966 -1331 
L 506 -1331 
L 506 -850 
L 844 -850 
Q 1081 -850 1212 -737 
Q 1344 -625 1503 -206 
L 1606 56 
L 191 3500 
L 800 3500 
L 1894 763 
L 2988 3500 
L 3597 3500 
L 2059 -325 
z
" id="DejaVuSans-79" transform="scale(0.015625)"/>
       <path d="M 2834 3397 
L 2834 2853 
Q 2591 2978 2328 3040 
Q 2066 3103 1784 3103 
Q 1356 3103 1142 2972 
Q 928 2841 928 2578 
Q 928 2378 1081 2264 
Q 1234 2150 1697 2047 
L 1894 2003 
Q 2506 1872 2764 1633 
Q 3022 1394 3022 966 
Q 3022 478 2636 193 
Q 2250 -91 1575 -91 
Q 1294 -91 989 -36 
Q 684 19 347 128 
L 347 722 
Q 666 556 975 473 
Q 1284 391 1588 391 
Q 1994 391 2212 530 
Q 2431 669 2431 922 
Q 2431 1156 2273 1281 
Q 2116 1406 1581 1522 
L 1381 1569 
Q 847 1681 609 1914 
Q 372 2147 372 2553 
Q 372 3047 722 3315 
Q 1072 3584 1716 3584 
Q 2034 3584 2315 3537 
Q 2597 3491 2834 3397 
z
" id="DejaVuSans-73" transform="scale(0.015625)"/>
      </defs>
      <use xlink:href="#DejaVuSans-50"/>
      <use x="58.552734" xlink:href="#DejaVuSans-72"/>
      <use x="97.416016" xlink:href="#DejaVuSans-6f"/>
      <use x="158.597656" xlink:href="#DejaVuSans-62"/>
      <use x="222.074219" xlink:href="#DejaVuSans-61"/>
      <use x="283.353516" xlink:href="#DejaVuSans-62"/>
      <use x="346.830078" xlink:href="#DejaVuSans-69"/>
      <use x="374.613281" xlink:href="#DejaVuSans-6c"/>
      <use x="402.396484" xlink:href="#DejaVuSans-69"/>
      <use x="430.179688" xlink:href="#DejaVuSans-74"/>
      <use x="469.388672" xlink:href="#DejaVuSans-79"/>
      <use x="528.568359" xlink:href="#DejaVuSans-20"/>
      <use x="560.355469" xlink:href="#DejaVuSans-64"/>
      <use x="623.832031" xlink:href="#DejaVuSans-65"/>
      <use x="685.355469" xlink:href="#DejaVuSans-6e"/>
      <use x="748.734375" xlink:href="#DejaVuSans-73"/>
      <use x="800.833984" xlink:href="#DejaVuSans-69"/>
      <use x="828.617188" xlink:href="#DejaVuSans-74"/>
      <use x="867.826172" xlink:href="#DejaVuSans-79"/>
     </g>
    </g>
   </g>
   <g id="line2d_17">
    <path clip-path="url(#p3a44b248cd)" d="M 60.013977 273.312 
L 79.837728 232.079698 
L 90.237073 210.960246 
L 99.01152 193.622944 
L 106.811029 178.690226 
L 113.960578 165.473143 
L 120.460169 153.903731 
L 126.63478 143.349473 
L 132.484411 133.777973 
L 138.009063 125.14813 
L 143.208736 117.412233 
L 148.408408 110.070941 
L 153.283101 103.5634 
L 158.157794 97.433498 
L 162.707507 92.065014 
L 167.257221 87.047787 
L 171.481954 82.711962 
L 175.706688 78.694643 
L 179.606442 75.274862 
L 183.506197 72.137065 
L 187.405951 69.285722 
L 191.305705 66.724892 
L 194.88048 64.635794 
L 198.455255 62.796376 
L 202.03003 61.208839 
L 205.604804 59.875082 
L 209.179579 58.796702 
L 212.429374 58.039054 
L 215.67917 57.494281 
L 218.928965 57.162921 
L 222.17876 57.045301 
L 225.428555 57.141537 
L 228.678351 57.451535 
L 231.928146 57.974987 
L 235.177941 58.711377 
L 238.427736 59.659976 
L 242.002511 60.947411 
L 245.577286 62.488938 
L 249.152061 64.282715 
L 252.726836 66.326594 
L 256.30161 68.61813 
L 260.201365 71.397209 
L 264.101119 74.463795 
L 268.000873 77.813521 
L 271.900628 81.441618 
L 276.125361 85.680188 
L 280.350095 90.232304 
L 284.899809 95.476499 
L 289.449522 101.06534 
L 294.324215 107.423516 
L 299.198908 114.150744 
L 304.39858 121.716353 
L 309.598252 129.665672 
L 315.122904 138.509736 
L 320.972536 148.293309 
L 327.147147 159.054228 
L 333.646737 170.821306 
L 340.796287 184.231366 
L 348.595795 199.344341 
L 357.370243 216.84545 
L 367.769587 238.10406 
L 382.718646 269.231625 
L 384.668523 273.312 
L 384.668523 273.312 
" style="fill:none;stroke:#ff7f0e;stroke-linecap:square;stroke-width:1.5;"/>
   </g>
   <g id="patch_203">
    <path d="M 43.78125 273.312 
L 43.78125 7.2 
" style="fill:none;stroke:#000000;stroke-linecap:square;stroke-linejoin:miter;stroke-width:0.8;"/>
   </g>
   <g id="patch_204">
    <path d="M 400.90125 273.312 
L 400.90125 7.2 
" style="fill:none;stroke:#000000;stroke-linecap:square;stroke-linejoin:miter;stroke-width:0.8;"/>
   </g>
   <g id="patch_205">
    <path d="M 43.78125 273.312 
L 400.90125 273.312 
" style="fill:none;stroke:#000000;stroke-linecap:square;stroke-linejoin:miter;stroke-width:0.8;"/>
   </g>
   <g id="patch_206">
    <path d="M 43.78125 7.2 
L 400.90125 7.2 
" style="fill:none;stroke:#000000;stroke-linecap:square;stroke-linejoin:miter;stroke-width:0.8;"/>
   </g>
  </g>
 </g>
 <defs>
  <clipPath id="p3a44b248cd">
   <rect height="266.112" width="357.12" x="43.78125" y="7.2"/>
  </clipPath>
 </defs>
</svg>
