<?xml version="1.0" encoding="utf-8" standalone="no"?>
<!DOCTYPE svg PUBLIC "-//W3C//DTD SVG 1.1//EN"
  "http://www.w3.org/Graphics/SVG/1.1/DTD/svg11.dtd">
<svg height="310.86825pt" version="1.1" viewBox="0 0 408.10125 310.86825" width="408.10125pt" xmlns="http://www.w3.org/2000/svg" xmlns:xlink="http://www.w3.org/1999/xlink">
 <metadata>
  <rdf:RDF xmlns:cc="http://creativecommons.org/ns#" xmlns:dc="http://purl.org/dc/elements/1.1/" xmlns:rdf="http://www.w3.org/1999/02/22-rdf-syntax-ns#">
   <cc:Work>
    <dc:type rdf:resource="http://purl.org/dc/dcmitype/StillImage"/>
    <dc:date>2021-09-26T01:33:02.405608</dc:date>
    <dc:format>image/svg+xml</dc:format>
    <dc:creator>
     <cc:Agent>
      <dc:title>Matplotlib v3.4.3, https://matplotlib.org/</dc:title>
     </cc:Agent>
    </dc:creator>
   </cc:Work>
  </rdf:RDF>
 </metadata>
 <defs>
  <style type="text/css">*{stroke-linecap:butt;stroke-linejoin:round;}</style>
 </defs>
 <g id="figure_1">
  <g id="patch_1">
   <path d="M 0 310.86825 
L 408.10125 310.86825 
L 408.10125 0 
L 0 0 
z
" style="fill:#ffffff;"/>
  </g>
  <g id="axes_1">
   <g id="patch_2">
    <path d="M 43.78125 273.312 
L 400.90125 273.312 
L 400.90125 7.2 
L 43.78125 7.2 
z
" style="fill:#ffffff;"/>
   </g>
   <g id="patch_3">
    <path clip-path="url(#p70b52f7822)" d="M 60.315711 273.312 
L 61.933956 273.312 
L 61.933956 271.884169 
L 60.315711 271.884169 
z
" style="fill:#1f77b4;"/>
   </g>
   <g id="patch_4">
    <path clip-path="url(#p70b52f7822)" d="M 61.933956 273.312 
L 63.5522 273.312 
L 63.5522 264.031099 
L 61.933956 264.031099 
z
" style="fill:#1f77b4;"/>
   </g>
   <g id="patch_5">
    <path clip-path="url(#p70b52f7822)" d="M 63.5522 273.312 
L 65.170444 273.312 
L 65.170444 268.314592 
L 63.5522 268.314592 
z
" style="fill:#1f77b4;"/>
   </g>
   <g id="patch_6">
    <path clip-path="url(#p70b52f7822)" d="M 65.170444 273.312 
L 66.788689 273.312 
L 66.788689 260.461521 
L 65.170444 260.461521 
z
" style="fill:#1f77b4;"/>
   </g>
   <g id="patch_7">
    <path clip-path="url(#p70b52f7822)" d="M 66.788689 273.312 
L 68.406933 273.312 
L 68.406933 254.036282 
L 66.788689 254.036282 
z
" style="fill:#1f77b4;"/>
   </g>
   <g id="patch_8">
    <path clip-path="url(#p70b52f7822)" d="M 68.406933 273.312 
L 70.025178 273.312 
L 70.025178 251.18062 
L 68.406933 251.18062 
z
" style="fill:#1f77b4;"/>
   </g>
   <g id="patch_9">
    <path clip-path="url(#p70b52f7822)" d="M 70.025178 273.312 
L 71.643422 273.312 
L 71.643422 250.466704 
L 70.025178 250.466704 
z
" style="fill:#1f77b4;"/>
   </g>
   <g id="patch_10">
    <path clip-path="url(#p70b52f7822)" d="M 71.643422 273.312 
L 73.261666 273.312 
L 73.261666 252.608451 
L 71.643422 252.608451 
z
" style="fill:#1f77b4;"/>
   </g>
   <g id="patch_11">
    <path clip-path="url(#p70b52f7822)" d="M 73.261666 273.312 
L 74.879911 273.312 
L 74.879911 245.469296 
L 73.261666 245.469296 
z
" style="fill:#1f77b4;"/>
   </g>
   <g id="patch_12">
    <path clip-path="url(#p70b52f7822)" d="M 74.879911 273.312 
L 76.498155 273.312 
L 76.498155 231.190986 
L 74.879911 231.190986 
z
" style="fill:#1f77b4;"/>
   </g>
   <g id="patch_13">
    <path clip-path="url(#p70b52f7822)" d="M 76.498155 273.312 
L 78.1164 273.312 
L 78.1164 233.332732 
L 76.498155 233.332732 
z
" style="fill:#1f77b4;"/>
   </g>
   <g id="patch_14">
    <path clip-path="url(#p70b52f7822)" d="M 78.1164 273.312 
L 79.734644 273.312 
L 79.734644 234.760563 
L 78.1164 234.760563 
z
" style="fill:#1f77b4;"/>
   </g>
   <g id="patch_15">
    <path clip-path="url(#p70b52f7822)" d="M 79.734644 273.312 
L 81.352888 273.312 
L 81.352888 235.474479 
L 79.734644 235.474479 
z
" style="fill:#1f77b4;"/>
   </g>
   <g id="patch_16">
    <path clip-path="url(#p70b52f7822)" d="M 81.352888 273.312 
L 82.971133 273.312 
L 82.971133 234.046648 
L 81.352888 234.046648 
z
" style="fill:#1f77b4;"/>
   </g>
   <g id="patch_17">
    <path clip-path="url(#p70b52f7822)" d="M 82.971133 273.312 
L 84.589377 273.312 
L 84.589377 231.904901 
L 82.971133 231.904901 
z
" style="fill:#1f77b4;"/>
   </g>
   <g id="patch_18">
    <path clip-path="url(#p70b52f7822)" d="M 84.589377 273.312 
L 86.207622 273.312 
L 86.207622 216.912676 
L 84.589377 216.912676 
z
" style="fill:#1f77b4;"/>
   </g>
   <g id="patch_19">
    <path clip-path="url(#p70b52f7822)" d="M 86.207622 273.312 
L 87.825866 273.312 
L 87.825866 209.773521 
L 86.207622 209.773521 
z
" style="fill:#1f77b4;"/>
   </g>
   <g id="patch_20">
    <path clip-path="url(#p70b52f7822)" d="M 87.825866 273.312 
L 89.44411 273.312 
L 89.44411 214.057014 
L 87.825866 214.057014 
z
" style="fill:#1f77b4;"/>
   </g>
   <g id="patch_21">
    <path clip-path="url(#p70b52f7822)" d="M 89.44411 273.312 
L 91.062355 273.312 
L 91.062355 199.064789 
L 89.44411 199.064789 
z
" style="fill:#1f77b4;"/>
   </g>
   <g id="patch_22">
    <path clip-path="url(#p70b52f7822)" d="M 91.062355 273.312 
L 92.680599 273.312 
L 92.680599 212.629183 
L 91.062355 212.629183 
z
" style="fill:#1f77b4;"/>
   </g>
   <g id="patch_23">
    <path clip-path="url(#p70b52f7822)" d="M 92.680599 273.312 
L 94.298844 273.312 
L 94.298844 199.064789 
L 92.680599 199.064789 
z
" style="fill:#1f77b4;"/>
   </g>
   <g id="patch_24">
    <path clip-path="url(#p70b52f7822)" d="M 94.298844 273.312 
L 95.917088 273.312 
L 95.917088 210.487437 
L 94.298844 210.487437 
z
" style="fill:#1f77b4;"/>
   </g>
   <g id="patch_25">
    <path clip-path="url(#p70b52f7822)" d="M 95.917088 273.312 
L 97.535332 273.312 
L 97.535332 195.495211 
L 95.917088 195.495211 
z
" style="fill:#1f77b4;"/>
   </g>
   <g id="patch_26">
    <path clip-path="url(#p70b52f7822)" d="M 97.535332 273.312 
L 99.153577 273.312 
L 99.153577 199.064789 
L 97.535332 199.064789 
z
" style="fill:#1f77b4;"/>
   </g>
   <g id="patch_27">
    <path clip-path="url(#p70b52f7822)" d="M 99.153577 273.312 
L 100.771821 273.312 
L 100.771821 177.647324 
L 99.153577 177.647324 
z
" style="fill:#1f77b4;"/>
   </g>
   <g id="patch_28">
    <path clip-path="url(#p70b52f7822)" d="M 100.771821 273.312 
L 102.390066 273.312 
L 102.390066 188.356056 
L 100.771821 188.356056 
z
" style="fill:#1f77b4;"/>
   </g>
   <g id="patch_29">
    <path clip-path="url(#p70b52f7822)" d="M 102.390066 273.312 
L 104.00831 273.312 
L 104.00831 182.644732 
L 102.390066 182.644732 
z
" style="fill:#1f77b4;"/>
   </g>
   <g id="patch_30">
    <path clip-path="url(#p70b52f7822)" d="M 104.00831 273.312 
L 105.626554 273.312 
L 105.626554 192.639549 
L 104.00831 192.639549 
z
" style="fill:#1f77b4;"/>
   </g>
   <g id="patch_31">
    <path clip-path="url(#p70b52f7822)" d="M 105.626554 273.312 
L 107.244799 273.312 
L 107.244799 173.363831 
L 105.626554 173.363831 
z
" style="fill:#1f77b4;"/>
   </g>
   <g id="patch_32">
    <path clip-path="url(#p70b52f7822)" d="M 107.244799 273.312 
L 108.863043 273.312 
L 108.863043 164.796845 
L 107.244799 164.796845 
z
" style="fill:#1f77b4;"/>
   </g>
   <g id="patch_33">
    <path clip-path="url(#p70b52f7822)" d="M 108.863043 273.312 
L 110.481288 273.312 
L 110.481288 163.369014 
L 108.863043 163.369014 
z
" style="fill:#1f77b4;"/>
   </g>
   <g id="patch_34">
    <path clip-path="url(#p70b52f7822)" d="M 110.481288 273.312 
L 112.099532 273.312 
L 112.099532 163.369014 
L 110.481288 163.369014 
z
" style="fill:#1f77b4;"/>
   </g>
   <g id="patch_35">
    <path clip-path="url(#p70b52f7822)" d="M 112.099532 273.312 
L 113.717776 273.312 
L 113.717776 172.649915 
L 112.099532 172.649915 
z
" style="fill:#1f77b4;"/>
   </g>
   <g id="patch_36">
    <path clip-path="url(#p70b52f7822)" d="M 113.717776 273.312 
L 115.336021 273.312 
L 115.336021 168.366423 
L 113.717776 168.366423 
z
" style="fill:#1f77b4;"/>
   </g>
   <g id="patch_37">
    <path clip-path="url(#p70b52f7822)" d="M 115.336021 273.312 
L 116.954265 273.312 
L 116.954265 161.941183 
L 115.336021 161.941183 
z
" style="fill:#1f77b4;"/>
   </g>
   <g id="patch_38">
    <path clip-path="url(#p70b52f7822)" d="M 116.954265 273.312 
L 118.57251 273.312 
L 118.57251 139.809803 
L 116.954265 139.809803 
z
" style="fill:#1f77b4;"/>
   </g>
   <g id="patch_39">
    <path clip-path="url(#p70b52f7822)" d="M 118.57251 273.312 
L 120.190754 273.312 
L 120.190754 146.235042 
L 118.57251 146.235042 
z
" style="fill:#1f77b4;"/>
   </g>
   <g id="patch_40">
    <path clip-path="url(#p70b52f7822)" d="M 120.190754 273.312 
L 121.808999 273.312 
L 121.808999 154.088113 
L 120.190754 154.088113 
z
" style="fill:#1f77b4;"/>
   </g>
   <g id="patch_41">
    <path clip-path="url(#p70b52f7822)" d="M 121.808999 273.312 
L 123.427243 273.312 
L 123.427243 144.807211 
L 121.808999 144.807211 
z
" style="fill:#1f77b4;"/>
   </g>
   <g id="patch_42">
    <path clip-path="url(#p70b52f7822)" d="M 123.427243 273.312 
L 125.045487 273.312 
L 125.045487 124.817577 
L 123.427243 124.817577 
z
" style="fill:#1f77b4;"/>
   </g>
   <g id="patch_43">
    <path clip-path="url(#p70b52f7822)" d="M 125.045487 273.312 
L 126.663732 273.312 
L 126.663732 154.088113 
L 125.045487 154.088113 
z
" style="fill:#1f77b4;"/>
   </g>
   <g id="patch_44">
    <path clip-path="url(#p70b52f7822)" d="M 126.663732 273.312 
L 128.281976 273.312 
L 128.281976 139.095887 
L 126.663732 139.095887 
z
" style="fill:#1f77b4;"/>
   </g>
   <g id="patch_45">
    <path clip-path="url(#p70b52f7822)" d="M 128.281976 273.312 
L 129.900221 273.312 
L 129.900221 113.39493 
L 128.281976 113.39493 
z
" style="fill:#1f77b4;"/>
   </g>
   <g id="patch_46">
    <path clip-path="url(#p70b52f7822)" d="M 129.900221 273.312 
L 131.518465 273.312 
L 131.518465 139.095887 
L 129.900221 139.095887 
z
" style="fill:#1f77b4;"/>
   </g>
   <g id="patch_47">
    <path clip-path="url(#p70b52f7822)" d="M 131.518465 273.312 
L 133.136709 273.312 
L 133.136709 126.959324 
L 131.518465 126.959324 
z
" style="fill:#1f77b4;"/>
   </g>
   <g id="patch_48">
    <path clip-path="url(#p70b52f7822)" d="M 133.136709 273.312 
L 134.754954 273.312 
L 134.754954 134.812394 
L 133.136709 134.812394 
z
" style="fill:#1f77b4;"/>
   </g>
   <g id="patch_49">
    <path clip-path="url(#p70b52f7822)" d="M 134.754954 273.312 
L 136.373198 273.312 
L 136.373198 120.534085 
L 134.754954 120.534085 
z
" style="fill:#1f77b4;"/>
   </g>
   <g id="patch_50">
    <path clip-path="url(#p70b52f7822)" d="M 136.373198 273.312 
L 137.991443 273.312 
L 137.991443 112.681014 
L 136.373198 112.681014 
z
" style="fill:#1f77b4;"/>
   </g>
   <g id="patch_51">
    <path clip-path="url(#p70b52f7822)" d="M 137.991443 273.312 
L 139.609687 273.312 
L 139.609687 119.820169 
L 137.991443 119.820169 
z
" style="fill:#1f77b4;"/>
   </g>
   <g id="patch_52">
    <path clip-path="url(#p70b52f7822)" d="M 139.609687 273.312 
L 141.227931 273.312 
L 141.227931 114.108845 
L 139.609687 114.108845 
z
" style="fill:#1f77b4;"/>
   </g>
   <g id="patch_53">
    <path clip-path="url(#p70b52f7822)" d="M 141.227931 273.312 
L 142.846176 273.312 
L 142.846176 119.820169 
L 141.227931 119.820169 
z
" style="fill:#1f77b4;"/>
   </g>
   <g id="patch_54">
    <path clip-path="url(#p70b52f7822)" d="M 142.846176 273.312 
L 144.46442 273.312 
L 144.46442 97.688789 
L 142.846176 97.688789 
z
" style="fill:#1f77b4;"/>
   </g>
   <g id="patch_55">
    <path clip-path="url(#p70b52f7822)" d="M 144.46442 273.312 
L 146.082665 273.312 
L 146.082665 108.397521 
L 144.46442 108.397521 
z
" style="fill:#1f77b4;"/>
   </g>
   <g id="patch_56">
    <path clip-path="url(#p70b52f7822)" d="M 146.082665 273.312 
L 147.700909 273.312 
L 147.700909 107.683606 
L 146.082665 107.683606 
z
" style="fill:#1f77b4;"/>
   </g>
   <g id="patch_57">
    <path clip-path="url(#p70b52f7822)" d="M 147.700909 273.312 
L 149.319153 273.312 
L 149.319153 107.683606 
L 147.700909 107.683606 
z
" style="fill:#1f77b4;"/>
   </g>
   <g id="patch_58">
    <path clip-path="url(#p70b52f7822)" d="M 149.319153 273.312 
L 150.937398 273.312 
L 150.937398 105.541859 
L 149.319153 105.541859 
z
" style="fill:#1f77b4;"/>
   </g>
   <g id="patch_59">
    <path clip-path="url(#p70b52f7822)" d="M 150.937398 273.312 
L 152.555642 273.312 
L 152.555642 110.539268 
L 150.937398 110.539268 
z
" style="fill:#1f77b4;"/>
   </g>
   <g id="patch_60">
    <path clip-path="url(#p70b52f7822)" d="M 152.555642 273.312 
L 154.173887 273.312 
L 154.173887 89.121803 
L 152.555642 89.121803 
z
" style="fill:#1f77b4;"/>
   </g>
   <g id="patch_61">
    <path clip-path="url(#p70b52f7822)" d="M 154.173887 273.312 
L 155.792131 273.312 
L 155.792131 106.255775 
L 154.173887 106.255775 
z
" style="fill:#1f77b4;"/>
   </g>
   <g id="patch_62">
    <path clip-path="url(#p70b52f7822)" d="M 155.792131 273.312 
L 157.410375 273.312 
L 157.410375 85.552225 
L 155.792131 85.552225 
z
" style="fill:#1f77b4;"/>
   </g>
   <g id="patch_63">
    <path clip-path="url(#p70b52f7822)" d="M 157.410375 273.312 
L 159.02862 273.312 
L 159.02862 93.405296 
L 157.410375 93.405296 
z
" style="fill:#1f77b4;"/>
   </g>
   <g id="patch_64">
    <path clip-path="url(#p70b52f7822)" d="M 159.02862 273.312 
L 160.646864 273.312 
L 160.646864 89.835718 
L 159.02862 89.835718 
z
" style="fill:#1f77b4;"/>
   </g>
   <g id="patch_65">
    <path clip-path="url(#p70b52f7822)" d="M 160.646864 273.312 
L 162.265109 273.312 
L 162.265109 95.547042 
L 160.646864 95.547042 
z
" style="fill:#1f77b4;"/>
   </g>
   <g id="patch_66">
    <path clip-path="url(#p70b52f7822)" d="M 162.265109 273.312 
L 163.883353 273.312 
L 163.883353 78.41307 
L 162.265109 78.41307 
z
" style="fill:#1f77b4;"/>
   </g>
   <g id="patch_67">
    <path clip-path="url(#p70b52f7822)" d="M 163.883353 273.312 
L 165.501597 273.312 
L 165.501597 82.696563 
L 163.883353 82.696563 
z
" style="fill:#1f77b4;"/>
   </g>
   <g id="patch_68">
    <path clip-path="url(#p70b52f7822)" d="M 165.501597 273.312 
L 167.119842 273.312 
L 167.119842 78.41307 
L 165.501597 78.41307 
z
" style="fill:#1f77b4;"/>
   </g>
   <g id="patch_69">
    <path clip-path="url(#p70b52f7822)" d="M 167.119842 273.312 
L 168.738086 273.312 
L 168.738086 76.271324 
L 167.119842 76.271324 
z
" style="fill:#1f77b4;"/>
   </g>
   <g id="patch_70">
    <path clip-path="url(#p70b52f7822)" d="M 168.738086 273.312 
L 170.356331 273.312 
L 170.356331 56.28169 
L 168.738086 56.28169 
z
" style="fill:#1f77b4;"/>
   </g>
   <g id="patch_71">
    <path clip-path="url(#p70b52f7822)" d="M 170.356331 273.312 
L 171.974575 273.312 
L 171.974575 83.410479 
L 170.356331 83.410479 
z
" style="fill:#1f77b4;"/>
   </g>
   <g id="patch_72">
    <path clip-path="url(#p70b52f7822)" d="M 171.974575 273.312 
L 173.592819 273.312 
L 173.592819 74.129577 
L 171.974575 74.129577 
z
" style="fill:#1f77b4;"/>
   </g>
   <g id="patch_73">
    <path clip-path="url(#p70b52f7822)" d="M 173.592819 273.312 
L 175.211064 273.312 
L 175.211064 66.990423 
L 173.592819 66.990423 
z
" style="fill:#1f77b4;"/>
   </g>
   <g id="patch_74">
    <path clip-path="url(#p70b52f7822)" d="M 175.211064 273.312 
L 176.829308 273.312 
L 176.829308 63.420845 
L 175.211064 63.420845 
z
" style="fill:#1f77b4;"/>
   </g>
   <g id="patch_75">
    <path clip-path="url(#p70b52f7822)" d="M 176.829308 273.312 
L 178.447553 273.312 
L 178.447553 74.129577 
L 176.829308 74.129577 
z
" style="fill:#1f77b4;"/>
   </g>
   <g id="patch_76">
    <path clip-path="url(#p70b52f7822)" d="M 178.447553 273.312 
L 180.065797 273.312 
L 180.065797 73.415662 
L 178.447553 73.415662 
z
" style="fill:#1f77b4;"/>
   </g>
   <g id="patch_77">
    <path clip-path="url(#p70b52f7822)" d="M 180.065797 273.312 
L 181.684042 273.312 
L 181.684042 69.132169 
L 180.065797 69.132169 
z
" style="fill:#1f77b4;"/>
   </g>
   <g id="patch_78">
    <path clip-path="url(#p70b52f7822)" d="M 181.684042 273.312 
L 183.302286 273.312 
L 183.302286 71.273915 
L 181.684042 71.273915 
z
" style="fill:#1f77b4;"/>
   </g>
   <g id="patch_79">
    <path clip-path="url(#p70b52f7822)" d="M 183.302286 273.312 
L 184.92053 273.312 
L 184.92053 58.423437 
L 183.302286 58.423437 
z
" style="fill:#1f77b4;"/>
   </g>
   <g id="patch_80">
    <path clip-path="url(#p70b52f7822)" d="M 184.92053 273.312 
L 186.538775 273.312 
L 186.538775 68.418254 
L 184.92053 68.418254 
z
" style="fill:#1f77b4;"/>
   </g>
   <g id="patch_81">
    <path clip-path="url(#p70b52f7822)" d="M 186.538775 273.312 
L 188.157019 273.312 
L 188.157019 50.570366 
L 186.538775 50.570366 
z
" style="fill:#1f77b4;"/>
   </g>
   <g id="patch_82">
    <path clip-path="url(#p70b52f7822)" d="M 188.157019 273.312 
L 189.775264 273.312 
L 189.775264 55.567775 
L 188.157019 55.567775 
z
" style="fill:#1f77b4;"/>
   </g>
   <g id="patch_83">
    <path clip-path="url(#p70b52f7822)" d="M 189.775264 273.312 
L 191.393508 273.312 
L 191.393508 56.28169 
L 189.775264 56.28169 
z
" style="fill:#1f77b4;"/>
   </g>
   <g id="patch_84">
    <path clip-path="url(#p70b52f7822)" d="M 191.393508 273.312 
L 193.011752 273.312 
L 193.011752 61.279099 
L 191.393508 61.279099 
z
" style="fill:#1f77b4;"/>
   </g>
   <g id="patch_85">
    <path clip-path="url(#p70b52f7822)" d="M 193.011752 273.312 
L 194.629997 273.312 
L 194.629997 49.142535 
L 193.011752 49.142535 
z
" style="fill:#1f77b4;"/>
   </g>
   <g id="patch_86">
    <path clip-path="url(#p70b52f7822)" d="M 194.629997 273.312 
L 196.248241 273.312 
L 196.248241 53.426028 
L 194.629997 53.426028 
z
" style="fill:#1f77b4;"/>
   </g>
   <g id="patch_87">
    <path clip-path="url(#p70b52f7822)" d="M 196.248241 273.312 
L 197.866486 273.312 
L 197.866486 53.426028 
L 196.248241 53.426028 
z
" style="fill:#1f77b4;"/>
   </g>
   <g id="patch_88">
    <path clip-path="url(#p70b52f7822)" d="M 197.866486 273.312 
L 199.48473 273.312 
L 199.48473 48.42862 
L 197.866486 48.42862 
z
" style="fill:#1f77b4;"/>
   </g>
   <g id="patch_89">
    <path clip-path="url(#p70b52f7822)" d="M 199.48473 273.312 
L 201.102974 273.312 
L 201.102974 49.142535 
L 199.48473 49.142535 
z
" style="fill:#1f77b4;"/>
   </g>
   <g id="patch_90">
    <path clip-path="url(#p70b52f7822)" d="M 201.102974 273.312 
L 202.721219 273.312 
L 202.721219 82.696563 
L 201.102974 82.696563 
z
" style="fill:#1f77b4;"/>
   </g>
   <g id="patch_91">
    <path clip-path="url(#p70b52f7822)" d="M 202.721219 273.312 
L 204.339463 273.312 
L 204.339463 62.70693 
L 202.721219 62.70693 
z
" style="fill:#1f77b4;"/>
   </g>
   <g id="patch_92">
    <path clip-path="url(#p70b52f7822)" d="M 204.339463 273.312 
L 205.957708 273.312 
L 205.957708 57.709521 
L 204.339463 57.709521 
z
" style="fill:#1f77b4;"/>
   </g>
   <g id="patch_93">
    <path clip-path="url(#p70b52f7822)" d="M 205.957708 273.312 
L 207.575952 273.312 
L 207.575952 39.147718 
L 205.957708 39.147718 
z
" style="fill:#1f77b4;"/>
   </g>
   <g id="patch_94">
    <path clip-path="url(#p70b52f7822)" d="M 207.575952 273.312 
L 209.194196 273.312 
L 209.194196 47.000789 
L 207.575952 47.000789 
z
" style="fill:#1f77b4;"/>
   </g>
   <g id="patch_95">
    <path clip-path="url(#p70b52f7822)" d="M 209.194196 273.312 
L 210.812441 273.312 
L 210.812441 50.570366 
L 209.194196 50.570366 
z
" style="fill:#1f77b4;"/>
   </g>
   <g id="patch_96">
    <path clip-path="url(#p70b52f7822)" d="M 210.812441 273.312 
L 212.430685 273.312 
L 212.430685 53.426028 
L 210.812441 53.426028 
z
" style="fill:#1f77b4;"/>
   </g>
   <g id="patch_97">
    <path clip-path="url(#p70b52f7822)" d="M 212.430685 273.312 
L 214.04893 273.312 
L 214.04893 45.572958 
L 212.430685 45.572958 
z
" style="fill:#1f77b4;"/>
   </g>
   <g id="patch_98">
    <path clip-path="url(#p70b52f7822)" d="M 214.04893 273.312 
L 215.667174 273.312 
L 215.667174 19.872 
L 214.04893 19.872 
z
" style="fill:#1f77b4;"/>
   </g>
   <g id="patch_99">
    <path clip-path="url(#p70b52f7822)" d="M 215.667174 273.312 
L 217.285418 273.312 
L 217.285418 53.426028 
L 215.667174 53.426028 
z
" style="fill:#1f77b4;"/>
   </g>
   <g id="patch_100">
    <path clip-path="url(#p70b52f7822)" d="M 217.285418 273.312 
L 218.903663 273.312 
L 218.903663 61.279099 
L 217.285418 61.279099 
z
" style="fill:#1f77b4;"/>
   </g>
   <g id="patch_101">
    <path clip-path="url(#p70b52f7822)" d="M 218.903663 273.312 
L 220.521907 273.312 
L 220.521907 46.286873 
L 218.903663 46.286873 
z
" style="fill:#1f77b4;"/>
   </g>
   <g id="patch_102">
    <path clip-path="url(#p70b52f7822)" d="M 220.521907 273.312 
L 222.140152 273.312 
L 222.140152 51.998197 
L 220.521907 51.998197 
z
" style="fill:#1f77b4;"/>
   </g>
   <g id="patch_103">
    <path clip-path="url(#p70b52f7822)" d="M 222.140152 273.312 
L 223.758396 273.312 
L 223.758396 43.431211 
L 222.140152 43.431211 
z
" style="fill:#1f77b4;"/>
   </g>
   <g id="patch_104">
    <path clip-path="url(#p70b52f7822)" d="M 223.758396 273.312 
L 225.37664 273.312 
L 225.37664 35.578141 
L 223.758396 35.578141 
z
" style="fill:#1f77b4;"/>
   </g>
   <g id="patch_105">
    <path clip-path="url(#p70b52f7822)" d="M 225.37664 273.312 
L 226.994885 273.312 
L 226.994885 66.276507 
L 225.37664 66.276507 
z
" style="fill:#1f77b4;"/>
   </g>
   <g id="patch_106">
    <path clip-path="url(#p70b52f7822)" d="M 226.994885 273.312 
L 228.613129 273.312 
L 228.613129 40.575549 
L 226.994885 40.575549 
z
" style="fill:#1f77b4;"/>
   </g>
   <g id="patch_107">
    <path clip-path="url(#p70b52f7822)" d="M 228.613129 273.312 
L 230.231374 273.312 
L 230.231374 50.570366 
L 228.613129 50.570366 
z
" style="fill:#1f77b4;"/>
   </g>
   <g id="patch_108">
    <path clip-path="url(#p70b52f7822)" d="M 230.231374 273.312 
L 231.849618 273.312 
L 231.849618 29.866817 
L 230.231374 29.866817 
z
" style="fill:#1f77b4;"/>
   </g>
   <g id="patch_109">
    <path clip-path="url(#p70b52f7822)" d="M 231.849618 273.312 
L 233.467862 273.312 
L 233.467862 64.134761 
L 231.849618 64.134761 
z
" style="fill:#1f77b4;"/>
   </g>
   <g id="patch_110">
    <path clip-path="url(#p70b52f7822)" d="M 233.467862 273.312 
L 235.086107 273.312 
L 235.086107 63.420845 
L 233.467862 63.420845 
z
" style="fill:#1f77b4;"/>
   </g>
   <g id="patch_111">
    <path clip-path="url(#p70b52f7822)" d="M 235.086107 273.312 
L 236.704351 273.312 
L 236.704351 60.565183 
L 235.086107 60.565183 
z
" style="fill:#1f77b4;"/>
   </g>
   <g id="patch_112">
    <path clip-path="url(#p70b52f7822)" d="M 236.704351 273.312 
L 238.322596 273.312 
L 238.322596 49.856451 
L 236.704351 49.856451 
z
" style="fill:#1f77b4;"/>
   </g>
   <g id="patch_113">
    <path clip-path="url(#p70b52f7822)" d="M 238.322596 273.312 
L 239.94084 273.312 
L 239.94084 47.714704 
L 238.322596 47.714704 
z
" style="fill:#1f77b4;"/>
   </g>
   <g id="patch_114">
    <path clip-path="url(#p70b52f7822)" d="M 239.94084 273.312 
L 241.559084 273.312 
L 241.559084 51.284282 
L 239.94084 51.284282 
z
" style="fill:#1f77b4;"/>
   </g>
   <g id="patch_115">
    <path clip-path="url(#p70b52f7822)" d="M 241.559084 273.312 
L 243.177329 273.312 
L 243.177329 60.565183 
L 241.559084 60.565183 
z
" style="fill:#1f77b4;"/>
   </g>
   <g id="patch_116">
    <path clip-path="url(#p70b52f7822)" d="M 243.177329 273.312 
L 244.795573 273.312 
L 244.795573 59.851268 
L 243.177329 59.851268 
z
" style="fill:#1f77b4;"/>
   </g>
   <g id="patch_117">
    <path clip-path="url(#p70b52f7822)" d="M 244.795573 273.312 
L 246.413818 273.312 
L 246.413818 32.008563 
L 244.795573 32.008563 
z
" style="fill:#1f77b4;"/>
   </g>
   <g id="patch_118">
    <path clip-path="url(#p70b52f7822)" d="M 246.413818 273.312 
L 248.032062 273.312 
L 248.032062 61.279099 
L 246.413818 61.279099 
z
" style="fill:#1f77b4;"/>
   </g>
   <g id="patch_119">
    <path clip-path="url(#p70b52f7822)" d="M 248.032062 273.312 
L 249.650307 273.312 
L 249.650307 57.709521 
L 248.032062 57.709521 
z
" style="fill:#1f77b4;"/>
   </g>
   <g id="patch_120">
    <path clip-path="url(#p70b52f7822)" d="M 249.650307 273.312 
L 251.268551 273.312 
L 251.268551 60.565183 
L 249.650307 60.565183 
z
" style="fill:#1f77b4;"/>
   </g>
   <g id="patch_121">
    <path clip-path="url(#p70b52f7822)" d="M 251.268551 273.312 
L 252.886795 273.312 
L 252.886795 72.701746 
L 251.268551 72.701746 
z
" style="fill:#1f77b4;"/>
   </g>
   <g id="patch_122">
    <path clip-path="url(#p70b52f7822)" d="M 252.886795 273.312 
L 254.50504 273.312 
L 254.50504 69.132169 
L 252.886795 69.132169 
z
" style="fill:#1f77b4;"/>
   </g>
   <g id="patch_123">
    <path clip-path="url(#p70b52f7822)" d="M 254.50504 273.312 
L 256.123284 273.312 
L 256.123284 47.714704 
L 254.50504 47.714704 
z
" style="fill:#1f77b4;"/>
   </g>
   <g id="patch_124">
    <path clip-path="url(#p70b52f7822)" d="M 256.123284 273.312 
L 257.741529 273.312 
L 257.741529 76.985239 
L 256.123284 76.985239 
z
" style="fill:#1f77b4;"/>
   </g>
   <g id="patch_125">
    <path clip-path="url(#p70b52f7822)" d="M 257.741529 273.312 
L 259.359773 273.312 
L 259.359773 65.562592 
L 257.741529 65.562592 
z
" style="fill:#1f77b4;"/>
   </g>
   <g id="patch_126">
    <path clip-path="url(#p70b52f7822)" d="M 259.359773 273.312 
L 260.978017 273.312 
L 260.978017 71.987831 
L 259.359773 71.987831 
z
" style="fill:#1f77b4;"/>
   </g>
   <g id="patch_127">
    <path clip-path="url(#p70b52f7822)" d="M 260.978017 273.312 
L 262.596262 273.312 
L 262.596262 82.696563 
L 260.978017 82.696563 
z
" style="fill:#1f77b4;"/>
   </g>
   <g id="patch_128">
    <path clip-path="url(#p70b52f7822)" d="M 262.596262 273.312 
L 264.214506 273.312 
L 264.214506 61.279099 
L 262.596262 61.279099 
z
" style="fill:#1f77b4;"/>
   </g>
   <g id="patch_129">
    <path clip-path="url(#p70b52f7822)" d="M 264.214506 273.312 
L 265.832751 273.312 
L 265.832751 82.696563 
L 264.214506 82.696563 
z
" style="fill:#1f77b4;"/>
   </g>
   <g id="patch_130">
    <path clip-path="url(#p70b52f7822)" d="M 265.832751 273.312 
L 267.450995 273.312 
L 267.450995 51.284282 
L 265.832751 51.284282 
z
" style="fill:#1f77b4;"/>
   </g>
   <g id="patch_131">
    <path clip-path="url(#p70b52f7822)" d="M 267.450995 273.312 
L 269.069239 273.312 
L 269.069239 92.69138 
L 267.450995 92.69138 
z
" style="fill:#1f77b4;"/>
   </g>
   <g id="patch_132">
    <path clip-path="url(#p70b52f7822)" d="M 269.069239 273.312 
L 270.687484 273.312 
L 270.687484 77.699155 
L 269.069239 77.699155 
z
" style="fill:#1f77b4;"/>
   </g>
   <g id="patch_133">
    <path clip-path="url(#p70b52f7822)" d="M 270.687484 273.312 
L 272.305728 273.312 
L 272.305728 81.982648 
L 270.687484 81.982648 
z
" style="fill:#1f77b4;"/>
   </g>
   <g id="patch_134">
    <path clip-path="url(#p70b52f7822)" d="M 272.305728 273.312 
L 273.923973 273.312 
L 273.923973 109.111437 
L 272.305728 109.111437 
z
" style="fill:#1f77b4;"/>
   </g>
   <g id="patch_135">
    <path clip-path="url(#p70b52f7822)" d="M 273.923973 273.312 
L 275.542217 273.312 
L 275.542217 70.56 
L 273.923973 70.56 
z
" style="fill:#1f77b4;"/>
   </g>
   <g id="patch_136">
    <path clip-path="url(#p70b52f7822)" d="M 275.542217 273.312 
L 277.160461 273.312 
L 277.160461 77.699155 
L 275.542217 77.699155 
z
" style="fill:#1f77b4;"/>
   </g>
   <g id="patch_137">
    <path clip-path="url(#p70b52f7822)" d="M 277.160461 273.312 
L 278.778706 273.312 
L 278.778706 91.263549 
L 277.160461 91.263549 
z
" style="fill:#1f77b4;"/>
   </g>
   <g id="patch_138">
    <path clip-path="url(#p70b52f7822)" d="M 278.778706 273.312 
L 280.39695 273.312 
L 280.39695 100.544451 
L 278.778706 100.544451 
z
" style="fill:#1f77b4;"/>
   </g>
   <g id="patch_139">
    <path clip-path="url(#p70b52f7822)" d="M 280.39695 273.312 
L 282.015195 273.312 
L 282.015195 75.557408 
L 280.39695 75.557408 
z
" style="fill:#1f77b4;"/>
   </g>
   <g id="patch_140">
    <path clip-path="url(#p70b52f7822)" d="M 282.015195 273.312 
L 283.633439 273.312 
L 283.633439 80.554817 
L 282.015195 80.554817 
z
" style="fill:#1f77b4;"/>
   </g>
   <g id="patch_141">
    <path clip-path="url(#p70b52f7822)" d="M 283.633439 273.312 
L 285.251683 273.312 
L 285.251683 78.41307 
L 283.633439 78.41307 
z
" style="fill:#1f77b4;"/>
   </g>
   <g id="patch_142">
    <path clip-path="url(#p70b52f7822)" d="M 285.251683 273.312 
L 286.869928 273.312 
L 286.869928 80.554817 
L 285.251683 80.554817 
z
" style="fill:#1f77b4;"/>
   </g>
   <g id="patch_143">
    <path clip-path="url(#p70b52f7822)" d="M 286.869928 273.312 
L 288.488172 273.312 
L 288.488172 80.554817 
L 286.869928 80.554817 
z
" style="fill:#1f77b4;"/>
   </g>
   <g id="patch_144">
    <path clip-path="url(#p70b52f7822)" d="M 288.488172 273.312 
L 290.106417 273.312 
L 290.106417 87.693972 
L 288.488172 87.693972 
z
" style="fill:#1f77b4;"/>
   </g>
   <g id="patch_145">
    <path clip-path="url(#p70b52f7822)" d="M 290.106417 273.312 
L 291.724661 273.312 
L 291.724661 90.549634 
L 290.106417 90.549634 
z
" style="fill:#1f77b4;"/>
   </g>
   <g id="patch_146">
    <path clip-path="url(#p70b52f7822)" d="M 291.724661 273.312 
L 293.342905 273.312 
L 293.342905 82.696563 
L 291.724661 82.696563 
z
" style="fill:#1f77b4;"/>
   </g>
   <g id="patch_147">
    <path clip-path="url(#p70b52f7822)" d="M 293.342905 273.312 
L 294.96115 273.312 
L 294.96115 94.833127 
L 293.342905 94.833127 
z
" style="fill:#1f77b4;"/>
   </g>
   <g id="patch_148">
    <path clip-path="url(#p70b52f7822)" d="M 294.96115 273.312 
L 296.579394 273.312 
L 296.579394 91.977465 
L 294.96115 91.977465 
z
" style="fill:#1f77b4;"/>
   </g>
   <g id="patch_149">
    <path clip-path="url(#p70b52f7822)" d="M 296.579394 273.312 
L 298.197639 273.312 
L 298.197639 106.255775 
L 296.579394 106.255775 
z
" style="fill:#1f77b4;"/>
   </g>
   <g id="patch_150">
    <path clip-path="url(#p70b52f7822)" d="M 298.197639 273.312 
L 299.815883 273.312 
L 299.815883 98.402704 
L 298.197639 98.402704 
z
" style="fill:#1f77b4;"/>
   </g>
   <g id="patch_151">
    <path clip-path="url(#p70b52f7822)" d="M 299.815883 273.312 
L 301.434127 273.312 
L 301.434127 94.119211 
L 299.815883 94.119211 
z
" style="fill:#1f77b4;"/>
   </g>
   <g id="patch_152">
    <path clip-path="url(#p70b52f7822)" d="M 301.434127 273.312 
L 303.052372 273.312 
L 303.052372 124.817577 
L 301.434127 124.817577 
z
" style="fill:#1f77b4;"/>
   </g>
   <g id="patch_153">
    <path clip-path="url(#p70b52f7822)" d="M 303.052372 273.312 
L 304.670616 273.312 
L 304.670616 121.961915 
L 303.052372 121.961915 
z
" style="fill:#1f77b4;"/>
   </g>
   <g id="patch_154">
    <path clip-path="url(#p70b52f7822)" d="M 304.670616 273.312 
L 306.288861 273.312 
L 306.288861 105.541859 
L 304.670616 105.541859 
z
" style="fill:#1f77b4;"/>
   </g>
   <g id="patch_155">
    <path clip-path="url(#p70b52f7822)" d="M 306.288861 273.312 
L 307.907105 273.312 
L 307.907105 123.389746 
L 306.288861 123.389746 
z
" style="fill:#1f77b4;"/>
   </g>
   <g id="patch_156">
    <path clip-path="url(#p70b52f7822)" d="M 307.907105 273.312 
L 309.52535 273.312 
L 309.52535 131.956732 
L 307.907105 131.956732 
z
" style="fill:#1f77b4;"/>
   </g>
   <g id="patch_157">
    <path clip-path="url(#p70b52f7822)" d="M 309.52535 273.312 
L 311.143594 273.312 
L 311.143594 116.964507 
L 309.52535 116.964507 
z
" style="fill:#1f77b4;"/>
   </g>
   <g id="patch_158">
    <path clip-path="url(#p70b52f7822)" d="M 311.143594 273.312 
L 312.761838 273.312 
L 312.761838 117.678423 
L 311.143594 117.678423 
z
" style="fill:#1f77b4;"/>
   </g>
   <g id="patch_159">
    <path clip-path="url(#p70b52f7822)" d="M 312.761838 273.312 
L 314.380083 273.312 
L 314.380083 136.954141 
L 312.761838 136.954141 
z
" style="fill:#1f77b4;"/>
   </g>
   <g id="patch_160">
    <path clip-path="url(#p70b52f7822)" d="M 314.380083 273.312 
L 315.998327 273.312 
L 315.998327 142.665465 
L 314.380083 142.665465 
z
" style="fill:#1f77b4;"/>
   </g>
   <g id="patch_161">
    <path clip-path="url(#p70b52f7822)" d="M 315.998327 273.312 
L 317.616572 273.312 
L 317.616572 143.37938 
L 315.998327 143.37938 
z
" style="fill:#1f77b4;"/>
   </g>
   <g id="patch_162">
    <path clip-path="url(#p70b52f7822)" d="M 317.616572 273.312 
L 319.234816 273.312 
L 319.234816 152.660282 
L 317.616572 152.660282 
z
" style="fill:#1f77b4;"/>
   </g>
   <g id="patch_163">
    <path clip-path="url(#p70b52f7822)" d="M 319.234816 273.312 
L 320.85306 273.312 
L 320.85306 163.369014 
L 319.234816 163.369014 
z
" style="fill:#1f77b4;"/>
   </g>
   <g id="patch_164">
    <path clip-path="url(#p70b52f7822)" d="M 320.85306 273.312 
L 322.471305 273.312 
L 322.471305 163.369014 
L 320.85306 163.369014 
z
" style="fill:#1f77b4;"/>
   </g>
   <g id="patch_165">
    <path clip-path="url(#p70b52f7822)" d="M 322.471305 273.312 
L 324.089549 273.312 
L 324.089549 145.521127 
L 322.471305 145.521127 
z
" style="fill:#1f77b4;"/>
   </g>
   <g id="patch_166">
    <path clip-path="url(#p70b52f7822)" d="M 324.089549 273.312 
L 325.707794 273.312 
L 325.707794 151.232451 
L 324.089549 151.232451 
z
" style="fill:#1f77b4;"/>
   </g>
   <g id="patch_167">
    <path clip-path="url(#p70b52f7822)" d="M 325.707794 273.312 
L 327.326038 273.312 
L 327.326038 139.095887 
L 325.707794 139.095887 
z
" style="fill:#1f77b4;"/>
   </g>
   <g id="patch_168">
    <path clip-path="url(#p70b52f7822)" d="M 327.326038 273.312 
L 328.944282 273.312 
L 328.944282 171.936 
L 327.326038 171.936 
z
" style="fill:#1f77b4;"/>
   </g>
   <g id="patch_169">
    <path clip-path="url(#p70b52f7822)" d="M 328.944282 273.312 
L 330.562527 273.312 
L 330.562527 144.093296 
L 328.944282 144.093296 
z
" style="fill:#1f77b4;"/>
   </g>
   <g id="patch_170">
    <path clip-path="url(#p70b52f7822)" d="M 330.562527 273.312 
L 332.180771 273.312 
L 332.180771 161.227268 
L 330.562527 161.227268 
z
" style="fill:#1f77b4;"/>
   </g>
   <g id="patch_171">
    <path clip-path="url(#p70b52f7822)" d="M 332.180771 273.312 
L 333.799016 273.312 
L 333.799016 172.649915 
L 332.180771 172.649915 
z
" style="fill:#1f77b4;"/>
   </g>
   <g id="patch_172">
    <path clip-path="url(#p70b52f7822)" d="M 333.799016 273.312 
L 335.41726 273.312 
L 335.41726 159.085521 
L 333.799016 159.085521 
z
" style="fill:#1f77b4;"/>
   </g>
   <g id="patch_173">
    <path clip-path="url(#p70b52f7822)" d="M 335.41726 273.312 
L 337.035504 273.312 
L 337.035504 180.502986 
L 335.41726 180.502986 
z
" style="fill:#1f77b4;"/>
   </g>
   <g id="patch_174">
    <path clip-path="url(#p70b52f7822)" d="M 337.035504 273.312 
L 338.653749 273.312 
L 338.653749 188.356056 
L 337.035504 188.356056 
z
" style="fill:#1f77b4;"/>
   </g>
   <g id="patch_175">
    <path clip-path="url(#p70b52f7822)" d="M 338.653749 273.312 
L 340.271993 273.312 
L 340.271993 166.224676 
L 338.653749 166.224676 
z
" style="fill:#1f77b4;"/>
   </g>
   <g id="patch_176">
    <path clip-path="url(#p70b52f7822)" d="M 340.271993 273.312 
L 341.890238 273.312 
L 341.890238 195.495211 
L 340.271993 195.495211 
z
" style="fill:#1f77b4;"/>
   </g>
   <g id="patch_177">
    <path clip-path="url(#p70b52f7822)" d="M 341.890238 273.312 
L 343.508482 273.312 
L 343.508482 184.786479 
L 341.890238 184.786479 
z
" style="fill:#1f77b4;"/>
   </g>
   <g id="patch_178">
    <path clip-path="url(#p70b52f7822)" d="M 343.508482 273.312 
L 345.126726 273.312 
L 345.126726 193.353465 
L 343.508482 193.353465 
z
" style="fill:#1f77b4;"/>
   </g>
   <g id="patch_179">
    <path clip-path="url(#p70b52f7822)" d="M 345.126726 273.312 
L 346.744971 273.312 
L 346.744971 204.062197 
L 345.126726 204.062197 
z
" style="fill:#1f77b4;"/>
   </g>
   <g id="patch_180">
    <path clip-path="url(#p70b52f7822)" d="M 346.744971 273.312 
L 348.363215 273.312 
L 348.363215 200.49262 
L 346.744971 200.49262 
z
" style="fill:#1f77b4;"/>
   </g>
   <g id="patch_181">
    <path clip-path="url(#p70b52f7822)" d="M 348.363215 273.312 
L 349.98146 273.312 
L 349.98146 211.201352 
L 348.363215 211.201352 
z
" style="fill:#1f77b4;"/>
   </g>
   <g id="patch_182">
    <path clip-path="url(#p70b52f7822)" d="M 349.98146 273.312 
L 351.599704 273.312 
L 351.599704 195.495211 
L 349.98146 195.495211 
z
" style="fill:#1f77b4;"/>
   </g>
   <g id="patch_183">
    <path clip-path="url(#p70b52f7822)" d="M 351.599704 273.312 
L 353.217948 273.312 
L 353.217948 207.631775 
L 351.599704 207.631775 
z
" style="fill:#1f77b4;"/>
   </g>
   <g id="patch_184">
    <path clip-path="url(#p70b52f7822)" d="M 353.217948 273.312 
L 354.836193 273.312 
L 354.836193 201.920451 
L 353.217948 201.920451 
z
" style="fill:#1f77b4;"/>
   </g>
   <g id="patch_185">
    <path clip-path="url(#p70b52f7822)" d="M 354.836193 273.312 
L 356.454437 273.312 
L 356.454437 208.34569 
L 354.836193 208.34569 
z
" style="fill:#1f77b4;"/>
   </g>
   <g id="patch_186">
    <path clip-path="url(#p70b52f7822)" d="M 356.454437 273.312 
L 358.072682 273.312 
L 358.072682 216.912676 
L 356.454437 216.912676 
z
" style="fill:#1f77b4;"/>
   </g>
   <g id="patch_187">
    <path clip-path="url(#p70b52f7822)" d="M 358.072682 273.312 
L 359.690926 273.312 
L 359.690926 219.054423 
L 358.072682 219.054423 
z
" style="fill:#1f77b4;"/>
   </g>
   <g id="patch_188">
    <path clip-path="url(#p70b52f7822)" d="M 359.690926 273.312 
L 361.30917 273.312 
L 361.30917 221.196169 
L 359.690926 221.196169 
z
" style="fill:#1f77b4;"/>
   </g>
   <g id="patch_189">
    <path clip-path="url(#p70b52f7822)" d="M 361.30917 273.312 
L 362.927415 273.312 
L 362.927415 211.915268 
L 361.30917 211.915268 
z
" style="fill:#1f77b4;"/>
   </g>
   <g id="patch_190">
    <path clip-path="url(#p70b52f7822)" d="M 362.927415 273.312 
L 364.545659 273.312 
L 364.545659 232.618817 
L 362.927415 232.618817 
z
" style="fill:#1f77b4;"/>
   </g>
   <g id="patch_191">
    <path clip-path="url(#p70b52f7822)" d="M 364.545659 273.312 
L 366.163904 273.312 
L 366.163904 229.763155 
L 364.545659 229.763155 
z
" style="fill:#1f77b4;"/>
   </g>
   <g id="patch_192">
    <path clip-path="url(#p70b52f7822)" d="M 366.163904 273.312 
L 367.782148 273.312 
L 367.782148 236.90231 
L 366.163904 236.90231 
z
" style="fill:#1f77b4;"/>
   </g>
   <g id="patch_193">
    <path clip-path="url(#p70b52f7822)" d="M 367.782148 273.312 
L 369.400393 273.312 
L 369.400393 236.188394 
L 367.782148 236.188394 
z
" style="fill:#1f77b4;"/>
   </g>
   <g id="patch_194">
    <path clip-path="url(#p70b52f7822)" d="M 369.400393 273.312 
L 371.018637 273.312 
L 371.018637 247.611042 
L 369.400393 247.611042 
z
" style="fill:#1f77b4;"/>
   </g>
   <g id="patch_195">
    <path clip-path="url(#p70b52f7822)" d="M 371.018637 273.312 
L 372.636881 273.312 
L 372.636881 239.757972 
L 371.018637 239.757972 
z
" style="fill:#1f77b4;"/>
   </g>
   <g id="patch_196">
    <path clip-path="url(#p70b52f7822)" d="M 372.636881 273.312 
L 374.255126 273.312 
L 374.255126 246.897127 
L 372.636881 246.897127 
z
" style="fill:#1f77b4;"/>
   </g>
   <g id="patch_197">
    <path clip-path="url(#p70b52f7822)" d="M 374.255126 273.312 
L 375.87337 273.312 
L 375.87337 250.466704 
L 374.255126 250.466704 
z
" style="fill:#1f77b4;"/>
   </g>
   <g id="patch_198">
    <path clip-path="url(#p70b52f7822)" d="M 375.87337 273.312 
L 377.491615 273.312 
L 377.491615 254.750197 
L 375.87337 254.750197 
z
" style="fill:#1f77b4;"/>
   </g>
   <g id="patch_199">
    <path clip-path="url(#p70b52f7822)" d="M 377.491615 273.312 
L 379.109859 273.312 
L 379.109859 260.461521 
L 377.491615 260.461521 
z
" style="fill:#1f77b4;"/>
   </g>
   <g id="patch_200">
    <path clip-path="url(#p70b52f7822)" d="M 379.109859 273.312 
L 380.728103 273.312 
L 380.728103 263.317183 
L 379.109859 263.317183 
z
" style="fill:#1f77b4;"/>
   </g>
   <g id="patch_201">
    <path clip-path="url(#p70b52f7822)" d="M 380.728103 273.312 
L 382.346348 273.312 
L 382.346348 269.028507 
L 380.728103 269.028507 
z
" style="fill:#1f77b4;"/>
   </g>
   <g id="patch_202">
    <path clip-path="url(#p70b52f7822)" d="M 382.346348 273.312 
L 383.964592 273.312 
L 383.964592 270.456338 
L 382.346348 270.456338 
z
" style="fill:#1f77b4;"/>
   </g>
   <g id="matplotlib.axis_1">
    <g id="xtick_1">
     <g id="line2d_1">
      <defs>
       <path d="M 0 0 
L 0 3.5 
" id="m301bb7703b" style="stroke:#000000;stroke-width:0.8;"/>
      </defs>
      <g>
       <use style="stroke:#000000;stroke-width:0.8;" x="60.013977" xlink:href="#m301bb7703b" y="273.312"/>
      </g>
     </g>
     <g id="text_1">
      <!-- 0.0 -->
      <g transform="translate(52.062415 287.910437)scale(0.1 -0.1)">
       <defs>
        <path d="M 2034 4250 
Q 1547 4250 1301 3770 
Q 1056 3291 1056 2328 
Q 1056 1369 1301 889 
Q 1547 409 2034 409 
Q 2525 409 2770 889 
Q 3016 1369 3016 2328 
Q 3016 3291 2770 3770 
Q 2525 4250 2034 4250 
z
M 2034 4750 
Q 2819 4750 3233 4129 
Q 3647 3509 3647 2328 
Q 3647 1150 3233 529 
Q 2819 -91 2034 -91 
Q 1250 -91 836 529 
Q 422 1150 422 2328 
Q 422 3509 836 4129 
Q 1250 4750 2034 4750 
z
" id="DejaVuSans-30" transform="scale(0.015625)"/>
        <path d="M 684 794 
L 1344 794 
L 1344 0 
L 684 0 
L 684 794 
z
" id="DejaVuSans-2e" transform="scale(0.015625)"/>
       </defs>
       <use xlink:href="#DejaVuSans-30"/>
       <use x="63.623047" xlink:href="#DejaVuSans-2e"/>
       <use x="95.410156" xlink:href="#DejaVuSans-30"/>
      </g>
     </g>
    </g>
    <g id="xtick_2">
     <g id="line2d_2">
      <g>
       <use style="stroke:#000000;stroke-width:0.8;" x="101.350278" xlink:href="#m301bb7703b" y="273.312"/>
      </g>
     </g>
     <g id="text_2">
      <!-- 0.2 -->
      <g transform="translate(93.398715 287.910437)scale(0.1 -0.1)">
       <defs>
        <path d="M 1228 531 
L 3431 531 
L 3431 0 
L 469 0 
L 469 531 
Q 828 903 1448 1529 
Q 2069 2156 2228 2338 
Q 2531 2678 2651 2914 
Q 2772 3150 2772 3378 
Q 2772 3750 2511 3984 
Q 2250 4219 1831 4219 
Q 1534 4219 1204 4116 
Q 875 4013 500 3803 
L 500 4441 
Q 881 4594 1212 4672 
Q 1544 4750 1819 4750 
Q 2544 4750 2975 4387 
Q 3406 4025 3406 3419 
Q 3406 3131 3298 2873 
Q 3191 2616 2906 2266 
Q 2828 2175 2409 1742 
Q 1991 1309 1228 531 
z
" id="DejaVuSans-32" transform="scale(0.015625)"/>
       </defs>
       <use xlink:href="#DejaVuSans-30"/>
       <use x="63.623047" xlink:href="#DejaVuSans-2e"/>
       <use x="95.410156" xlink:href="#DejaVuSans-32"/>
      </g>
     </g>
    </g>
    <g id="xtick_3">
     <g id="line2d_3">
      <g>
       <use style="stroke:#000000;stroke-width:0.8;" x="142.686578" xlink:href="#m301bb7703b" y="273.312"/>
      </g>
     </g>
     <g id="text_3">
      <!-- 0.4 -->
      <g transform="translate(134.735016 287.910437)scale(0.1 -0.1)">
       <defs>
        <path d="M 2419 4116 
L 825 1625 
L 2419 1625 
L 2419 4116 
z
M 2253 4666 
L 3047 4666 
L 3047 1625 
L 3713 1625 
L 3713 1100 
L 3047 1100 
L 3047 0 
L 2419 0 
L 2419 1100 
L 313 1100 
L 313 1709 
L 2253 4666 
z
" id="DejaVuSans-34" transform="scale(0.015625)"/>
       </defs>
       <use xlink:href="#DejaVuSans-30"/>
       <use x="63.623047" xlink:href="#DejaVuSans-2e"/>
       <use x="95.410156" xlink:href="#DejaVuSans-34"/>
      </g>
     </g>
    </g>
    <g id="xtick_4">
     <g id="line2d_4">
      <g>
       <use style="stroke:#000000;stroke-width:0.8;" x="184.022879" xlink:href="#m301bb7703b" y="273.312"/>
      </g>
     </g>
     <g id="text_4">
      <!-- 0.6 -->
      <g transform="translate(176.071316 287.910437)scale(0.1 -0.1)">
       <defs>
        <path d="M 2113 2584 
Q 1688 2584 1439 2293 
Q 1191 2003 1191 1497 
Q 1191 994 1439 701 
Q 1688 409 2113 409 
Q 2538 409 2786 701 
Q 3034 994 3034 1497 
Q 3034 2003 2786 2293 
Q 2538 2584 2113 2584 
z
M 3366 4563 
L 3366 3988 
Q 3128 4100 2886 4159 
Q 2644 4219 2406 4219 
Q 1781 4219 1451 3797 
Q 1122 3375 1075 2522 
Q 1259 2794 1537 2939 
Q 1816 3084 2150 3084 
Q 2853 3084 3261 2657 
Q 3669 2231 3669 1497 
Q 3669 778 3244 343 
Q 2819 -91 2113 -91 
Q 1303 -91 875 529 
Q 447 1150 447 2328 
Q 447 3434 972 4092 
Q 1497 4750 2381 4750 
Q 2619 4750 2861 4703 
Q 3103 4656 3366 4563 
z
" id="DejaVuSans-36" transform="scale(0.015625)"/>
       </defs>
       <use xlink:href="#DejaVuSans-30"/>
       <use x="63.623047" xlink:href="#DejaVuSans-2e"/>
       <use x="95.410156" xlink:href="#DejaVuSans-36"/>
      </g>
     </g>
    </g>
    <g id="xtick_5">
     <g id="line2d_5">
      <g>
       <use style="stroke:#000000;stroke-width:0.8;" x="225.35918" xlink:href="#m301bb7703b" y="273.312"/>
      </g>
     </g>
     <g id="text_5">
      <!-- 0.8 -->
      <g transform="translate(217.407617 287.910437)scale(0.1 -0.1)">
       <defs>
        <path d="M 2034 2216 
Q 1584 2216 1326 1975 
Q 1069 1734 1069 1313 
Q 1069 891 1326 650 
Q 1584 409 2034 409 
Q 2484 409 2743 651 
Q 3003 894 3003 1313 
Q 3003 1734 2745 1975 
Q 2488 2216 2034 2216 
z
M 1403 2484 
Q 997 2584 770 2862 
Q 544 3141 544 3541 
Q 544 4100 942 4425 
Q 1341 4750 2034 4750 
Q 2731 4750 3128 4425 
Q 3525 4100 3525 3541 
Q 3525 3141 3298 2862 
Q 3072 2584 2669 2484 
Q 3125 2378 3379 2068 
Q 3634 1759 3634 1313 
Q 3634 634 3220 271 
Q 2806 -91 2034 -91 
Q 1263 -91 848 271 
Q 434 634 434 1313 
Q 434 1759 690 2068 
Q 947 2378 1403 2484 
z
M 1172 3481 
Q 1172 3119 1398 2916 
Q 1625 2713 2034 2713 
Q 2441 2713 2670 2916 
Q 2900 3119 2900 3481 
Q 2900 3844 2670 4047 
Q 2441 4250 2034 4250 
Q 1625 4250 1398 4047 
Q 1172 3844 1172 3481 
z
" id="DejaVuSans-38" transform="scale(0.015625)"/>
       </defs>
       <use xlink:href="#DejaVuSans-30"/>
       <use x="63.623047" xlink:href="#DejaVuSans-2e"/>
       <use x="95.410156" xlink:href="#DejaVuSans-38"/>
      </g>
     </g>
    </g>
    <g id="xtick_6">
     <g id="line2d_6">
      <g>
       <use style="stroke:#000000;stroke-width:0.8;" x="266.69548" xlink:href="#m301bb7703b" y="273.312"/>
      </g>
     </g>
     <g id="text_6">
      <!-- 1.0 -->
      <g transform="translate(258.743918 287.910437)scale(0.1 -0.1)">
       <defs>
        <path d="M 794 531 
L 1825 531 
L 1825 4091 
L 703 3866 
L 703 4441 
L 1819 4666 
L 2450 4666 
L 2450 531 
L 3481 531 
L 3481 0 
L 794 0 
L 794 531 
z
" id="DejaVuSans-31" transform="scale(0.015625)"/>
       </defs>
       <use xlink:href="#DejaVuSans-31"/>
       <use x="63.623047" xlink:href="#DejaVuSans-2e"/>
       <use x="95.410156" xlink:href="#DejaVuSans-30"/>
      </g>
     </g>
    </g>
    <g id="xtick_7">
     <g id="line2d_7">
      <g>
       <use style="stroke:#000000;stroke-width:0.8;" x="308.031781" xlink:href="#m301bb7703b" y="273.312"/>
      </g>
     </g>
     <g id="text_7">
      <!-- 1.2 -->
      <g transform="translate(300.080218 287.910437)scale(0.1 -0.1)">
       <use xlink:href="#DejaVuSans-31"/>
       <use x="63.623047" xlink:href="#DejaVuSans-2e"/>
       <use x="95.410156" xlink:href="#DejaVuSans-32"/>
      </g>
     </g>
    </g>
    <g id="xtick_8">
     <g id="line2d_8">
      <g>
       <use style="stroke:#000000;stroke-width:0.8;" x="349.368081" xlink:href="#m301bb7703b" y="273.312"/>
      </g>
     </g>
     <g id="text_8">
      <!-- 1.4 -->
      <g transform="translate(341.416519 287.910437)scale(0.1 -0.1)">
       <use xlink:href="#DejaVuSans-31"/>
       <use x="63.623047" xlink:href="#DejaVuSans-2e"/>
       <use x="95.410156" xlink:href="#DejaVuSans-34"/>
      </g>
     </g>
    </g>
    <g id="xtick_9">
     <g id="line2d_9">
      <g>
       <use style="stroke:#000000;stroke-width:0.8;" x="390.704382" xlink:href="#m301bb7703b" y="273.312"/>
      </g>
     </g>
     <g id="text_9">
      <!-- 1.6 -->
      <g transform="translate(382.752819 287.910437)scale(0.1 -0.1)">
       <use xlink:href="#DejaVuSans-31"/>
       <use x="63.623047" xlink:href="#DejaVuSans-2e"/>
       <use x="95.410156" xlink:href="#DejaVuSans-36"/>
      </g>
     </g>
    </g>
    <g id="text_10">
     <!-- Angle with normal (rad) -->
     <g transform="translate(163.023281 301.588562)scale(0.1 -0.1)">
      <defs>
       <path d="M 2188 4044 
L 1331 1722 
L 3047 1722 
L 2188 4044 
z
M 1831 4666 
L 2547 4666 
L 4325 0 
L 3669 0 
L 3244 1197 
L 1141 1197 
L 716 0 
L 50 0 
L 1831 4666 
z
" id="DejaVuSans-41" transform="scale(0.015625)"/>
       <path d="M 3513 2113 
L 3513 0 
L 2938 0 
L 2938 2094 
Q 2938 2591 2744 2837 
Q 2550 3084 2163 3084 
Q 1697 3084 1428 2787 
Q 1159 2491 1159 1978 
L 1159 0 
L 581 0 
L 581 3500 
L 1159 3500 
L 1159 2956 
Q 1366 3272 1645 3428 
Q 1925 3584 2291 3584 
Q 2894 3584 3203 3211 
Q 3513 2838 3513 2113 
z
" id="DejaVuSans-6e" transform="scale(0.015625)"/>
       <path d="M 2906 1791 
Q 2906 2416 2648 2759 
Q 2391 3103 1925 3103 
Q 1463 3103 1205 2759 
Q 947 2416 947 1791 
Q 947 1169 1205 825 
Q 1463 481 1925 481 
Q 2391 481 2648 825 
Q 2906 1169 2906 1791 
z
M 3481 434 
Q 3481 -459 3084 -895 
Q 2688 -1331 1869 -1331 
Q 1566 -1331 1297 -1286 
Q 1028 -1241 775 -1147 
L 775 -588 
Q 1028 -725 1275 -790 
Q 1522 -856 1778 -856 
Q 2344 -856 2625 -561 
Q 2906 -266 2906 331 
L 2906 616 
Q 2728 306 2450 153 
Q 2172 0 1784 0 
Q 1141 0 747 490 
Q 353 981 353 1791 
Q 353 2603 747 3093 
Q 1141 3584 1784 3584 
Q 2172 3584 2450 3431 
Q 2728 3278 2906 2969 
L 2906 3500 
L 3481 3500 
L 3481 434 
z
" id="DejaVuSans-67" transform="scale(0.015625)"/>
       <path d="M 603 4863 
L 1178 4863 
L 1178 0 
L 603 0 
L 603 4863 
z
" id="DejaVuSans-6c" transform="scale(0.015625)"/>
       <path d="M 3597 1894 
L 3597 1613 
L 953 1613 
Q 991 1019 1311 708 
Q 1631 397 2203 397 
Q 2534 397 2845 478 
Q 3156 559 3463 722 
L 3463 178 
Q 3153 47 2828 -22 
Q 2503 -91 2169 -91 
Q 1331 -91 842 396 
Q 353 884 353 1716 
Q 353 2575 817 3079 
Q 1281 3584 2069 3584 
Q 2775 3584 3186 3129 
Q 3597 2675 3597 1894 
z
M 3022 2063 
Q 3016 2534 2758 2815 
Q 2500 3097 2075 3097 
Q 1594 3097 1305 2825 
Q 1016 2553 972 2059 
L 3022 2063 
z
" id="DejaVuSans-65" transform="scale(0.015625)"/>
       <path id="DejaVuSans-20" transform="scale(0.015625)"/>
       <path d="M 269 3500 
L 844 3500 
L 1563 769 
L 2278 3500 
L 2956 3500 
L 3675 769 
L 4391 3500 
L 4966 3500 
L 4050 0 
L 3372 0 
L 2619 2869 
L 1863 0 
L 1184 0 
L 269 3500 
z
" id="DejaVuSans-77" transform="scale(0.015625)"/>
       <path d="M 603 3500 
L 1178 3500 
L 1178 0 
L 603 0 
L 603 3500 
z
M 603 4863 
L 1178 4863 
L 1178 4134 
L 603 4134 
L 603 4863 
z
" id="DejaVuSans-69" transform="scale(0.015625)"/>
       <path d="M 1172 4494 
L 1172 3500 
L 2356 3500 
L 2356 3053 
L 1172 3053 
L 1172 1153 
Q 1172 725 1289 603 
Q 1406 481 1766 481 
L 2356 481 
L 2356 0 
L 1766 0 
Q 1100 0 847 248 
Q 594 497 594 1153 
L 594 3053 
L 172 3053 
L 172 3500 
L 594 3500 
L 594 4494 
L 1172 4494 
z
" id="DejaVuSans-74" transform="scale(0.015625)"/>
       <path d="M 3513 2113 
L 3513 0 
L 2938 0 
L 2938 2094 
Q 2938 2591 2744 2837 
Q 2550 3084 2163 3084 
Q 1697 3084 1428 2787 
Q 1159 2491 1159 1978 
L 1159 0 
L 581 0 
L 581 4863 
L 1159 4863 
L 1159 2956 
Q 1366 3272 1645 3428 
Q 1925 3584 2291 3584 
Q 2894 3584 3203 3211 
Q 3513 2838 3513 2113 
z
" id="DejaVuSans-68" transform="scale(0.015625)"/>
       <path d="M 1959 3097 
Q 1497 3097 1228 2736 
Q 959 2375 959 1747 
Q 959 1119 1226 758 
Q 1494 397 1959 397 
Q 2419 397 2687 759 
Q 2956 1122 2956 1747 
Q 2956 2369 2687 2733 
Q 2419 3097 1959 3097 
z
M 1959 3584 
Q 2709 3584 3137 3096 
Q 3566 2609 3566 1747 
Q 3566 888 3137 398 
Q 2709 -91 1959 -91 
Q 1206 -91 779 398 
Q 353 888 353 1747 
Q 353 2609 779 3096 
Q 1206 3584 1959 3584 
z
" id="DejaVuSans-6f" transform="scale(0.015625)"/>
       <path d="M 2631 2963 
Q 2534 3019 2420 3045 
Q 2306 3072 2169 3072 
Q 1681 3072 1420 2755 
Q 1159 2438 1159 1844 
L 1159 0 
L 581 0 
L 581 3500 
L 1159 3500 
L 1159 2956 
Q 1341 3275 1631 3429 
Q 1922 3584 2338 3584 
Q 2397 3584 2469 3576 
Q 2541 3569 2628 3553 
L 2631 2963 
z
" id="DejaVuSans-72" transform="scale(0.015625)"/>
       <path d="M 3328 2828 
Q 3544 3216 3844 3400 
Q 4144 3584 4550 3584 
Q 5097 3584 5394 3201 
Q 5691 2819 5691 2113 
L 5691 0 
L 5113 0 
L 5113 2094 
Q 5113 2597 4934 2840 
Q 4756 3084 4391 3084 
Q 3944 3084 3684 2787 
Q 3425 2491 3425 1978 
L 3425 0 
L 2847 0 
L 2847 2094 
Q 2847 2600 2669 2842 
Q 2491 3084 2119 3084 
Q 1678 3084 1418 2786 
Q 1159 2488 1159 1978 
L 1159 0 
L 581 0 
L 581 3500 
L 1159 3500 
L 1159 2956 
Q 1356 3278 1631 3431 
Q 1906 3584 2284 3584 
Q 2666 3584 2933 3390 
Q 3200 3197 3328 2828 
z
" id="DejaVuSans-6d" transform="scale(0.015625)"/>
       <path d="M 2194 1759 
Q 1497 1759 1228 1600 
Q 959 1441 959 1056 
Q 959 750 1161 570 
Q 1363 391 1709 391 
Q 2188 391 2477 730 
Q 2766 1069 2766 1631 
L 2766 1759 
L 2194 1759 
z
M 3341 1997 
L 3341 0 
L 2766 0 
L 2766 531 
Q 2569 213 2275 61 
Q 1981 -91 1556 -91 
Q 1019 -91 701 211 
Q 384 513 384 1019 
Q 384 1609 779 1909 
Q 1175 2209 1959 2209 
L 2766 2209 
L 2766 2266 
Q 2766 2663 2505 2880 
Q 2244 3097 1772 3097 
Q 1472 3097 1187 3025 
Q 903 2953 641 2809 
L 641 3341 
Q 956 3463 1253 3523 
Q 1550 3584 1831 3584 
Q 2591 3584 2966 3190 
Q 3341 2797 3341 1997 
z
" id="DejaVuSans-61" transform="scale(0.015625)"/>
       <path d="M 1984 4856 
Q 1566 4138 1362 3434 
Q 1159 2731 1159 2009 
Q 1159 1288 1364 580 
Q 1569 -128 1984 -844 
L 1484 -844 
Q 1016 -109 783 600 
Q 550 1309 550 2009 
Q 550 2706 781 3412 
Q 1013 4119 1484 4856 
L 1984 4856 
z
" id="DejaVuSans-28" transform="scale(0.015625)"/>
       <path d="M 2906 2969 
L 2906 4863 
L 3481 4863 
L 3481 0 
L 2906 0 
L 2906 525 
Q 2725 213 2448 61 
Q 2172 -91 1784 -91 
Q 1150 -91 751 415 
Q 353 922 353 1747 
Q 353 2572 751 3078 
Q 1150 3584 1784 3584 
Q 2172 3584 2448 3432 
Q 2725 3281 2906 2969 
z
M 947 1747 
Q 947 1113 1208 752 
Q 1469 391 1925 391 
Q 2381 391 2643 752 
Q 2906 1113 2906 1747 
Q 2906 2381 2643 2742 
Q 2381 3103 1925 3103 
Q 1469 3103 1208 2742 
Q 947 2381 947 1747 
z
" id="DejaVuSans-64" transform="scale(0.015625)"/>
       <path d="M 513 4856 
L 1013 4856 
Q 1481 4119 1714 3412 
Q 1947 2706 1947 2009 
Q 1947 1309 1714 600 
Q 1481 -109 1013 -844 
L 513 -844 
Q 928 -128 1133 580 
Q 1338 1288 1338 2009 
Q 1338 2731 1133 3434 
Q 928 4138 513 4856 
z
" id="DejaVuSans-29" transform="scale(0.015625)"/>
      </defs>
      <use xlink:href="#DejaVuSans-41"/>
      <use x="68.408203" xlink:href="#DejaVuSans-6e"/>
      <use x="131.787109" xlink:href="#DejaVuSans-67"/>
      <use x="195.263672" xlink:href="#DejaVuSans-6c"/>
      <use x="223.046875" xlink:href="#DejaVuSans-65"/>
      <use x="284.570312" xlink:href="#DejaVuSans-20"/>
      <use x="316.357422" xlink:href="#DejaVuSans-77"/>
      <use x="398.144531" xlink:href="#DejaVuSans-69"/>
      <use x="425.927734" xlink:href="#DejaVuSans-74"/>
      <use x="465.136719" xlink:href="#DejaVuSans-68"/>
      <use x="528.515625" xlink:href="#DejaVuSans-20"/>
      <use x="560.302734" xlink:href="#DejaVuSans-6e"/>
      <use x="623.681641" xlink:href="#DejaVuSans-6f"/>
      <use x="684.863281" xlink:href="#DejaVuSans-72"/>
      <use x="724.226562" xlink:href="#DejaVuSans-6d"/>
      <use x="821.638672" xlink:href="#DejaVuSans-61"/>
      <use x="882.917969" xlink:href="#DejaVuSans-6c"/>
      <use x="910.701172" xlink:href="#DejaVuSans-20"/>
      <use x="942.488281" xlink:href="#DejaVuSans-28"/>
      <use x="981.501953" xlink:href="#DejaVuSans-72"/>
      <use x="1022.615234" xlink:href="#DejaVuSans-61"/>
      <use x="1083.894531" xlink:href="#DejaVuSans-64"/>
      <use x="1147.371094" xlink:href="#DejaVuSans-29"/>
     </g>
    </g>
   </g>
   <g id="matplotlib.axis_2">
    <g id="ytick_1">
     <g id="line2d_10">
      <defs>
       <path d="M 0 0 
L -3.5 0 
" id="m88431c716a" style="stroke:#000000;stroke-width:0.8;"/>
      </defs>
      <g>
       <use style="stroke:#000000;stroke-width:0.8;" x="43.78125" xlink:href="#m88431c716a" y="273.312"/>
      </g>
     </g>
     <g id="text_11">
      <!-- 0.0 -->
      <g transform="translate(20.878125 277.111219)scale(0.1 -0.1)">
       <use xlink:href="#DejaVuSans-30"/>
       <use x="63.623047" xlink:href="#DejaVuSans-2e"/>
       <use x="95.410156" xlink:href="#DejaVuSans-30"/>
      </g>
     </g>
    </g>
    <g id="ytick_2">
     <g id="line2d_11">
      <g>
       <use style="stroke:#000000;stroke-width:0.8;" x="43.78125" xlink:href="#m88431c716a" y="228.594317"/>
      </g>
     </g>
     <g id="text_12">
      <!-- 0.2 -->
      <g transform="translate(20.878125 232.393535)scale(0.1 -0.1)">
       <use xlink:href="#DejaVuSans-30"/>
       <use x="63.623047" xlink:href="#DejaVuSans-2e"/>
       <use x="95.410156" xlink:href="#DejaVuSans-32"/>
      </g>
     </g>
    </g>
    <g id="ytick_3">
     <g id="line2d_12">
      <g>
       <use style="stroke:#000000;stroke-width:0.8;" x="43.78125" xlink:href="#m88431c716a" y="183.876633"/>
      </g>
     </g>
     <g id="text_13">
      <!-- 0.4 -->
      <g transform="translate(20.878125 187.675852)scale(0.1 -0.1)">
       <use xlink:href="#DejaVuSans-30"/>
       <use x="63.623047" xlink:href="#DejaVuSans-2e"/>
       <use x="95.410156" xlink:href="#DejaVuSans-34"/>
      </g>
     </g>
    </g>
    <g id="ytick_4">
     <g id="line2d_13">
      <g>
       <use style="stroke:#000000;stroke-width:0.8;" x="43.78125" xlink:href="#m88431c716a" y="139.15895"/>
      </g>
     </g>
     <g id="text_14">
      <!-- 0.6 -->
      <g transform="translate(20.878125 142.958168)scale(0.1 -0.1)">
       <use xlink:href="#DejaVuSans-30"/>
       <use x="63.623047" xlink:href="#DejaVuSans-2e"/>
       <use x="95.410156" xlink:href="#DejaVuSans-36"/>
      </g>
     </g>
    </g>
    <g id="ytick_5">
     <g id="line2d_14">
      <g>
       <use style="stroke:#000000;stroke-width:0.8;" x="43.78125" xlink:href="#m88431c716a" y="94.441266"/>
      </g>
     </g>
     <g id="text_15">
      <!-- 0.8 -->
      <g transform="translate(20.878125 98.240485)scale(0.1 -0.1)">
       <use xlink:href="#DejaVuSans-30"/>
       <use x="63.623047" xlink:href="#DejaVuSans-2e"/>
       <use x="95.410156" xlink:href="#DejaVuSans-38"/>
      </g>
     </g>
    </g>
    <g id="ytick_6">
     <g id="line2d_15">
      <g>
       <use style="stroke:#000000;stroke-width:0.8;" x="43.78125" xlink:href="#m88431c716a" y="49.723583"/>
      </g>
     </g>
     <g id="text_16">
      <!-- 1.0 -->
      <g transform="translate(20.878125 53.522801)scale(0.1 -0.1)">
       <use xlink:href="#DejaVuSans-31"/>
       <use x="63.623047" xlink:href="#DejaVuSans-2e"/>
       <use x="95.410156" xlink:href="#DejaVuSans-30"/>
      </g>
     </g>
    </g>
    <g id="text_17">
     <!-- Probability density -->
     <g transform="translate(14.798438 186.606781)rotate(-90)scale(0.1 -0.1)">
      <defs>
       <path d="M 1259 4147 
L 1259 2394 
L 2053 2394 
Q 2494 2394 2734 2622 
Q 2975 2850 2975 3272 
Q 2975 3691 2734 3919 
Q 2494 4147 2053 4147 
L 1259 4147 
z
M 628 4666 
L 2053 4666 
Q 2838 4666 3239 4311 
Q 3641 3956 3641 3272 
Q 3641 2581 3239 2228 
Q 2838 1875 2053 1875 
L 1259 1875 
L 1259 0 
L 628 0 
L 628 4666 
z
" id="DejaVuSans-50" transform="scale(0.015625)"/>
       <path d="M 3116 1747 
Q 3116 2381 2855 2742 
Q 2594 3103 2138 3103 
Q 1681 3103 1420 2742 
Q 1159 2381 1159 1747 
Q 1159 1113 1420 752 
Q 1681 391 2138 391 
Q 2594 391 2855 752 
Q 3116 1113 3116 1747 
z
M 1159 2969 
Q 1341 3281 1617 3432 
Q 1894 3584 2278 3584 
Q 2916 3584 3314 3078 
Q 3713 2572 3713 1747 
Q 3713 922 3314 415 
Q 2916 -91 2278 -91 
Q 1894 -91 1617 61 
Q 1341 213 1159 525 
L 1159 0 
L 581 0 
L 581 4863 
L 1159 4863 
L 1159 2969 
z
" id="DejaVuSans-62" transform="scale(0.015625)"/>
       <path d="M 2059 -325 
Q 1816 -950 1584 -1140 
Q 1353 -1331 966 -1331 
L 506 -1331 
L 506 -850 
L 844 -850 
Q 1081 -850 1212 -737 
Q 1344 -625 1503 -206 
L 1606 56 
L 191 3500 
L 800 3500 
L 1894 763 
L 2988 3500 
L 3597 3500 
L 2059 -325 
z
" id="DejaVuSans-79" transform="scale(0.015625)"/>
       <path d="M 2834 3397 
L 2834 2853 
Q 2591 2978 2328 3040 
Q 2066 3103 1784 3103 
Q 1356 3103 1142 2972 
Q 928 2841 928 2578 
Q 928 2378 1081 2264 
Q 1234 2150 1697 2047 
L 1894 2003 
Q 2506 1872 2764 1633 
Q 3022 1394 3022 966 
Q 3022 478 2636 193 
Q 2250 -91 1575 -91 
Q 1294 -91 989 -36 
Q 684 19 347 128 
L 347 722 
Q 666 556 975 473 
Q 1284 391 1588 391 
Q 1994 391 2212 530 
Q 2431 669 2431 922 
Q 2431 1156 2273 1281 
Q 2116 1406 1581 1522 
L 1381 1569 
Q 847 1681 609 1914 
Q 372 2147 372 2553 
Q 372 3047 722 3315 
Q 1072 3584 1716 3584 
Q 2034 3584 2315 3537 
Q 2597 3491 2834 3397 
z
" id="DejaVuSans-73" transform="scale(0.015625)"/>
      </defs>
      <use xlink:href="#DejaVuSans-50"/>
      <use x="58.552734" xlink:href="#DejaVuSans-72"/>
      <use x="97.416016" xlink:href="#DejaVuSans-6f"/>
      <use x="158.597656" xlink:href="#DejaVuSans-62"/>
      <use x="222.074219" xlink:href="#DejaVuSans-61"/>
      <use x="283.353516" xlink:href="#DejaVuSans-62"/>
      <use x="346.830078" xlink:href="#DejaVuSans-69"/>
      <use x="374.613281" xlink:href="#DejaVuSans-6c"/>
      <use x="402.396484" xlink:href="#DejaVuSans-69"/>
      <use x="430.179688" xlink:href="#DejaVuSans-74"/>
      <use x="469.388672" xlink:href="#DejaVuSans-79"/>
      <use x="528.568359" xlink:href="#DejaVuSans-20"/>
      <use x="560.355469" xlink:href="#DejaVuSans-64"/>
      <use x="623.832031" xlink:href="#DejaVuSans-65"/>
      <use x="685.355469" xlink:href="#DejaVuSans-6e"/>
      <use x="748.734375" xlink:href="#DejaVuSans-73"/>
      <use x="800.833984" xlink:href="#DejaVuSans-69"/>
      <use x="828.617188" xlink:href="#DejaVuSans-74"/>
      <use x="867.826172" xlink:href="#DejaVuSans-79"/>
     </g>
    </g>
   </g>
   <g id="line2d_16">
    <path clip-path="url(#p70b52f7822)" d="M 60.013977 273.312 
L 79.837728 230.68383 
L 90.237073 208.849404 
L 99.01152 190.92517 
L 106.811029 175.486923 
L 113.960578 161.822392 
L 120.460169 149.861312 
L 126.63478 138.949753 
L 132.484411 129.054221 
L 138.009063 120.132226 
L 143.208736 112.134439 
L 148.408408 104.544617 
L 153.283101 97.816771 
L 158.157794 91.479349 
L 162.707507 85.929121 
L 167.257221 80.742042 
L 171.481954 76.259433 
L 175.706688 72.106114 
L 179.606442 68.57056 
L 183.506197 65.326537 
L 187.405951 62.378665 
L 190.980726 59.940202 
L 194.555501 57.757037 
L 198.130275 55.831782 
L 201.70505 54.166742 
L 205.279825 52.763907 
L 208.52962 51.717556 
L 211.779415 50.89033 
L 215.029211 50.283046 
L 218.279006 49.896307 
L 221.528801 49.730493 
L 224.778596 49.785768 
L 228.028392 50.06208 
L 231.278187 50.559153 
L 234.527982 51.276496 
L 237.777777 52.213401 
L 241.027573 53.36894 
L 244.602347 54.891186 
L 248.177122 56.674772 
L 251.751897 58.717562 
L 255.326672 61.017114 
L 258.901447 63.570676 
L 262.801201 66.642478 
L 266.700955 70.008557 
L 270.600709 73.664121 
L 274.825443 77.944942 
L 279.050177 82.552235 
L 283.274911 87.478302 
L 287.824624 93.130341 
L 292.374338 99.131573 
L 297.249031 105.935735 
L 302.123723 113.112258 
L 307.323396 121.159637 
L 312.848048 130.131472 
L 318.697679 140.076418 
L 324.87229 151.036218 
L 331.371881 163.043545 
L 338.196451 176.119662 
L 345.67098 190.92517 
L 354.120447 208.176454 
L 363.869833 228.615069 
L 376.544035 255.751931 
L 384.668523 273.312 
L 384.668523 273.312 
" style="fill:none;stroke:#ff7f0e;stroke-linecap:square;stroke-width:1.5;"/>
   </g>
   <g id="patch_203">
    <path d="M 43.78125 273.312 
L 43.78125 7.2 
" style="fill:none;stroke:#000000;stroke-linecap:square;stroke-linejoin:miter;stroke-width:0.8;"/>
   </g>
   <g id="patch_204">
    <path d="M 400.90125 273.312 
L 400.90125 7.2 
" style="fill:none;stroke:#000000;stroke-linecap:square;stroke-linejoin:miter;stroke-width:0.8;"/>
   </g>
   <g id="patch_205">
    <path d="M 43.78125 273.312 
L 400.90125 273.312 
" style="fill:none;stroke:#000000;stroke-linecap:square;stroke-linejoin:miter;stroke-width:0.8;"/>
   </g>
   <g id="patch_206">
    <path d="M 43.78125 7.2 
L 400.90125 7.2 
" style="fill:none;stroke:#000000;stroke-linecap:square;stroke-linejoin:miter;stroke-width:0.8;"/>
   </g>
  </g>
 </g>
 <defs>
  <clipPath id="p70b52f7822">
   <rect height="266.112" width="357.12" x="43.78125" y="7.2"/>
  </clipPath>
 </defs>
</svg>
