<?xml version="1.0" encoding="utf-8" standalone="no"?>
<!DOCTYPE svg PUBLIC "-//W3C//DTD SVG 1.1//EN"
  "http://www.w3.org/Graphics/SVG/1.1/DTD/svg11.dtd">
<svg height="310.86825pt" version="1.1" viewBox="0 0 414.46375 310.86825" width="414.46375pt" xmlns="http://www.w3.org/2000/svg" xmlns:xlink="http://www.w3.org/1999/xlink">
 <metadata>
  <rdf:RDF xmlns:cc="http://creativecommons.org/ns#" xmlns:dc="http://purl.org/dc/elements/1.1/" xmlns:rdf="http://www.w3.org/1999/02/22-rdf-syntax-ns#">
   <cc:Work>
    <dc:type rdf:resource="http://purl.org/dc/dcmitype/StillImage"/>
    <dc:date>2021-09-26T01:33:01.335624</dc:date>
    <dc:format>image/svg+xml</dc:format>
    <dc:creator>
     <cc:Agent>
      <dc:title>Matplotlib v3.4.3, https://matplotlib.org/</dc:title>
     </cc:Agent>
    </dc:creator>
   </cc:Work>
  </rdf:RDF>
 </metadata>
 <defs>
  <style type="text/css">*{stroke-linecap:butt;stroke-linejoin:round;}</style>
 </defs>
 <g id="figure_1">
  <g id="patch_1">
   <path d="M 0 310.86825 
L 414.46375 310.86825 
L 414.46375 0 
L 0 0 
z
" style="fill:#ffffff;"/>
  </g>
  <g id="axes_1">
   <g id="patch_2">
    <path d="M 50.14375 273.312 
L 407.26375 273.312 
L 407.26375 7.2 
L 50.14375 7.2 
z
" style="fill:#ffffff;"/>
   </g>
   <g id="patch_3">
    <path clip-path="url(#pfbd4b20d51)" d="M 67.482207 273.312 
L 69.099949 273.312 
L 69.099949 272.060444 
L 67.482207 272.060444 
z
" style="fill:#1f77b4;"/>
   </g>
   <g id="patch_4">
    <path clip-path="url(#pfbd4b20d51)" d="M 69.099949 273.312 
L 70.717691 273.312 
L 70.717691 271.434667 
L 69.099949 271.434667 
z
" style="fill:#1f77b4;"/>
   </g>
   <g id="patch_5">
    <path clip-path="url(#pfbd4b20d51)" d="M 70.717691 273.312 
L 72.335434 273.312 
L 72.335434 270.183111 
L 70.717691 270.183111 
z
" style="fill:#1f77b4;"/>
   </g>
   <g id="patch_6">
    <path clip-path="url(#pfbd4b20d51)" d="M 72.335434 273.312 
L 73.953176 273.312 
L 73.953176 270.183111 
L 72.335434 270.183111 
z
" style="fill:#1f77b4;"/>
   </g>
   <g id="patch_7">
    <path clip-path="url(#pfbd4b20d51)" d="M 73.953176 273.312 
L 75.570918 273.312 
L 75.570918 266.428444 
L 73.953176 266.428444 
z
" style="fill:#1f77b4;"/>
   </g>
   <g id="patch_8">
    <path clip-path="url(#pfbd4b20d51)" d="M 75.570918 273.312 
L 77.188661 273.312 
L 77.188661 265.802667 
L 75.570918 265.802667 
z
" style="fill:#1f77b4;"/>
   </g>
   <g id="patch_9">
    <path clip-path="url(#pfbd4b20d51)" d="M 77.188661 273.312 
L 78.806403 273.312 
L 78.806403 263.925333 
L 77.188661 263.925333 
z
" style="fill:#1f77b4;"/>
   </g>
   <g id="patch_10">
    <path clip-path="url(#pfbd4b20d51)" d="M 78.806403 273.312 
L 80.424145 273.312 
L 80.424145 261.422222 
L 78.806403 261.422222 
z
" style="fill:#1f77b4;"/>
   </g>
   <g id="patch_11">
    <path clip-path="url(#pfbd4b20d51)" d="M 80.424145 273.312 
L 82.041888 273.312 
L 82.041888 257.667556 
L 80.424145 257.667556 
z
" style="fill:#1f77b4;"/>
   </g>
   <g id="patch_12">
    <path clip-path="url(#pfbd4b20d51)" d="M 82.041888 273.312 
L 83.65963 273.312 
L 83.65963 261.422222 
L 82.041888 261.422222 
z
" style="fill:#1f77b4;"/>
   </g>
   <g id="patch_13">
    <path clip-path="url(#pfbd4b20d51)" d="M 83.65963 273.312 
L 85.277373 273.312 
L 85.277373 260.170667 
L 83.65963 260.170667 
z
" style="fill:#1f77b4;"/>
   </g>
   <g id="patch_14">
    <path clip-path="url(#pfbd4b20d51)" d="M 85.277373 273.312 
L 86.895115 273.312 
L 86.895115 256.416 
L 85.277373 256.416 
z
" style="fill:#1f77b4;"/>
   </g>
   <g id="patch_15">
    <path clip-path="url(#pfbd4b20d51)" d="M 86.895115 273.312 
L 88.512857 273.312 
L 88.512857 257.041778 
L 86.895115 257.041778 
z
" style="fill:#1f77b4;"/>
   </g>
   <g id="patch_16">
    <path clip-path="url(#pfbd4b20d51)" d="M 88.512857 273.312 
L 90.1306 273.312 
L 90.1306 256.416 
L 88.512857 256.416 
z
" style="fill:#1f77b4;"/>
   </g>
   <g id="patch_17">
    <path clip-path="url(#pfbd4b20d51)" d="M 90.1306 273.312 
L 91.748342 273.312 
L 91.748342 255.790222 
L 90.1306 255.790222 
z
" style="fill:#1f77b4;"/>
   </g>
   <g id="patch_18">
    <path clip-path="url(#pfbd4b20d51)" d="M 91.748342 273.312 
L 93.366084 273.312 
L 93.366084 252.661333 
L 91.748342 252.661333 
z
" style="fill:#1f77b4;"/>
   </g>
   <g id="patch_19">
    <path clip-path="url(#pfbd4b20d51)" d="M 93.366084 273.312 
L 94.983827 273.312 
L 94.983827 249.532444 
L 93.366084 249.532444 
z
" style="fill:#1f77b4;"/>
   </g>
   <g id="patch_20">
    <path clip-path="url(#pfbd4b20d51)" d="M 94.983827 273.312 
L 96.601569 273.312 
L 96.601569 250.158222 
L 94.983827 250.158222 
z
" style="fill:#1f77b4;"/>
   </g>
   <g id="patch_21">
    <path clip-path="url(#pfbd4b20d51)" d="M 96.601569 273.312 
L 98.219311 273.312 
L 98.219311 250.158222 
L 96.601569 250.158222 
z
" style="fill:#1f77b4;"/>
   </g>
   <g id="patch_22">
    <path clip-path="url(#pfbd4b20d51)" d="M 98.219311 273.312 
L 99.837054 273.312 
L 99.837054 252.035556 
L 98.219311 252.035556 
z
" style="fill:#1f77b4;"/>
   </g>
   <g id="patch_23">
    <path clip-path="url(#pfbd4b20d51)" d="M 99.837054 273.312 
L 101.454796 273.312 
L 101.454796 241.397333 
L 99.837054 241.397333 
z
" style="fill:#1f77b4;"/>
   </g>
   <g id="patch_24">
    <path clip-path="url(#pfbd4b20d51)" d="M 101.454796 273.312 
L 103.072538 273.312 
L 103.072538 239.52 
L 101.454796 239.52 
z
" style="fill:#1f77b4;"/>
   </g>
   <g id="patch_25">
    <path clip-path="url(#pfbd4b20d51)" d="M 103.072538 273.312 
L 104.690281 273.312 
L 104.690281 248.280889 
L 103.072538 248.280889 
z
" style="fill:#1f77b4;"/>
   </g>
   <g id="patch_26">
    <path clip-path="url(#pfbd4b20d51)" d="M 104.690281 273.312 
L 106.308023 273.312 
L 106.308023 238.268444 
L 104.690281 238.268444 
z
" style="fill:#1f77b4;"/>
   </g>
   <g id="patch_27">
    <path clip-path="url(#pfbd4b20d51)" d="M 106.308023 273.312 
L 107.925765 273.312 
L 107.925765 243.900444 
L 106.308023 243.900444 
z
" style="fill:#1f77b4;"/>
   </g>
   <g id="patch_28">
    <path clip-path="url(#pfbd4b20d51)" d="M 107.925765 273.312 
L 109.543508 273.312 
L 109.543508 242.023111 
L 107.925765 242.023111 
z
" style="fill:#1f77b4;"/>
   </g>
   <g id="patch_29">
    <path clip-path="url(#pfbd4b20d51)" d="M 109.543508 273.312 
L 111.16125 273.312 
L 111.16125 243.274667 
L 109.543508 243.274667 
z
" style="fill:#1f77b4;"/>
   </g>
   <g id="patch_30">
    <path clip-path="url(#pfbd4b20d51)" d="M 111.16125 273.312 
L 112.778992 273.312 
L 112.778992 232.636444 
L 111.16125 232.636444 
z
" style="fill:#1f77b4;"/>
   </g>
   <g id="patch_31">
    <path clip-path="url(#pfbd4b20d51)" d="M 112.778992 273.312 
L 114.396735 273.312 
L 114.396735 238.894222 
L 112.778992 238.894222 
z
" style="fill:#1f77b4;"/>
   </g>
   <g id="patch_32">
    <path clip-path="url(#pfbd4b20d51)" d="M 114.396735 273.312 
L 116.014477 273.312 
L 116.014477 230.133333 
L 114.396735 230.133333 
z
" style="fill:#1f77b4;"/>
   </g>
   <g id="patch_33">
    <path clip-path="url(#pfbd4b20d51)" d="M 116.014477 273.312 
L 117.63222 273.312 
L 117.63222 233.262222 
L 116.014477 233.262222 
z
" style="fill:#1f77b4;"/>
   </g>
   <g id="patch_34">
    <path clip-path="url(#pfbd4b20d51)" d="M 117.63222 273.312 
L 119.249962 273.312 
L 119.249962 233.888 
L 117.63222 233.888 
z
" style="fill:#1f77b4;"/>
   </g>
   <g id="patch_35">
    <path clip-path="url(#pfbd4b20d51)" d="M 119.249962 273.312 
L 120.867704 273.312 
L 120.867704 228.881778 
L 119.249962 228.881778 
z
" style="fill:#1f77b4;"/>
   </g>
   <g id="patch_36">
    <path clip-path="url(#pfbd4b20d51)" d="M 120.867704 273.312 
L 122.485447 273.312 
L 122.485447 243.274667 
L 120.867704 243.274667 
z
" style="fill:#1f77b4;"/>
   </g>
   <g id="patch_37">
    <path clip-path="url(#pfbd4b20d51)" d="M 122.485447 273.312 
L 124.103189 273.312 
L 124.103189 234.513778 
L 122.485447 234.513778 
z
" style="fill:#1f77b4;"/>
   </g>
   <g id="patch_38">
    <path clip-path="url(#pfbd4b20d51)" d="M 124.103189 273.312 
L 125.720931 273.312 
L 125.720931 225.127111 
L 124.103189 225.127111 
z
" style="fill:#1f77b4;"/>
   </g>
   <g id="patch_39">
    <path clip-path="url(#pfbd4b20d51)" d="M 125.720931 273.312 
L 127.338674 273.312 
L 127.338674 233.262222 
L 125.720931 233.262222 
z
" style="fill:#1f77b4;"/>
   </g>
   <g id="patch_40">
    <path clip-path="url(#pfbd4b20d51)" d="M 127.338674 273.312 
L 128.956416 273.312 
L 128.956416 232.010667 
L 127.338674 232.010667 
z
" style="fill:#1f77b4;"/>
   </g>
   <g id="patch_41">
    <path clip-path="url(#pfbd4b20d51)" d="M 128.956416 273.312 
L 130.574158 273.312 
L 130.574158 228.881778 
L 128.956416 228.881778 
z
" style="fill:#1f77b4;"/>
   </g>
   <g id="patch_42">
    <path clip-path="url(#pfbd4b20d51)" d="M 130.574158 273.312 
L 132.191901 273.312 
L 132.191901 230.133333 
L 130.574158 230.133333 
z
" style="fill:#1f77b4;"/>
   </g>
   <g id="patch_43">
    <path clip-path="url(#pfbd4b20d51)" d="M 132.191901 273.312 
L 133.809643 273.312 
L 133.809643 217.617778 
L 132.191901 217.617778 
z
" style="fill:#1f77b4;"/>
   </g>
   <g id="patch_44">
    <path clip-path="url(#pfbd4b20d51)" d="M 133.809643 273.312 
L 135.427385 273.312 
L 135.427385 230.759111 
L 133.809643 230.759111 
z
" style="fill:#1f77b4;"/>
   </g>
   <g id="patch_45">
    <path clip-path="url(#pfbd4b20d51)" d="M 135.427385 273.312 
L 137.045128 273.312 
L 137.045128 207.605333 
L 135.427385 207.605333 
z
" style="fill:#1f77b4;"/>
   </g>
   <g id="patch_46">
    <path clip-path="url(#pfbd4b20d51)" d="M 137.045128 273.312 
L 138.66287 273.312 
L 138.66287 221.998222 
L 137.045128 221.998222 
z
" style="fill:#1f77b4;"/>
   </g>
   <g id="patch_47">
    <path clip-path="url(#pfbd4b20d51)" d="M 138.66287 273.312 
L 140.280612 273.312 
L 140.280612 225.752889 
L 138.66287 225.752889 
z
" style="fill:#1f77b4;"/>
   </g>
   <g id="patch_48">
    <path clip-path="url(#pfbd4b20d51)" d="M 140.280612 273.312 
L 141.898355 273.312 
L 141.898355 224.501333 
L 140.280612 224.501333 
z
" style="fill:#1f77b4;"/>
   </g>
   <g id="patch_49">
    <path clip-path="url(#pfbd4b20d51)" d="M 141.898355 273.312 
L 143.516097 273.312 
L 143.516097 209.482667 
L 141.898355 209.482667 
z
" style="fill:#1f77b4;"/>
   </g>
   <g id="patch_50">
    <path clip-path="url(#pfbd4b20d51)" d="M 143.516097 273.312 
L 145.133839 273.312 
L 145.133839 211.36 
L 143.516097 211.36 
z
" style="fill:#1f77b4;"/>
   </g>
   <g id="patch_51">
    <path clip-path="url(#pfbd4b20d51)" d="M 145.133839 273.312 
L 146.751582 273.312 
L 146.751582 208.231111 
L 145.133839 208.231111 
z
" style="fill:#1f77b4;"/>
   </g>
   <g id="patch_52">
    <path clip-path="url(#pfbd4b20d51)" d="M 146.751582 273.312 
L 148.369324 273.312 
L 148.369324 218.243556 
L 146.751582 218.243556 
z
" style="fill:#1f77b4;"/>
   </g>
   <g id="patch_53">
    <path clip-path="url(#pfbd4b20d51)" d="M 148.369324 273.312 
L 149.987067 273.312 
L 149.987067 210.108444 
L 148.369324 210.108444 
z
" style="fill:#1f77b4;"/>
   </g>
   <g id="patch_54">
    <path clip-path="url(#pfbd4b20d51)" d="M 149.987067 273.312 
L 151.604809 273.312 
L 151.604809 191.335111 
L 149.987067 191.335111 
z
" style="fill:#1f77b4;"/>
   </g>
   <g id="patch_55">
    <path clip-path="url(#pfbd4b20d51)" d="M 151.604809 273.312 
L 153.222551 273.312 
L 153.222551 207.605333 
L 151.604809 207.605333 
z
" style="fill:#1f77b4;"/>
   </g>
   <g id="patch_56">
    <path clip-path="url(#pfbd4b20d51)" d="M 153.222551 273.312 
L 154.840294 273.312 
L 154.840294 213.237333 
L 153.222551 213.237333 
z
" style="fill:#1f77b4;"/>
   </g>
   <g id="patch_57">
    <path clip-path="url(#pfbd4b20d51)" d="M 154.840294 273.312 
L 156.458036 273.312 
L 156.458036 206.979556 
L 154.840294 206.979556 
z
" style="fill:#1f77b4;"/>
   </g>
   <g id="patch_58">
    <path clip-path="url(#pfbd4b20d51)" d="M 156.458036 273.312 
L 158.075778 273.312 
L 158.075778 196.967111 
L 156.458036 196.967111 
z
" style="fill:#1f77b4;"/>
   </g>
   <g id="patch_59">
    <path clip-path="url(#pfbd4b20d51)" d="M 158.075778 273.312 
L 159.693521 273.312 
L 159.693521 201.973333 
L 158.075778 201.973333 
z
" style="fill:#1f77b4;"/>
   </g>
   <g id="patch_60">
    <path clip-path="url(#pfbd4b20d51)" d="M 159.693521 273.312 
L 161.311263 273.312 
L 161.311263 203.850667 
L 159.693521 203.850667 
z
" style="fill:#1f77b4;"/>
   </g>
   <g id="patch_61">
    <path clip-path="url(#pfbd4b20d51)" d="M 161.311263 273.312 
L 162.929005 273.312 
L 162.929005 194.464 
L 161.311263 194.464 
z
" style="fill:#1f77b4;"/>
   </g>
   <g id="patch_62">
    <path clip-path="url(#pfbd4b20d51)" d="M 162.929005 273.312 
L 164.546748 273.312 
L 164.546748 205.102222 
L 162.929005 205.102222 
z
" style="fill:#1f77b4;"/>
   </g>
   <g id="patch_63">
    <path clip-path="url(#pfbd4b20d51)" d="M 164.546748 273.312 
L 166.16449 273.312 
L 166.16449 206.979556 
L 164.546748 206.979556 
z
" style="fill:#1f77b4;"/>
   </g>
   <g id="patch_64">
    <path clip-path="url(#pfbd4b20d51)" d="M 166.16449 273.312 
L 167.782232 273.312 
L 167.782232 208.231111 
L 166.16449 208.231111 
z
" style="fill:#1f77b4;"/>
   </g>
   <g id="patch_65">
    <path clip-path="url(#pfbd4b20d51)" d="M 167.782232 273.312 
L 169.399975 273.312 
L 169.399975 209.482667 
L 167.782232 209.482667 
z
" style="fill:#1f77b4;"/>
   </g>
   <g id="patch_66">
    <path clip-path="url(#pfbd4b20d51)" d="M 169.399975 273.312 
L 171.017717 273.312 
L 171.017717 195.715556 
L 169.399975 195.715556 
z
" style="fill:#1f77b4;"/>
   </g>
   <g id="patch_67">
    <path clip-path="url(#pfbd4b20d51)" d="M 171.017717 273.312 
L 172.635459 273.312 
L 172.635459 199.470222 
L 171.017717 199.470222 
z
" style="fill:#1f77b4;"/>
   </g>
   <g id="patch_68">
    <path clip-path="url(#pfbd4b20d51)" d="M 172.635459 273.312 
L 174.253202 273.312 
L 174.253202 194.464 
L 172.635459 194.464 
z
" style="fill:#1f77b4;"/>
   </g>
   <g id="patch_69">
    <path clip-path="url(#pfbd4b20d51)" d="M 174.253202 273.312 
L 175.870944 273.312 
L 175.870944 194.464 
L 174.253202 194.464 
z
" style="fill:#1f77b4;"/>
   </g>
   <g id="patch_70">
    <path clip-path="url(#pfbd4b20d51)" d="M 175.870944 273.312 
L 177.488687 273.312 
L 177.488687 190.709333 
L 175.870944 190.709333 
z
" style="fill:#1f77b4;"/>
   </g>
   <g id="patch_71">
    <path clip-path="url(#pfbd4b20d51)" d="M 177.488687 273.312 
L 179.106429 273.312 
L 179.106429 176.316444 
L 177.488687 176.316444 
z
" style="fill:#1f77b4;"/>
   </g>
   <g id="patch_72">
    <path clip-path="url(#pfbd4b20d51)" d="M 179.106429 273.312 
L 180.724171 273.312 
L 180.724171 188.206222 
L 179.106429 188.206222 
z
" style="fill:#1f77b4;"/>
   </g>
   <g id="patch_73">
    <path clip-path="url(#pfbd4b20d51)" d="M 180.724171 273.312 
L 182.341914 273.312 
L 182.341914 181.322667 
L 180.724171 181.322667 
z
" style="fill:#1f77b4;"/>
   </g>
   <g id="patch_74">
    <path clip-path="url(#pfbd4b20d51)" d="M 182.341914 273.312 
L 183.959656 273.312 
L 183.959656 183.825778 
L 182.341914 183.825778 
z
" style="fill:#1f77b4;"/>
   </g>
   <g id="patch_75">
    <path clip-path="url(#pfbd4b20d51)" d="M 183.959656 273.312 
L 185.577398 273.312 
L 185.577398 184.451556 
L 183.959656 184.451556 
z
" style="fill:#1f77b4;"/>
   </g>
   <g id="patch_76">
    <path clip-path="url(#pfbd4b20d51)" d="M 185.577398 273.312 
L 187.195141 273.312 
L 187.195141 186.328889 
L 185.577398 186.328889 
z
" style="fill:#1f77b4;"/>
   </g>
   <g id="patch_77">
    <path clip-path="url(#pfbd4b20d51)" d="M 187.195141 273.312 
L 188.812883 273.312 
L 188.812883 164.426667 
L 187.195141 164.426667 
z
" style="fill:#1f77b4;"/>
   </g>
   <g id="patch_78">
    <path clip-path="url(#pfbd4b20d51)" d="M 188.812883 273.312 
L 190.430625 273.312 
L 190.430625 183.825778 
L 188.812883 183.825778 
z
" style="fill:#1f77b4;"/>
   </g>
   <g id="patch_79">
    <path clip-path="url(#pfbd4b20d51)" d="M 190.430625 273.312 
L 192.048368 273.312 
L 192.048368 181.322667 
L 190.430625 181.322667 
z
" style="fill:#1f77b4;"/>
   </g>
   <g id="patch_80">
    <path clip-path="url(#pfbd4b20d51)" d="M 192.048368 273.312 
L 193.66611 273.312 
L 193.66611 182.574222 
L 192.048368 182.574222 
z
" style="fill:#1f77b4;"/>
   </g>
   <g id="patch_81">
    <path clip-path="url(#pfbd4b20d51)" d="M 193.66611 273.312 
L 195.283852 273.312 
L 195.283852 155.665778 
L 193.66611 155.665778 
z
" style="fill:#1f77b4;"/>
   </g>
   <g id="patch_82">
    <path clip-path="url(#pfbd4b20d51)" d="M 195.283852 273.312 
L 196.901595 273.312 
L 196.901595 180.696889 
L 195.283852 180.696889 
z
" style="fill:#1f77b4;"/>
   </g>
   <g id="patch_83">
    <path clip-path="url(#pfbd4b20d51)" d="M 196.901595 273.312 
L 198.519337 273.312 
L 198.519337 166.929778 
L 196.901595 166.929778 
z
" style="fill:#1f77b4;"/>
   </g>
   <g id="patch_84">
    <path clip-path="url(#pfbd4b20d51)" d="M 198.519337 273.312 
L 200.137079 273.312 
L 200.137079 168.181333 
L 198.519337 168.181333 
z
" style="fill:#1f77b4;"/>
   </g>
   <g id="patch_85">
    <path clip-path="url(#pfbd4b20d51)" d="M 200.137079 273.312 
L 201.754822 273.312 
L 201.754822 161.297778 
L 200.137079 161.297778 
z
" style="fill:#1f77b4;"/>
   </g>
   <g id="patch_86">
    <path clip-path="url(#pfbd4b20d51)" d="M 201.754822 273.312 
L 203.372564 273.312 
L 203.372564 164.426667 
L 201.754822 164.426667 
z
" style="fill:#1f77b4;"/>
   </g>
   <g id="patch_87">
    <path clip-path="url(#pfbd4b20d51)" d="M 203.372564 273.312 
L 204.990306 273.312 
L 204.990306 159.420444 
L 203.372564 159.420444 
z
" style="fill:#1f77b4;"/>
   </g>
   <g id="patch_88">
    <path clip-path="url(#pfbd4b20d51)" d="M 204.990306 273.312 
L 206.608049 273.312 
L 206.608049 161.923556 
L 204.990306 161.923556 
z
" style="fill:#1f77b4;"/>
   </g>
   <g id="patch_89">
    <path clip-path="url(#pfbd4b20d51)" d="M 206.608049 273.312 
L 208.225791 273.312 
L 208.225791 157.543111 
L 206.608049 157.543111 
z
" style="fill:#1f77b4;"/>
   </g>
   <g id="patch_90">
    <path clip-path="url(#pfbd4b20d51)" d="M 208.225791 273.312 
L 209.843534 273.312 
L 209.843534 160.046222 
L 208.225791 160.046222 
z
" style="fill:#1f77b4;"/>
   </g>
   <g id="patch_91">
    <path clip-path="url(#pfbd4b20d51)" d="M 209.843534 273.312 
L 211.461276 273.312 
L 211.461276 162.549333 
L 209.843534 162.549333 
z
" style="fill:#1f77b4;"/>
   </g>
   <g id="patch_92">
    <path clip-path="url(#pfbd4b20d51)" d="M 211.461276 273.312 
L 213.079018 273.312 
L 213.079018 153.162667 
L 211.461276 153.162667 
z
" style="fill:#1f77b4;"/>
   </g>
   <g id="patch_93">
    <path clip-path="url(#pfbd4b20d51)" d="M 213.079018 273.312 
L 214.696761 273.312 
L 214.696761 151.911111 
L 213.079018 151.911111 
z
" style="fill:#1f77b4;"/>
   </g>
   <g id="patch_94">
    <path clip-path="url(#pfbd4b20d51)" d="M 214.696761 273.312 
L 216.314503 273.312 
L 216.314503 144.401778 
L 214.696761 144.401778 
z
" style="fill:#1f77b4;"/>
   </g>
   <g id="patch_95">
    <path clip-path="url(#pfbd4b20d51)" d="M 216.314503 273.312 
L 217.932245 273.312 
L 217.932245 155.04 
L 216.314503 155.04 
z
" style="fill:#1f77b4;"/>
   </g>
   <g id="patch_96">
    <path clip-path="url(#pfbd4b20d51)" d="M 217.932245 273.312 
L 219.549988 273.312 
L 219.549988 153.788444 
L 217.932245 153.788444 
z
" style="fill:#1f77b4;"/>
   </g>
   <g id="patch_97">
    <path clip-path="url(#pfbd4b20d51)" d="M 219.549988 273.312 
L 221.16773 273.312 
L 221.16773 141.272889 
L 219.549988 141.272889 
z
" style="fill:#1f77b4;"/>
   </g>
   <g id="patch_98">
    <path clip-path="url(#pfbd4b20d51)" d="M 221.16773 273.312 
L 222.785472 273.312 
L 222.785472 148.156444 
L 221.16773 148.156444 
z
" style="fill:#1f77b4;"/>
   </g>
   <g id="patch_99">
    <path clip-path="url(#pfbd4b20d51)" d="M 222.785472 273.312 
L 224.403215 273.312 
L 224.403215 160.672 
L 222.785472 160.672 
z
" style="fill:#1f77b4;"/>
   </g>
   <g id="patch_100">
    <path clip-path="url(#pfbd4b20d51)" d="M 224.403215 273.312 
L 226.020957 273.312 
L 226.020957 154.414222 
L 224.403215 154.414222 
z
" style="fill:#1f77b4;"/>
   </g>
   <g id="patch_101">
    <path clip-path="url(#pfbd4b20d51)" d="M 226.020957 273.312 
L 227.638699 273.312 
L 227.638699 166.304 
L 226.020957 166.304 
z
" style="fill:#1f77b4;"/>
   </g>
   <g id="patch_102">
    <path clip-path="url(#pfbd4b20d51)" d="M 227.638699 273.312 
L 229.256442 273.312 
L 229.256442 135.015111 
L 227.638699 135.015111 
z
" style="fill:#1f77b4;"/>
   </g>
   <g id="patch_103">
    <path clip-path="url(#pfbd4b20d51)" d="M 229.256442 273.312 
L 230.874184 273.312 
L 230.874184 150.033778 
L 229.256442 150.033778 
z
" style="fill:#1f77b4;"/>
   </g>
   <g id="patch_104">
    <path clip-path="url(#pfbd4b20d51)" d="M 230.874184 273.312 
L 232.491926 273.312 
L 232.491926 149.408 
L 230.874184 149.408 
z
" style="fill:#1f77b4;"/>
   </g>
   <g id="patch_105">
    <path clip-path="url(#pfbd4b20d51)" d="M 232.491926 273.312 
L 234.109669 273.312 
L 234.109669 169.432889 
L 232.491926 169.432889 
z
" style="fill:#1f77b4;"/>
   </g>
   <g id="patch_106">
    <path clip-path="url(#pfbd4b20d51)" d="M 234.109669 273.312 
L 235.727411 273.312 
L 235.727411 155.665778 
L 234.109669 155.665778 
z
" style="fill:#1f77b4;"/>
   </g>
   <g id="patch_107">
    <path clip-path="url(#pfbd4b20d51)" d="M 235.727411 273.312 
L 237.345153 273.312 
L 237.345153 141.272889 
L 235.727411 141.272889 
z
" style="fill:#1f77b4;"/>
   </g>
   <g id="patch_108">
    <path clip-path="url(#pfbd4b20d51)" d="M 237.345153 273.312 
L 238.962896 273.312 
L 238.962896 147.530667 
L 237.345153 147.530667 
z
" style="fill:#1f77b4;"/>
   </g>
   <g id="patch_109">
    <path clip-path="url(#pfbd4b20d51)" d="M 238.962896 273.312 
L 240.580638 273.312 
L 240.580638 155.665778 
L 238.962896 155.665778 
z
" style="fill:#1f77b4;"/>
   </g>
   <g id="patch_110">
    <path clip-path="url(#pfbd4b20d51)" d="M 240.580638 273.312 
L 242.198381 273.312 
L 242.198381 127.505778 
L 240.580638 127.505778 
z
" style="fill:#1f77b4;"/>
   </g>
   <g id="patch_111">
    <path clip-path="url(#pfbd4b20d51)" d="M 242.198381 273.312 
L 243.816123 273.312 
L 243.816123 135.015111 
L 242.198381 135.015111 
z
" style="fill:#1f77b4;"/>
   </g>
   <g id="patch_112">
    <path clip-path="url(#pfbd4b20d51)" d="M 243.816123 273.312 
L 245.433865 273.312 
L 245.433865 155.04 
L 243.816123 155.04 
z
" style="fill:#1f77b4;"/>
   </g>
   <g id="patch_113">
    <path clip-path="url(#pfbd4b20d51)" d="M 245.433865 273.312 
L 247.051608 273.312 
L 247.051608 121.873778 
L 245.433865 121.873778 
z
" style="fill:#1f77b4;"/>
   </g>
   <g id="patch_114">
    <path clip-path="url(#pfbd4b20d51)" d="M 247.051608 273.312 
L 248.66935 273.312 
L 248.66935 145.653333 
L 247.051608 145.653333 
z
" style="fill:#1f77b4;"/>
   </g>
   <g id="patch_115">
    <path clip-path="url(#pfbd4b20d51)" d="M 248.66935 273.312 
L 250.287092 273.312 
L 250.287092 149.408 
L 248.66935 149.408 
z
" style="fill:#1f77b4;"/>
   </g>
   <g id="patch_116">
    <path clip-path="url(#pfbd4b20d51)" d="M 250.287092 273.312 
L 251.904835 273.312 
L 251.904835 118.744889 
L 250.287092 118.744889 
z
" style="fill:#1f77b4;"/>
   </g>
   <g id="patch_117">
    <path clip-path="url(#pfbd4b20d51)" d="M 251.904835 273.312 
L 253.522577 273.312 
L 253.522577 140.021333 
L 251.904835 140.021333 
z
" style="fill:#1f77b4;"/>
   </g>
   <g id="patch_118">
    <path clip-path="url(#pfbd4b20d51)" d="M 253.522577 273.312 
L 255.140319 273.312 
L 255.140319 125.628444 
L 253.522577 125.628444 
z
" style="fill:#1f77b4;"/>
   </g>
   <g id="patch_119">
    <path clip-path="url(#pfbd4b20d51)" d="M 255.140319 273.312 
L 256.758062 273.312 
L 256.758062 131.260444 
L 255.140319 131.260444 
z
" style="fill:#1f77b4;"/>
   </g>
   <g id="patch_120">
    <path clip-path="url(#pfbd4b20d51)" d="M 256.758062 273.312 
L 258.375804 273.312 
L 258.375804 120.622222 
L 256.758062 120.622222 
z
" style="fill:#1f77b4;"/>
   </g>
   <g id="patch_121">
    <path clip-path="url(#pfbd4b20d51)" d="M 258.375804 273.312 
L 259.993546 273.312 
L 259.993546 140.647111 
L 258.375804 140.647111 
z
" style="fill:#1f77b4;"/>
   </g>
   <g id="patch_122">
    <path clip-path="url(#pfbd4b20d51)" d="M 259.993546 273.312 
L 261.611289 273.312 
L 261.611289 133.763556 
L 259.993546 133.763556 
z
" style="fill:#1f77b4;"/>
   </g>
   <g id="patch_123">
    <path clip-path="url(#pfbd4b20d51)" d="M 261.611289 273.312 
L 263.229031 273.312 
L 263.229031 121.873778 
L 261.611289 121.873778 
z
" style="fill:#1f77b4;"/>
   </g>
   <g id="patch_124">
    <path clip-path="url(#pfbd4b20d51)" d="M 263.229031 273.312 
L 264.846773 273.312 
L 264.846773 114.364444 
L 263.229031 114.364444 
z
" style="fill:#1f77b4;"/>
   </g>
   <g id="patch_125">
    <path clip-path="url(#pfbd4b20d51)" d="M 264.846773 273.312 
L 266.464516 273.312 
L 266.464516 134.389333 
L 264.846773 134.389333 
z
" style="fill:#1f77b4;"/>
   </g>
   <g id="patch_126">
    <path clip-path="url(#pfbd4b20d51)" d="M 266.464516 273.312 
L 268.082258 273.312 
L 268.082258 114.990222 
L 266.464516 114.990222 
z
" style="fill:#1f77b4;"/>
   </g>
   <g id="patch_127">
    <path clip-path="url(#pfbd4b20d51)" d="M 268.082258 273.312 
L 269.7 273.312 
L 269.7 100.597333 
L 268.082258 100.597333 
z
" style="fill:#1f77b4;"/>
   </g>
   <g id="patch_128">
    <path clip-path="url(#pfbd4b20d51)" d="M 269.7 273.312 
L 271.317743 273.312 
L 271.317743 125.002667 
L 269.7 125.002667 
z
" style="fill:#1f77b4;"/>
   </g>
   <g id="patch_129">
    <path clip-path="url(#pfbd4b20d51)" d="M 271.317743 273.312 
L 272.935485 273.312 
L 272.935485 110.609778 
L 271.317743 110.609778 
z
" style="fill:#1f77b4;"/>
   </g>
   <g id="patch_130">
    <path clip-path="url(#pfbd4b20d51)" d="M 272.935485 273.312 
L 274.553228 273.312 
L 274.553228 113.738667 
L 272.935485 113.738667 
z
" style="fill:#1f77b4;"/>
   </g>
   <g id="patch_131">
    <path clip-path="url(#pfbd4b20d51)" d="M 274.553228 273.312 
L 276.17097 273.312 
L 276.17097 116.241778 
L 274.553228 116.241778 
z
" style="fill:#1f77b4;"/>
   </g>
   <g id="patch_132">
    <path clip-path="url(#pfbd4b20d51)" d="M 276.17097 273.312 
L 277.788712 273.312 
L 277.788712 106.229333 
L 276.17097 106.229333 
z
" style="fill:#1f77b4;"/>
   </g>
   <g id="patch_133">
    <path clip-path="url(#pfbd4b20d51)" d="M 277.788712 273.312 
L 279.406455 273.312 
L 279.406455 109.984 
L 277.788712 109.984 
z
" style="fill:#1f77b4;"/>
   </g>
   <g id="patch_134">
    <path clip-path="url(#pfbd4b20d51)" d="M 279.406455 273.312 
L 281.024197 273.312 
L 281.024197 116.867556 
L 279.406455 116.867556 
z
" style="fill:#1f77b4;"/>
   </g>
   <g id="patch_135">
    <path clip-path="url(#pfbd4b20d51)" d="M 281.024197 273.312 
L 282.641939 273.312 
L 282.641939 119.996444 
L 281.024197 119.996444 
z
" style="fill:#1f77b4;"/>
   </g>
   <g id="patch_136">
    <path clip-path="url(#pfbd4b20d51)" d="M 282.641939 273.312 
L 284.259682 273.312 
L 284.259682 111.861333 
L 282.641939 111.861333 
z
" style="fill:#1f77b4;"/>
   </g>
   <g id="patch_137">
    <path clip-path="url(#pfbd4b20d51)" d="M 284.259682 273.312 
L 285.877424 273.312 
L 285.877424 106.229333 
L 284.259682 106.229333 
z
" style="fill:#1f77b4;"/>
   </g>
   <g id="patch_138">
    <path clip-path="url(#pfbd4b20d51)" d="M 285.877424 273.312 
L 287.495166 273.312 
L 287.495166 94.339556 
L 285.877424 94.339556 
z
" style="fill:#1f77b4;"/>
   </g>
   <g id="patch_139">
    <path clip-path="url(#pfbd4b20d51)" d="M 287.495166 273.312 
L 289.112909 273.312 
L 289.112909 103.100444 
L 287.495166 103.100444 
z
" style="fill:#1f77b4;"/>
   </g>
   <g id="patch_140">
    <path clip-path="url(#pfbd4b20d51)" d="M 289.112909 273.312 
L 290.730651 273.312 
L 290.730651 88.707556 
L 289.112909 88.707556 
z
" style="fill:#1f77b4;"/>
   </g>
   <g id="patch_141">
    <path clip-path="url(#pfbd4b20d51)" d="M 290.730651 273.312 
L 292.348393 273.312 
L 292.348393 115.616 
L 290.730651 115.616 
z
" style="fill:#1f77b4;"/>
   </g>
   <g id="patch_142">
    <path clip-path="url(#pfbd4b20d51)" d="M 292.348393 273.312 
L 293.966136 273.312 
L 293.966136 81.198222 
L 292.348393 81.198222 
z
" style="fill:#1f77b4;"/>
   </g>
   <g id="patch_143">
    <path clip-path="url(#pfbd4b20d51)" d="M 293.966136 273.312 
L 295.583878 273.312 
L 295.583878 98.094222 
L 293.966136 98.094222 
z
" style="fill:#1f77b4;"/>
   </g>
   <g id="patch_144">
    <path clip-path="url(#pfbd4b20d51)" d="M 295.583878 273.312 
L 297.20162 273.312 
L 297.20162 98.72 
L 295.583878 98.72 
z
" style="fill:#1f77b4;"/>
   </g>
   <g id="patch_145">
    <path clip-path="url(#pfbd4b20d51)" d="M 297.20162 273.312 
L 298.819363 273.312 
L 298.819363 84.327111 
L 297.20162 84.327111 
z
" style="fill:#1f77b4;"/>
   </g>
   <g id="patch_146">
    <path clip-path="url(#pfbd4b20d51)" d="M 298.819363 273.312 
L 300.437105 273.312 
L 300.437105 111.861333 
L 298.819363 111.861333 
z
" style="fill:#1f77b4;"/>
   </g>
   <g id="patch_147">
    <path clip-path="url(#pfbd4b20d51)" d="M 300.437105 273.312 
L 302.054847 273.312 
L 302.054847 101.223111 
L 300.437105 101.223111 
z
" style="fill:#1f77b4;"/>
   </g>
   <g id="patch_148">
    <path clip-path="url(#pfbd4b20d51)" d="M 302.054847 273.312 
L 303.67259 273.312 
L 303.67259 78.695111 
L 302.054847 78.695111 
z
" style="fill:#1f77b4;"/>
   </g>
   <g id="patch_149">
    <path clip-path="url(#pfbd4b20d51)" d="M 303.67259 273.312 
L 305.290332 273.312 
L 305.290332 71.185778 
L 303.67259 71.185778 
z
" style="fill:#1f77b4;"/>
   </g>
   <g id="patch_150">
    <path clip-path="url(#pfbd4b20d51)" d="M 305.290332 273.312 
L 306.908075 273.312 
L 306.908075 83.075556 
L 305.290332 83.075556 
z
" style="fill:#1f77b4;"/>
   </g>
   <g id="patch_151">
    <path clip-path="url(#pfbd4b20d51)" d="M 306.908075 273.312 
L 308.525817 273.312 
L 308.525817 92.462222 
L 306.908075 92.462222 
z
" style="fill:#1f77b4;"/>
   </g>
   <g id="patch_152">
    <path clip-path="url(#pfbd4b20d51)" d="M 308.525817 273.312 
L 310.143559 273.312 
L 310.143559 86.830222 
L 308.525817 86.830222 
z
" style="fill:#1f77b4;"/>
   </g>
   <g id="patch_153">
    <path clip-path="url(#pfbd4b20d51)" d="M 310.143559 273.312 
L 311.761302 273.312 
L 311.761302 78.069333 
L 310.143559 78.069333 
z
" style="fill:#1f77b4;"/>
   </g>
   <g id="patch_154">
    <path clip-path="url(#pfbd4b20d51)" d="M 311.761302 273.312 
L 313.379044 273.312 
L 313.379044 74.314667 
L 311.761302 74.314667 
z
" style="fill:#1f77b4;"/>
   </g>
   <g id="patch_155">
    <path clip-path="url(#pfbd4b20d51)" d="M 313.379044 273.312 
L 314.996786 273.312 
L 314.996786 86.830222 
L 313.379044 86.830222 
z
" style="fill:#1f77b4;"/>
   </g>
   <g id="patch_156">
    <path clip-path="url(#pfbd4b20d51)" d="M 314.996786 273.312 
L 316.614529 273.312 
L 316.614529 86.204444 
L 314.996786 86.204444 
z
" style="fill:#1f77b4;"/>
   </g>
   <g id="patch_157">
    <path clip-path="url(#pfbd4b20d51)" d="M 316.614529 273.312 
L 318.232271 273.312 
L 318.232271 110.609778 
L 316.614529 110.609778 
z
" style="fill:#1f77b4;"/>
   </g>
   <g id="patch_158">
    <path clip-path="url(#pfbd4b20d51)" d="M 318.232271 273.312 
L 319.850013 273.312 
L 319.850013 71.811556 
L 318.232271 71.811556 
z
" style="fill:#1f77b4;"/>
   </g>
   <g id="patch_159">
    <path clip-path="url(#pfbd4b20d51)" d="M 319.850013 273.312 
L 321.467756 273.312 
L 321.467756 73.063111 
L 319.850013 73.063111 
z
" style="fill:#1f77b4;"/>
   </g>
   <g id="patch_160">
    <path clip-path="url(#pfbd4b20d51)" d="M 321.467756 273.312 
L 323.085498 273.312 
L 323.085498 68.682667 
L 321.467756 68.682667 
z
" style="fill:#1f77b4;"/>
   </g>
   <g id="patch_161">
    <path clip-path="url(#pfbd4b20d51)" d="M 323.085498 273.312 
L 324.70324 273.312 
L 324.70324 79.946667 
L 323.085498 79.946667 
z
" style="fill:#1f77b4;"/>
   </g>
   <g id="patch_162">
    <path clip-path="url(#pfbd4b20d51)" d="M 324.70324 273.312 
L 326.320983 273.312 
L 326.320983 64.302222 
L 324.70324 64.302222 
z
" style="fill:#1f77b4;"/>
   </g>
   <g id="patch_163">
    <path clip-path="url(#pfbd4b20d51)" d="M 326.320983 273.312 
L 327.938725 273.312 
L 327.938725 76.192 
L 326.320983 76.192 
z
" style="fill:#1f77b4;"/>
   </g>
   <g id="patch_164">
    <path clip-path="url(#pfbd4b20d51)" d="M 327.938725 273.312 
L 329.556467 273.312 
L 329.556467 64.302222 
L 327.938725 64.302222 
z
" style="fill:#1f77b4;"/>
   </g>
   <g id="patch_165">
    <path clip-path="url(#pfbd4b20d51)" d="M 329.556467 273.312 
L 331.17421 273.312 
L 331.17421 66.805333 
L 329.556467 66.805333 
z
" style="fill:#1f77b4;"/>
   </g>
   <g id="patch_166">
    <path clip-path="url(#pfbd4b20d51)" d="M 331.17421 273.312 
L 332.791952 273.312 
L 332.791952 58.670222 
L 331.17421 58.670222 
z
" style="fill:#1f77b4;"/>
   </g>
   <g id="patch_167">
    <path clip-path="url(#pfbd4b20d51)" d="M 332.791952 273.312 
L 334.409694 273.312 
L 334.409694 68.056889 
L 332.791952 68.056889 
z
" style="fill:#1f77b4;"/>
   </g>
   <g id="patch_168">
    <path clip-path="url(#pfbd4b20d51)" d="M 334.409694 273.312 
L 336.027437 273.312 
L 336.027437 64.928 
L 334.409694 64.928 
z
" style="fill:#1f77b4;"/>
   </g>
   <g id="patch_169">
    <path clip-path="url(#pfbd4b20d51)" d="M 336.027437 273.312 
L 337.645179 273.312 
L 337.645179 74.314667 
L 336.027437 74.314667 
z
" style="fill:#1f77b4;"/>
   </g>
   <g id="patch_170">
    <path clip-path="url(#pfbd4b20d51)" d="M 337.645179 273.312 
L 339.262922 273.312 
L 339.262922 63.050667 
L 337.645179 63.050667 
z
" style="fill:#1f77b4;"/>
   </g>
   <g id="patch_171">
    <path clip-path="url(#pfbd4b20d51)" d="M 339.262922 273.312 
L 340.880664 273.312 
L 340.880664 64.302222 
L 339.262922 64.302222 
z
" style="fill:#1f77b4;"/>
   </g>
   <g id="patch_172">
    <path clip-path="url(#pfbd4b20d51)" d="M 340.880664 273.312 
L 342.498406 273.312 
L 342.498406 53.038222 
L 340.880664 53.038222 
z
" style="fill:#1f77b4;"/>
   </g>
   <g id="patch_173">
    <path clip-path="url(#pfbd4b20d51)" d="M 342.498406 273.312 
L 344.116149 273.312 
L 344.116149 61.173333 
L 342.498406 61.173333 
z
" style="fill:#1f77b4;"/>
   </g>
   <g id="patch_174">
    <path clip-path="url(#pfbd4b20d51)" d="M 344.116149 273.312 
L 345.733891 273.312 
L 345.733891 65.553778 
L 344.116149 65.553778 
z
" style="fill:#1f77b4;"/>
   </g>
   <g id="patch_175">
    <path clip-path="url(#pfbd4b20d51)" d="M 345.733891 273.312 
L 347.351633 273.312 
L 347.351633 38.645333 
L 345.733891 38.645333 
z
" style="fill:#1f77b4;"/>
   </g>
   <g id="patch_176">
    <path clip-path="url(#pfbd4b20d51)" d="M 347.351633 273.312 
L 348.969376 273.312 
L 348.969376 58.044444 
L 347.351633 58.044444 
z
" style="fill:#1f77b4;"/>
   </g>
   <g id="patch_177">
    <path clip-path="url(#pfbd4b20d51)" d="M 348.969376 273.312 
L 350.587118 273.312 
L 350.587118 41.148444 
L 348.969376 41.148444 
z
" style="fill:#1f77b4;"/>
   </g>
   <g id="patch_178">
    <path clip-path="url(#pfbd4b20d51)" d="M 350.587118 273.312 
L 352.20486 273.312 
L 352.20486 53.038222 
L 350.587118 53.038222 
z
" style="fill:#1f77b4;"/>
   </g>
   <g id="patch_179">
    <path clip-path="url(#pfbd4b20d51)" d="M 352.20486 273.312 
L 353.822603 273.312 
L 353.822603 53.664 
L 352.20486 53.664 
z
" style="fill:#1f77b4;"/>
   </g>
   <g id="patch_180">
    <path clip-path="url(#pfbd4b20d51)" d="M 353.822603 273.312 
L 355.440345 273.312 
L 355.440345 59.296 
L 353.822603 59.296 
z
" style="fill:#1f77b4;"/>
   </g>
   <g id="patch_181">
    <path clip-path="url(#pfbd4b20d51)" d="M 355.440345 273.312 
L 357.058087 273.312 
L 357.058087 49.283556 
L 355.440345 49.283556 
z
" style="fill:#1f77b4;"/>
   </g>
   <g id="patch_182">
    <path clip-path="url(#pfbd4b20d51)" d="M 357.058087 273.312 
L 358.67583 273.312 
L 358.67583 56.167111 
L 357.058087 56.167111 
z
" style="fill:#1f77b4;"/>
   </g>
   <g id="patch_183">
    <path clip-path="url(#pfbd4b20d51)" d="M 358.67583 273.312 
L 360.293572 273.312 
L 360.293572 56.167111 
L 358.67583 56.167111 
z
" style="fill:#1f77b4;"/>
   </g>
   <g id="patch_184">
    <path clip-path="url(#pfbd4b20d51)" d="M 360.293572 273.312 
L 361.911314 273.312 
L 361.911314 42.4 
L 360.293572 42.4 
z
" style="fill:#1f77b4;"/>
   </g>
   <g id="patch_185">
    <path clip-path="url(#pfbd4b20d51)" d="M 361.911314 273.312 
L 363.529057 273.312 
L 363.529057 48.032 
L 361.911314 48.032 
z
" style="fill:#1f77b4;"/>
   </g>
   <g id="patch_186">
    <path clip-path="url(#pfbd4b20d51)" d="M 363.529057 273.312 
L 365.146799 273.312 
L 365.146799 36.768 
L 363.529057 36.768 
z
" style="fill:#1f77b4;"/>
   </g>
   <g id="patch_187">
    <path clip-path="url(#pfbd4b20d51)" d="M 365.146799 273.312 
L 366.764542 273.312 
L 366.764542 45.528889 
L 365.146799 45.528889 
z
" style="fill:#1f77b4;"/>
   </g>
   <g id="patch_188">
    <path clip-path="url(#pfbd4b20d51)" d="M 366.764542 273.312 
L 368.382284 273.312 
L 368.382284 32.387556 
L 366.764542 32.387556 
z
" style="fill:#1f77b4;"/>
   </g>
   <g id="patch_189">
    <path clip-path="url(#pfbd4b20d51)" d="M 368.382284 273.312 
L 370.000026 273.312 
L 370.000026 33.639111 
L 368.382284 33.639111 
z
" style="fill:#1f77b4;"/>
   </g>
   <g id="patch_190">
    <path clip-path="url(#pfbd4b20d51)" d="M 370.000026 273.312 
L 371.617769 273.312 
L 371.617769 46.780444 
L 370.000026 46.780444 
z
" style="fill:#1f77b4;"/>
   </g>
   <g id="patch_191">
    <path clip-path="url(#pfbd4b20d51)" d="M 371.617769 273.312 
L 373.235511 273.312 
L 373.235511 28.632889 
L 371.617769 28.632889 
z
" style="fill:#1f77b4;"/>
   </g>
   <g id="patch_192">
    <path clip-path="url(#pfbd4b20d51)" d="M 373.235511 273.312 
L 374.853253 273.312 
L 374.853253 41.774222 
L 373.235511 41.774222 
z
" style="fill:#1f77b4;"/>
   </g>
   <g id="patch_193">
    <path clip-path="url(#pfbd4b20d51)" d="M 374.853253 273.312 
L 376.470996 273.312 
L 376.470996 27.381333 
L 374.853253 27.381333 
z
" style="fill:#1f77b4;"/>
   </g>
   <g id="patch_194">
    <path clip-path="url(#pfbd4b20d51)" d="M 376.470996 273.312 
L 378.088738 273.312 
L 378.088738 31.136 
L 376.470996 31.136 
z
" style="fill:#1f77b4;"/>
   </g>
   <g id="patch_195">
    <path clip-path="url(#pfbd4b20d51)" d="M 378.088738 273.312 
L 379.70648 273.312 
L 379.70648 22.375111 
L 378.088738 22.375111 
z
" style="fill:#1f77b4;"/>
   </g>
   <g id="patch_196">
    <path clip-path="url(#pfbd4b20d51)" d="M 379.70648 273.312 
L 381.324223 273.312 
L 381.324223 43.025778 
L 379.70648 43.025778 
z
" style="fill:#1f77b4;"/>
   </g>
   <g id="patch_197">
    <path clip-path="url(#pfbd4b20d51)" d="M 381.324223 273.312 
L 382.941965 273.312 
L 382.941965 22.375111 
L 381.324223 22.375111 
z
" style="fill:#1f77b4;"/>
   </g>
   <g id="patch_198">
    <path clip-path="url(#pfbd4b20d51)" d="M 382.941965 273.312 
L 384.559707 273.312 
L 384.559707 38.645333 
L 382.941965 38.645333 
z
" style="fill:#1f77b4;"/>
   </g>
   <g id="patch_199">
    <path clip-path="url(#pfbd4b20d51)" d="M 384.559707 273.312 
L 386.17745 273.312 
L 386.17745 26.129778 
L 384.559707 26.129778 
z
" style="fill:#1f77b4;"/>
   </g>
   <g id="patch_200">
    <path clip-path="url(#pfbd4b20d51)" d="M 386.17745 273.312 
L 387.795192 273.312 
L 387.795192 27.381333 
L 386.17745 27.381333 
z
" style="fill:#1f77b4;"/>
   </g>
   <g id="patch_201">
    <path clip-path="url(#pfbd4b20d51)" d="M 387.795192 273.312 
L 389.412934 273.312 
L 389.412934 46.154667 
L 387.795192 46.154667 
z
" style="fill:#1f77b4;"/>
   </g>
   <g id="patch_202">
    <path clip-path="url(#pfbd4b20d51)" d="M 389.412934 273.312 
L 391.030677 273.312 
L 391.030677 19.872 
L 389.412934 19.872 
z
" style="fill:#1f77b4;"/>
   </g>
   <g id="matplotlib.axis_1">
    <g id="xtick_1">
     <g id="line2d_1">
      <defs>
       <path d="M 0 0 
L 0 3.5 
" id="m8875292817" style="stroke:#000000;stroke-width:0.8;"/>
      </defs>
      <g>
       <use style="stroke:#000000;stroke-width:0.8;" x="66.376477" xlink:href="#m8875292817" y="273.312"/>
      </g>
     </g>
     <g id="text_1">
      <!-- 0.0 -->
      <g transform="translate(58.424915 287.910437)scale(0.1 -0.1)">
       <defs>
        <path d="M 2034 4250 
Q 1547 4250 1301 3770 
Q 1056 3291 1056 2328 
Q 1056 1369 1301 889 
Q 1547 409 2034 409 
Q 2525 409 2770 889 
Q 3016 1369 3016 2328 
Q 3016 3291 2770 3770 
Q 2525 4250 2034 4250 
z
M 2034 4750 
Q 2819 4750 3233 4129 
Q 3647 3509 3647 2328 
Q 3647 1150 3233 529 
Q 2819 -91 2034 -91 
Q 1250 -91 836 529 
Q 422 1150 422 2328 
Q 422 3509 836 4129 
Q 1250 4750 2034 4750 
z
" id="DejaVuSans-30" transform="scale(0.015625)"/>
        <path d="M 684 794 
L 1344 794 
L 1344 0 
L 684 0 
L 684 794 
z
" id="DejaVuSans-2e" transform="scale(0.015625)"/>
       </defs>
       <use xlink:href="#DejaVuSans-30"/>
       <use x="63.623047" xlink:href="#DejaVuSans-2e"/>
       <use x="95.410156" xlink:href="#DejaVuSans-30"/>
      </g>
     </g>
    </g>
    <g id="xtick_2">
     <g id="line2d_2">
      <g>
       <use style="stroke:#000000;stroke-width:0.8;" x="131.307386" xlink:href="#m8875292817" y="273.312"/>
      </g>
     </g>
     <g id="text_2">
      <!-- 0.2 -->
      <g transform="translate(123.355824 287.910437)scale(0.1 -0.1)">
       <defs>
        <path d="M 1228 531 
L 3431 531 
L 3431 0 
L 469 0 
L 469 531 
Q 828 903 1448 1529 
Q 2069 2156 2228 2338 
Q 2531 2678 2651 2914 
Q 2772 3150 2772 3378 
Q 2772 3750 2511 3984 
Q 2250 4219 1831 4219 
Q 1534 4219 1204 4116 
Q 875 4013 500 3803 
L 500 4441 
Q 881 4594 1212 4672 
Q 1544 4750 1819 4750 
Q 2544 4750 2975 4387 
Q 3406 4025 3406 3419 
Q 3406 3131 3298 2873 
Q 3191 2616 2906 2266 
Q 2828 2175 2409 1742 
Q 1991 1309 1228 531 
z
" id="DejaVuSans-32" transform="scale(0.015625)"/>
       </defs>
       <use xlink:href="#DejaVuSans-30"/>
       <use x="63.623047" xlink:href="#DejaVuSans-2e"/>
       <use x="95.410156" xlink:href="#DejaVuSans-32"/>
      </g>
     </g>
    </g>
    <g id="xtick_3">
     <g id="line2d_3">
      <g>
       <use style="stroke:#000000;stroke-width:0.8;" x="196.238295" xlink:href="#m8875292817" y="273.312"/>
      </g>
     </g>
     <g id="text_3">
      <!-- 0.4 -->
      <g transform="translate(188.286733 287.910437)scale(0.1 -0.1)">
       <defs>
        <path d="M 2419 4116 
L 825 1625 
L 2419 1625 
L 2419 4116 
z
M 2253 4666 
L 3047 4666 
L 3047 1625 
L 3713 1625 
L 3713 1100 
L 3047 1100 
L 3047 0 
L 2419 0 
L 2419 1100 
L 313 1100 
L 313 1709 
L 2253 4666 
z
" id="DejaVuSans-34" transform="scale(0.015625)"/>
       </defs>
       <use xlink:href="#DejaVuSans-30"/>
       <use x="63.623047" xlink:href="#DejaVuSans-2e"/>
       <use x="95.410156" xlink:href="#DejaVuSans-34"/>
      </g>
     </g>
    </g>
    <g id="xtick_4">
     <g id="line2d_4">
      <g>
       <use style="stroke:#000000;stroke-width:0.8;" x="261.169205" xlink:href="#m8875292817" y="273.312"/>
      </g>
     </g>
     <g id="text_4">
      <!-- 0.6 -->
      <g transform="translate(253.217642 287.910437)scale(0.1 -0.1)">
       <defs>
        <path d="M 2113 2584 
Q 1688 2584 1439 2293 
Q 1191 2003 1191 1497 
Q 1191 994 1439 701 
Q 1688 409 2113 409 
Q 2538 409 2786 701 
Q 3034 994 3034 1497 
Q 3034 2003 2786 2293 
Q 2538 2584 2113 2584 
z
M 3366 4563 
L 3366 3988 
Q 3128 4100 2886 4159 
Q 2644 4219 2406 4219 
Q 1781 4219 1451 3797 
Q 1122 3375 1075 2522 
Q 1259 2794 1537 2939 
Q 1816 3084 2150 3084 
Q 2853 3084 3261 2657 
Q 3669 2231 3669 1497 
Q 3669 778 3244 343 
Q 2819 -91 2113 -91 
Q 1303 -91 875 529 
Q 447 1150 447 2328 
Q 447 3434 972 4092 
Q 1497 4750 2381 4750 
Q 2619 4750 2861 4703 
Q 3103 4656 3366 4563 
z
" id="DejaVuSans-36" transform="scale(0.015625)"/>
       </defs>
       <use xlink:href="#DejaVuSans-30"/>
       <use x="63.623047" xlink:href="#DejaVuSans-2e"/>
       <use x="95.410156" xlink:href="#DejaVuSans-36"/>
      </g>
     </g>
    </g>
    <g id="xtick_5">
     <g id="line2d_5">
      <g>
       <use style="stroke:#000000;stroke-width:0.8;" x="326.100114" xlink:href="#m8875292817" y="273.312"/>
      </g>
     </g>
     <g id="text_5">
      <!-- 0.8 -->
      <g transform="translate(318.148551 287.910437)scale(0.1 -0.1)">
       <defs>
        <path d="M 2034 2216 
Q 1584 2216 1326 1975 
Q 1069 1734 1069 1313 
Q 1069 891 1326 650 
Q 1584 409 2034 409 
Q 2484 409 2743 651 
Q 3003 894 3003 1313 
Q 3003 1734 2745 1975 
Q 2488 2216 2034 2216 
z
M 1403 2484 
Q 997 2584 770 2862 
Q 544 3141 544 3541 
Q 544 4100 942 4425 
Q 1341 4750 2034 4750 
Q 2731 4750 3128 4425 
Q 3525 4100 3525 3541 
Q 3525 3141 3298 2862 
Q 3072 2584 2669 2484 
Q 3125 2378 3379 2068 
Q 3634 1759 3634 1313 
Q 3634 634 3220 271 
Q 2806 -91 2034 -91 
Q 1263 -91 848 271 
Q 434 634 434 1313 
Q 434 1759 690 2068 
Q 947 2378 1403 2484 
z
M 1172 3481 
Q 1172 3119 1398 2916 
Q 1625 2713 2034 2713 
Q 2441 2713 2670 2916 
Q 2900 3119 2900 3481 
Q 2900 3844 2670 4047 
Q 2441 4250 2034 4250 
Q 1625 4250 1398 4047 
Q 1172 3844 1172 3481 
z
" id="DejaVuSans-38" transform="scale(0.015625)"/>
       </defs>
       <use xlink:href="#DejaVuSans-30"/>
       <use x="63.623047" xlink:href="#DejaVuSans-2e"/>
       <use x="95.410156" xlink:href="#DejaVuSans-38"/>
      </g>
     </g>
    </g>
    <g id="xtick_6">
     <g id="line2d_6">
      <g>
       <use style="stroke:#000000;stroke-width:0.8;" x="391.031023" xlink:href="#m8875292817" y="273.312"/>
      </g>
     </g>
     <g id="text_6">
      <!-- 1.0 -->
      <g transform="translate(383.07946 287.910437)scale(0.1 -0.1)">
       <defs>
        <path d="M 794 531 
L 1825 531 
L 1825 4091 
L 703 3866 
L 703 4441 
L 1819 4666 
L 2450 4666 
L 2450 531 
L 3481 531 
L 3481 0 
L 794 0 
L 794 531 
z
" id="DejaVuSans-31" transform="scale(0.015625)"/>
       </defs>
       <use xlink:href="#DejaVuSans-31"/>
       <use x="63.623047" xlink:href="#DejaVuSans-2e"/>
       <use x="95.410156" xlink:href="#DejaVuSans-30"/>
      </g>
     </g>
    </g>
    <g id="text_7">
     <!-- Propagation direction -->
     <g transform="translate(175.221719 301.588562)scale(0.1 -0.1)">
      <defs>
       <path d="M 1259 4147 
L 1259 2394 
L 2053 2394 
Q 2494 2394 2734 2622 
Q 2975 2850 2975 3272 
Q 2975 3691 2734 3919 
Q 2494 4147 2053 4147 
L 1259 4147 
z
M 628 4666 
L 2053 4666 
Q 2838 4666 3239 4311 
Q 3641 3956 3641 3272 
Q 3641 2581 3239 2228 
Q 2838 1875 2053 1875 
L 1259 1875 
L 1259 0 
L 628 0 
L 628 4666 
z
" id="DejaVuSans-50" transform="scale(0.015625)"/>
       <path d="M 2631 2963 
Q 2534 3019 2420 3045 
Q 2306 3072 2169 3072 
Q 1681 3072 1420 2755 
Q 1159 2438 1159 1844 
L 1159 0 
L 581 0 
L 581 3500 
L 1159 3500 
L 1159 2956 
Q 1341 3275 1631 3429 
Q 1922 3584 2338 3584 
Q 2397 3584 2469 3576 
Q 2541 3569 2628 3553 
L 2631 2963 
z
" id="DejaVuSans-72" transform="scale(0.015625)"/>
       <path d="M 1959 3097 
Q 1497 3097 1228 2736 
Q 959 2375 959 1747 
Q 959 1119 1226 758 
Q 1494 397 1959 397 
Q 2419 397 2687 759 
Q 2956 1122 2956 1747 
Q 2956 2369 2687 2733 
Q 2419 3097 1959 3097 
z
M 1959 3584 
Q 2709 3584 3137 3096 
Q 3566 2609 3566 1747 
Q 3566 888 3137 398 
Q 2709 -91 1959 -91 
Q 1206 -91 779 398 
Q 353 888 353 1747 
Q 353 2609 779 3096 
Q 1206 3584 1959 3584 
z
" id="DejaVuSans-6f" transform="scale(0.015625)"/>
       <path d="M 1159 525 
L 1159 -1331 
L 581 -1331 
L 581 3500 
L 1159 3500 
L 1159 2969 
Q 1341 3281 1617 3432 
Q 1894 3584 2278 3584 
Q 2916 3584 3314 3078 
Q 3713 2572 3713 1747 
Q 3713 922 3314 415 
Q 2916 -91 2278 -91 
Q 1894 -91 1617 61 
Q 1341 213 1159 525 
z
M 3116 1747 
Q 3116 2381 2855 2742 
Q 2594 3103 2138 3103 
Q 1681 3103 1420 2742 
Q 1159 2381 1159 1747 
Q 1159 1113 1420 752 
Q 1681 391 2138 391 
Q 2594 391 2855 752 
Q 3116 1113 3116 1747 
z
" id="DejaVuSans-70" transform="scale(0.015625)"/>
       <path d="M 2194 1759 
Q 1497 1759 1228 1600 
Q 959 1441 959 1056 
Q 959 750 1161 570 
Q 1363 391 1709 391 
Q 2188 391 2477 730 
Q 2766 1069 2766 1631 
L 2766 1759 
L 2194 1759 
z
M 3341 1997 
L 3341 0 
L 2766 0 
L 2766 531 
Q 2569 213 2275 61 
Q 1981 -91 1556 -91 
Q 1019 -91 701 211 
Q 384 513 384 1019 
Q 384 1609 779 1909 
Q 1175 2209 1959 2209 
L 2766 2209 
L 2766 2266 
Q 2766 2663 2505 2880 
Q 2244 3097 1772 3097 
Q 1472 3097 1187 3025 
Q 903 2953 641 2809 
L 641 3341 
Q 956 3463 1253 3523 
Q 1550 3584 1831 3584 
Q 2591 3584 2966 3190 
Q 3341 2797 3341 1997 
z
" id="DejaVuSans-61" transform="scale(0.015625)"/>
       <path d="M 2906 1791 
Q 2906 2416 2648 2759 
Q 2391 3103 1925 3103 
Q 1463 3103 1205 2759 
Q 947 2416 947 1791 
Q 947 1169 1205 825 
Q 1463 481 1925 481 
Q 2391 481 2648 825 
Q 2906 1169 2906 1791 
z
M 3481 434 
Q 3481 -459 3084 -895 
Q 2688 -1331 1869 -1331 
Q 1566 -1331 1297 -1286 
Q 1028 -1241 775 -1147 
L 775 -588 
Q 1028 -725 1275 -790 
Q 1522 -856 1778 -856 
Q 2344 -856 2625 -561 
Q 2906 -266 2906 331 
L 2906 616 
Q 2728 306 2450 153 
Q 2172 0 1784 0 
Q 1141 0 747 490 
Q 353 981 353 1791 
Q 353 2603 747 3093 
Q 1141 3584 1784 3584 
Q 2172 3584 2450 3431 
Q 2728 3278 2906 2969 
L 2906 3500 
L 3481 3500 
L 3481 434 
z
" id="DejaVuSans-67" transform="scale(0.015625)"/>
       <path d="M 1172 4494 
L 1172 3500 
L 2356 3500 
L 2356 3053 
L 1172 3053 
L 1172 1153 
Q 1172 725 1289 603 
Q 1406 481 1766 481 
L 2356 481 
L 2356 0 
L 1766 0 
Q 1100 0 847 248 
Q 594 497 594 1153 
L 594 3053 
L 172 3053 
L 172 3500 
L 594 3500 
L 594 4494 
L 1172 4494 
z
" id="DejaVuSans-74" transform="scale(0.015625)"/>
       <path d="M 603 3500 
L 1178 3500 
L 1178 0 
L 603 0 
L 603 3500 
z
M 603 4863 
L 1178 4863 
L 1178 4134 
L 603 4134 
L 603 4863 
z
" id="DejaVuSans-69" transform="scale(0.015625)"/>
       <path d="M 3513 2113 
L 3513 0 
L 2938 0 
L 2938 2094 
Q 2938 2591 2744 2837 
Q 2550 3084 2163 3084 
Q 1697 3084 1428 2787 
Q 1159 2491 1159 1978 
L 1159 0 
L 581 0 
L 581 3500 
L 1159 3500 
L 1159 2956 
Q 1366 3272 1645 3428 
Q 1925 3584 2291 3584 
Q 2894 3584 3203 3211 
Q 3513 2838 3513 2113 
z
" id="DejaVuSans-6e" transform="scale(0.015625)"/>
       <path id="DejaVuSans-20" transform="scale(0.015625)"/>
       <path d="M 2906 2969 
L 2906 4863 
L 3481 4863 
L 3481 0 
L 2906 0 
L 2906 525 
Q 2725 213 2448 61 
Q 2172 -91 1784 -91 
Q 1150 -91 751 415 
Q 353 922 353 1747 
Q 353 2572 751 3078 
Q 1150 3584 1784 3584 
Q 2172 3584 2448 3432 
Q 2725 3281 2906 2969 
z
M 947 1747 
Q 947 1113 1208 752 
Q 1469 391 1925 391 
Q 2381 391 2643 752 
Q 2906 1113 2906 1747 
Q 2906 2381 2643 2742 
Q 2381 3103 1925 3103 
Q 1469 3103 1208 2742 
Q 947 2381 947 1747 
z
" id="DejaVuSans-64" transform="scale(0.015625)"/>
       <path d="M 3597 1894 
L 3597 1613 
L 953 1613 
Q 991 1019 1311 708 
Q 1631 397 2203 397 
Q 2534 397 2845 478 
Q 3156 559 3463 722 
L 3463 178 
Q 3153 47 2828 -22 
Q 2503 -91 2169 -91 
Q 1331 -91 842 396 
Q 353 884 353 1716 
Q 353 2575 817 3079 
Q 1281 3584 2069 3584 
Q 2775 3584 3186 3129 
Q 3597 2675 3597 1894 
z
M 3022 2063 
Q 3016 2534 2758 2815 
Q 2500 3097 2075 3097 
Q 1594 3097 1305 2825 
Q 1016 2553 972 2059 
L 3022 2063 
z
" id="DejaVuSans-65" transform="scale(0.015625)"/>
       <path d="M 3122 3366 
L 3122 2828 
Q 2878 2963 2633 3030 
Q 2388 3097 2138 3097 
Q 1578 3097 1268 2742 
Q 959 2388 959 1747 
Q 959 1106 1268 751 
Q 1578 397 2138 397 
Q 2388 397 2633 464 
Q 2878 531 3122 666 
L 3122 134 
Q 2881 22 2623 -34 
Q 2366 -91 2075 -91 
Q 1284 -91 818 406 
Q 353 903 353 1747 
Q 353 2603 823 3093 
Q 1294 3584 2113 3584 
Q 2378 3584 2631 3529 
Q 2884 3475 3122 3366 
z
" id="DejaVuSans-63" transform="scale(0.015625)"/>
      </defs>
      <use xlink:href="#DejaVuSans-50"/>
      <use x="58.552734" xlink:href="#DejaVuSans-72"/>
      <use x="97.416016" xlink:href="#DejaVuSans-6f"/>
      <use x="158.597656" xlink:href="#DejaVuSans-70"/>
      <use x="222.074219" xlink:href="#DejaVuSans-61"/>
      <use x="283.353516" xlink:href="#DejaVuSans-67"/>
      <use x="346.830078" xlink:href="#DejaVuSans-61"/>
      <use x="408.109375" xlink:href="#DejaVuSans-74"/>
      <use x="447.318359" xlink:href="#DejaVuSans-69"/>
      <use x="475.101562" xlink:href="#DejaVuSans-6f"/>
      <use x="536.283203" xlink:href="#DejaVuSans-6e"/>
      <use x="599.662109" xlink:href="#DejaVuSans-20"/>
      <use x="631.449219" xlink:href="#DejaVuSans-64"/>
      <use x="694.925781" xlink:href="#DejaVuSans-69"/>
      <use x="722.708984" xlink:href="#DejaVuSans-72"/>
      <use x="761.572266" xlink:href="#DejaVuSans-65"/>
      <use x="823.095703" xlink:href="#DejaVuSans-63"/>
      <use x="878.076172" xlink:href="#DejaVuSans-74"/>
      <use x="917.285156" xlink:href="#DejaVuSans-69"/>
      <use x="945.068359" xlink:href="#DejaVuSans-6f"/>
      <use x="1006.25" xlink:href="#DejaVuSans-6e"/>
     </g>
    </g>
   </g>
   <g id="matplotlib.axis_2">
    <g id="ytick_1">
     <g id="line2d_7">
      <defs>
       <path d="M 0 0 
L -3.5 0 
" id="m3e18139b07" style="stroke:#000000;stroke-width:0.8;"/>
      </defs>
      <g>
       <use style="stroke:#000000;stroke-width:0.8;" x="50.14375" xlink:href="#m3e18139b07" y="273.312"/>
      </g>
     </g>
     <g id="text_8">
      <!-- 0.00 -->
      <g transform="translate(20.878125 277.111219)scale(0.1 -0.1)">
       <use xlink:href="#DejaVuSans-30"/>
       <use x="63.623047" xlink:href="#DejaVuSans-2e"/>
       <use x="95.410156" xlink:href="#DejaVuSans-30"/>
       <use x="159.033203" xlink:href="#DejaVuSans-30"/>
      </g>
     </g>
    </g>
    <g id="ytick_2">
     <g id="line2d_8">
      <g>
       <use style="stroke:#000000;stroke-width:0.8;" x="50.14375" xlink:href="#m3e18139b07" y="242.12971"/>
      </g>
     </g>
     <g id="text_9">
      <!-- 0.25 -->
      <g transform="translate(20.878125 245.928929)scale(0.1 -0.1)">
       <defs>
        <path d="M 691 4666 
L 3169 4666 
L 3169 4134 
L 1269 4134 
L 1269 2991 
Q 1406 3038 1543 3061 
Q 1681 3084 1819 3084 
Q 2600 3084 3056 2656 
Q 3513 2228 3513 1497 
Q 3513 744 3044 326 
Q 2575 -91 1722 -91 
Q 1428 -91 1123 -41 
Q 819 9 494 109 
L 494 744 
Q 775 591 1075 516 
Q 1375 441 1709 441 
Q 2250 441 2565 725 
Q 2881 1009 2881 1497 
Q 2881 1984 2565 2268 
Q 2250 2553 1709 2553 
Q 1456 2553 1204 2497 
Q 953 2441 691 2322 
L 691 4666 
z
" id="DejaVuSans-35" transform="scale(0.015625)"/>
       </defs>
       <use xlink:href="#DejaVuSans-30"/>
       <use x="63.623047" xlink:href="#DejaVuSans-2e"/>
       <use x="95.410156" xlink:href="#DejaVuSans-32"/>
       <use x="159.033203" xlink:href="#DejaVuSans-35"/>
      </g>
     </g>
    </g>
    <g id="ytick_3">
     <g id="line2d_9">
      <g>
       <use style="stroke:#000000;stroke-width:0.8;" x="50.14375" xlink:href="#m3e18139b07" y="210.94742"/>
      </g>
     </g>
     <g id="text_10">
      <!-- 0.50 -->
      <g transform="translate(20.878125 214.746639)scale(0.1 -0.1)">
       <use xlink:href="#DejaVuSans-30"/>
       <use x="63.623047" xlink:href="#DejaVuSans-2e"/>
       <use x="95.410156" xlink:href="#DejaVuSans-35"/>
       <use x="159.033203" xlink:href="#DejaVuSans-30"/>
      </g>
     </g>
    </g>
    <g id="ytick_4">
     <g id="line2d_10">
      <g>
       <use style="stroke:#000000;stroke-width:0.8;" x="50.14375" xlink:href="#m3e18139b07" y="179.765131"/>
      </g>
     </g>
     <g id="text_11">
      <!-- 0.75 -->
      <g transform="translate(20.878125 183.564349)scale(0.1 -0.1)">
       <defs>
        <path d="M 525 4666 
L 3525 4666 
L 3525 4397 
L 1831 0 
L 1172 0 
L 2766 4134 
L 525 4134 
L 525 4666 
z
" id="DejaVuSans-37" transform="scale(0.015625)"/>
       </defs>
       <use xlink:href="#DejaVuSans-30"/>
       <use x="63.623047" xlink:href="#DejaVuSans-2e"/>
       <use x="95.410156" xlink:href="#DejaVuSans-37"/>
       <use x="159.033203" xlink:href="#DejaVuSans-35"/>
      </g>
     </g>
    </g>
    <g id="ytick_5">
     <g id="line2d_11">
      <g>
       <use style="stroke:#000000;stroke-width:0.8;" x="50.14375" xlink:href="#m3e18139b07" y="148.582841"/>
      </g>
     </g>
     <g id="text_12">
      <!-- 1.00 -->
      <g transform="translate(20.878125 152.382059)scale(0.1 -0.1)">
       <use xlink:href="#DejaVuSans-31"/>
       <use x="63.623047" xlink:href="#DejaVuSans-2e"/>
       <use x="95.410156" xlink:href="#DejaVuSans-30"/>
       <use x="159.033203" xlink:href="#DejaVuSans-30"/>
      </g>
     </g>
    </g>
    <g id="ytick_6">
     <g id="line2d_12">
      <g>
       <use style="stroke:#000000;stroke-width:0.8;" x="50.14375" xlink:href="#m3e18139b07" y="117.400551"/>
      </g>
     </g>
     <g id="text_13">
      <!-- 1.25 -->
      <g transform="translate(20.878125 121.19977)scale(0.1 -0.1)">
       <use xlink:href="#DejaVuSans-31"/>
       <use x="63.623047" xlink:href="#DejaVuSans-2e"/>
       <use x="95.410156" xlink:href="#DejaVuSans-32"/>
       <use x="159.033203" xlink:href="#DejaVuSans-35"/>
      </g>
     </g>
    </g>
    <g id="ytick_7">
     <g id="line2d_13">
      <g>
       <use style="stroke:#000000;stroke-width:0.8;" x="50.14375" xlink:href="#m3e18139b07" y="86.218261"/>
      </g>
     </g>
     <g id="text_14">
      <!-- 1.50 -->
      <g transform="translate(20.878125 90.01748)scale(0.1 -0.1)">
       <use xlink:href="#DejaVuSans-31"/>
       <use x="63.623047" xlink:href="#DejaVuSans-2e"/>
       <use x="95.410156" xlink:href="#DejaVuSans-35"/>
       <use x="159.033203" xlink:href="#DejaVuSans-30"/>
      </g>
     </g>
    </g>
    <g id="ytick_8">
     <g id="line2d_14">
      <g>
       <use style="stroke:#000000;stroke-width:0.8;" x="50.14375" xlink:href="#m3e18139b07" y="55.035971"/>
      </g>
     </g>
     <g id="text_15">
      <!-- 1.75 -->
      <g transform="translate(20.878125 58.83519)scale(0.1 -0.1)">
       <use xlink:href="#DejaVuSans-31"/>
       <use x="63.623047" xlink:href="#DejaVuSans-2e"/>
       <use x="95.410156" xlink:href="#DejaVuSans-37"/>
       <use x="159.033203" xlink:href="#DejaVuSans-35"/>
      </g>
     </g>
    </g>
    <g id="ytick_9">
     <g id="line2d_15">
      <g>
       <use style="stroke:#000000;stroke-width:0.8;" x="50.14375" xlink:href="#m3e18139b07" y="23.853681"/>
      </g>
     </g>
     <g id="text_16">
      <!-- 2.00 -->
      <g transform="translate(20.878125 27.6529)scale(0.1 -0.1)">
       <use xlink:href="#DejaVuSans-32"/>
       <use x="63.623047" xlink:href="#DejaVuSans-2e"/>
       <use x="95.410156" xlink:href="#DejaVuSans-30"/>
       <use x="159.033203" xlink:href="#DejaVuSans-30"/>
      </g>
     </g>
    </g>
    <g id="text_17">
     <!-- Probability density -->
     <g transform="translate(14.798438 186.606781)rotate(-90)scale(0.1 -0.1)">
      <defs>
       <path d="M 3116 1747 
Q 3116 2381 2855 2742 
Q 2594 3103 2138 3103 
Q 1681 3103 1420 2742 
Q 1159 2381 1159 1747 
Q 1159 1113 1420 752 
Q 1681 391 2138 391 
Q 2594 391 2855 752 
Q 3116 1113 3116 1747 
z
M 1159 2969 
Q 1341 3281 1617 3432 
Q 1894 3584 2278 3584 
Q 2916 3584 3314 3078 
Q 3713 2572 3713 1747 
Q 3713 922 3314 415 
Q 2916 -91 2278 -91 
Q 1894 -91 1617 61 
Q 1341 213 1159 525 
L 1159 0 
L 581 0 
L 581 4863 
L 1159 4863 
L 1159 2969 
z
" id="DejaVuSans-62" transform="scale(0.015625)"/>
       <path d="M 603 4863 
L 1178 4863 
L 1178 0 
L 603 0 
L 603 4863 
z
" id="DejaVuSans-6c" transform="scale(0.015625)"/>
       <path d="M 2059 -325 
Q 1816 -950 1584 -1140 
Q 1353 -1331 966 -1331 
L 506 -1331 
L 506 -850 
L 844 -850 
Q 1081 -850 1212 -737 
Q 1344 -625 1503 -206 
L 1606 56 
L 191 3500 
L 800 3500 
L 1894 763 
L 2988 3500 
L 3597 3500 
L 2059 -325 
z
" id="DejaVuSans-79" transform="scale(0.015625)"/>
       <path d="M 2834 3397 
L 2834 2853 
Q 2591 2978 2328 3040 
Q 2066 3103 1784 3103 
Q 1356 3103 1142 2972 
Q 928 2841 928 2578 
Q 928 2378 1081 2264 
Q 1234 2150 1697 2047 
L 1894 2003 
Q 2506 1872 2764 1633 
Q 3022 1394 3022 966 
Q 3022 478 2636 193 
Q 2250 -91 1575 -91 
Q 1294 -91 989 -36 
Q 684 19 347 128 
L 347 722 
Q 666 556 975 473 
Q 1284 391 1588 391 
Q 1994 391 2212 530 
Q 2431 669 2431 922 
Q 2431 1156 2273 1281 
Q 2116 1406 1581 1522 
L 1381 1569 
Q 847 1681 609 1914 
Q 372 2147 372 2553 
Q 372 3047 722 3315 
Q 1072 3584 1716 3584 
Q 2034 3584 2315 3537 
Q 2597 3491 2834 3397 
z
" id="DejaVuSans-73" transform="scale(0.015625)"/>
      </defs>
      <use xlink:href="#DejaVuSans-50"/>
      <use x="58.552734" xlink:href="#DejaVuSans-72"/>
      <use x="97.416016" xlink:href="#DejaVuSans-6f"/>
      <use x="158.597656" xlink:href="#DejaVuSans-62"/>
      <use x="222.074219" xlink:href="#DejaVuSans-61"/>
      <use x="283.353516" xlink:href="#DejaVuSans-62"/>
      <use x="346.830078" xlink:href="#DejaVuSans-69"/>
      <use x="374.613281" xlink:href="#DejaVuSans-6c"/>
      <use x="402.396484" xlink:href="#DejaVuSans-69"/>
      <use x="430.179688" xlink:href="#DejaVuSans-74"/>
      <use x="469.388672" xlink:href="#DejaVuSans-79"/>
      <use x="528.568359" xlink:href="#DejaVuSans-20"/>
      <use x="560.355469" xlink:href="#DejaVuSans-64"/>
      <use x="623.832031" xlink:href="#DejaVuSans-65"/>
      <use x="685.355469" xlink:href="#DejaVuSans-6e"/>
      <use x="748.734375" xlink:href="#DejaVuSans-73"/>
      <use x="800.833984" xlink:href="#DejaVuSans-69"/>
      <use x="828.617188" xlink:href="#DejaVuSans-74"/>
      <use x="867.826172" xlink:href="#DejaVuSans-79"/>
     </g>
    </g>
   </g>
   <g id="line2d_16">
    <path clip-path="url(#pfbd4b20d51)" d="M 66.376477 273.312 
L 391.031023 23.853681 
L 391.031023 23.853681 
" style="fill:none;stroke:#ff7f0e;stroke-linecap:square;stroke-width:1.5;"/>
   </g>
   <g id="patch_203">
    <path d="M 50.14375 273.312 
L 50.14375 7.2 
" style="fill:none;stroke:#000000;stroke-linecap:square;stroke-linejoin:miter;stroke-width:0.8;"/>
   </g>
   <g id="patch_204">
    <path d="M 407.26375 273.312 
L 407.26375 7.2 
" style="fill:none;stroke:#000000;stroke-linecap:square;stroke-linejoin:miter;stroke-width:0.8;"/>
   </g>
   <g id="patch_205">
    <path d="M 50.14375 273.312 
L 407.26375 273.312 
" style="fill:none;stroke:#000000;stroke-linecap:square;stroke-linejoin:miter;stroke-width:0.8;"/>
   </g>
   <g id="patch_206">
    <path d="M 50.14375 7.2 
L 407.26375 7.2 
" style="fill:none;stroke:#000000;stroke-linecap:square;stroke-linejoin:miter;stroke-width:0.8;"/>
   </g>
  </g>
 </g>
 <defs>
  <clipPath id="pfbd4b20d51">
   <rect height="266.112" width="357.12" x="50.14375" y="7.2"/>
  </clipPath>
 </defs>
</svg>
