<?xml version="1.0" encoding="utf-8" standalone="no"?>
<!DOCTYPE svg PUBLIC "-//W3C//DTD SVG 1.1//EN"
  "http://www.w3.org/Graphics/SVG/1.1/DTD/svg11.dtd">
<svg height="310.86825pt" version="1.1" viewBox="0 0 414.46375 310.86825" width="414.46375pt" xmlns="http://www.w3.org/2000/svg" xmlns:xlink="http://www.w3.org/1999/xlink">
 <metadata>
  <rdf:RDF xmlns:cc="http://creativecommons.org/ns#" xmlns:dc="http://purl.org/dc/elements/1.1/" xmlns:rdf="http://www.w3.org/1999/02/22-rdf-syntax-ns#">
   <cc:Work>
    <dc:type rdf:resource="http://purl.org/dc/dcmitype/StillImage"/>
    <dc:date>2021-08-22T01:28:33.796414</dc:date>
    <dc:format>image/svg+xml</dc:format>
    <dc:creator>
     <cc:Agent>
      <dc:title>Matplotlib v3.4.3, https://matplotlib.org/</dc:title>
     </cc:Agent>
    </dc:creator>
   </cc:Work>
  </rdf:RDF>
 </metadata>
 <defs>
  <style type="text/css">*{stroke-linecap:butt;stroke-linejoin:round;}</style>
 </defs>
 <g id="figure_1">
  <g id="patch_1">
   <path d="M 0 310.86825 
L 414.46375 310.86825 
L 414.46375 0 
L 0 0 
z
" style="fill:#ffffff;"/>
  </g>
  <g id="axes_1">
   <g id="patch_2">
    <path d="M 50.14375 273.312 
L 407.26375 273.312 
L 407.26375 7.2 
L 50.14375 7.2 
z
" style="fill:#ffffff;"/>
   </g>
   <g id="patch_3">
    <path clip-path="url(#p9d5957d300)" d="M 66.978889 273.312 
L 68.599144 273.312 
L 68.599144 272.084688 
L 66.978889 272.084688 
z
" style="fill:#1f77b4;"/>
   </g>
   <g id="patch_4">
    <path clip-path="url(#p9d5957d300)" d="M 68.599144 273.312 
L 70.2194 273.312 
L 70.2194 270.243719 
L 68.599144 270.243719 
z
" style="fill:#1f77b4;"/>
   </g>
   <g id="patch_5">
    <path clip-path="url(#p9d5957d300)" d="M 70.2194 273.312 
L 71.839656 273.312 
L 71.839656 272.084688 
L 70.2194 272.084688 
z
" style="fill:#1f77b4;"/>
   </g>
   <g id="patch_6">
    <path clip-path="url(#p9d5957d300)" d="M 71.839656 273.312 
L 73.459912 273.312 
L 73.459912 271.471031 
L 71.839656 271.471031 
z
" style="fill:#1f77b4;"/>
   </g>
   <g id="patch_7">
    <path clip-path="url(#p9d5957d300)" d="M 73.459912 273.312 
L 75.080167 273.312 
L 75.080167 269.630063 
L 73.459912 269.630063 
z
" style="fill:#1f77b4;"/>
   </g>
   <g id="patch_8">
    <path clip-path="url(#p9d5957d300)" d="M 75.080167 273.312 
L 76.700423 273.312 
L 76.700423 265.948126 
L 75.080167 265.948126 
z
" style="fill:#1f77b4;"/>
   </g>
   <g id="patch_9">
    <path clip-path="url(#p9d5957d300)" d="M 76.700423 273.312 
L 78.320679 273.312 
L 78.320679 265.33447 
L 76.700423 265.33447 
z
" style="fill:#1f77b4;"/>
   </g>
   <g id="patch_10">
    <path clip-path="url(#p9d5957d300)" d="M 78.320679 273.312 
L 79.940935 273.312 
L 79.940935 263.493501 
L 78.320679 263.493501 
z
" style="fill:#1f77b4;"/>
   </g>
   <g id="patch_11">
    <path clip-path="url(#p9d5957d300)" d="M 79.940935 273.312 
L 81.56119 273.312 
L 81.56119 262.266189 
L 79.940935 262.266189 
z
" style="fill:#1f77b4;"/>
   </g>
   <g id="patch_12">
    <path clip-path="url(#p9d5957d300)" d="M 81.56119 273.312 
L 83.181446 273.312 
L 83.181446 259.811564 
L 81.56119 259.811564 
z
" style="fill:#1f77b4;"/>
   </g>
   <g id="patch_13">
    <path clip-path="url(#p9d5957d300)" d="M 83.181446 273.312 
L 84.801702 273.312 
L 84.801702 262.266189 
L 83.181446 262.266189 
z
" style="fill:#1f77b4;"/>
   </g>
   <g id="patch_14">
    <path clip-path="url(#p9d5957d300)" d="M 84.801702 273.312 
L 86.421958 273.312 
L 86.421958 251.220378 
L 84.801702 251.220378 
z
" style="fill:#1f77b4;"/>
   </g>
   <g id="patch_15">
    <path clip-path="url(#p9d5957d300)" d="M 86.421958 273.312 
L 88.042213 273.312 
L 88.042213 249.993065 
L 86.421958 249.993065 
z
" style="fill:#1f77b4;"/>
   </g>
   <g id="patch_16">
    <path clip-path="url(#p9d5957d300)" d="M 88.042213 273.312 
L 89.662469 273.312 
L 89.662469 256.743283 
L 88.042213 256.743283 
z
" style="fill:#1f77b4;"/>
   </g>
   <g id="patch_17">
    <path clip-path="url(#p9d5957d300)" d="M 89.662469 273.312 
L 91.282725 273.312 
L 91.282725 253.061346 
L 89.662469 253.061346 
z
" style="fill:#1f77b4;"/>
   </g>
   <g id="patch_18">
    <path clip-path="url(#p9d5957d300)" d="M 91.282725 273.312 
L 92.902981 273.312 
L 92.902981 256.129627 
L 91.282725 256.129627 
z
" style="fill:#1f77b4;"/>
   </g>
   <g id="patch_19">
    <path clip-path="url(#p9d5957d300)" d="M 92.902981 273.312 
L 94.523236 273.312 
L 94.523236 245.083816 
L 92.902981 245.083816 
z
" style="fill:#1f77b4;"/>
   </g>
   <g id="patch_20">
    <path clip-path="url(#p9d5957d300)" d="M 94.523236 273.312 
L 96.143492 273.312 
L 96.143492 254.902315 
L 94.523236 254.902315 
z
" style="fill:#1f77b4;"/>
   </g>
   <g id="patch_21">
    <path clip-path="url(#p9d5957d300)" d="M 96.143492 273.312 
L 97.763748 273.312 
L 97.763748 245.083816 
L 96.143492 245.083816 
z
" style="fill:#1f77b4;"/>
   </g>
   <g id="patch_22">
    <path clip-path="url(#p9d5957d300)" d="M 97.763748 273.312 
L 99.384004 273.312 
L 99.384004 247.538441 
L 97.763748 247.538441 
z
" style="fill:#1f77b4;"/>
   </g>
   <g id="patch_23">
    <path clip-path="url(#p9d5957d300)" d="M 99.384004 273.312 
L 101.004259 273.312 
L 101.004259 246.311128 
L 99.384004 246.311128 
z
" style="fill:#1f77b4;"/>
   </g>
   <g id="patch_24">
    <path clip-path="url(#p9d5957d300)" d="M 101.004259 273.312 
L 102.624515 273.312 
L 102.624515 251.834034 
L 101.004259 251.834034 
z
" style="fill:#1f77b4;"/>
   </g>
   <g id="patch_25">
    <path clip-path="url(#p9d5957d300)" d="M 102.624515 273.312 
L 104.244771 273.312 
L 104.244771 251.220378 
L 102.624515 251.220378 
z
" style="fill:#1f77b4;"/>
   </g>
   <g id="patch_26">
    <path clip-path="url(#p9d5957d300)" d="M 104.244771 273.312 
L 105.865027 273.312 
L 105.865027 246.311128 
L 104.244771 246.311128 
z
" style="fill:#1f77b4;"/>
   </g>
   <g id="patch_27">
    <path clip-path="url(#p9d5957d300)" d="M 105.865027 273.312 
L 107.485282 273.312 
L 107.485282 243.242847 
L 105.865027 243.242847 
z
" style="fill:#1f77b4;"/>
   </g>
   <g id="patch_28">
    <path clip-path="url(#p9d5957d300)" d="M 107.485282 273.312 
L 109.105538 273.312 
L 109.105538 234.651661 
L 107.485282 234.651661 
z
" style="fill:#1f77b4;"/>
   </g>
   <g id="patch_29">
    <path clip-path="url(#p9d5957d300)" d="M 109.105538 273.312 
L 110.725794 273.312 
L 110.725794 242.629191 
L 109.105538 242.629191 
z
" style="fill:#1f77b4;"/>
   </g>
   <g id="patch_30">
    <path clip-path="url(#p9d5957d300)" d="M 110.725794 273.312 
L 112.346049 273.312 
L 112.346049 238.333598 
L 110.725794 238.333598 
z
" style="fill:#1f77b4;"/>
   </g>
   <g id="patch_31">
    <path clip-path="url(#p9d5957d300)" d="M 112.346049 273.312 
L 113.966305 273.312 
L 113.966305 245.697472 
L 112.346049 245.697472 
z
" style="fill:#1f77b4;"/>
   </g>
   <g id="patch_32">
    <path clip-path="url(#p9d5957d300)" d="M 113.966305 273.312 
L 115.586561 273.312 
L 115.586561 233.424349 
L 113.966305 233.424349 
z
" style="fill:#1f77b4;"/>
   </g>
   <g id="patch_33">
    <path clip-path="url(#p9d5957d300)" d="M 115.586561 273.312 
L 117.206817 273.312 
L 117.206817 247.538441 
L 115.586561 247.538441 
z
" style="fill:#1f77b4;"/>
   </g>
   <g id="patch_34">
    <path clip-path="url(#p9d5957d300)" d="M 117.206817 273.312 
L 118.827072 273.312 
L 118.827072 231.58338 
L 117.206817 231.58338 
z
" style="fill:#1f77b4;"/>
   </g>
   <g id="patch_35">
    <path clip-path="url(#p9d5957d300)" d="M 118.827072 273.312 
L 120.447328 273.312 
L 120.447328 230.969724 
L 118.827072 230.969724 
z
" style="fill:#1f77b4;"/>
   </g>
   <g id="patch_36">
    <path clip-path="url(#p9d5957d300)" d="M 120.447328 273.312 
L 122.067584 273.312 
L 122.067584 234.038005 
L 120.447328 234.038005 
z
" style="fill:#1f77b4;"/>
   </g>
   <g id="patch_37">
    <path clip-path="url(#p9d5957d300)" d="M 122.067584 273.312 
L 123.68784 273.312 
L 123.68784 237.106286 
L 122.067584 237.106286 
z
" style="fill:#1f77b4;"/>
   </g>
   <g id="patch_38">
    <path clip-path="url(#p9d5957d300)" d="M 123.68784 273.312 
L 125.308095 273.312 
L 125.308095 242.015535 
L 123.68784 242.015535 
z
" style="fill:#1f77b4;"/>
   </g>
   <g id="patch_39">
    <path clip-path="url(#p9d5957d300)" d="M 125.308095 273.312 
L 126.928351 273.312 
L 126.928351 230.356068 
L 125.308095 230.356068 
z
" style="fill:#1f77b4;"/>
   </g>
   <g id="patch_40">
    <path clip-path="url(#p9d5957d300)" d="M 126.928351 273.312 
L 128.548607 273.312 
L 128.548607 223.60585 
L 126.928351 223.60585 
z
" style="fill:#1f77b4;"/>
   </g>
   <g id="patch_41">
    <path clip-path="url(#p9d5957d300)" d="M 128.548607 273.312 
L 130.168863 273.312 
L 130.168863 237.106286 
L 128.548607 237.106286 
z
" style="fill:#1f77b4;"/>
   </g>
   <g id="patch_42">
    <path clip-path="url(#p9d5957d300)" d="M 130.168863 273.312 
L 131.789118 273.312 
L 131.789118 221.151225 
L 130.168863 221.151225 
z
" style="fill:#1f77b4;"/>
   </g>
   <g id="patch_43">
    <path clip-path="url(#p9d5957d300)" d="M 131.789118 273.312 
L 133.409374 273.312 
L 133.409374 218.082944 
L 131.789118 218.082944 
z
" style="fill:#1f77b4;"/>
   </g>
   <g id="patch_44">
    <path clip-path="url(#p9d5957d300)" d="M 133.409374 273.312 
L 135.02963 273.312 
L 135.02963 212.560039 
L 133.409374 212.560039 
z
" style="fill:#1f77b4;"/>
   </g>
   <g id="patch_45">
    <path clip-path="url(#p9d5957d300)" d="M 135.02963 273.312 
L 136.649886 273.312 
L 136.649886 215.014663 
L 135.02963 215.014663 
z
" style="fill:#1f77b4;"/>
   </g>
   <g id="patch_46">
    <path clip-path="url(#p9d5957d300)" d="M 136.649886 273.312 
L 138.270141 273.312 
L 138.270141 227.287787 
L 136.649886 227.287787 
z
" style="fill:#1f77b4;"/>
   </g>
   <g id="patch_47">
    <path clip-path="url(#p9d5957d300)" d="M 138.270141 273.312 
L 139.890397 273.312 
L 139.890397 213.173695 
L 138.270141 213.173695 
z
" style="fill:#1f77b4;"/>
   </g>
   <g id="patch_48">
    <path clip-path="url(#p9d5957d300)" d="M 139.890397 273.312 
L 141.510653 273.312 
L 141.510653 219.923913 
L 139.890397 219.923913 
z
" style="fill:#1f77b4;"/>
   </g>
   <g id="patch_49">
    <path clip-path="url(#p9d5957d300)" d="M 141.510653 273.312 
L 143.130909 273.312 
L 143.130909 222.378538 
L 141.510653 222.378538 
z
" style="fill:#1f77b4;"/>
   </g>
   <g id="patch_50">
    <path clip-path="url(#p9d5957d300)" d="M 143.130909 273.312 
L 144.751164 273.312 
L 144.751164 207.650789 
L 143.130909 207.650789 
z
" style="fill:#1f77b4;"/>
   </g>
   <g id="patch_51">
    <path clip-path="url(#p9d5957d300)" d="M 144.751164 273.312 
L 146.37142 273.312 
L 146.37142 221.151225 
L 144.751164 221.151225 
z
" style="fill:#1f77b4;"/>
   </g>
   <g id="patch_52">
    <path clip-path="url(#p9d5957d300)" d="M 146.37142 273.312 
L 147.991676 273.312 
L 147.991676 217.469288 
L 146.37142 217.469288 
z
" style="fill:#1f77b4;"/>
   </g>
   <g id="patch_53">
    <path clip-path="url(#p9d5957d300)" d="M 147.991676 273.312 
L 149.611932 273.312 
L 149.611932 197.832291 
L 147.991676 197.832291 
z
" style="fill:#1f77b4;"/>
   </g>
   <g id="patch_54">
    <path clip-path="url(#p9d5957d300)" d="M 149.611932 273.312 
L 151.232187 273.312 
L 151.232187 224.833162 
L 149.611932 224.833162 
z
" style="fill:#1f77b4;"/>
   </g>
   <g id="patch_55">
    <path clip-path="url(#p9d5957d300)" d="M 151.232187 273.312 
L 152.852443 273.312 
L 152.852443 203.355196 
L 151.232187 203.355196 
z
" style="fill:#1f77b4;"/>
   </g>
   <g id="patch_56">
    <path clip-path="url(#p9d5957d300)" d="M 152.852443 273.312 
L 154.472699 273.312 
L 154.472699 198.445947 
L 152.852443 198.445947 
z
" style="fill:#1f77b4;"/>
   </g>
   <g id="patch_57">
    <path clip-path="url(#p9d5957d300)" d="M 154.472699 273.312 
L 156.092955 273.312 
L 156.092955 213.787351 
L 154.472699 213.787351 
z
" style="fill:#1f77b4;"/>
   </g>
   <g id="patch_58">
    <path clip-path="url(#p9d5957d300)" d="M 156.092955 273.312 
L 157.71321 273.312 
L 157.71321 210.105414 
L 156.092955 210.105414 
z
" style="fill:#1f77b4;"/>
   </g>
   <g id="patch_59">
    <path clip-path="url(#p9d5957d300)" d="M 157.71321 273.312 
L 159.333466 273.312 
L 159.333466 200.900571 
L 157.71321 200.900571 
z
" style="fill:#1f77b4;"/>
   </g>
   <g id="patch_60">
    <path clip-path="url(#p9d5957d300)" d="M 159.333466 273.312 
L 160.953722 273.312 
L 160.953722 195.991322 
L 159.333466 195.991322 
z
" style="fill:#1f77b4;"/>
   </g>
   <g id="patch_61">
    <path clip-path="url(#p9d5957d300)" d="M 160.953722 273.312 
L 162.573978 273.312 
L 162.573978 205.196165 
L 160.953722 205.196165 
z
" style="fill:#1f77b4;"/>
   </g>
   <g id="patch_62">
    <path clip-path="url(#p9d5957d300)" d="M 162.573978 273.312 
L 164.194233 273.312 
L 164.194233 206.423477 
L 162.573978 206.423477 
z
" style="fill:#1f77b4;"/>
   </g>
   <g id="patch_63">
    <path clip-path="url(#p9d5957d300)" d="M 164.194233 273.312 
L 165.814489 273.312 
L 165.814489 194.150354 
L 164.194233 194.150354 
z
" style="fill:#1f77b4;"/>
   </g>
   <g id="patch_64">
    <path clip-path="url(#p9d5957d300)" d="M 165.814489 273.312 
L 167.434745 273.312 
L 167.434745 205.809821 
L 165.814489 205.809821 
z
" style="fill:#1f77b4;"/>
   </g>
   <g id="patch_65">
    <path clip-path="url(#p9d5957d300)" d="M 167.434745 273.312 
L 169.055001 273.312 
L 169.055001 199.059603 
L 167.434745 199.059603 
z
" style="fill:#1f77b4;"/>
   </g>
   <g id="patch_66">
    <path clip-path="url(#p9d5957d300)" d="M 169.055001 273.312 
L 170.675256 273.312 
L 170.675256 186.172823 
L 169.055001 186.172823 
z
" style="fill:#1f77b4;"/>
   </g>
   <g id="patch_67">
    <path clip-path="url(#p9d5957d300)" d="M 170.675256 273.312 
L 172.295512 273.312 
L 172.295512 194.76401 
L 170.675256 194.76401 
z
" style="fill:#1f77b4;"/>
   </g>
   <g id="patch_68">
    <path clip-path="url(#p9d5957d300)" d="M 172.295512 273.312 
L 173.915768 273.312 
L 173.915768 206.423477 
L 172.295512 206.423477 
z
" style="fill:#1f77b4;"/>
   </g>
   <g id="patch_69">
    <path clip-path="url(#p9d5957d300)" d="M 173.915768 273.312 
L 175.536024 273.312 
L 175.536024 195.991322 
L 173.915768 195.991322 
z
" style="fill:#1f77b4;"/>
   </g>
   <g id="patch_70">
    <path clip-path="url(#p9d5957d300)" d="M 175.536024 273.312 
L 177.156279 273.312 
L 177.156279 181.263574 
L 175.536024 181.263574 
z
" style="fill:#1f77b4;"/>
   </g>
   <g id="patch_71">
    <path clip-path="url(#p9d5957d300)" d="M 177.156279 273.312 
L 178.776535 273.312 
L 178.776535 188.627448 
L 177.156279 188.627448 
z
" style="fill:#1f77b4;"/>
   </g>
   <g id="patch_72">
    <path clip-path="url(#p9d5957d300)" d="M 178.776535 273.312 
L 180.396791 273.312 
L 180.396791 189.85476 
L 178.776535 189.85476 
z
" style="fill:#1f77b4;"/>
   </g>
   <g id="patch_73">
    <path clip-path="url(#p9d5957d300)" d="M 180.396791 273.312 
L 182.017047 273.312 
L 182.017047 192.309385 
L 180.396791 192.309385 
z
" style="fill:#1f77b4;"/>
   </g>
   <g id="patch_74">
    <path clip-path="url(#p9d5957d300)" d="M 182.017047 273.312 
L 183.637302 273.312 
L 183.637302 186.172823 
L 182.017047 186.172823 
z
" style="fill:#1f77b4;"/>
   </g>
   <g id="patch_75">
    <path clip-path="url(#p9d5957d300)" d="M 183.637302 273.312 
L 185.257558 273.312 
L 185.257558 186.786479 
L 183.637302 186.786479 
z
" style="fill:#1f77b4;"/>
   </g>
   <g id="patch_76">
    <path clip-path="url(#p9d5957d300)" d="M 185.257558 273.312 
L 186.877814 273.312 
L 186.877814 186.786479 
L 185.257558 186.786479 
z
" style="fill:#1f77b4;"/>
   </g>
   <g id="patch_77">
    <path clip-path="url(#p9d5957d300)" d="M 186.877814 273.312 
L 188.49807 273.312 
L 188.49807 180.649918 
L 186.877814 180.649918 
z
" style="fill:#1f77b4;"/>
   </g>
   <g id="patch_78">
    <path clip-path="url(#p9d5957d300)" d="M 188.49807 273.312 
L 190.118325 273.312 
L 190.118325 186.786479 
L 188.49807 186.786479 
z
" style="fill:#1f77b4;"/>
   </g>
   <g id="patch_79">
    <path clip-path="url(#p9d5957d300)" d="M 190.118325 273.312 
L 191.738581 273.312 
L 191.738581 185.559167 
L 190.118325 185.559167 
z
" style="fill:#1f77b4;"/>
   </g>
   <g id="patch_80">
    <path clip-path="url(#p9d5957d300)" d="M 191.738581 273.312 
L 193.358837 273.312 
L 193.358837 166.535826 
L 191.738581 166.535826 
z
" style="fill:#1f77b4;"/>
   </g>
   <g id="patch_81">
    <path clip-path="url(#p9d5957d300)" d="M 193.358837 273.312 
L 194.979093 273.312 
L 194.979093 179.422605 
L 193.358837 179.422605 
z
" style="fill:#1f77b4;"/>
   </g>
   <g id="patch_82">
    <path clip-path="url(#p9d5957d300)" d="M 194.979093 273.312 
L 196.599348 273.312 
L 196.599348 167.149482 
L 194.979093 167.149482 
z
" style="fill:#1f77b4;"/>
   </g>
   <g id="patch_83">
    <path clip-path="url(#p9d5957d300)" d="M 196.599348 273.312 
L 198.219604 273.312 
L 198.219604 170.217763 
L 196.599348 170.217763 
z
" style="fill:#1f77b4;"/>
   </g>
   <g id="patch_84">
    <path clip-path="url(#p9d5957d300)" d="M 198.219604 273.312 
L 199.83986 273.312 
L 199.83986 162.853889 
L 198.219604 162.853889 
z
" style="fill:#1f77b4;"/>
   </g>
   <g id="patch_85">
    <path clip-path="url(#p9d5957d300)" d="M 199.83986 273.312 
L 201.460116 273.312 
L 201.460116 161.626576 
L 199.83986 161.626576 
z
" style="fill:#1f77b4;"/>
   </g>
   <g id="patch_86">
    <path clip-path="url(#p9d5957d300)" d="M 201.460116 273.312 
L 203.080371 273.312 
L 203.080371 162.853889 
L 201.460116 162.853889 
z
" style="fill:#1f77b4;"/>
   </g>
   <g id="patch_87">
    <path clip-path="url(#p9d5957d300)" d="M 203.080371 273.312 
L 204.700627 273.312 
L 204.700627 171.445075 
L 203.080371 171.445075 
z
" style="fill:#1f77b4;"/>
   </g>
   <g id="patch_88">
    <path clip-path="url(#p9d5957d300)" d="M 204.700627 273.312 
L 206.320883 273.312 
L 206.320883 167.763138 
L 204.700627 167.763138 
z
" style="fill:#1f77b4;"/>
   </g>
   <g id="patch_89">
    <path clip-path="url(#p9d5957d300)" d="M 206.320883 273.312 
L 207.941139 273.312 
L 207.941139 167.149482 
L 206.320883 167.149482 
z
" style="fill:#1f77b4;"/>
   </g>
   <g id="patch_90">
    <path clip-path="url(#p9d5957d300)" d="M 207.941139 273.312 
L 209.561394 273.312 
L 209.561394 164.081201 
L 207.941139 164.081201 
z
" style="fill:#1f77b4;"/>
   </g>
   <g id="patch_91">
    <path clip-path="url(#p9d5957d300)" d="M 209.561394 273.312 
L 211.18165 273.312 
L 211.18165 163.467545 
L 209.561394 163.467545 
z
" style="fill:#1f77b4;"/>
   </g>
   <g id="patch_92">
    <path clip-path="url(#p9d5957d300)" d="M 211.18165 273.312 
L 212.801906 273.312 
L 212.801906 173.8997 
L 211.18165 173.8997 
z
" style="fill:#1f77b4;"/>
   </g>
   <g id="patch_93">
    <path clip-path="url(#p9d5957d300)" d="M 212.801906 273.312 
L 214.422162 273.312 
L 214.422162 159.171952 
L 212.801906 159.171952 
z
" style="fill:#1f77b4;"/>
   </g>
   <g id="patch_94">
    <path clip-path="url(#p9d5957d300)" d="M 214.422162 273.312 
L 216.042417 273.312 
L 216.042417 155.490015 
L 214.422162 155.490015 
z
" style="fill:#1f77b4;"/>
   </g>
   <g id="patch_95">
    <path clip-path="url(#p9d5957d300)" d="M 216.042417 273.312 
L 217.662673 273.312 
L 217.662673 142.603235 
L 216.042417 142.603235 
z
" style="fill:#1f77b4;"/>
   </g>
   <g id="patch_96">
    <path clip-path="url(#p9d5957d300)" d="M 217.662673 273.312 
L 219.282929 273.312 
L 219.282929 162.240232 
L 217.662673 162.240232 
z
" style="fill:#1f77b4;"/>
   </g>
   <g id="patch_97">
    <path clip-path="url(#p9d5957d300)" d="M 219.282929 273.312 
L 220.903184 273.312 
L 220.903184 153.649046 
L 219.282929 153.649046 
z
" style="fill:#1f77b4;"/>
   </g>
   <g id="patch_98">
    <path clip-path="url(#p9d5957d300)" d="M 220.903184 273.312 
L 222.52344 273.312 
L 222.52344 145.05786 
L 220.903184 145.05786 
z
" style="fill:#1f77b4;"/>
   </g>
   <g id="patch_99">
    <path clip-path="url(#p9d5957d300)" d="M 222.52344 273.312 
L 224.143696 273.312 
L 224.143696 153.03539 
L 222.52344 153.03539 
z
" style="fill:#1f77b4;"/>
   </g>
   <g id="patch_100">
    <path clip-path="url(#p9d5957d300)" d="M 224.143696 273.312 
L 225.763952 273.312 
L 225.763952 148.12614 
L 224.143696 148.12614 
z
" style="fill:#1f77b4;"/>
   </g>
   <g id="patch_101">
    <path clip-path="url(#p9d5957d300)" d="M 225.763952 273.312 
L 227.384207 273.312 
L 227.384207 149.967109 
L 225.763952 149.967109 
z
" style="fill:#1f77b4;"/>
   </g>
   <g id="patch_102">
    <path clip-path="url(#p9d5957d300)" d="M 227.384207 273.312 
L 229.004463 273.312 
L 229.004463 148.12614 
L 227.384207 148.12614 
z
" style="fill:#1f77b4;"/>
   </g>
   <g id="patch_103">
    <path clip-path="url(#p9d5957d300)" d="M 229.004463 273.312 
L 230.624719 273.312 
L 230.624719 163.467545 
L 229.004463 163.467545 
z
" style="fill:#1f77b4;"/>
   </g>
   <g id="patch_104">
    <path clip-path="url(#p9d5957d300)" d="M 230.624719 273.312 
L 232.244975 273.312 
L 232.244975 146.898828 
L 230.624719 146.898828 
z
" style="fill:#1f77b4;"/>
   </g>
   <g id="patch_105">
    <path clip-path="url(#p9d5957d300)" d="M 232.244975 273.312 
L 233.86523 273.312 
L 233.86523 154.262702 
L 232.244975 154.262702 
z
" style="fill:#1f77b4;"/>
   </g>
   <g id="patch_106">
    <path clip-path="url(#p9d5957d300)" d="M 233.86523 273.312 
L 235.485486 273.312 
L 235.485486 146.898828 
L 233.86523 146.898828 
z
" style="fill:#1f77b4;"/>
   </g>
   <g id="patch_107">
    <path clip-path="url(#p9d5957d300)" d="M 235.485486 273.312 
L 237.105742 273.312 
L 237.105742 137.080329 
L 235.485486 137.080329 
z
" style="fill:#1f77b4;"/>
   </g>
   <g id="patch_108">
    <path clip-path="url(#p9d5957d300)" d="M 237.105742 273.312 
L 238.725998 273.312 
L 238.725998 138.921298 
L 237.105742 138.921298 
z
" style="fill:#1f77b4;"/>
   </g>
   <g id="patch_109">
    <path clip-path="url(#p9d5957d300)" d="M 238.725998 273.312 
L 240.346253 273.312 
L 240.346253 141.989579 
L 238.725998 141.989579 
z
" style="fill:#1f77b4;"/>
   </g>
   <g id="patch_110">
    <path clip-path="url(#p9d5957d300)" d="M 240.346253 273.312 
L 241.966509 273.312 
L 241.966509 143.830547 
L 240.346253 143.830547 
z
" style="fill:#1f77b4;"/>
   </g>
   <g id="patch_111">
    <path clip-path="url(#p9d5957d300)" d="M 241.966509 273.312 
L 243.586765 273.312 
L 243.586765 148.12614 
L 241.966509 148.12614 
z
" style="fill:#1f77b4;"/>
   </g>
   <g id="patch_112">
    <path clip-path="url(#p9d5957d300)" d="M 243.586765 273.312 
L 245.207021 273.312 
L 245.207021 144.444203 
L 243.586765 144.444203 
z
" style="fill:#1f77b4;"/>
   </g>
   <g id="patch_113">
    <path clip-path="url(#p9d5957d300)" d="M 245.207021 273.312 
L 246.827276 273.312 
L 246.827276 121.125269 
L 245.207021 121.125269 
z
" style="fill:#1f77b4;"/>
   </g>
   <g id="patch_114">
    <path clip-path="url(#p9d5957d300)" d="M 246.827276 273.312 
L 248.447532 273.312 
L 248.447532 132.784736 
L 246.827276 132.784736 
z
" style="fill:#1f77b4;"/>
   </g>
   <g id="patch_115">
    <path clip-path="url(#p9d5957d300)" d="M 248.447532 273.312 
L 250.067788 273.312 
L 250.067788 140.14861 
L 248.447532 140.14861 
z
" style="fill:#1f77b4;"/>
   </g>
   <g id="patch_116">
    <path clip-path="url(#p9d5957d300)" d="M 250.067788 273.312 
L 251.688044 273.312 
L 251.688044 153.03539 
L 250.067788 153.03539 
z
" style="fill:#1f77b4;"/>
   </g>
   <g id="patch_117">
    <path clip-path="url(#p9d5957d300)" d="M 251.688044 273.312 
L 253.308299 273.312 
L 253.308299 141.989579 
L 251.688044 141.989579 
z
" style="fill:#1f77b4;"/>
   </g>
   <g id="patch_118">
    <path clip-path="url(#p9d5957d300)" d="M 253.308299 273.312 
L 254.928555 273.312 
L 254.928555 118.670644 
L 253.308299 118.670644 
z
" style="fill:#1f77b4;"/>
   </g>
   <g id="patch_119">
    <path clip-path="url(#p9d5957d300)" d="M 254.928555 273.312 
L 256.548811 273.312 
L 256.548811 122.966237 
L 254.928555 122.966237 
z
" style="fill:#1f77b4;"/>
   </g>
   <g id="patch_120">
    <path clip-path="url(#p9d5957d300)" d="M 256.548811 273.312 
L 258.169067 273.312 
L 258.169067 130.943768 
L 256.548811 130.943768 
z
" style="fill:#1f77b4;"/>
   </g>
   <g id="patch_121">
    <path clip-path="url(#p9d5957d300)" d="M 258.169067 273.312 
L 259.789322 273.312 
L 259.789322 129.716455 
L 258.169067 129.716455 
z
" style="fill:#1f77b4;"/>
   </g>
   <g id="patch_122">
    <path clip-path="url(#p9d5957d300)" d="M 259.789322 273.312 
L 261.409578 273.312 
L 261.409578 126.648174 
L 259.789322 126.648174 
z
" style="fill:#1f77b4;"/>
   </g>
   <g id="patch_123">
    <path clip-path="url(#p9d5957d300)" d="M 261.409578 273.312 
L 263.029834 273.312 
L 263.029834 121.125269 
L 261.409578 121.125269 
z
" style="fill:#1f77b4;"/>
   </g>
   <g id="patch_124">
    <path clip-path="url(#p9d5957d300)" d="M 263.029834 273.312 
L 264.65009 273.312 
L 264.65009 134.625705 
L 263.029834 134.625705 
z
" style="fill:#1f77b4;"/>
   </g>
   <g id="patch_125">
    <path clip-path="url(#p9d5957d300)" d="M 264.65009 273.312 
L 266.270345 273.312 
L 266.270345 127.875487 
L 264.65009 127.875487 
z
" style="fill:#1f77b4;"/>
   </g>
   <g id="patch_126">
    <path clip-path="url(#p9d5957d300)" d="M 266.270345 273.312 
L 267.890601 273.312 
L 267.890601 136.466673 
L 266.270345 136.466673 
z
" style="fill:#1f77b4;"/>
   </g>
   <g id="patch_127">
    <path clip-path="url(#p9d5957d300)" d="M 267.890601 273.312 
L 269.510857 273.312 
L 269.510857 130.330111 
L 267.890601 130.330111 
z
" style="fill:#1f77b4;"/>
   </g>
   <g id="patch_128">
    <path clip-path="url(#p9d5957d300)" d="M 269.510857 273.312 
L 271.131113 273.312 
L 271.131113 107.624833 
L 269.510857 107.624833 
z
" style="fill:#1f77b4;"/>
   </g>
   <g id="patch_129">
    <path clip-path="url(#p9d5957d300)" d="M 271.131113 273.312 
L 272.751368 273.312 
L 272.751368 124.19355 
L 271.131113 124.19355 
z
" style="fill:#1f77b4;"/>
   </g>
   <g id="patch_130">
    <path clip-path="url(#p9d5957d300)" d="M 272.751368 273.312 
L 274.371624 273.312 
L 274.371624 113.761395 
L 272.751368 113.761395 
z
" style="fill:#1f77b4;"/>
   </g>
   <g id="patch_131">
    <path clip-path="url(#p9d5957d300)" d="M 274.371624 273.312 
L 275.99188 273.312 
L 275.99188 102.715584 
L 274.371624 102.715584 
z
" style="fill:#1f77b4;"/>
   </g>
   <g id="patch_132">
    <path clip-path="url(#p9d5957d300)" d="M 275.99188 273.312 
L 277.612136 273.312 
L 277.612136 118.670644 
L 275.99188 118.670644 
z
" style="fill:#1f77b4;"/>
   </g>
   <g id="patch_133">
    <path clip-path="url(#p9d5957d300)" d="M 277.612136 273.312 
L 279.232391 273.312 
L 279.232391 119.897956 
L 277.612136 119.897956 
z
" style="fill:#1f77b4;"/>
   </g>
   <g id="patch_134">
    <path clip-path="url(#p9d5957d300)" d="M 279.232391 273.312 
L 280.852647 273.312 
L 280.852647 111.30677 
L 279.232391 111.30677 
z
" style="fill:#1f77b4;"/>
   </g>
   <g id="patch_135">
    <path clip-path="url(#p9d5957d300)" d="M 280.852647 273.312 
L 282.472903 273.312 
L 282.472903 93.510741 
L 280.852647 93.510741 
z
" style="fill:#1f77b4;"/>
   </g>
   <g id="patch_136">
    <path clip-path="url(#p9d5957d300)" d="M 282.472903 273.312 
L 284.093159 273.312 
L 284.093159 86.760523 
L 282.472903 86.760523 
z
" style="fill:#1f77b4;"/>
   </g>
   <g id="patch_137">
    <path clip-path="url(#p9d5957d300)" d="M 284.093159 273.312 
L 285.713414 273.312 
L 285.713414 100.260959 
L 284.093159 100.260959 
z
" style="fill:#1f77b4;"/>
   </g>
   <g id="patch_138">
    <path clip-path="url(#p9d5957d300)" d="M 285.713414 273.312 
L 287.33367 273.312 
L 287.33367 102.715584 
L 285.713414 102.715584 
z
" style="fill:#1f77b4;"/>
   </g>
   <g id="patch_139">
    <path clip-path="url(#p9d5957d300)" d="M 287.33367 273.312 
L 288.953926 273.312 
L 288.953926 91.056116 
L 287.33367 91.056116 
z
" style="fill:#1f77b4;"/>
   </g>
   <g id="patch_140">
    <path clip-path="url(#p9d5957d300)" d="M 288.953926 273.312 
L 290.574182 273.312 
L 290.574182 111.30677 
L 288.953926 111.30677 
z
" style="fill:#1f77b4;"/>
   </g>
   <g id="patch_141">
    <path clip-path="url(#p9d5957d300)" d="M 290.574182 273.312 
L 292.194437 273.312 
L 292.194437 97.192678 
L 290.574182 97.192678 
z
" style="fill:#1f77b4;"/>
   </g>
   <g id="patch_142">
    <path clip-path="url(#p9d5957d300)" d="M 292.194437 273.312 
L 293.814693 273.312 
L 293.814693 110.693114 
L 292.194437 110.693114 
z
" style="fill:#1f77b4;"/>
   </g>
   <g id="patch_143">
    <path clip-path="url(#p9d5957d300)" d="M 293.814693 273.312 
L 295.434949 273.312 
L 295.434949 106.397521 
L 293.814693 106.397521 
z
" style="fill:#1f77b4;"/>
   </g>
   <g id="patch_144">
    <path clip-path="url(#p9d5957d300)" d="M 295.434949 273.312 
L 297.055205 273.312 
L 297.055205 86.760523 
L 295.434949 86.760523 
z
" style="fill:#1f77b4;"/>
   </g>
   <g id="patch_145">
    <path clip-path="url(#p9d5957d300)" d="M 297.055205 273.312 
L 298.67546 273.312 
L 298.67546 109.465801 
L 297.055205 109.465801 
z
" style="fill:#1f77b4;"/>
   </g>
   <g id="patch_146">
    <path clip-path="url(#p9d5957d300)" d="M 298.67546 273.312 
L 300.295716 273.312 
L 300.295716 106.397521 
L 298.67546 106.397521 
z
" style="fill:#1f77b4;"/>
   </g>
   <g id="patch_147">
    <path clip-path="url(#p9d5957d300)" d="M 300.295716 273.312 
L 301.915972 273.312 
L 301.915972 93.510741 
L 300.295716 93.510741 
z
" style="fill:#1f77b4;"/>
   </g>
   <g id="patch_148">
    <path clip-path="url(#p9d5957d300)" d="M 301.915972 273.312 
L 303.536228 273.312 
L 303.536228 95.351709 
L 301.915972 95.351709 
z
" style="fill:#1f77b4;"/>
   </g>
   <g id="patch_149">
    <path clip-path="url(#p9d5957d300)" d="M 303.536228 273.312 
L 305.156483 273.312 
L 305.156483 98.41999 
L 303.536228 98.41999 
z
" style="fill:#1f77b4;"/>
   </g>
   <g id="patch_150">
    <path clip-path="url(#p9d5957d300)" d="M 305.156483 273.312 
L 306.776739 273.312 
L 306.776739 100.260959 
L 305.156483 100.260959 
z
" style="fill:#1f77b4;"/>
   </g>
   <g id="patch_151">
    <path clip-path="url(#p9d5957d300)" d="M 306.776739 273.312 
L 308.396995 273.312 
L 308.396995 83.078586 
L 306.776739 83.078586 
z
" style="fill:#1f77b4;"/>
   </g>
   <g id="patch_152">
    <path clip-path="url(#p9d5957d300)" d="M 308.396995 273.312 
L 310.017251 273.312 
L 310.017251 86.760523 
L 308.396995 86.760523 
z
" style="fill:#1f77b4;"/>
   </g>
   <g id="patch_153">
    <path clip-path="url(#p9d5957d300)" d="M 310.017251 273.312 
L 311.637506 273.312 
L 311.637506 84.305898 
L 310.017251 84.305898 
z
" style="fill:#1f77b4;"/>
   </g>
   <g id="patch_154">
    <path clip-path="url(#p9d5957d300)" d="M 311.637506 273.312 
L 313.257762 273.312 
L 313.257762 72.032775 
L 311.637506 72.032775 
z
" style="fill:#1f77b4;"/>
   </g>
   <g id="patch_155">
    <path clip-path="url(#p9d5957d300)" d="M 313.257762 273.312 
L 314.878018 273.312 
L 314.878018 91.669772 
L 313.257762 91.669772 
z
" style="fill:#1f77b4;"/>
   </g>
   <g id="patch_156">
    <path clip-path="url(#p9d5957d300)" d="M 314.878018 273.312 
L 316.498274 273.312 
L 316.498274 79.396649 
L 314.878018 79.396649 
z
" style="fill:#1f77b4;"/>
   </g>
   <g id="patch_157">
    <path clip-path="url(#p9d5957d300)" d="M 316.498274 273.312 
L 318.118529 273.312 
L 318.118529 76.328368 
L 316.498274 76.328368 
z
" style="fill:#1f77b4;"/>
   </g>
   <g id="patch_158">
    <path clip-path="url(#p9d5957d300)" d="M 318.118529 273.312 
L 319.738785 273.312 
L 319.738785 60.373308 
L 318.118529 60.373308 
z
" style="fill:#1f77b4;"/>
   </g>
   <g id="patch_159">
    <path clip-path="url(#p9d5957d300)" d="M 319.738785 273.312 
L 321.359041 273.312 
L 321.359041 77.55568 
L 319.738785 77.55568 
z
" style="fill:#1f77b4;"/>
   </g>
   <g id="patch_160">
    <path clip-path="url(#p9d5957d300)" d="M 321.359041 273.312 
L 322.979296 273.312 
L 322.979296 102.101927 
L 321.359041 102.101927 
z
" style="fill:#1f77b4;"/>
   </g>
   <g id="patch_161">
    <path clip-path="url(#p9d5957d300)" d="M 322.979296 273.312 
L 324.599552 273.312 
L 324.599552 76.942024 
L 322.979296 76.942024 
z
" style="fill:#1f77b4;"/>
   </g>
   <g id="patch_162">
    <path clip-path="url(#p9d5957d300)" d="M 324.599552 273.312 
L 326.219808 273.312 
L 326.219808 75.101056 
L 324.599552 75.101056 
z
" style="fill:#1f77b4;"/>
   </g>
   <g id="patch_163">
    <path clip-path="url(#p9d5957d300)" d="M 326.219808 273.312 
L 327.840064 273.312 
L 327.840064 80.623961 
L 326.219808 80.623961 
z
" style="fill:#1f77b4;"/>
   </g>
   <g id="patch_164">
    <path clip-path="url(#p9d5957d300)" d="M 327.840064 273.312 
L 329.460319 273.312 
L 329.460319 77.55568 
L 327.840064 77.55568 
z
" style="fill:#1f77b4;"/>
   </g>
   <g id="patch_165">
    <path clip-path="url(#p9d5957d300)" d="M 329.460319 273.312 
L 331.080575 273.312 
L 331.080575 72.646431 
L 329.460319 72.646431 
z
" style="fill:#1f77b4;"/>
   </g>
   <g id="patch_166">
    <path clip-path="url(#p9d5957d300)" d="M 331.080575 273.312 
L 332.700831 273.312 
L 332.700831 94.738053 
L 331.080575 94.738053 
z
" style="fill:#1f77b4;"/>
   </g>
   <g id="patch_167">
    <path clip-path="url(#p9d5957d300)" d="M 332.700831 273.312 
L 334.321087 273.312 
L 334.321087 52.395777 
L 332.700831 52.395777 
z
" style="fill:#1f77b4;"/>
   </g>
   <g id="patch_168">
    <path clip-path="url(#p9d5957d300)" d="M 334.321087 273.312 
L 335.941342 273.312 
L 335.941342 61.60062 
L 334.321087 61.60062 
z
" style="fill:#1f77b4;"/>
   </g>
   <g id="patch_169">
    <path clip-path="url(#p9d5957d300)" d="M 335.941342 273.312 
L 337.561598 273.312 
L 337.561598 87.987835 
L 335.941342 87.987835 
z
" style="fill:#1f77b4;"/>
   </g>
   <g id="patch_170">
    <path clip-path="url(#p9d5957d300)" d="M 337.561598 273.312 
L 339.181854 273.312 
L 339.181854 73.260087 
L 337.561598 73.260087 
z
" style="fill:#1f77b4;"/>
   </g>
   <g id="patch_171">
    <path clip-path="url(#p9d5957d300)" d="M 339.181854 273.312 
L 340.80211 273.312 
L 340.80211 75.714712 
L 339.181854 75.714712 
z
" style="fill:#1f77b4;"/>
   </g>
   <g id="patch_172">
    <path clip-path="url(#p9d5957d300)" d="M 340.80211 273.312 
L 342.422365 273.312 
L 342.422365 48.100184 
L 340.80211 48.100184 
z
" style="fill:#1f77b4;"/>
   </g>
   <g id="patch_173">
    <path clip-path="url(#p9d5957d300)" d="M 342.422365 273.312 
L 344.042621 273.312 
L 344.042621 72.646431 
L 342.422365 72.646431 
z
" style="fill:#1f77b4;"/>
   </g>
   <g id="patch_174">
    <path clip-path="url(#p9d5957d300)" d="M 344.042621 273.312 
L 345.662877 273.312 
L 345.662877 41.963622 
L 344.042621 41.963622 
z
" style="fill:#1f77b4;"/>
   </g>
   <g id="patch_175">
    <path clip-path="url(#p9d5957d300)" d="M 345.662877 273.312 
L 347.283133 273.312 
L 347.283133 80.623961 
L 345.662877 80.623961 
z
" style="fill:#1f77b4;"/>
   </g>
   <g id="patch_176">
    <path clip-path="url(#p9d5957d300)" d="M 347.283133 273.312 
L 348.903388 273.312 
L 348.903388 59.145995 
L 347.283133 59.145995 
z
" style="fill:#1f77b4;"/>
   </g>
   <g id="patch_177">
    <path clip-path="url(#p9d5957d300)" d="M 348.903388 273.312 
L 350.523644 273.312 
L 350.523644 47.486528 
L 348.903388 47.486528 
z
" style="fill:#1f77b4;"/>
   </g>
   <g id="patch_178">
    <path clip-path="url(#p9d5957d300)" d="M 350.523644 273.312 
L 352.1439 273.312 
L 352.1439 82.46493 
L 350.523644 82.46493 
z
" style="fill:#1f77b4;"/>
   </g>
   <g id="patch_179">
    <path clip-path="url(#p9d5957d300)" d="M 352.1439 273.312 
L 353.764156 273.312 
L 353.764156 81.851274 
L 352.1439 81.851274 
z
" style="fill:#1f77b4;"/>
   </g>
   <g id="patch_180">
    <path clip-path="url(#p9d5957d300)" d="M 353.764156 273.312 
L 355.384411 273.312 
L 355.384411 56.69137 
L 353.764156 56.69137 
z
" style="fill:#1f77b4;"/>
   </g>
   <g id="patch_181">
    <path clip-path="url(#p9d5957d300)" d="M 355.384411 273.312 
L 357.004667 273.312 
L 357.004667 54.236746 
L 355.384411 54.236746 
z
" style="fill:#1f77b4;"/>
   </g>
   <g id="patch_182">
    <path clip-path="url(#p9d5957d300)" d="M 357.004667 273.312 
L 358.624923 273.312 
L 358.624923 49.327496 
L 357.004667 49.327496 
z
" style="fill:#1f77b4;"/>
   </g>
   <g id="patch_183">
    <path clip-path="url(#p9d5957d300)" d="M 358.624923 273.312 
L 360.245179 273.312 
L 360.245179 44.418247 
L 358.624923 44.418247 
z
" style="fill:#1f77b4;"/>
   </g>
   <g id="patch_184">
    <path clip-path="url(#p9d5957d300)" d="M 360.245179 273.312 
L 361.865434 273.312 
L 361.865434 37.668029 
L 360.245179 37.668029 
z
" style="fill:#1f77b4;"/>
   </g>
   <g id="patch_185">
    <path clip-path="url(#p9d5957d300)" d="M 361.865434 273.312 
L 363.48569 273.312 
L 363.48569 47.486528 
L 361.865434 47.486528 
z
" style="fill:#1f77b4;"/>
   </g>
   <g id="patch_186">
    <path clip-path="url(#p9d5957d300)" d="M 363.48569 273.312 
L 365.105946 273.312 
L 365.105946 62.827932 
L 363.48569 62.827932 
z
" style="fill:#1f77b4;"/>
   </g>
   <g id="patch_187">
    <path clip-path="url(#p9d5957d300)" d="M 365.105946 273.312 
L 366.726202 273.312 
L 366.726202 39.508998 
L 365.105946 39.508998 
z
" style="fill:#1f77b4;"/>
   </g>
   <g id="patch_188">
    <path clip-path="url(#p9d5957d300)" d="M 366.726202 273.312 
L 368.346457 273.312 
L 368.346457 67.123525 
L 366.726202 67.123525 
z
" style="fill:#1f77b4;"/>
   </g>
   <g id="patch_189">
    <path clip-path="url(#p9d5957d300)" d="M 368.346457 273.312 
L 369.966713 273.312 
L 369.966713 48.100184 
L 368.346457 48.100184 
z
" style="fill:#1f77b4;"/>
   </g>
   <g id="patch_190">
    <path clip-path="url(#p9d5957d300)" d="M 369.966713 273.312 
L 371.586969 273.312 
L 371.586969 29.076843 
L 369.966713 29.076843 
z
" style="fill:#1f77b4;"/>
   </g>
   <g id="patch_191">
    <path clip-path="url(#p9d5957d300)" d="M 371.586969 273.312 
L 373.207225 273.312 
L 373.207225 38.895341 
L 371.586969 38.895341 
z
" style="fill:#1f77b4;"/>
   </g>
   <g id="patch_192">
    <path clip-path="url(#p9d5957d300)" d="M 373.207225 273.312 
L 374.82748 273.312 
L 374.82748 54.236746 
L 373.207225 54.236746 
z
" style="fill:#1f77b4;"/>
   </g>
   <g id="patch_193">
    <path clip-path="url(#p9d5957d300)" d="M 374.82748 273.312 
L 376.447736 273.312 
L 376.447736 41.349966 
L 374.82748 41.349966 
z
" style="fill:#1f77b4;"/>
   </g>
   <g id="patch_194">
    <path clip-path="url(#p9d5957d300)" d="M 376.447736 273.312 
L 378.067992 273.312 
L 378.067992 43.804591 
L 376.447736 43.804591 
z
" style="fill:#1f77b4;"/>
   </g>
   <g id="patch_195">
    <path clip-path="url(#p9d5957d300)" d="M 378.067992 273.312 
L 379.688248 273.312 
L 379.688248 56.69137 
L 378.067992 56.69137 
z
" style="fill:#1f77b4;"/>
   </g>
   <g id="patch_196">
    <path clip-path="url(#p9d5957d300)" d="M 379.688248 273.312 
L 381.308503 273.312 
L 381.308503 45.031903 
L 379.688248 45.031903 
z
" style="fill:#1f77b4;"/>
   </g>
   <g id="patch_197">
    <path clip-path="url(#p9d5957d300)" d="M 381.308503 273.312 
L 382.928759 273.312 
L 382.928759 43.804591 
L 381.308503 43.804591 
z
" style="fill:#1f77b4;"/>
   </g>
   <g id="patch_198">
    <path clip-path="url(#p9d5957d300)" d="M 382.928759 273.312 
L 384.549015 273.312 
L 384.549015 27.235874 
L 382.928759 27.235874 
z
" style="fill:#1f77b4;"/>
   </g>
   <g id="patch_199">
    <path clip-path="url(#p9d5957d300)" d="M 384.549015 273.312 
L 386.169271 273.312 
L 386.169271 19.872 
L 384.549015 19.872 
z
" style="fill:#1f77b4;"/>
   </g>
   <g id="patch_200">
    <path clip-path="url(#p9d5957d300)" d="M 386.169271 273.312 
L 387.789526 273.312 
L 387.789526 29.076843 
L 386.169271 29.076843 
z
" style="fill:#1f77b4;"/>
   </g>
   <g id="patch_201">
    <path clip-path="url(#p9d5957d300)" d="M 387.789526 273.312 
L 389.409782 273.312 
L 389.409782 37.054373 
L 387.789526 37.054373 
z
" style="fill:#1f77b4;"/>
   </g>
   <g id="patch_202">
    <path clip-path="url(#p9d5957d300)" d="M 389.409782 273.312 
L 391.030038 273.312 
L 391.030038 25.394906 
L 389.409782 25.394906 
z
" style="fill:#1f77b4;"/>
   </g>
   <g id="matplotlib.axis_1">
    <g id="xtick_1">
     <g id="line2d_1">
      <defs>
       <path d="M 0 0 
L 0 3.5 
" id="mae57d83082" style="stroke:#000000;stroke-width:0.8;"/>
      </defs>
      <g>
       <use style="stroke:#000000;stroke-width:0.8;" x="66.376477" xlink:href="#mae57d83082" y="273.312"/>
      </g>
     </g>
     <g id="text_1">
      <!-- 0.0 -->
      <g transform="translate(58.424915 287.910437)scale(0.1 -0.1)">
       <defs>
        <path d="M 2034 4250 
Q 1547 4250 1301 3770 
Q 1056 3291 1056 2328 
Q 1056 1369 1301 889 
Q 1547 409 2034 409 
Q 2525 409 2770 889 
Q 3016 1369 3016 2328 
Q 3016 3291 2770 3770 
Q 2525 4250 2034 4250 
z
M 2034 4750 
Q 2819 4750 3233 4129 
Q 3647 3509 3647 2328 
Q 3647 1150 3233 529 
Q 2819 -91 2034 -91 
Q 1250 -91 836 529 
Q 422 1150 422 2328 
Q 422 3509 836 4129 
Q 1250 4750 2034 4750 
z
" id="DejaVuSans-30" transform="scale(0.015625)"/>
        <path d="M 684 794 
L 1344 794 
L 1344 0 
L 684 0 
L 684 794 
z
" id="DejaVuSans-2e" transform="scale(0.015625)"/>
       </defs>
       <use xlink:href="#DejaVuSans-30"/>
       <use x="63.623047" xlink:href="#DejaVuSans-2e"/>
       <use x="95.410156" xlink:href="#DejaVuSans-30"/>
      </g>
     </g>
    </g>
    <g id="xtick_2">
     <g id="line2d_2">
      <g>
       <use style="stroke:#000000;stroke-width:0.8;" x="131.307386" xlink:href="#mae57d83082" y="273.312"/>
      </g>
     </g>
     <g id="text_2">
      <!-- 0.2 -->
      <g transform="translate(123.355824 287.910437)scale(0.1 -0.1)">
       <defs>
        <path d="M 1228 531 
L 3431 531 
L 3431 0 
L 469 0 
L 469 531 
Q 828 903 1448 1529 
Q 2069 2156 2228 2338 
Q 2531 2678 2651 2914 
Q 2772 3150 2772 3378 
Q 2772 3750 2511 3984 
Q 2250 4219 1831 4219 
Q 1534 4219 1204 4116 
Q 875 4013 500 3803 
L 500 4441 
Q 881 4594 1212 4672 
Q 1544 4750 1819 4750 
Q 2544 4750 2975 4387 
Q 3406 4025 3406 3419 
Q 3406 3131 3298 2873 
Q 3191 2616 2906 2266 
Q 2828 2175 2409 1742 
Q 1991 1309 1228 531 
z
" id="DejaVuSans-32" transform="scale(0.015625)"/>
       </defs>
       <use xlink:href="#DejaVuSans-30"/>
       <use x="63.623047" xlink:href="#DejaVuSans-2e"/>
       <use x="95.410156" xlink:href="#DejaVuSans-32"/>
      </g>
     </g>
    </g>
    <g id="xtick_3">
     <g id="line2d_3">
      <g>
       <use style="stroke:#000000;stroke-width:0.8;" x="196.238295" xlink:href="#mae57d83082" y="273.312"/>
      </g>
     </g>
     <g id="text_3">
      <!-- 0.4 -->
      <g transform="translate(188.286733 287.910437)scale(0.1 -0.1)">
       <defs>
        <path d="M 2419 4116 
L 825 1625 
L 2419 1625 
L 2419 4116 
z
M 2253 4666 
L 3047 4666 
L 3047 1625 
L 3713 1625 
L 3713 1100 
L 3047 1100 
L 3047 0 
L 2419 0 
L 2419 1100 
L 313 1100 
L 313 1709 
L 2253 4666 
z
" id="DejaVuSans-34" transform="scale(0.015625)"/>
       </defs>
       <use xlink:href="#DejaVuSans-30"/>
       <use x="63.623047" xlink:href="#DejaVuSans-2e"/>
       <use x="95.410156" xlink:href="#DejaVuSans-34"/>
      </g>
     </g>
    </g>
    <g id="xtick_4">
     <g id="line2d_4">
      <g>
       <use style="stroke:#000000;stroke-width:0.8;" x="261.169205" xlink:href="#mae57d83082" y="273.312"/>
      </g>
     </g>
     <g id="text_4">
      <!-- 0.6 -->
      <g transform="translate(253.217642 287.910437)scale(0.1 -0.1)">
       <defs>
        <path d="M 2113 2584 
Q 1688 2584 1439 2293 
Q 1191 2003 1191 1497 
Q 1191 994 1439 701 
Q 1688 409 2113 409 
Q 2538 409 2786 701 
Q 3034 994 3034 1497 
Q 3034 2003 2786 2293 
Q 2538 2584 2113 2584 
z
M 3366 4563 
L 3366 3988 
Q 3128 4100 2886 4159 
Q 2644 4219 2406 4219 
Q 1781 4219 1451 3797 
Q 1122 3375 1075 2522 
Q 1259 2794 1537 2939 
Q 1816 3084 2150 3084 
Q 2853 3084 3261 2657 
Q 3669 2231 3669 1497 
Q 3669 778 3244 343 
Q 2819 -91 2113 -91 
Q 1303 -91 875 529 
Q 447 1150 447 2328 
Q 447 3434 972 4092 
Q 1497 4750 2381 4750 
Q 2619 4750 2861 4703 
Q 3103 4656 3366 4563 
z
" id="DejaVuSans-36" transform="scale(0.015625)"/>
       </defs>
       <use xlink:href="#DejaVuSans-30"/>
       <use x="63.623047" xlink:href="#DejaVuSans-2e"/>
       <use x="95.410156" xlink:href="#DejaVuSans-36"/>
      </g>
     </g>
    </g>
    <g id="xtick_5">
     <g id="line2d_5">
      <g>
       <use style="stroke:#000000;stroke-width:0.8;" x="326.100114" xlink:href="#mae57d83082" y="273.312"/>
      </g>
     </g>
     <g id="text_5">
      <!-- 0.8 -->
      <g transform="translate(318.148551 287.910437)scale(0.1 -0.1)">
       <defs>
        <path d="M 2034 2216 
Q 1584 2216 1326 1975 
Q 1069 1734 1069 1313 
Q 1069 891 1326 650 
Q 1584 409 2034 409 
Q 2484 409 2743 651 
Q 3003 894 3003 1313 
Q 3003 1734 2745 1975 
Q 2488 2216 2034 2216 
z
M 1403 2484 
Q 997 2584 770 2862 
Q 544 3141 544 3541 
Q 544 4100 942 4425 
Q 1341 4750 2034 4750 
Q 2731 4750 3128 4425 
Q 3525 4100 3525 3541 
Q 3525 3141 3298 2862 
Q 3072 2584 2669 2484 
Q 3125 2378 3379 2068 
Q 3634 1759 3634 1313 
Q 3634 634 3220 271 
Q 2806 -91 2034 -91 
Q 1263 -91 848 271 
Q 434 634 434 1313 
Q 434 1759 690 2068 
Q 947 2378 1403 2484 
z
M 1172 3481 
Q 1172 3119 1398 2916 
Q 1625 2713 2034 2713 
Q 2441 2713 2670 2916 
Q 2900 3119 2900 3481 
Q 2900 3844 2670 4047 
Q 2441 4250 2034 4250 
Q 1625 4250 1398 4047 
Q 1172 3844 1172 3481 
z
" id="DejaVuSans-38" transform="scale(0.015625)"/>
       </defs>
       <use xlink:href="#DejaVuSans-30"/>
       <use x="63.623047" xlink:href="#DejaVuSans-2e"/>
       <use x="95.410156" xlink:href="#DejaVuSans-38"/>
      </g>
     </g>
    </g>
    <g id="xtick_6">
     <g id="line2d_6">
      <g>
       <use style="stroke:#000000;stroke-width:0.8;" x="391.031023" xlink:href="#mae57d83082" y="273.312"/>
      </g>
     </g>
     <g id="text_6">
      <!-- 1.0 -->
      <g transform="translate(383.07946 287.910437)scale(0.1 -0.1)">
       <defs>
        <path d="M 794 531 
L 1825 531 
L 1825 4091 
L 703 3866 
L 703 4441 
L 1819 4666 
L 2450 4666 
L 2450 531 
L 3481 531 
L 3481 0 
L 794 0 
L 794 531 
z
" id="DejaVuSans-31" transform="scale(0.015625)"/>
       </defs>
       <use xlink:href="#DejaVuSans-31"/>
       <use x="63.623047" xlink:href="#DejaVuSans-2e"/>
       <use x="95.410156" xlink:href="#DejaVuSans-30"/>
      </g>
     </g>
    </g>
    <g id="text_7">
     <!-- Propagation direction -->
     <g transform="translate(175.221719 301.588562)scale(0.1 -0.1)">
      <defs>
       <path d="M 1259 4147 
L 1259 2394 
L 2053 2394 
Q 2494 2394 2734 2622 
Q 2975 2850 2975 3272 
Q 2975 3691 2734 3919 
Q 2494 4147 2053 4147 
L 1259 4147 
z
M 628 4666 
L 2053 4666 
Q 2838 4666 3239 4311 
Q 3641 3956 3641 3272 
Q 3641 2581 3239 2228 
Q 2838 1875 2053 1875 
L 1259 1875 
L 1259 0 
L 628 0 
L 628 4666 
z
" id="DejaVuSans-50" transform="scale(0.015625)"/>
       <path d="M 2631 2963 
Q 2534 3019 2420 3045 
Q 2306 3072 2169 3072 
Q 1681 3072 1420 2755 
Q 1159 2438 1159 1844 
L 1159 0 
L 581 0 
L 581 3500 
L 1159 3500 
L 1159 2956 
Q 1341 3275 1631 3429 
Q 1922 3584 2338 3584 
Q 2397 3584 2469 3576 
Q 2541 3569 2628 3553 
L 2631 2963 
z
" id="DejaVuSans-72" transform="scale(0.015625)"/>
       <path d="M 1959 3097 
Q 1497 3097 1228 2736 
Q 959 2375 959 1747 
Q 959 1119 1226 758 
Q 1494 397 1959 397 
Q 2419 397 2687 759 
Q 2956 1122 2956 1747 
Q 2956 2369 2687 2733 
Q 2419 3097 1959 3097 
z
M 1959 3584 
Q 2709 3584 3137 3096 
Q 3566 2609 3566 1747 
Q 3566 888 3137 398 
Q 2709 -91 1959 -91 
Q 1206 -91 779 398 
Q 353 888 353 1747 
Q 353 2609 779 3096 
Q 1206 3584 1959 3584 
z
" id="DejaVuSans-6f" transform="scale(0.015625)"/>
       <path d="M 1159 525 
L 1159 -1331 
L 581 -1331 
L 581 3500 
L 1159 3500 
L 1159 2969 
Q 1341 3281 1617 3432 
Q 1894 3584 2278 3584 
Q 2916 3584 3314 3078 
Q 3713 2572 3713 1747 
Q 3713 922 3314 415 
Q 2916 -91 2278 -91 
Q 1894 -91 1617 61 
Q 1341 213 1159 525 
z
M 3116 1747 
Q 3116 2381 2855 2742 
Q 2594 3103 2138 3103 
Q 1681 3103 1420 2742 
Q 1159 2381 1159 1747 
Q 1159 1113 1420 752 
Q 1681 391 2138 391 
Q 2594 391 2855 752 
Q 3116 1113 3116 1747 
z
" id="DejaVuSans-70" transform="scale(0.015625)"/>
       <path d="M 2194 1759 
Q 1497 1759 1228 1600 
Q 959 1441 959 1056 
Q 959 750 1161 570 
Q 1363 391 1709 391 
Q 2188 391 2477 730 
Q 2766 1069 2766 1631 
L 2766 1759 
L 2194 1759 
z
M 3341 1997 
L 3341 0 
L 2766 0 
L 2766 531 
Q 2569 213 2275 61 
Q 1981 -91 1556 -91 
Q 1019 -91 701 211 
Q 384 513 384 1019 
Q 384 1609 779 1909 
Q 1175 2209 1959 2209 
L 2766 2209 
L 2766 2266 
Q 2766 2663 2505 2880 
Q 2244 3097 1772 3097 
Q 1472 3097 1187 3025 
Q 903 2953 641 2809 
L 641 3341 
Q 956 3463 1253 3523 
Q 1550 3584 1831 3584 
Q 2591 3584 2966 3190 
Q 3341 2797 3341 1997 
z
" id="DejaVuSans-61" transform="scale(0.015625)"/>
       <path d="M 2906 1791 
Q 2906 2416 2648 2759 
Q 2391 3103 1925 3103 
Q 1463 3103 1205 2759 
Q 947 2416 947 1791 
Q 947 1169 1205 825 
Q 1463 481 1925 481 
Q 2391 481 2648 825 
Q 2906 1169 2906 1791 
z
M 3481 434 
Q 3481 -459 3084 -895 
Q 2688 -1331 1869 -1331 
Q 1566 -1331 1297 -1286 
Q 1028 -1241 775 -1147 
L 775 -588 
Q 1028 -725 1275 -790 
Q 1522 -856 1778 -856 
Q 2344 -856 2625 -561 
Q 2906 -266 2906 331 
L 2906 616 
Q 2728 306 2450 153 
Q 2172 0 1784 0 
Q 1141 0 747 490 
Q 353 981 353 1791 
Q 353 2603 747 3093 
Q 1141 3584 1784 3584 
Q 2172 3584 2450 3431 
Q 2728 3278 2906 2969 
L 2906 3500 
L 3481 3500 
L 3481 434 
z
" id="DejaVuSans-67" transform="scale(0.015625)"/>
       <path d="M 1172 4494 
L 1172 3500 
L 2356 3500 
L 2356 3053 
L 1172 3053 
L 1172 1153 
Q 1172 725 1289 603 
Q 1406 481 1766 481 
L 2356 481 
L 2356 0 
L 1766 0 
Q 1100 0 847 248 
Q 594 497 594 1153 
L 594 3053 
L 172 3053 
L 172 3500 
L 594 3500 
L 594 4494 
L 1172 4494 
z
" id="DejaVuSans-74" transform="scale(0.015625)"/>
       <path d="M 603 3500 
L 1178 3500 
L 1178 0 
L 603 0 
L 603 3500 
z
M 603 4863 
L 1178 4863 
L 1178 4134 
L 603 4134 
L 603 4863 
z
" id="DejaVuSans-69" transform="scale(0.015625)"/>
       <path d="M 3513 2113 
L 3513 0 
L 2938 0 
L 2938 2094 
Q 2938 2591 2744 2837 
Q 2550 3084 2163 3084 
Q 1697 3084 1428 2787 
Q 1159 2491 1159 1978 
L 1159 0 
L 581 0 
L 581 3500 
L 1159 3500 
L 1159 2956 
Q 1366 3272 1645 3428 
Q 1925 3584 2291 3584 
Q 2894 3584 3203 3211 
Q 3513 2838 3513 2113 
z
" id="DejaVuSans-6e" transform="scale(0.015625)"/>
       <path id="DejaVuSans-20" transform="scale(0.015625)"/>
       <path d="M 2906 2969 
L 2906 4863 
L 3481 4863 
L 3481 0 
L 2906 0 
L 2906 525 
Q 2725 213 2448 61 
Q 2172 -91 1784 -91 
Q 1150 -91 751 415 
Q 353 922 353 1747 
Q 353 2572 751 3078 
Q 1150 3584 1784 3584 
Q 2172 3584 2448 3432 
Q 2725 3281 2906 2969 
z
M 947 1747 
Q 947 1113 1208 752 
Q 1469 391 1925 391 
Q 2381 391 2643 752 
Q 2906 1113 2906 1747 
Q 2906 2381 2643 2742 
Q 2381 3103 1925 3103 
Q 1469 3103 1208 2742 
Q 947 2381 947 1747 
z
" id="DejaVuSans-64" transform="scale(0.015625)"/>
       <path d="M 3597 1894 
L 3597 1613 
L 953 1613 
Q 991 1019 1311 708 
Q 1631 397 2203 397 
Q 2534 397 2845 478 
Q 3156 559 3463 722 
L 3463 178 
Q 3153 47 2828 -22 
Q 2503 -91 2169 -91 
Q 1331 -91 842 396 
Q 353 884 353 1716 
Q 353 2575 817 3079 
Q 1281 3584 2069 3584 
Q 2775 3584 3186 3129 
Q 3597 2675 3597 1894 
z
M 3022 2063 
Q 3016 2534 2758 2815 
Q 2500 3097 2075 3097 
Q 1594 3097 1305 2825 
Q 1016 2553 972 2059 
L 3022 2063 
z
" id="DejaVuSans-65" transform="scale(0.015625)"/>
       <path d="M 3122 3366 
L 3122 2828 
Q 2878 2963 2633 3030 
Q 2388 3097 2138 3097 
Q 1578 3097 1268 2742 
Q 959 2388 959 1747 
Q 959 1106 1268 751 
Q 1578 397 2138 397 
Q 2388 397 2633 464 
Q 2878 531 3122 666 
L 3122 134 
Q 2881 22 2623 -34 
Q 2366 -91 2075 -91 
Q 1284 -91 818 406 
Q 353 903 353 1747 
Q 353 2603 823 3093 
Q 1294 3584 2113 3584 
Q 2378 3584 2631 3529 
Q 2884 3475 3122 3366 
z
" id="DejaVuSans-63" transform="scale(0.015625)"/>
      </defs>
      <use xlink:href="#DejaVuSans-50"/>
      <use x="58.552734" xlink:href="#DejaVuSans-72"/>
      <use x="97.416016" xlink:href="#DejaVuSans-6f"/>
      <use x="158.597656" xlink:href="#DejaVuSans-70"/>
      <use x="222.074219" xlink:href="#DejaVuSans-61"/>
      <use x="283.353516" xlink:href="#DejaVuSans-67"/>
      <use x="346.830078" xlink:href="#DejaVuSans-61"/>
      <use x="408.109375" xlink:href="#DejaVuSans-74"/>
      <use x="447.318359" xlink:href="#DejaVuSans-69"/>
      <use x="475.101562" xlink:href="#DejaVuSans-6f"/>
      <use x="536.283203" xlink:href="#DejaVuSans-6e"/>
      <use x="599.662109" xlink:href="#DejaVuSans-20"/>
      <use x="631.449219" xlink:href="#DejaVuSans-64"/>
      <use x="694.925781" xlink:href="#DejaVuSans-69"/>
      <use x="722.708984" xlink:href="#DejaVuSans-72"/>
      <use x="761.572266" xlink:href="#DejaVuSans-65"/>
      <use x="823.095703" xlink:href="#DejaVuSans-63"/>
      <use x="878.076172" xlink:href="#DejaVuSans-74"/>
      <use x="917.285156" xlink:href="#DejaVuSans-69"/>
      <use x="945.068359" xlink:href="#DejaVuSans-6f"/>
      <use x="1006.25" xlink:href="#DejaVuSans-6e"/>
     </g>
    </g>
   </g>
   <g id="matplotlib.axis_2">
    <g id="ytick_1">
     <g id="line2d_7">
      <defs>
       <path d="M 0 0 
L -3.5 0 
" id="mda8d79b97d" style="stroke:#000000;stroke-width:0.8;"/>
      </defs>
      <g>
       <use style="stroke:#000000;stroke-width:0.8;" x="50.14375" xlink:href="#mda8d79b97d" y="273.312"/>
      </g>
     </g>
     <g id="text_8">
      <!-- 0.00 -->
      <g transform="translate(20.878125 277.111219)scale(0.1 -0.1)">
       <use xlink:href="#DejaVuSans-30"/>
       <use x="63.623047" xlink:href="#DejaVuSans-2e"/>
       <use x="95.410156" xlink:href="#DejaVuSans-30"/>
       <use x="159.033203" xlink:href="#DejaVuSans-30"/>
      </g>
     </g>
    </g>
    <g id="ytick_2">
     <g id="line2d_8">
      <g>
       <use style="stroke:#000000;stroke-width:0.8;" x="50.14375" xlink:href="#mda8d79b97d" y="242.686218"/>
      </g>
     </g>
     <g id="text_9">
      <!-- 0.25 -->
      <g transform="translate(20.878125 246.485436)scale(0.1 -0.1)">
       <defs>
        <path d="M 691 4666 
L 3169 4666 
L 3169 4134 
L 1269 4134 
L 1269 2991 
Q 1406 3038 1543 3061 
Q 1681 3084 1819 3084 
Q 2600 3084 3056 2656 
Q 3513 2228 3513 1497 
Q 3513 744 3044 326 
Q 2575 -91 1722 -91 
Q 1428 -91 1123 -41 
Q 819 9 494 109 
L 494 744 
Q 775 591 1075 516 
Q 1375 441 1709 441 
Q 2250 441 2565 725 
Q 2881 1009 2881 1497 
Q 2881 1984 2565 2268 
Q 2250 2553 1709 2553 
Q 1456 2553 1204 2497 
Q 953 2441 691 2322 
L 691 4666 
z
" id="DejaVuSans-35" transform="scale(0.015625)"/>
       </defs>
       <use xlink:href="#DejaVuSans-30"/>
       <use x="63.623047" xlink:href="#DejaVuSans-2e"/>
       <use x="95.410156" xlink:href="#DejaVuSans-32"/>
       <use x="159.033203" xlink:href="#DejaVuSans-35"/>
      </g>
     </g>
    </g>
    <g id="ytick_3">
     <g id="line2d_9">
      <g>
       <use style="stroke:#000000;stroke-width:0.8;" x="50.14375" xlink:href="#mda8d79b97d" y="212.060435"/>
      </g>
     </g>
     <g id="text_10">
      <!-- 0.50 -->
      <g transform="translate(20.878125 215.859654)scale(0.1 -0.1)">
       <use xlink:href="#DejaVuSans-30"/>
       <use x="63.623047" xlink:href="#DejaVuSans-2e"/>
       <use x="95.410156" xlink:href="#DejaVuSans-35"/>
       <use x="159.033203" xlink:href="#DejaVuSans-30"/>
      </g>
     </g>
    </g>
    <g id="ytick_4">
     <g id="line2d_10">
      <g>
       <use style="stroke:#000000;stroke-width:0.8;" x="50.14375" xlink:href="#mda8d79b97d" y="181.434653"/>
      </g>
     </g>
     <g id="text_11">
      <!-- 0.75 -->
      <g transform="translate(20.878125 185.233872)scale(0.1 -0.1)">
       <defs>
        <path d="M 525 4666 
L 3525 4666 
L 3525 4397 
L 1831 0 
L 1172 0 
L 2766 4134 
L 525 4134 
L 525 4666 
z
" id="DejaVuSans-37" transform="scale(0.015625)"/>
       </defs>
       <use xlink:href="#DejaVuSans-30"/>
       <use x="63.623047" xlink:href="#DejaVuSans-2e"/>
       <use x="95.410156" xlink:href="#DejaVuSans-37"/>
       <use x="159.033203" xlink:href="#DejaVuSans-35"/>
      </g>
     </g>
    </g>
    <g id="ytick_5">
     <g id="line2d_11">
      <g>
       <use style="stroke:#000000;stroke-width:0.8;" x="50.14375" xlink:href="#mda8d79b97d" y="150.808871"/>
      </g>
     </g>
     <g id="text_12">
      <!-- 1.00 -->
      <g transform="translate(20.878125 154.60809)scale(0.1 -0.1)">
       <use xlink:href="#DejaVuSans-31"/>
       <use x="63.623047" xlink:href="#DejaVuSans-2e"/>
       <use x="95.410156" xlink:href="#DejaVuSans-30"/>
       <use x="159.033203" xlink:href="#DejaVuSans-30"/>
      </g>
     </g>
    </g>
    <g id="ytick_6">
     <g id="line2d_12">
      <g>
       <use style="stroke:#000000;stroke-width:0.8;" x="50.14375" xlink:href="#mda8d79b97d" y="120.183089"/>
      </g>
     </g>
     <g id="text_13">
      <!-- 1.25 -->
      <g transform="translate(20.878125 123.982307)scale(0.1 -0.1)">
       <use xlink:href="#DejaVuSans-31"/>
       <use x="63.623047" xlink:href="#DejaVuSans-2e"/>
       <use x="95.410156" xlink:href="#DejaVuSans-32"/>
       <use x="159.033203" xlink:href="#DejaVuSans-35"/>
      </g>
     </g>
    </g>
    <g id="ytick_7">
     <g id="line2d_13">
      <g>
       <use style="stroke:#000000;stroke-width:0.8;" x="50.14375" xlink:href="#mda8d79b97d" y="89.557306"/>
      </g>
     </g>
     <g id="text_14">
      <!-- 1.50 -->
      <g transform="translate(20.878125 93.356525)scale(0.1 -0.1)">
       <use xlink:href="#DejaVuSans-31"/>
       <use x="63.623047" xlink:href="#DejaVuSans-2e"/>
       <use x="95.410156" xlink:href="#DejaVuSans-35"/>
       <use x="159.033203" xlink:href="#DejaVuSans-30"/>
      </g>
     </g>
    </g>
    <g id="ytick_8">
     <g id="line2d_14">
      <g>
       <use style="stroke:#000000;stroke-width:0.8;" x="50.14375" xlink:href="#mda8d79b97d" y="58.931524"/>
      </g>
     </g>
     <g id="text_15">
      <!-- 1.75 -->
      <g transform="translate(20.878125 62.730743)scale(0.1 -0.1)">
       <use xlink:href="#DejaVuSans-31"/>
       <use x="63.623047" xlink:href="#DejaVuSans-2e"/>
       <use x="95.410156" xlink:href="#DejaVuSans-37"/>
       <use x="159.033203" xlink:href="#DejaVuSans-35"/>
      </g>
     </g>
    </g>
    <g id="ytick_9">
     <g id="line2d_15">
      <g>
       <use style="stroke:#000000;stroke-width:0.8;" x="50.14375" xlink:href="#mda8d79b97d" y="28.305742"/>
      </g>
     </g>
     <g id="text_16">
      <!-- 2.00 -->
      <g transform="translate(20.878125 32.10496)scale(0.1 -0.1)">
       <use xlink:href="#DejaVuSans-32"/>
       <use x="63.623047" xlink:href="#DejaVuSans-2e"/>
       <use x="95.410156" xlink:href="#DejaVuSans-30"/>
       <use x="159.033203" xlink:href="#DejaVuSans-30"/>
      </g>
     </g>
    </g>
    <g id="text_17">
     <!-- Probability density -->
     <g transform="translate(14.798438 186.606781)rotate(-90)scale(0.1 -0.1)">
      <defs>
       <path d="M 3116 1747 
Q 3116 2381 2855 2742 
Q 2594 3103 2138 3103 
Q 1681 3103 1420 2742 
Q 1159 2381 1159 1747 
Q 1159 1113 1420 752 
Q 1681 391 2138 391 
Q 2594 391 2855 752 
Q 3116 1113 3116 1747 
z
M 1159 2969 
Q 1341 3281 1617 3432 
Q 1894 3584 2278 3584 
Q 2916 3584 3314 3078 
Q 3713 2572 3713 1747 
Q 3713 922 3314 415 
Q 2916 -91 2278 -91 
Q 1894 -91 1617 61 
Q 1341 213 1159 525 
L 1159 0 
L 581 0 
L 581 4863 
L 1159 4863 
L 1159 2969 
z
" id="DejaVuSans-62" transform="scale(0.015625)"/>
       <path d="M 603 4863 
L 1178 4863 
L 1178 0 
L 603 0 
L 603 4863 
z
" id="DejaVuSans-6c" transform="scale(0.015625)"/>
       <path d="M 2059 -325 
Q 1816 -950 1584 -1140 
Q 1353 -1331 966 -1331 
L 506 -1331 
L 506 -850 
L 844 -850 
Q 1081 -850 1212 -737 
Q 1344 -625 1503 -206 
L 1606 56 
L 191 3500 
L 800 3500 
L 1894 763 
L 2988 3500 
L 3597 3500 
L 2059 -325 
z
" id="DejaVuSans-79" transform="scale(0.015625)"/>
       <path d="M 2834 3397 
L 2834 2853 
Q 2591 2978 2328 3040 
Q 2066 3103 1784 3103 
Q 1356 3103 1142 2972 
Q 928 2841 928 2578 
Q 928 2378 1081 2264 
Q 1234 2150 1697 2047 
L 1894 2003 
Q 2506 1872 2764 1633 
Q 3022 1394 3022 966 
Q 3022 478 2636 193 
Q 2250 -91 1575 -91 
Q 1294 -91 989 -36 
Q 684 19 347 128 
L 347 722 
Q 666 556 975 473 
Q 1284 391 1588 391 
Q 1994 391 2212 530 
Q 2431 669 2431 922 
Q 2431 1156 2273 1281 
Q 2116 1406 1581 1522 
L 1381 1569 
Q 847 1681 609 1914 
Q 372 2147 372 2553 
Q 372 3047 722 3315 
Q 1072 3584 1716 3584 
Q 2034 3584 2315 3537 
Q 2597 3491 2834 3397 
z
" id="DejaVuSans-73" transform="scale(0.015625)"/>
      </defs>
      <use xlink:href="#DejaVuSans-50"/>
      <use x="58.552734" xlink:href="#DejaVuSans-72"/>
      <use x="97.416016" xlink:href="#DejaVuSans-6f"/>
      <use x="158.597656" xlink:href="#DejaVuSans-62"/>
      <use x="222.074219" xlink:href="#DejaVuSans-61"/>
      <use x="283.353516" xlink:href="#DejaVuSans-62"/>
      <use x="346.830078" xlink:href="#DejaVuSans-69"/>
      <use x="374.613281" xlink:href="#DejaVuSans-6c"/>
      <use x="402.396484" xlink:href="#DejaVuSans-69"/>
      <use x="430.179688" xlink:href="#DejaVuSans-74"/>
      <use x="469.388672" xlink:href="#DejaVuSans-79"/>
      <use x="528.568359" xlink:href="#DejaVuSans-20"/>
      <use x="560.355469" xlink:href="#DejaVuSans-64"/>
      <use x="623.832031" xlink:href="#DejaVuSans-65"/>
      <use x="685.355469" xlink:href="#DejaVuSans-6e"/>
      <use x="748.734375" xlink:href="#DejaVuSans-73"/>
      <use x="800.833984" xlink:href="#DejaVuSans-69"/>
      <use x="828.617188" xlink:href="#DejaVuSans-74"/>
      <use x="867.826172" xlink:href="#DejaVuSans-79"/>
     </g>
    </g>
   </g>
   <g id="line2d_16">
    <path clip-path="url(#p9d5957d300)" d="M 66.376477 273.312 
L 391.031023 28.305742 
L 391.031023 28.305742 
" style="fill:none;stroke:#ff7f0e;stroke-linecap:square;stroke-width:1.5;"/>
   </g>
   <g id="patch_203">
    <path d="M 50.14375 273.312 
L 50.14375 7.2 
" style="fill:none;stroke:#000000;stroke-linecap:square;stroke-linejoin:miter;stroke-width:0.8;"/>
   </g>
   <g id="patch_204">
    <path d="M 407.26375 273.312 
L 407.26375 7.2 
" style="fill:none;stroke:#000000;stroke-linecap:square;stroke-linejoin:miter;stroke-width:0.8;"/>
   </g>
   <g id="patch_205">
    <path d="M 50.14375 273.312 
L 407.26375 273.312 
" style="fill:none;stroke:#000000;stroke-linecap:square;stroke-linejoin:miter;stroke-width:0.8;"/>
   </g>
   <g id="patch_206">
    <path d="M 50.14375 7.2 
L 407.26375 7.2 
" style="fill:none;stroke:#000000;stroke-linecap:square;stroke-linejoin:miter;stroke-width:0.8;"/>
   </g>
  </g>
 </g>
 <defs>
  <clipPath id="p9d5957d300">
   <rect height="266.112" width="357.12" x="50.14375" y="7.2"/>
  </clipPath>
 </defs>
</svg>
