<?xml version="1.0" encoding="utf-8" standalone="no"?>
<!DOCTYPE svg PUBLIC "-//W3C//DTD SVG 1.1//EN"
  "http://www.w3.org/Graphics/SVG/1.1/DTD/svg11.dtd">
<svg height="310.86825pt" version="1.1" viewBox="0 0 408.10125 310.86825" width="408.10125pt" xmlns="http://www.w3.org/2000/svg" xmlns:xlink="http://www.w3.org/1999/xlink">
 <metadata>
  <rdf:RDF xmlns:cc="http://creativecommons.org/ns#" xmlns:dc="http://purl.org/dc/elements/1.1/" xmlns:rdf="http://www.w3.org/1999/02/22-rdf-syntax-ns#">
   <cc:Work>
    <dc:type rdf:resource="http://purl.org/dc/dcmitype/StillImage"/>
    <dc:date>2021-08-22T01:28:35.395046</dc:date>
    <dc:format>image/svg+xml</dc:format>
    <dc:creator>
     <cc:Agent>
      <dc:title>Matplotlib v3.4.3, https://matplotlib.org/</dc:title>
     </cc:Agent>
    </dc:creator>
   </cc:Work>
  </rdf:RDF>
 </metadata>
 <defs>
  <style type="text/css">*{stroke-linecap:butt;stroke-linejoin:round;}</style>
 </defs>
 <g id="figure_1">
  <g id="patch_1">
   <path d="M 0 310.86825 
L 408.10125 310.86825 
L 408.10125 0 
L 0 0 
z
" style="fill:#ffffff;"/>
  </g>
  <g id="axes_1">
   <g id="patch_2">
    <path d="M 43.78125 273.312 
L 400.90125 273.312 
L 400.90125 7.2 
L 43.78125 7.2 
z
" style="fill:#ffffff;"/>
   </g>
   <g id="patch_3">
    <path clip-path="url(#p4cacd9eb4e)" d="M 60.523076 273.312 
L 62.141885 273.312 
L 62.141885 268.139755 
L 60.523076 268.139755 
z
" style="fill:#1f77b4;"/>
   </g>
   <g id="patch_4">
    <path clip-path="url(#p4cacd9eb4e)" d="M 62.141885 273.312 
L 63.760695 273.312 
L 63.760695 265.923079 
L 62.141885 265.923079 
z
" style="fill:#1f77b4;"/>
   </g>
   <g id="patch_5">
    <path clip-path="url(#p4cacd9eb4e)" d="M 63.760695 273.312 
L 65.379505 273.312 
L 65.379505 268.878647 
L 63.760695 268.878647 
z
" style="fill:#1f77b4;"/>
   </g>
   <g id="patch_6">
    <path clip-path="url(#p4cacd9eb4e)" d="M 65.379505 273.312 
L 66.998314 273.312 
L 66.998314 260.011942 
L 65.379505 260.011942 
z
" style="fill:#1f77b4;"/>
   </g>
   <g id="patch_7">
    <path clip-path="url(#p4cacd9eb4e)" d="M 66.998314 273.312 
L 68.617124 273.312 
L 68.617124 257.056373 
L 66.998314 257.056373 
z
" style="fill:#1f77b4;"/>
   </g>
   <g id="patch_8">
    <path clip-path="url(#p4cacd9eb4e)" d="M 68.617124 273.312 
L 70.235934 273.312 
L 70.235934 246.711883 
L 68.617124 246.711883 
z
" style="fill:#1f77b4;"/>
   </g>
   <g id="patch_9">
    <path clip-path="url(#p4cacd9eb4e)" d="M 70.235934 273.312 
L 71.854744 273.312 
L 71.854744 254.100805 
L 70.235934 254.100805 
z
" style="fill:#1f77b4;"/>
   </g>
   <g id="patch_10">
    <path clip-path="url(#p4cacd9eb4e)" d="M 71.854744 273.312 
L 73.473553 273.312 
L 73.473553 241.539638 
L 71.854744 241.539638 
z
" style="fill:#1f77b4;"/>
   </g>
   <g id="patch_11">
    <path clip-path="url(#p4cacd9eb4e)" d="M 73.473553 273.312 
L 75.092363 273.312 
L 75.092363 237.106286 
L 73.473553 237.106286 
z
" style="fill:#1f77b4;"/>
   </g>
   <g id="patch_12">
    <path clip-path="url(#p4cacd9eb4e)" d="M 75.092363 273.312 
L 76.711173 273.312 
L 76.711173 234.150717 
L 75.092363 234.150717 
z
" style="fill:#1f77b4;"/>
   </g>
   <g id="patch_13">
    <path clip-path="url(#p4cacd9eb4e)" d="M 76.711173 273.312 
L 78.329982 273.312 
L 78.329982 231.934041 
L 76.711173 231.934041 
z
" style="fill:#1f77b4;"/>
   </g>
   <g id="patch_14">
    <path clip-path="url(#p4cacd9eb4e)" d="M 78.329982 273.312 
L 79.948792 273.312 
L 79.948792 232.672933 
L 78.329982 232.672933 
z
" style="fill:#1f77b4;"/>
   </g>
   <g id="patch_15">
    <path clip-path="url(#p4cacd9eb4e)" d="M 79.948792 273.312 
L 81.567602 273.312 
L 81.567602 234.150717 
L 79.948792 234.150717 
z
" style="fill:#1f77b4;"/>
   </g>
   <g id="patch_16">
    <path clip-path="url(#p4cacd9eb4e)" d="M 81.567602 273.312 
L 83.186411 273.312 
L 83.186411 221.589551 
L 81.567602 221.589551 
z
" style="fill:#1f77b4;"/>
   </g>
   <g id="patch_17">
    <path clip-path="url(#p4cacd9eb4e)" d="M 83.186411 273.312 
L 84.805221 273.312 
L 84.805221 218.633983 
L 83.186411 218.633983 
z
" style="fill:#1f77b4;"/>
   </g>
   <g id="patch_18">
    <path clip-path="url(#p4cacd9eb4e)" d="M 84.805221 273.312 
L 86.424031 273.312 
L 86.424031 221.589551 
L 84.805221 221.589551 
z
" style="fill:#1f77b4;"/>
   </g>
   <g id="patch_19">
    <path clip-path="url(#p4cacd9eb4e)" d="M 86.424031 273.312 
L 88.042841 273.312 
L 88.042841 212.722845 
L 86.424031 212.722845 
z
" style="fill:#1f77b4;"/>
   </g>
   <g id="patch_20">
    <path clip-path="url(#p4cacd9eb4e)" d="M 88.042841 273.312 
L 89.66165 273.312 
L 89.66165 212.722845 
L 88.042841 212.722845 
z
" style="fill:#1f77b4;"/>
   </g>
   <g id="patch_21">
    <path clip-path="url(#p4cacd9eb4e)" d="M 89.66165 273.312 
L 91.28046 273.312 
L 91.28046 209.767277 
L 89.66165 209.767277 
z
" style="fill:#1f77b4;"/>
   </g>
   <g id="patch_22">
    <path clip-path="url(#p4cacd9eb4e)" d="M 91.28046 273.312 
L 92.89927 273.312 
L 92.89927 212.722845 
L 91.28046 212.722845 
z
" style="fill:#1f77b4;"/>
   </g>
   <g id="patch_23">
    <path clip-path="url(#p4cacd9eb4e)" d="M 92.89927 273.312 
L 94.518079 273.312 
L 94.518079 185.383837 
L 92.89927 185.383837 
z
" style="fill:#1f77b4;"/>
   </g>
   <g id="patch_24">
    <path clip-path="url(#p4cacd9eb4e)" d="M 94.518079 273.312 
L 96.136889 273.312 
L 96.136889 194.989434 
L 94.518079 194.989434 
z
" style="fill:#1f77b4;"/>
   </g>
   <g id="patch_25">
    <path clip-path="url(#p4cacd9eb4e)" d="M 96.136889 273.312 
L 97.755699 273.312 
L 97.755699 191.294974 
L 96.136889 191.294974 
z
" style="fill:#1f77b4;"/>
   </g>
   <g id="patch_26">
    <path clip-path="url(#p4cacd9eb4e)" d="M 97.755699 273.312 
L 99.374508 273.312 
L 99.374508 175.778239 
L 97.755699 175.778239 
z
" style="fill:#1f77b4;"/>
   </g>
   <g id="patch_27">
    <path clip-path="url(#p4cacd9eb4e)" d="M 99.374508 273.312 
L 100.993318 273.312 
L 100.993318 184.644945 
L 99.374508 184.644945 
z
" style="fill:#1f77b4;"/>
   </g>
   <g id="patch_28">
    <path clip-path="url(#p4cacd9eb4e)" d="M 100.993318 273.312 
L 102.612128 273.312 
L 102.612128 197.206111 
L 100.993318 197.206111 
z
" style="fill:#1f77b4;"/>
   </g>
   <g id="patch_29">
    <path clip-path="url(#p4cacd9eb4e)" d="M 102.612128 273.312 
L 104.230938 273.312 
L 104.230938 163.217073 
L 102.612128 163.217073 
z
" style="fill:#1f77b4;"/>
   </g>
   <g id="patch_30">
    <path clip-path="url(#p4cacd9eb4e)" d="M 104.230938 273.312 
L 105.849747 273.312 
L 105.849747 165.433749 
L 104.230938 165.433749 
z
" style="fill:#1f77b4;"/>
   </g>
   <g id="patch_31">
    <path clip-path="url(#p4cacd9eb4e)" d="M 105.849747 273.312 
L 107.468557 273.312 
L 107.468557 177.994915 
L 105.849747 177.994915 
z
" style="fill:#1f77b4;"/>
   </g>
   <g id="patch_32">
    <path clip-path="url(#p4cacd9eb4e)" d="M 107.468557 273.312 
L 109.087367 273.312 
L 109.087367 164.694857 
L 107.468557 164.694857 
z
" style="fill:#1f77b4;"/>
   </g>
   <g id="patch_33">
    <path clip-path="url(#p4cacd9eb4e)" d="M 109.087367 273.312 
L 110.706176 273.312 
L 110.706176 175.039347 
L 109.087367 175.039347 
z
" style="fill:#1f77b4;"/>
   </g>
   <g id="patch_34">
    <path clip-path="url(#p4cacd9eb4e)" d="M 110.706176 273.312 
L 112.324986 273.312 
L 112.324986 174.300455 
L 110.706176 174.300455 
z
" style="fill:#1f77b4;"/>
   </g>
   <g id="patch_35">
    <path clip-path="url(#p4cacd9eb4e)" d="M 112.324986 273.312 
L 113.943796 273.312 
L 113.943796 156.567044 
L 112.324986 156.567044 
z
" style="fill:#1f77b4;"/>
   </g>
   <g id="patch_36">
    <path clip-path="url(#p4cacd9eb4e)" d="M 113.943796 273.312 
L 115.562605 273.312 
L 115.562605 152.133691 
L 113.943796 152.133691 
z
" style="fill:#1f77b4;"/>
   </g>
   <g id="patch_37">
    <path clip-path="url(#p4cacd9eb4e)" d="M 115.562605 273.312 
L 117.181415 273.312 
L 117.181415 168.389318 
L 115.562605 168.389318 
z
" style="fill:#1f77b4;"/>
   </g>
   <g id="patch_38">
    <path clip-path="url(#p4cacd9eb4e)" d="M 117.181415 273.312 
L 118.800225 273.312 
L 118.800225 161.739289 
L 117.181415 161.739289 
z
" style="fill:#1f77b4;"/>
   </g>
   <g id="patch_39">
    <path clip-path="url(#p4cacd9eb4e)" d="M 118.800225 273.312 
L 120.419035 273.312 
L 120.419035 152.133691 
L 118.800225 152.133691 
z
" style="fill:#1f77b4;"/>
   </g>
   <g id="patch_40">
    <path clip-path="url(#p4cacd9eb4e)" d="M 120.419035 273.312 
L 122.037844 273.312 
L 122.037844 146.961446 
L 120.419035 146.961446 
z
" style="fill:#1f77b4;"/>
   </g>
   <g id="patch_41">
    <path clip-path="url(#p4cacd9eb4e)" d="M 122.037844 273.312 
L 123.656654 273.312 
L 123.656654 132.922496 
L 122.037844 132.922496 
z
" style="fill:#1f77b4;"/>
   </g>
   <g id="patch_42">
    <path clip-path="url(#p4cacd9eb4e)" d="M 123.656654 273.312 
L 125.275464 273.312 
L 125.275464 146.961446 
L 123.656654 146.961446 
z
" style="fill:#1f77b4;"/>
   </g>
   <g id="patch_43">
    <path clip-path="url(#p4cacd9eb4e)" d="M 125.275464 273.312 
L 126.894273 273.312 
L 126.894273 143.266985 
L 125.275464 143.266985 
z
" style="fill:#1f77b4;"/>
   </g>
   <g id="patch_44">
    <path clip-path="url(#p4cacd9eb4e)" d="M 126.894273 273.312 
L 128.513083 273.312 
L 128.513083 142.528093 
L 126.894273 142.528093 
z
" style="fill:#1f77b4;"/>
   </g>
   <g id="patch_45">
    <path clip-path="url(#p4cacd9eb4e)" d="M 128.513083 273.312 
L 130.131893 273.312 
L 130.131893 130.705819 
L 128.513083 130.705819 
z
" style="fill:#1f77b4;"/>
   </g>
   <g id="patch_46">
    <path clip-path="url(#p4cacd9eb4e)" d="M 130.131893 273.312 
L 131.750702 273.312 
L 131.750702 121.100222 
L 130.131893 121.100222 
z
" style="fill:#1f77b4;"/>
   </g>
   <g id="patch_47">
    <path clip-path="url(#p4cacd9eb4e)" d="M 131.750702 273.312 
L 133.369512 273.312 
L 133.369512 107.800163 
L 131.750702 107.800163 
z
" style="fill:#1f77b4;"/>
   </g>
   <g id="patch_48">
    <path clip-path="url(#p4cacd9eb4e)" d="M 133.369512 273.312 
L 134.988322 273.312 
L 134.988322 122.578006 
L 133.369512 122.578006 
z
" style="fill:#1f77b4;"/>
   </g>
   <g id="patch_49">
    <path clip-path="url(#p4cacd9eb4e)" d="M 134.988322 273.312 
L 136.607132 273.312 
L 136.607132 126.272466 
L 134.988322 126.272466 
z
" style="fill:#1f77b4;"/>
   </g>
   <g id="patch_50">
    <path clip-path="url(#p4cacd9eb4e)" d="M 136.607132 273.312 
L 138.225941 273.312 
L 138.225941 115.927977 
L 136.607132 115.927977 
z
" style="fill:#1f77b4;"/>
   </g>
   <g id="patch_51">
    <path clip-path="url(#p4cacd9eb4e)" d="M 138.225941 273.312 
L 139.844751 273.312 
L 139.844751 120.361329 
L 138.225941 120.361329 
z
" style="fill:#1f77b4;"/>
   </g>
   <g id="patch_52">
    <path clip-path="url(#p4cacd9eb4e)" d="M 139.844751 273.312 
L 141.463561 273.312 
L 141.463561 121.100222 
L 139.844751 121.100222 
z
" style="fill:#1f77b4;"/>
   </g>
   <g id="patch_53">
    <path clip-path="url(#p4cacd9eb4e)" d="M 141.463561 273.312 
L 143.08237 273.312 
L 143.08237 103.36681 
L 141.463561 103.36681 
z
" style="fill:#1f77b4;"/>
   </g>
   <g id="patch_54">
    <path clip-path="url(#p4cacd9eb4e)" d="M 143.08237 273.312 
L 144.70118 273.312 
L 144.70118 110.01684 
L 143.08237 110.01684 
z
" style="fill:#1f77b4;"/>
   </g>
   <g id="patch_55">
    <path clip-path="url(#p4cacd9eb4e)" d="M 144.70118 273.312 
L 146.31999 273.312 
L 146.31999 117.405761 
L 144.70118 117.405761 
z
" style="fill:#1f77b4;"/>
   </g>
   <g id="patch_56">
    <path clip-path="url(#p4cacd9eb4e)" d="M 146.31999 273.312 
L 147.938799 273.312 
L 147.938799 87.850076 
L 146.31999 87.850076 
z
" style="fill:#1f77b4;"/>
   </g>
   <g id="patch_57">
    <path clip-path="url(#p4cacd9eb4e)" d="M 147.938799 273.312 
L 149.557609 273.312 
L 149.557609 92.283429 
L 147.938799 92.283429 
z
" style="fill:#1f77b4;"/>
   </g>
   <g id="patch_58">
    <path clip-path="url(#p4cacd9eb4e)" d="M 149.557609 273.312 
L 151.176419 273.312 
L 151.176419 94.500105 
L 149.557609 94.500105 
z
" style="fill:#1f77b4;"/>
   </g>
   <g id="patch_59">
    <path clip-path="url(#p4cacd9eb4e)" d="M 151.176419 273.312 
L 152.795229 273.312 
L 152.795229 83.416723 
L 151.176419 83.416723 
z
" style="fill:#1f77b4;"/>
   </g>
   <g id="patch_60">
    <path clip-path="url(#p4cacd9eb4e)" d="M 152.795229 273.312 
L 154.414038 273.312 
L 154.414038 88.588968 
L 152.795229 88.588968 
z
" style="fill:#1f77b4;"/>
   </g>
   <g id="patch_61">
    <path clip-path="url(#p4cacd9eb4e)" d="M 154.414038 273.312 
L 156.032848 273.312 
L 156.032848 82.677831 
L 154.414038 82.677831 
z
" style="fill:#1f77b4;"/>
   </g>
   <g id="patch_62">
    <path clip-path="url(#p4cacd9eb4e)" d="M 156.032848 273.312 
L 157.651658 273.312 
L 157.651658 89.32786 
L 156.032848 89.32786 
z
" style="fill:#1f77b4;"/>
   </g>
   <g id="patch_63">
    <path clip-path="url(#p4cacd9eb4e)" d="M 157.651658 273.312 
L 159.270467 273.312 
L 159.270467 81.938939 
L 157.651658 81.938939 
z
" style="fill:#1f77b4;"/>
   </g>
   <g id="patch_64">
    <path clip-path="url(#p4cacd9eb4e)" d="M 159.270467 273.312 
L 160.889277 273.312 
L 160.889277 81.938939 
L 159.270467 81.938939 
z
" style="fill:#1f77b4;"/>
   </g>
   <g id="patch_65">
    <path clip-path="url(#p4cacd9eb4e)" d="M 160.889277 273.312 
L 162.508087 273.312 
L 162.508087 115.189085 
L 160.889277 115.189085 
z
" style="fill:#1f77b4;"/>
   </g>
   <g id="patch_66">
    <path clip-path="url(#p4cacd9eb4e)" d="M 162.508087 273.312 
L 164.126896 273.312 
L 164.126896 102.627918 
L 162.508087 102.627918 
z
" style="fill:#1f77b4;"/>
   </g>
   <g id="patch_67">
    <path clip-path="url(#p4cacd9eb4e)" d="M 164.126896 273.312 
L 165.745706 273.312 
L 165.745706 71.594449 
L 164.126896 71.594449 
z
" style="fill:#1f77b4;"/>
   </g>
   <g id="patch_68">
    <path clip-path="url(#p4cacd9eb4e)" d="M 165.745706 273.312 
L 167.364516 273.312 
L 167.364516 68.63888 
L 165.745706 68.63888 
z
" style="fill:#1f77b4;"/>
   </g>
   <g id="patch_69">
    <path clip-path="url(#p4cacd9eb4e)" d="M 167.364516 273.312 
L 168.983326 273.312 
L 168.983326 77.505586 
L 167.364516 77.505586 
z
" style="fill:#1f77b4;"/>
   </g>
   <g id="patch_70">
    <path clip-path="url(#p4cacd9eb4e)" d="M 168.983326 273.312 
L 170.602135 273.312 
L 170.602135 83.416723 
L 168.983326 83.416723 
z
" style="fill:#1f77b4;"/>
   </g>
   <g id="patch_71">
    <path clip-path="url(#p4cacd9eb4e)" d="M 170.602135 273.312 
L 172.220945 273.312 
L 172.220945 52.383254 
L 170.602135 52.383254 
z
" style="fill:#1f77b4;"/>
   </g>
   <g id="patch_72">
    <path clip-path="url(#p4cacd9eb4e)" d="M 172.220945 273.312 
L 173.839755 273.312 
L 173.839755 73.072233 
L 172.220945 73.072233 
z
" style="fill:#1f77b4;"/>
   </g>
   <g id="patch_73">
    <path clip-path="url(#p4cacd9eb4e)" d="M 173.839755 273.312 
L 175.458564 273.312 
L 175.458564 57.555499 
L 173.839755 57.555499 
z
" style="fill:#1f77b4;"/>
   </g>
   <g id="patch_74">
    <path clip-path="url(#p4cacd9eb4e)" d="M 175.458564 273.312 
L 177.077374 273.312 
L 177.077374 53.861038 
L 175.458564 53.861038 
z
" style="fill:#1f77b4;"/>
   </g>
   <g id="patch_75">
    <path clip-path="url(#p4cacd9eb4e)" d="M 177.077374 273.312 
L 178.696184 273.312 
L 178.696184 57.555499 
L 177.077374 57.555499 
z
" style="fill:#1f77b4;"/>
   </g>
   <g id="patch_76">
    <path clip-path="url(#p4cacd9eb4e)" d="M 178.696184 273.312 
L 180.314993 273.312 
L 180.314993 78.98337 
L 178.696184 78.98337 
z
" style="fill:#1f77b4;"/>
   </g>
   <g id="patch_77">
    <path clip-path="url(#p4cacd9eb4e)" d="M 180.314993 273.312 
L 181.933803 273.312 
L 181.933803 81.200047 
L 180.314993 81.200047 
z
" style="fill:#1f77b4;"/>
   </g>
   <g id="patch_78">
    <path clip-path="url(#p4cacd9eb4e)" d="M 181.933803 273.312 
L 183.552613 273.312 
L 183.552613 54.59993 
L 181.933803 54.59993 
z
" style="fill:#1f77b4;"/>
   </g>
   <g id="patch_79">
    <path clip-path="url(#p4cacd9eb4e)" d="M 183.552613 273.312 
L 185.171423 273.312 
L 185.171423 45.733224 
L 183.552613 45.733224 
z
" style="fill:#1f77b4;"/>
   </g>
   <g id="patch_80">
    <path clip-path="url(#p4cacd9eb4e)" d="M 185.171423 273.312 
L 186.790232 273.312 
L 186.790232 56.816606 
L 185.171423 56.816606 
z
" style="fill:#1f77b4;"/>
   </g>
   <g id="patch_81">
    <path clip-path="url(#p4cacd9eb4e)" d="M 186.790232 273.312 
L 188.409042 273.312 
L 188.409042 70.116665 
L 186.790232 70.116665 
z
" style="fill:#1f77b4;"/>
   </g>
   <g id="patch_82">
    <path clip-path="url(#p4cacd9eb4e)" d="M 188.409042 273.312 
L 190.027852 273.312 
L 190.027852 53.122146 
L 188.409042 53.122146 
z
" style="fill:#1f77b4;"/>
   </g>
   <g id="patch_83">
    <path clip-path="url(#p4cacd9eb4e)" d="M 190.027852 273.312 
L 191.646661 273.312 
L 191.646661 39.083195 
L 190.027852 39.083195 
z
" style="fill:#1f77b4;"/>
   </g>
   <g id="patch_84">
    <path clip-path="url(#p4cacd9eb4e)" d="M 191.646661 273.312 
L 193.265471 273.312 
L 193.265471 62.727743 
L 191.646661 62.727743 
z
" style="fill:#1f77b4;"/>
   </g>
   <g id="patch_85">
    <path clip-path="url(#p4cacd9eb4e)" d="M 193.265471 273.312 
L 194.884281 273.312 
L 194.884281 50.905469 
L 193.265471 50.905469 
z
" style="fill:#1f77b4;"/>
   </g>
   <g id="patch_86">
    <path clip-path="url(#p4cacd9eb4e)" d="M 194.884281 273.312 
L 196.50309 273.312 
L 196.50309 50.166577 
L 194.884281 50.166577 
z
" style="fill:#1f77b4;"/>
   </g>
   <g id="patch_87">
    <path clip-path="url(#p4cacd9eb4e)" d="M 196.50309 273.312 
L 198.1219 273.312 
L 198.1219 67.161096 
L 196.50309 67.161096 
z
" style="fill:#1f77b4;"/>
   </g>
   <g id="patch_88">
    <path clip-path="url(#p4cacd9eb4e)" d="M 198.1219 273.312 
L 199.74071 273.312 
L 199.74071 42.777656 
L 198.1219 42.777656 
z
" style="fill:#1f77b4;"/>
   </g>
   <g id="patch_89">
    <path clip-path="url(#p4cacd9eb4e)" d="M 199.74071 273.312 
L 201.35952 273.312 
L 201.35952 20.610892 
L 199.74071 20.610892 
z
" style="fill:#1f77b4;"/>
   </g>
   <g id="patch_90">
    <path clip-path="url(#p4cacd9eb4e)" d="M 201.35952 273.312 
L 202.978329 273.312 
L 202.978329 38.344303 
L 201.35952 38.344303 
z
" style="fill:#1f77b4;"/>
   </g>
   <g id="patch_91">
    <path clip-path="url(#p4cacd9eb4e)" d="M 202.978329 273.312 
L 204.597139 273.312 
L 204.597139 43.516548 
L 202.978329 43.516548 
z
" style="fill:#1f77b4;"/>
   </g>
   <g id="patch_92">
    <path clip-path="url(#p4cacd9eb4e)" d="M 204.597139 273.312 
L 206.215949 273.312 
L 206.215949 45.733224 
L 204.597139 45.733224 
z
" style="fill:#1f77b4;"/>
   </g>
   <g id="patch_93">
    <path clip-path="url(#p4cacd9eb4e)" d="M 206.215949 273.312 
L 207.834758 273.312 
L 207.834758 25.044245 
L 206.215949 25.044245 
z
" style="fill:#1f77b4;"/>
   </g>
   <g id="patch_94">
    <path clip-path="url(#p4cacd9eb4e)" d="M 207.834758 273.312 
L 209.453568 273.312 
L 209.453568 37.605411 
L 207.834758 37.605411 
z
" style="fill:#1f77b4;"/>
   </g>
   <g id="patch_95">
    <path clip-path="url(#p4cacd9eb4e)" d="M 209.453568 273.312 
L 211.072378 273.312 
L 211.072378 47.211009 
L 209.453568 47.211009 
z
" style="fill:#1f77b4;"/>
   </g>
   <g id="patch_96">
    <path clip-path="url(#p4cacd9eb4e)" d="M 211.072378 273.312 
L 212.691187 273.312 
L 212.691187 29.477598 
L 211.072378 29.477598 
z
" style="fill:#1f77b4;"/>
   </g>
   <g id="patch_97">
    <path clip-path="url(#p4cacd9eb4e)" d="M 212.691187 273.312 
L 214.309997 273.312 
L 214.309997 53.122146 
L 212.691187 53.122146 
z
" style="fill:#1f77b4;"/>
   </g>
   <g id="patch_98">
    <path clip-path="url(#p4cacd9eb4e)" d="M 214.309997 273.312 
L 215.928807 273.312 
L 215.928807 49.427685 
L 214.309997 49.427685 
z
" style="fill:#1f77b4;"/>
   </g>
   <g id="patch_99">
    <path clip-path="url(#p4cacd9eb4e)" d="M 215.928807 273.312 
L 217.547617 273.312 
L 217.547617 42.038764 
L 215.928807 42.038764 
z
" style="fill:#1f77b4;"/>
   </g>
   <g id="patch_100">
    <path clip-path="url(#p4cacd9eb4e)" d="M 217.547617 273.312 
L 219.166426 273.312 
L 219.166426 44.25544 
L 217.547617 44.25544 
z
" style="fill:#1f77b4;"/>
   </g>
   <g id="patch_101">
    <path clip-path="url(#p4cacd9eb4e)" d="M 219.166426 273.312 
L 220.785236 273.312 
L 220.785236 53.122146 
L 219.166426 53.122146 
z
" style="fill:#1f77b4;"/>
   </g>
   <g id="patch_102">
    <path clip-path="url(#p4cacd9eb4e)" d="M 220.785236 273.312 
L 222.404046 273.312 
L 222.404046 34.649843 
L 220.785236 34.649843 
z
" style="fill:#1f77b4;"/>
   </g>
   <g id="patch_103">
    <path clip-path="url(#p4cacd9eb4e)" d="M 222.404046 273.312 
L 224.022855 273.312 
L 224.022855 44.25544 
L 222.404046 44.25544 
z
" style="fill:#1f77b4;"/>
   </g>
   <g id="patch_104">
    <path clip-path="url(#p4cacd9eb4e)" d="M 224.022855 273.312 
L 225.641665 273.312 
L 225.641665 51.644362 
L 224.022855 51.644362 
z
" style="fill:#1f77b4;"/>
   </g>
   <g id="patch_105">
    <path clip-path="url(#p4cacd9eb4e)" d="M 225.641665 273.312 
L 227.260475 273.312 
L 227.260475 30.21649 
L 225.641665 30.21649 
z
" style="fill:#1f77b4;"/>
   </g>
   <g id="patch_106">
    <path clip-path="url(#p4cacd9eb4e)" d="M 227.260475 273.312 
L 228.879284 273.312 
L 228.879284 42.777656 
L 227.260475 42.777656 
z
" style="fill:#1f77b4;"/>
   </g>
   <g id="patch_107">
    <path clip-path="url(#p4cacd9eb4e)" d="M 228.879284 273.312 
L 230.498094 273.312 
L 230.498094 39.822087 
L 228.879284 39.822087 
z
" style="fill:#1f77b4;"/>
   </g>
   <g id="patch_108">
    <path clip-path="url(#p4cacd9eb4e)" d="M 230.498094 273.312 
L 232.116904 273.312 
L 232.116904 20.610892 
L 230.498094 20.610892 
z
" style="fill:#1f77b4;"/>
   </g>
   <g id="patch_109">
    <path clip-path="url(#p4cacd9eb4e)" d="M 232.116904 273.312 
L 233.735714 273.312 
L 233.735714 21.349784 
L 232.116904 21.349784 
z
" style="fill:#1f77b4;"/>
   </g>
   <g id="patch_110">
    <path clip-path="url(#p4cacd9eb4e)" d="M 233.735714 273.312 
L 235.354523 273.312 
L 235.354523 31.694274 
L 233.735714 31.694274 
z
" style="fill:#1f77b4;"/>
   </g>
   <g id="patch_111">
    <path clip-path="url(#p4cacd9eb4e)" d="M 235.354523 273.312 
L 236.973333 273.312 
L 236.973333 31.694274 
L 235.354523 31.694274 
z
" style="fill:#1f77b4;"/>
   </g>
   <g id="patch_112">
    <path clip-path="url(#p4cacd9eb4e)" d="M 236.973333 273.312 
L 238.592143 273.312 
L 238.592143 54.59993 
L 236.973333 54.59993 
z
" style="fill:#1f77b4;"/>
   </g>
   <g id="patch_113">
    <path clip-path="url(#p4cacd9eb4e)" d="M 238.592143 273.312 
L 240.210952 273.312 
L 240.210952 47.949901 
L 238.592143 47.949901 
z
" style="fill:#1f77b4;"/>
   </g>
   <g id="patch_114">
    <path clip-path="url(#p4cacd9eb4e)" d="M 240.210952 273.312 
L 241.829762 273.312 
L 241.829762 19.872 
L 240.210952 19.872 
z
" style="fill:#1f77b4;"/>
   </g>
   <g id="patch_115">
    <path clip-path="url(#p4cacd9eb4e)" d="M 241.829762 273.312 
L 243.448572 273.312 
L 243.448572 55.338822 
L 241.829762 55.338822 
z
" style="fill:#1f77b4;"/>
   </g>
   <g id="patch_116">
    <path clip-path="url(#p4cacd9eb4e)" d="M 243.448572 273.312 
L 245.067381 273.312 
L 245.067381 36.127627 
L 243.448572 36.127627 
z
" style="fill:#1f77b4;"/>
   </g>
   <g id="patch_117">
    <path clip-path="url(#p4cacd9eb4e)" d="M 245.067381 273.312 
L 246.686191 273.312 
L 246.686191 70.116665 
L 245.067381 70.116665 
z
" style="fill:#1f77b4;"/>
   </g>
   <g id="patch_118">
    <path clip-path="url(#p4cacd9eb4e)" d="M 246.686191 273.312 
L 248.305001 273.312 
L 248.305001 51.644362 
L 246.686191 51.644362 
z
" style="fill:#1f77b4;"/>
   </g>
   <g id="patch_119">
    <path clip-path="url(#p4cacd9eb4e)" d="M 248.305001 273.312 
L 249.923811 273.312 
L 249.923811 74.550017 
L 248.305001 74.550017 
z
" style="fill:#1f77b4;"/>
   </g>
   <g id="patch_120">
    <path clip-path="url(#p4cacd9eb4e)" d="M 249.923811 273.312 
L 251.54262 273.312 
L 251.54262 46.472117 
L 249.923811 46.472117 
z
" style="fill:#1f77b4;"/>
   </g>
   <g id="patch_121">
    <path clip-path="url(#p4cacd9eb4e)" d="M 251.54262 273.312 
L 253.16143 273.312 
L 253.16143 53.861038 
L 251.54262 53.861038 
z
" style="fill:#1f77b4;"/>
   </g>
   <g id="patch_122">
    <path clip-path="url(#p4cacd9eb4e)" d="M 253.16143 273.312 
L 254.78024 273.312 
L 254.78024 48.688793 
L 253.16143 48.688793 
z
" style="fill:#1f77b4;"/>
   </g>
   <g id="patch_123">
    <path clip-path="url(#p4cacd9eb4e)" d="M 254.78024 273.312 
L 256.399049 273.312 
L 256.399049 47.211009 
L 254.78024 47.211009 
z
" style="fill:#1f77b4;"/>
   </g>
   <g id="patch_124">
    <path clip-path="url(#p4cacd9eb4e)" d="M 256.399049 273.312 
L 258.017859 273.312 
L 258.017859 44.25544 
L 256.399049 44.25544 
z
" style="fill:#1f77b4;"/>
   </g>
   <g id="patch_125">
    <path clip-path="url(#p4cacd9eb4e)" d="M 258.017859 273.312 
L 259.636669 273.312 
L 259.636669 56.816606 
L 258.017859 56.816606 
z
" style="fill:#1f77b4;"/>
   </g>
   <g id="patch_126">
    <path clip-path="url(#p4cacd9eb4e)" d="M 259.636669 273.312 
L 261.255478 273.312 
L 261.255478 87.850076 
L 259.636669 87.850076 
z
" style="fill:#1f77b4;"/>
   </g>
   <g id="patch_127">
    <path clip-path="url(#p4cacd9eb4e)" d="M 261.255478 273.312 
L 262.874288 273.312 
L 262.874288 54.59993 
L 261.255478 54.59993 
z
" style="fill:#1f77b4;"/>
   </g>
   <g id="patch_128">
    <path clip-path="url(#p4cacd9eb4e)" d="M 262.874288 273.312 
L 264.493098 273.312 
L 264.493098 47.211009 
L 262.874288 47.211009 
z
" style="fill:#1f77b4;"/>
   </g>
   <g id="patch_129">
    <path clip-path="url(#p4cacd9eb4e)" d="M 264.493098 273.312 
L 266.111908 273.312 
L 266.111908 72.333341 
L 264.493098 72.333341 
z
" style="fill:#1f77b4;"/>
   </g>
   <g id="patch_130">
    <path clip-path="url(#p4cacd9eb4e)" d="M 266.111908 273.312 
L 267.730717 273.312 
L 267.730717 70.855557 
L 266.111908 70.855557 
z
" style="fill:#1f77b4;"/>
   </g>
   <g id="patch_131">
    <path clip-path="url(#p4cacd9eb4e)" d="M 267.730717 273.312 
L 269.349527 273.312 
L 269.349527 61.988851 
L 267.730717 61.988851 
z
" style="fill:#1f77b4;"/>
   </g>
   <g id="patch_132">
    <path clip-path="url(#p4cacd9eb4e)" d="M 269.349527 273.312 
L 270.968337 273.312 
L 270.968337 46.472117 
L 269.349527 46.472117 
z
" style="fill:#1f77b4;"/>
   </g>
   <g id="patch_133">
    <path clip-path="url(#p4cacd9eb4e)" d="M 270.968337 273.312 
L 272.587146 273.312 
L 272.587146 71.594449 
L 270.968337 71.594449 
z
" style="fill:#1f77b4;"/>
   </g>
   <g id="patch_134">
    <path clip-path="url(#p4cacd9eb4e)" d="M 272.587146 273.312 
L 274.205956 273.312 
L 274.205956 86.372292 
L 272.587146 86.372292 
z
" style="fill:#1f77b4;"/>
   </g>
   <g id="patch_135">
    <path clip-path="url(#p4cacd9eb4e)" d="M 274.205956 273.312 
L 275.824766 273.312 
L 275.824766 75.28891 
L 274.205956 75.28891 
z
" style="fill:#1f77b4;"/>
   </g>
   <g id="patch_136">
    <path clip-path="url(#p4cacd9eb4e)" d="M 275.824766 273.312 
L 277.443575 273.312 
L 277.443575 67.161096 
L 275.824766 67.161096 
z
" style="fill:#1f77b4;"/>
   </g>
   <g id="patch_137">
    <path clip-path="url(#p4cacd9eb4e)" d="M 277.443575 273.312 
L 279.062385 273.312 
L 279.062385 75.28891 
L 277.443575 75.28891 
z
" style="fill:#1f77b4;"/>
   </g>
   <g id="patch_138">
    <path clip-path="url(#p4cacd9eb4e)" d="M 279.062385 273.312 
L 280.681195 273.312 
L 280.681195 73.072233 
L 279.062385 73.072233 
z
" style="fill:#1f77b4;"/>
   </g>
   <g id="patch_139">
    <path clip-path="url(#p4cacd9eb4e)" d="M 280.681195 273.312 
L 282.300004 273.312 
L 282.300004 49.427685 
L 280.681195 49.427685 
z
" style="fill:#1f77b4;"/>
   </g>
   <g id="patch_140">
    <path clip-path="url(#p4cacd9eb4e)" d="M 282.300004 273.312 
L 283.918814 273.312 
L 283.918814 91.544536 
L 282.300004 91.544536 
z
" style="fill:#1f77b4;"/>
   </g>
   <g id="patch_141">
    <path clip-path="url(#p4cacd9eb4e)" d="M 283.918814 273.312 
L 285.537624 273.312 
L 285.537624 59.033283 
L 283.918814 59.033283 
z
" style="fill:#1f77b4;"/>
   </g>
   <g id="patch_142">
    <path clip-path="url(#p4cacd9eb4e)" d="M 285.537624 273.312 
L 287.156434 273.312 
L 287.156434 82.677831 
L 285.537624 82.677831 
z
" style="fill:#1f77b4;"/>
   </g>
   <g id="patch_143">
    <path clip-path="url(#p4cacd9eb4e)" d="M 287.156434 273.312 
L 288.775243 273.312 
L 288.775243 81.938939 
L 287.156434 81.938939 
z
" style="fill:#1f77b4;"/>
   </g>
   <g id="patch_144">
    <path clip-path="url(#p4cacd9eb4e)" d="M 288.775243 273.312 
L 290.394053 273.312 
L 290.394053 101.150134 
L 288.775243 101.150134 
z
" style="fill:#1f77b4;"/>
   </g>
   <g id="patch_145">
    <path clip-path="url(#p4cacd9eb4e)" d="M 290.394053 273.312 
L 292.012863 273.312 
L 292.012863 90.066752 
L 290.394053 90.066752 
z
" style="fill:#1f77b4;"/>
   </g>
   <g id="patch_146">
    <path clip-path="url(#p4cacd9eb4e)" d="M 292.012863 273.312 
L 293.631672 273.312 
L 293.631672 91.544536 
L 292.012863 91.544536 
z
" style="fill:#1f77b4;"/>
   </g>
   <g id="patch_147">
    <path clip-path="url(#p4cacd9eb4e)" d="M 293.631672 273.312 
L 295.250482 273.312 
L 295.250482 89.32786 
L 293.631672 89.32786 
z
" style="fill:#1f77b4;"/>
   </g>
   <g id="patch_148">
    <path clip-path="url(#p4cacd9eb4e)" d="M 295.250482 273.312 
L 296.869292 273.312 
L 296.869292 78.98337 
L 295.250482 78.98337 
z
" style="fill:#1f77b4;"/>
   </g>
   <g id="patch_149">
    <path clip-path="url(#p4cacd9eb4e)" d="M 296.869292 273.312 
L 298.488101 273.312 
L 298.488101 86.372292 
L 296.869292 86.372292 
z
" style="fill:#1f77b4;"/>
   </g>
   <g id="patch_150">
    <path clip-path="url(#p4cacd9eb4e)" d="M 298.488101 273.312 
L 300.106911 273.312 
L 300.106911 98.194566 
L 298.488101 98.194566 
z
" style="fill:#1f77b4;"/>
   </g>
   <g id="patch_151">
    <path clip-path="url(#p4cacd9eb4e)" d="M 300.106911 273.312 
L 301.725721 273.312 
L 301.725721 104.844595 
L 300.106911 104.844595 
z
" style="fill:#1f77b4;"/>
   </g>
   <g id="patch_152">
    <path clip-path="url(#p4cacd9eb4e)" d="M 301.725721 273.312 
L 303.344531 273.312 
L 303.344531 98.194566 
L 301.725721 98.194566 
z
" style="fill:#1f77b4;"/>
   </g>
   <g id="patch_153">
    <path clip-path="url(#p4cacd9eb4e)" d="M 303.344531 273.312 
L 304.96334 273.312 
L 304.96334 121.839114 
L 303.344531 121.839114 
z
" style="fill:#1f77b4;"/>
   </g>
   <g id="patch_154">
    <path clip-path="url(#p4cacd9eb4e)" d="M 304.96334 273.312 
L 306.58215 273.312 
L 306.58215 115.189085 
L 304.96334 115.189085 
z
" style="fill:#1f77b4;"/>
   </g>
   <g id="patch_155">
    <path clip-path="url(#p4cacd9eb4e)" d="M 306.58215 273.312 
L 308.20096 273.312 
L 308.20096 121.839114 
L 306.58215 121.839114 
z
" style="fill:#1f77b4;"/>
   </g>
   <g id="patch_156">
    <path clip-path="url(#p4cacd9eb4e)" d="M 308.20096 273.312 
L 309.819769 273.312 
L 309.819769 109.277948 
L 308.20096 109.277948 
z
" style="fill:#1f77b4;"/>
   </g>
   <g id="patch_157">
    <path clip-path="url(#p4cacd9eb4e)" d="M 309.819769 273.312 
L 311.438579 273.312 
L 311.438579 143.266985 
L 309.819769 143.266985 
z
" style="fill:#1f77b4;"/>
   </g>
   <g id="patch_158">
    <path clip-path="url(#p4cacd9eb4e)" d="M 311.438579 273.312 
L 313.057389 273.312 
L 313.057389 116.666869 
L 311.438579 116.666869 
z
" style="fill:#1f77b4;"/>
   </g>
   <g id="patch_159">
    <path clip-path="url(#p4cacd9eb4e)" d="M 313.057389 273.312 
L 314.676198 273.312 
L 314.676198 124.05579 
L 313.057389 124.05579 
z
" style="fill:#1f77b4;"/>
   </g>
   <g id="patch_160">
    <path clip-path="url(#p4cacd9eb4e)" d="M 314.676198 273.312 
L 316.295008 273.312 
L 316.295008 144.005878 
L 314.676198 144.005878 
z
" style="fill:#1f77b4;"/>
   </g>
   <g id="patch_161">
    <path clip-path="url(#p4cacd9eb4e)" d="M 316.295008 273.312 
L 317.913818 273.312 
L 317.913818 124.794682 
L 316.295008 124.794682 
z
" style="fill:#1f77b4;"/>
   </g>
   <g id="patch_162">
    <path clip-path="url(#p4cacd9eb4e)" d="M 317.913818 273.312 
L 319.532628 273.312 
L 319.532628 135.878064 
L 317.913818 135.878064 
z
" style="fill:#1f77b4;"/>
   </g>
   <g id="patch_163">
    <path clip-path="url(#p4cacd9eb4e)" d="M 319.532628 273.312 
L 321.151437 273.312 
L 321.151437 141.789201 
L 319.532628 141.789201 
z
" style="fill:#1f77b4;"/>
   </g>
   <g id="patch_164">
    <path clip-path="url(#p4cacd9eb4e)" d="M 321.151437 273.312 
L 322.770247 273.312 
L 322.770247 146.222554 
L 321.151437 146.222554 
z
" style="fill:#1f77b4;"/>
   </g>
   <g id="patch_165">
    <path clip-path="url(#p4cacd9eb4e)" d="M 322.770247 273.312 
L 324.389057 273.312 
L 324.389057 143.266985 
L 322.770247 143.266985 
z
" style="fill:#1f77b4;"/>
   </g>
   <g id="patch_166">
    <path clip-path="url(#p4cacd9eb4e)" d="M 324.389057 273.312 
L 326.007866 273.312 
L 326.007866 149.917015 
L 324.389057 149.917015 
z
" style="fill:#1f77b4;"/>
   </g>
   <g id="patch_167">
    <path clip-path="url(#p4cacd9eb4e)" d="M 326.007866 273.312 
L 327.626676 273.312 
L 327.626676 166.172641 
L 326.007866 166.172641 
z
" style="fill:#1f77b4;"/>
   </g>
   <g id="patch_168">
    <path clip-path="url(#p4cacd9eb4e)" d="M 327.626676 273.312 
L 329.245486 273.312 
L 329.245486 137.355848 
L 327.626676 137.355848 
z
" style="fill:#1f77b4;"/>
   </g>
   <g id="patch_169">
    <path clip-path="url(#p4cacd9eb4e)" d="M 329.245486 273.312 
L 330.864295 273.312 
L 330.864295 163.955965 
L 329.245486 163.955965 
z
" style="fill:#1f77b4;"/>
   </g>
   <g id="patch_170">
    <path clip-path="url(#p4cacd9eb4e)" d="M 330.864295 273.312 
L 332.483105 273.312 
L 332.483105 149.178122 
L 330.864295 149.178122 
z
" style="fill:#1f77b4;"/>
   </g>
   <g id="patch_171">
    <path clip-path="url(#p4cacd9eb4e)" d="M 332.483105 273.312 
L 334.101915 273.312 
L 334.101915 177.994915 
L 332.483105 177.994915 
z
" style="fill:#1f77b4;"/>
   </g>
   <g id="patch_172">
    <path clip-path="url(#p4cacd9eb4e)" d="M 334.101915 273.312 
L 335.720725 273.312 
L 335.720725 156.567044 
L 334.101915 156.567044 
z
" style="fill:#1f77b4;"/>
   </g>
   <g id="patch_173">
    <path clip-path="url(#p4cacd9eb4e)" d="M 335.720725 273.312 
L 337.339534 273.312 
L 337.339534 180.211592 
L 335.720725 180.211592 
z
" style="fill:#1f77b4;"/>
   </g>
   <g id="patch_174">
    <path clip-path="url(#p4cacd9eb4e)" d="M 337.339534 273.312 
L 338.958344 273.312 
L 338.958344 167.650426 
L 337.339534 167.650426 
z
" style="fill:#1f77b4;"/>
   </g>
   <g id="patch_175">
    <path clip-path="url(#p4cacd9eb4e)" d="M 338.958344 273.312 
L 340.577154 273.312 
L 340.577154 180.211592 
L 338.958344 180.211592 
z
" style="fill:#1f77b4;"/>
   </g>
   <g id="patch_176">
    <path clip-path="url(#p4cacd9eb4e)" d="M 340.577154 273.312 
L 342.195963 273.312 
L 342.195963 163.217073 
L 340.577154 163.217073 
z
" style="fill:#1f77b4;"/>
   </g>
   <g id="patch_177">
    <path clip-path="url(#p4cacd9eb4e)" d="M 342.195963 273.312 
L 343.814773 273.312 
L 343.814773 173.561563 
L 342.195963 173.561563 
z
" style="fill:#1f77b4;"/>
   </g>
   <g id="patch_178">
    <path clip-path="url(#p4cacd9eb4e)" d="M 343.814773 273.312 
L 345.433583 273.312 
L 345.433583 196.467219 
L 343.814773 196.467219 
z
" style="fill:#1f77b4;"/>
   </g>
   <g id="patch_179">
    <path clip-path="url(#p4cacd9eb4e)" d="M 345.433583 273.312 
L 347.052392 273.312 
L 347.052392 194.250542 
L 345.433583 194.250542 
z
" style="fill:#1f77b4;"/>
   </g>
   <g id="patch_180">
    <path clip-path="url(#p4cacd9eb4e)" d="M 347.052392 273.312 
L 348.671202 273.312 
L 348.671202 211.983953 
L 347.052392 211.983953 
z
" style="fill:#1f77b4;"/>
   </g>
   <g id="patch_181">
    <path clip-path="url(#p4cacd9eb4e)" d="M 348.671202 273.312 
L 350.290012 273.312 
L 350.290012 202.378356 
L 348.671202 202.378356 
z
" style="fill:#1f77b4;"/>
   </g>
   <g id="patch_182">
    <path clip-path="url(#p4cacd9eb4e)" d="M 350.290012 273.312 
L 351.908822 273.312 
L 351.908822 189.078297 
L 350.290012 189.078297 
z
" style="fill:#1f77b4;"/>
   </g>
   <g id="patch_183">
    <path clip-path="url(#p4cacd9eb4e)" d="M 351.908822 273.312 
L 353.527631 273.312 
L 353.527631 221.589551 
L 351.908822 221.589551 
z
" style="fill:#1f77b4;"/>
   </g>
   <g id="patch_184">
    <path clip-path="url(#p4cacd9eb4e)" d="M 353.527631 273.312 
L 355.146441 273.312 
L 355.146441 206.811708 
L 353.527631 206.811708 
z
" style="fill:#1f77b4;"/>
   </g>
   <g id="patch_185">
    <path clip-path="url(#p4cacd9eb4e)" d="M 355.146441 273.312 
L 356.765251 273.312 
L 356.765251 214.939522 
L 355.146441 214.939522 
z
" style="fill:#1f77b4;"/>
   </g>
   <g id="patch_186">
    <path clip-path="url(#p4cacd9eb4e)" d="M 356.765251 273.312 
L 358.38406 273.312 
L 358.38406 205.333924 
L 356.765251 205.333924 
z
" style="fill:#1f77b4;"/>
   </g>
   <g id="patch_187">
    <path clip-path="url(#p4cacd9eb4e)" d="M 358.38406 273.312 
L 360.00287 273.312 
L 360.00287 218.633983 
L 358.38406 218.633983 
z
" style="fill:#1f77b4;"/>
   </g>
   <g id="patch_188">
    <path clip-path="url(#p4cacd9eb4e)" d="M 360.00287 273.312 
L 361.62168 273.312 
L 361.62168 227.500688 
L 360.00287 227.500688 
z
" style="fill:#1f77b4;"/>
   </g>
   <g id="patch_189">
    <path clip-path="url(#p4cacd9eb4e)" d="M 361.62168 273.312 
L 363.240489 273.312 
L 363.240489 231.195149 
L 361.62168 231.195149 
z
" style="fill:#1f77b4;"/>
   </g>
   <g id="patch_190">
    <path clip-path="url(#p4cacd9eb4e)" d="M 363.240489 273.312 
L 364.859299 273.312 
L 364.859299 220.850659 
L 363.240489 220.850659 
z
" style="fill:#1f77b4;"/>
   </g>
   <g id="patch_191">
    <path clip-path="url(#p4cacd9eb4e)" d="M 364.859299 273.312 
L 366.478109 273.312 
L 366.478109 229.717364 
L 364.859299 229.717364 
z
" style="fill:#1f77b4;"/>
   </g>
   <g id="patch_192">
    <path clip-path="url(#p4cacd9eb4e)" d="M 366.478109 273.312 
L 368.096919 273.312 
L 368.096919 226.022904 
L 366.478109 226.022904 
z
" style="fill:#1f77b4;"/>
   </g>
   <g id="patch_193">
    <path clip-path="url(#p4cacd9eb4e)" d="M 368.096919 273.312 
L 369.715728 273.312 
L 369.715728 237.845178 
L 368.096919 237.845178 
z
" style="fill:#1f77b4;"/>
   </g>
   <g id="patch_194">
    <path clip-path="url(#p4cacd9eb4e)" d="M 369.715728 273.312 
L 371.334538 273.312 
L 371.334538 240.800746 
L 369.715728 240.800746 
z
" style="fill:#1f77b4;"/>
   </g>
   <g id="patch_195">
    <path clip-path="url(#p4cacd9eb4e)" d="M 371.334538 273.312 
L 372.953348 273.312 
L 372.953348 229.717364 
L 371.334538 229.717364 
z
" style="fill:#1f77b4;"/>
   </g>
   <g id="patch_196">
    <path clip-path="url(#p4cacd9eb4e)" d="M 372.953348 273.312 
L 374.572157 273.312 
L 374.572157 251.145236 
L 372.953348 251.145236 
z
" style="fill:#1f77b4;"/>
   </g>
   <g id="patch_197">
    <path clip-path="url(#p4cacd9eb4e)" d="M 374.572157 273.312 
L 376.190967 273.312 
L 376.190967 251.884128 
L 374.572157 251.884128 
z
" style="fill:#1f77b4;"/>
   </g>
   <g id="patch_198">
    <path clip-path="url(#p4cacd9eb4e)" d="M 376.190967 273.312 
L 377.809777 273.312 
L 377.809777 254.839697 
L 376.190967 254.839697 
z
" style="fill:#1f77b4;"/>
   </g>
   <g id="patch_199">
    <path clip-path="url(#p4cacd9eb4e)" d="M 377.809777 273.312 
L 379.428586 273.312 
L 379.428586 262.228618 
L 377.809777 262.228618 
z
" style="fill:#1f77b4;"/>
   </g>
   <g id="patch_200">
    <path clip-path="url(#p4cacd9eb4e)" d="M 379.428586 273.312 
L 381.047396 273.312 
L 381.047396 266.661971 
L 379.428586 266.661971 
z
" style="fill:#1f77b4;"/>
   </g>
   <g id="patch_201">
    <path clip-path="url(#p4cacd9eb4e)" d="M 381.047396 273.312 
L 382.666206 273.312 
L 382.666206 270.356431 
L 381.047396 270.356431 
z
" style="fill:#1f77b4;"/>
   </g>
   <g id="patch_202">
    <path clip-path="url(#p4cacd9eb4e)" d="M 382.666206 273.312 
L 384.285016 273.312 
L 384.285016 269.617539 
L 382.666206 269.617539 
z
" style="fill:#1f77b4;"/>
   </g>
   <g id="matplotlib.axis_1">
    <g id="xtick_1">
     <g id="line2d_1">
      <defs>
       <path d="M 0 0 
L 0 3.5 
" id="mfb015467b5" style="stroke:#000000;stroke-width:0.8;"/>
      </defs>
      <g>
       <use style="stroke:#000000;stroke-width:0.8;" x="60.013977" xlink:href="#mfb015467b5" y="273.312"/>
      </g>
     </g>
     <g id="text_1">
      <!-- 0.0 -->
      <g transform="translate(52.062415 287.910437)scale(0.1 -0.1)">
       <defs>
        <path d="M 2034 4250 
Q 1547 4250 1301 3770 
Q 1056 3291 1056 2328 
Q 1056 1369 1301 889 
Q 1547 409 2034 409 
Q 2525 409 2770 889 
Q 3016 1369 3016 2328 
Q 3016 3291 2770 3770 
Q 2525 4250 2034 4250 
z
M 2034 4750 
Q 2819 4750 3233 4129 
Q 3647 3509 3647 2328 
Q 3647 1150 3233 529 
Q 2819 -91 2034 -91 
Q 1250 -91 836 529 
Q 422 1150 422 2328 
Q 422 3509 836 4129 
Q 1250 4750 2034 4750 
z
" id="DejaVuSans-30" transform="scale(0.015625)"/>
        <path d="M 684 794 
L 1344 794 
L 1344 0 
L 684 0 
L 684 794 
z
" id="DejaVuSans-2e" transform="scale(0.015625)"/>
       </defs>
       <use xlink:href="#DejaVuSans-30"/>
       <use x="63.623047" xlink:href="#DejaVuSans-2e"/>
       <use x="95.410156" xlink:href="#DejaVuSans-30"/>
      </g>
     </g>
    </g>
    <g id="xtick_2">
     <g id="line2d_2">
      <g>
       <use style="stroke:#000000;stroke-width:0.8;" x="101.350278" xlink:href="#mfb015467b5" y="273.312"/>
      </g>
     </g>
     <g id="text_2">
      <!-- 0.2 -->
      <g transform="translate(93.398715 287.910437)scale(0.1 -0.1)">
       <defs>
        <path d="M 1228 531 
L 3431 531 
L 3431 0 
L 469 0 
L 469 531 
Q 828 903 1448 1529 
Q 2069 2156 2228 2338 
Q 2531 2678 2651 2914 
Q 2772 3150 2772 3378 
Q 2772 3750 2511 3984 
Q 2250 4219 1831 4219 
Q 1534 4219 1204 4116 
Q 875 4013 500 3803 
L 500 4441 
Q 881 4594 1212 4672 
Q 1544 4750 1819 4750 
Q 2544 4750 2975 4387 
Q 3406 4025 3406 3419 
Q 3406 3131 3298 2873 
Q 3191 2616 2906 2266 
Q 2828 2175 2409 1742 
Q 1991 1309 1228 531 
z
" id="DejaVuSans-32" transform="scale(0.015625)"/>
       </defs>
       <use xlink:href="#DejaVuSans-30"/>
       <use x="63.623047" xlink:href="#DejaVuSans-2e"/>
       <use x="95.410156" xlink:href="#DejaVuSans-32"/>
      </g>
     </g>
    </g>
    <g id="xtick_3">
     <g id="line2d_3">
      <g>
       <use style="stroke:#000000;stroke-width:0.8;" x="142.686578" xlink:href="#mfb015467b5" y="273.312"/>
      </g>
     </g>
     <g id="text_3">
      <!-- 0.4 -->
      <g transform="translate(134.735016 287.910437)scale(0.1 -0.1)">
       <defs>
        <path d="M 2419 4116 
L 825 1625 
L 2419 1625 
L 2419 4116 
z
M 2253 4666 
L 3047 4666 
L 3047 1625 
L 3713 1625 
L 3713 1100 
L 3047 1100 
L 3047 0 
L 2419 0 
L 2419 1100 
L 313 1100 
L 313 1709 
L 2253 4666 
z
" id="DejaVuSans-34" transform="scale(0.015625)"/>
       </defs>
       <use xlink:href="#DejaVuSans-30"/>
       <use x="63.623047" xlink:href="#DejaVuSans-2e"/>
       <use x="95.410156" xlink:href="#DejaVuSans-34"/>
      </g>
     </g>
    </g>
    <g id="xtick_4">
     <g id="line2d_4">
      <g>
       <use style="stroke:#000000;stroke-width:0.8;" x="184.022879" xlink:href="#mfb015467b5" y="273.312"/>
      </g>
     </g>
     <g id="text_4">
      <!-- 0.6 -->
      <g transform="translate(176.071316 287.910437)scale(0.1 -0.1)">
       <defs>
        <path d="M 2113 2584 
Q 1688 2584 1439 2293 
Q 1191 2003 1191 1497 
Q 1191 994 1439 701 
Q 1688 409 2113 409 
Q 2538 409 2786 701 
Q 3034 994 3034 1497 
Q 3034 2003 2786 2293 
Q 2538 2584 2113 2584 
z
M 3366 4563 
L 3366 3988 
Q 3128 4100 2886 4159 
Q 2644 4219 2406 4219 
Q 1781 4219 1451 3797 
Q 1122 3375 1075 2522 
Q 1259 2794 1537 2939 
Q 1816 3084 2150 3084 
Q 2853 3084 3261 2657 
Q 3669 2231 3669 1497 
Q 3669 778 3244 343 
Q 2819 -91 2113 -91 
Q 1303 -91 875 529 
Q 447 1150 447 2328 
Q 447 3434 972 4092 
Q 1497 4750 2381 4750 
Q 2619 4750 2861 4703 
Q 3103 4656 3366 4563 
z
" id="DejaVuSans-36" transform="scale(0.015625)"/>
       </defs>
       <use xlink:href="#DejaVuSans-30"/>
       <use x="63.623047" xlink:href="#DejaVuSans-2e"/>
       <use x="95.410156" xlink:href="#DejaVuSans-36"/>
      </g>
     </g>
    </g>
    <g id="xtick_5">
     <g id="line2d_5">
      <g>
       <use style="stroke:#000000;stroke-width:0.8;" x="225.35918" xlink:href="#mfb015467b5" y="273.312"/>
      </g>
     </g>
     <g id="text_5">
      <!-- 0.8 -->
      <g transform="translate(217.407617 287.910437)scale(0.1 -0.1)">
       <defs>
        <path d="M 2034 2216 
Q 1584 2216 1326 1975 
Q 1069 1734 1069 1313 
Q 1069 891 1326 650 
Q 1584 409 2034 409 
Q 2484 409 2743 651 
Q 3003 894 3003 1313 
Q 3003 1734 2745 1975 
Q 2488 2216 2034 2216 
z
M 1403 2484 
Q 997 2584 770 2862 
Q 544 3141 544 3541 
Q 544 4100 942 4425 
Q 1341 4750 2034 4750 
Q 2731 4750 3128 4425 
Q 3525 4100 3525 3541 
Q 3525 3141 3298 2862 
Q 3072 2584 2669 2484 
Q 3125 2378 3379 2068 
Q 3634 1759 3634 1313 
Q 3634 634 3220 271 
Q 2806 -91 2034 -91 
Q 1263 -91 848 271 
Q 434 634 434 1313 
Q 434 1759 690 2068 
Q 947 2378 1403 2484 
z
M 1172 3481 
Q 1172 3119 1398 2916 
Q 1625 2713 2034 2713 
Q 2441 2713 2670 2916 
Q 2900 3119 2900 3481 
Q 2900 3844 2670 4047 
Q 2441 4250 2034 4250 
Q 1625 4250 1398 4047 
Q 1172 3844 1172 3481 
z
" id="DejaVuSans-38" transform="scale(0.015625)"/>
       </defs>
       <use xlink:href="#DejaVuSans-30"/>
       <use x="63.623047" xlink:href="#DejaVuSans-2e"/>
       <use x="95.410156" xlink:href="#DejaVuSans-38"/>
      </g>
     </g>
    </g>
    <g id="xtick_6">
     <g id="line2d_6">
      <g>
       <use style="stroke:#000000;stroke-width:0.8;" x="266.69548" xlink:href="#mfb015467b5" y="273.312"/>
      </g>
     </g>
     <g id="text_6">
      <!-- 1.0 -->
      <g transform="translate(258.743918 287.910437)scale(0.1 -0.1)">
       <defs>
        <path d="M 794 531 
L 1825 531 
L 1825 4091 
L 703 3866 
L 703 4441 
L 1819 4666 
L 2450 4666 
L 2450 531 
L 3481 531 
L 3481 0 
L 794 0 
L 794 531 
z
" id="DejaVuSans-31" transform="scale(0.015625)"/>
       </defs>
       <use xlink:href="#DejaVuSans-31"/>
       <use x="63.623047" xlink:href="#DejaVuSans-2e"/>
       <use x="95.410156" xlink:href="#DejaVuSans-30"/>
      </g>
     </g>
    </g>
    <g id="xtick_7">
     <g id="line2d_7">
      <g>
       <use style="stroke:#000000;stroke-width:0.8;" x="308.031781" xlink:href="#mfb015467b5" y="273.312"/>
      </g>
     </g>
     <g id="text_7">
      <!-- 1.2 -->
      <g transform="translate(300.080218 287.910437)scale(0.1 -0.1)">
       <use xlink:href="#DejaVuSans-31"/>
       <use x="63.623047" xlink:href="#DejaVuSans-2e"/>
       <use x="95.410156" xlink:href="#DejaVuSans-32"/>
      </g>
     </g>
    </g>
    <g id="xtick_8">
     <g id="line2d_8">
      <g>
       <use style="stroke:#000000;stroke-width:0.8;" x="349.368081" xlink:href="#mfb015467b5" y="273.312"/>
      </g>
     </g>
     <g id="text_8">
      <!-- 1.4 -->
      <g transform="translate(341.416519 287.910437)scale(0.1 -0.1)">
       <use xlink:href="#DejaVuSans-31"/>
       <use x="63.623047" xlink:href="#DejaVuSans-2e"/>
       <use x="95.410156" xlink:href="#DejaVuSans-34"/>
      </g>
     </g>
    </g>
    <g id="xtick_9">
     <g id="line2d_9">
      <g>
       <use style="stroke:#000000;stroke-width:0.8;" x="390.704382" xlink:href="#mfb015467b5" y="273.312"/>
      </g>
     </g>
     <g id="text_9">
      <!-- 1.6 -->
      <g transform="translate(382.752819 287.910437)scale(0.1 -0.1)">
       <use xlink:href="#DejaVuSans-31"/>
       <use x="63.623047" xlink:href="#DejaVuSans-2e"/>
       <use x="95.410156" xlink:href="#DejaVuSans-36"/>
      </g>
     </g>
    </g>
    <g id="text_10">
     <!-- Angle with normal (rad) -->
     <g transform="translate(163.023281 301.588562)scale(0.1 -0.1)">
      <defs>
       <path d="M 2188 4044 
L 1331 1722 
L 3047 1722 
L 2188 4044 
z
M 1831 4666 
L 2547 4666 
L 4325 0 
L 3669 0 
L 3244 1197 
L 1141 1197 
L 716 0 
L 50 0 
L 1831 4666 
z
" id="DejaVuSans-41" transform="scale(0.015625)"/>
       <path d="M 3513 2113 
L 3513 0 
L 2938 0 
L 2938 2094 
Q 2938 2591 2744 2837 
Q 2550 3084 2163 3084 
Q 1697 3084 1428 2787 
Q 1159 2491 1159 1978 
L 1159 0 
L 581 0 
L 581 3500 
L 1159 3500 
L 1159 2956 
Q 1366 3272 1645 3428 
Q 1925 3584 2291 3584 
Q 2894 3584 3203 3211 
Q 3513 2838 3513 2113 
z
" id="DejaVuSans-6e" transform="scale(0.015625)"/>
       <path d="M 2906 1791 
Q 2906 2416 2648 2759 
Q 2391 3103 1925 3103 
Q 1463 3103 1205 2759 
Q 947 2416 947 1791 
Q 947 1169 1205 825 
Q 1463 481 1925 481 
Q 2391 481 2648 825 
Q 2906 1169 2906 1791 
z
M 3481 434 
Q 3481 -459 3084 -895 
Q 2688 -1331 1869 -1331 
Q 1566 -1331 1297 -1286 
Q 1028 -1241 775 -1147 
L 775 -588 
Q 1028 -725 1275 -790 
Q 1522 -856 1778 -856 
Q 2344 -856 2625 -561 
Q 2906 -266 2906 331 
L 2906 616 
Q 2728 306 2450 153 
Q 2172 0 1784 0 
Q 1141 0 747 490 
Q 353 981 353 1791 
Q 353 2603 747 3093 
Q 1141 3584 1784 3584 
Q 2172 3584 2450 3431 
Q 2728 3278 2906 2969 
L 2906 3500 
L 3481 3500 
L 3481 434 
z
" id="DejaVuSans-67" transform="scale(0.015625)"/>
       <path d="M 603 4863 
L 1178 4863 
L 1178 0 
L 603 0 
L 603 4863 
z
" id="DejaVuSans-6c" transform="scale(0.015625)"/>
       <path d="M 3597 1894 
L 3597 1613 
L 953 1613 
Q 991 1019 1311 708 
Q 1631 397 2203 397 
Q 2534 397 2845 478 
Q 3156 559 3463 722 
L 3463 178 
Q 3153 47 2828 -22 
Q 2503 -91 2169 -91 
Q 1331 -91 842 396 
Q 353 884 353 1716 
Q 353 2575 817 3079 
Q 1281 3584 2069 3584 
Q 2775 3584 3186 3129 
Q 3597 2675 3597 1894 
z
M 3022 2063 
Q 3016 2534 2758 2815 
Q 2500 3097 2075 3097 
Q 1594 3097 1305 2825 
Q 1016 2553 972 2059 
L 3022 2063 
z
" id="DejaVuSans-65" transform="scale(0.015625)"/>
       <path id="DejaVuSans-20" transform="scale(0.015625)"/>
       <path d="M 269 3500 
L 844 3500 
L 1563 769 
L 2278 3500 
L 2956 3500 
L 3675 769 
L 4391 3500 
L 4966 3500 
L 4050 0 
L 3372 0 
L 2619 2869 
L 1863 0 
L 1184 0 
L 269 3500 
z
" id="DejaVuSans-77" transform="scale(0.015625)"/>
       <path d="M 603 3500 
L 1178 3500 
L 1178 0 
L 603 0 
L 603 3500 
z
M 603 4863 
L 1178 4863 
L 1178 4134 
L 603 4134 
L 603 4863 
z
" id="DejaVuSans-69" transform="scale(0.015625)"/>
       <path d="M 1172 4494 
L 1172 3500 
L 2356 3500 
L 2356 3053 
L 1172 3053 
L 1172 1153 
Q 1172 725 1289 603 
Q 1406 481 1766 481 
L 2356 481 
L 2356 0 
L 1766 0 
Q 1100 0 847 248 
Q 594 497 594 1153 
L 594 3053 
L 172 3053 
L 172 3500 
L 594 3500 
L 594 4494 
L 1172 4494 
z
" id="DejaVuSans-74" transform="scale(0.015625)"/>
       <path d="M 3513 2113 
L 3513 0 
L 2938 0 
L 2938 2094 
Q 2938 2591 2744 2837 
Q 2550 3084 2163 3084 
Q 1697 3084 1428 2787 
Q 1159 2491 1159 1978 
L 1159 0 
L 581 0 
L 581 4863 
L 1159 4863 
L 1159 2956 
Q 1366 3272 1645 3428 
Q 1925 3584 2291 3584 
Q 2894 3584 3203 3211 
Q 3513 2838 3513 2113 
z
" id="DejaVuSans-68" transform="scale(0.015625)"/>
       <path d="M 1959 3097 
Q 1497 3097 1228 2736 
Q 959 2375 959 1747 
Q 959 1119 1226 758 
Q 1494 397 1959 397 
Q 2419 397 2687 759 
Q 2956 1122 2956 1747 
Q 2956 2369 2687 2733 
Q 2419 3097 1959 3097 
z
M 1959 3584 
Q 2709 3584 3137 3096 
Q 3566 2609 3566 1747 
Q 3566 888 3137 398 
Q 2709 -91 1959 -91 
Q 1206 -91 779 398 
Q 353 888 353 1747 
Q 353 2609 779 3096 
Q 1206 3584 1959 3584 
z
" id="DejaVuSans-6f" transform="scale(0.015625)"/>
       <path d="M 2631 2963 
Q 2534 3019 2420 3045 
Q 2306 3072 2169 3072 
Q 1681 3072 1420 2755 
Q 1159 2438 1159 1844 
L 1159 0 
L 581 0 
L 581 3500 
L 1159 3500 
L 1159 2956 
Q 1341 3275 1631 3429 
Q 1922 3584 2338 3584 
Q 2397 3584 2469 3576 
Q 2541 3569 2628 3553 
L 2631 2963 
z
" id="DejaVuSans-72" transform="scale(0.015625)"/>
       <path d="M 3328 2828 
Q 3544 3216 3844 3400 
Q 4144 3584 4550 3584 
Q 5097 3584 5394 3201 
Q 5691 2819 5691 2113 
L 5691 0 
L 5113 0 
L 5113 2094 
Q 5113 2597 4934 2840 
Q 4756 3084 4391 3084 
Q 3944 3084 3684 2787 
Q 3425 2491 3425 1978 
L 3425 0 
L 2847 0 
L 2847 2094 
Q 2847 2600 2669 2842 
Q 2491 3084 2119 3084 
Q 1678 3084 1418 2786 
Q 1159 2488 1159 1978 
L 1159 0 
L 581 0 
L 581 3500 
L 1159 3500 
L 1159 2956 
Q 1356 3278 1631 3431 
Q 1906 3584 2284 3584 
Q 2666 3584 2933 3390 
Q 3200 3197 3328 2828 
z
" id="DejaVuSans-6d" transform="scale(0.015625)"/>
       <path d="M 2194 1759 
Q 1497 1759 1228 1600 
Q 959 1441 959 1056 
Q 959 750 1161 570 
Q 1363 391 1709 391 
Q 2188 391 2477 730 
Q 2766 1069 2766 1631 
L 2766 1759 
L 2194 1759 
z
M 3341 1997 
L 3341 0 
L 2766 0 
L 2766 531 
Q 2569 213 2275 61 
Q 1981 -91 1556 -91 
Q 1019 -91 701 211 
Q 384 513 384 1019 
Q 384 1609 779 1909 
Q 1175 2209 1959 2209 
L 2766 2209 
L 2766 2266 
Q 2766 2663 2505 2880 
Q 2244 3097 1772 3097 
Q 1472 3097 1187 3025 
Q 903 2953 641 2809 
L 641 3341 
Q 956 3463 1253 3523 
Q 1550 3584 1831 3584 
Q 2591 3584 2966 3190 
Q 3341 2797 3341 1997 
z
" id="DejaVuSans-61" transform="scale(0.015625)"/>
       <path d="M 1984 4856 
Q 1566 4138 1362 3434 
Q 1159 2731 1159 2009 
Q 1159 1288 1364 580 
Q 1569 -128 1984 -844 
L 1484 -844 
Q 1016 -109 783 600 
Q 550 1309 550 2009 
Q 550 2706 781 3412 
Q 1013 4119 1484 4856 
L 1984 4856 
z
" id="DejaVuSans-28" transform="scale(0.015625)"/>
       <path d="M 2906 2969 
L 2906 4863 
L 3481 4863 
L 3481 0 
L 2906 0 
L 2906 525 
Q 2725 213 2448 61 
Q 2172 -91 1784 -91 
Q 1150 -91 751 415 
Q 353 922 353 1747 
Q 353 2572 751 3078 
Q 1150 3584 1784 3584 
Q 2172 3584 2448 3432 
Q 2725 3281 2906 2969 
z
M 947 1747 
Q 947 1113 1208 752 
Q 1469 391 1925 391 
Q 2381 391 2643 752 
Q 2906 1113 2906 1747 
Q 2906 2381 2643 2742 
Q 2381 3103 1925 3103 
Q 1469 3103 1208 2742 
Q 947 2381 947 1747 
z
" id="DejaVuSans-64" transform="scale(0.015625)"/>
       <path d="M 513 4856 
L 1013 4856 
Q 1481 4119 1714 3412 
Q 1947 2706 1947 2009 
Q 1947 1309 1714 600 
Q 1481 -109 1013 -844 
L 513 -844 
Q 928 -128 1133 580 
Q 1338 1288 1338 2009 
Q 1338 2731 1133 3434 
Q 928 4138 513 4856 
z
" id="DejaVuSans-29" transform="scale(0.015625)"/>
      </defs>
      <use xlink:href="#DejaVuSans-41"/>
      <use x="68.408203" xlink:href="#DejaVuSans-6e"/>
      <use x="131.787109" xlink:href="#DejaVuSans-67"/>
      <use x="195.263672" xlink:href="#DejaVuSans-6c"/>
      <use x="223.046875" xlink:href="#DejaVuSans-65"/>
      <use x="284.570312" xlink:href="#DejaVuSans-20"/>
      <use x="316.357422" xlink:href="#DejaVuSans-77"/>
      <use x="398.144531" xlink:href="#DejaVuSans-69"/>
      <use x="425.927734" xlink:href="#DejaVuSans-74"/>
      <use x="465.136719" xlink:href="#DejaVuSans-68"/>
      <use x="528.515625" xlink:href="#DejaVuSans-20"/>
      <use x="560.302734" xlink:href="#DejaVuSans-6e"/>
      <use x="623.681641" xlink:href="#DejaVuSans-6f"/>
      <use x="684.863281" xlink:href="#DejaVuSans-72"/>
      <use x="724.226562" xlink:href="#DejaVuSans-6d"/>
      <use x="821.638672" xlink:href="#DejaVuSans-61"/>
      <use x="882.917969" xlink:href="#DejaVuSans-6c"/>
      <use x="910.701172" xlink:href="#DejaVuSans-20"/>
      <use x="942.488281" xlink:href="#DejaVuSans-28"/>
      <use x="981.501953" xlink:href="#DejaVuSans-72"/>
      <use x="1022.615234" xlink:href="#DejaVuSans-61"/>
      <use x="1083.894531" xlink:href="#DejaVuSans-64"/>
      <use x="1147.371094" xlink:href="#DejaVuSans-29"/>
     </g>
    </g>
   </g>
   <g id="matplotlib.axis_2">
    <g id="ytick_1">
     <g id="line2d_10">
      <defs>
       <path d="M 0 0 
L -3.5 0 
" id="mac70103d0c" style="stroke:#000000;stroke-width:0.8;"/>
      </defs>
      <g>
       <use style="stroke:#000000;stroke-width:0.8;" x="43.78125" xlink:href="#mac70103d0c" y="273.312"/>
      </g>
     </g>
     <g id="text_11">
      <!-- 0.0 -->
      <g transform="translate(20.878125 277.111219)scale(0.1 -0.1)">
       <use xlink:href="#DejaVuSans-30"/>
       <use x="63.623047" xlink:href="#DejaVuSans-2e"/>
       <use x="95.410156" xlink:href="#DejaVuSans-30"/>
      </g>
     </g>
    </g>
    <g id="ytick_2">
     <g id="line2d_11">
      <g>
       <use style="stroke:#000000;stroke-width:0.8;" x="43.78125" xlink:href="#mac70103d0c" y="227.013682"/>
      </g>
     </g>
     <g id="text_12">
      <!-- 0.2 -->
      <g transform="translate(20.878125 230.812901)scale(0.1 -0.1)">
       <use xlink:href="#DejaVuSans-30"/>
       <use x="63.623047" xlink:href="#DejaVuSans-2e"/>
       <use x="95.410156" xlink:href="#DejaVuSans-32"/>
      </g>
     </g>
    </g>
    <g id="ytick_3">
     <g id="line2d_12">
      <g>
       <use style="stroke:#000000;stroke-width:0.8;" x="43.78125" xlink:href="#mac70103d0c" y="180.715364"/>
      </g>
     </g>
     <g id="text_13">
      <!-- 0.4 -->
      <g transform="translate(20.878125 184.514583)scale(0.1 -0.1)">
       <use xlink:href="#DejaVuSans-30"/>
       <use x="63.623047" xlink:href="#DejaVuSans-2e"/>
       <use x="95.410156" xlink:href="#DejaVuSans-34"/>
      </g>
     </g>
    </g>
    <g id="ytick_4">
     <g id="line2d_13">
      <g>
       <use style="stroke:#000000;stroke-width:0.8;" x="43.78125" xlink:href="#mac70103d0c" y="134.417046"/>
      </g>
     </g>
     <g id="text_14">
      <!-- 0.6 -->
      <g transform="translate(20.878125 138.216265)scale(0.1 -0.1)">
       <use xlink:href="#DejaVuSans-30"/>
       <use x="63.623047" xlink:href="#DejaVuSans-2e"/>
       <use x="95.410156" xlink:href="#DejaVuSans-36"/>
      </g>
     </g>
    </g>
    <g id="ytick_5">
     <g id="line2d_14">
      <g>
       <use style="stroke:#000000;stroke-width:0.8;" x="43.78125" xlink:href="#mac70103d0c" y="88.118728"/>
      </g>
     </g>
     <g id="text_15">
      <!-- 0.8 -->
      <g transform="translate(20.878125 91.917947)scale(0.1 -0.1)">
       <use xlink:href="#DejaVuSans-30"/>
       <use x="63.623047" xlink:href="#DejaVuSans-2e"/>
       <use x="95.410156" xlink:href="#DejaVuSans-38"/>
      </g>
     </g>
    </g>
    <g id="ytick_6">
     <g id="line2d_15">
      <g>
       <use style="stroke:#000000;stroke-width:0.8;" x="43.78125" xlink:href="#mac70103d0c" y="41.82041"/>
      </g>
     </g>
     <g id="text_16">
      <!-- 1.0 -->
      <g transform="translate(20.878125 45.619629)scale(0.1 -0.1)">
       <use xlink:href="#DejaVuSans-31"/>
       <use x="63.623047" xlink:href="#DejaVuSans-2e"/>
       <use x="95.410156" xlink:href="#DejaVuSans-30"/>
      </g>
     </g>
    </g>
    <g id="text_17">
     <!-- Probability density -->
     <g transform="translate(14.798438 186.606781)rotate(-90)scale(0.1 -0.1)">
      <defs>
       <path d="M 1259 4147 
L 1259 2394 
L 2053 2394 
Q 2494 2394 2734 2622 
Q 2975 2850 2975 3272 
Q 2975 3691 2734 3919 
Q 2494 4147 2053 4147 
L 1259 4147 
z
M 628 4666 
L 2053 4666 
Q 2838 4666 3239 4311 
Q 3641 3956 3641 3272 
Q 3641 2581 3239 2228 
Q 2838 1875 2053 1875 
L 1259 1875 
L 1259 0 
L 628 0 
L 628 4666 
z
" id="DejaVuSans-50" transform="scale(0.015625)"/>
       <path d="M 3116 1747 
Q 3116 2381 2855 2742 
Q 2594 3103 2138 3103 
Q 1681 3103 1420 2742 
Q 1159 2381 1159 1747 
Q 1159 1113 1420 752 
Q 1681 391 2138 391 
Q 2594 391 2855 752 
Q 3116 1113 3116 1747 
z
M 1159 2969 
Q 1341 3281 1617 3432 
Q 1894 3584 2278 3584 
Q 2916 3584 3314 3078 
Q 3713 2572 3713 1747 
Q 3713 922 3314 415 
Q 2916 -91 2278 -91 
Q 1894 -91 1617 61 
Q 1341 213 1159 525 
L 1159 0 
L 581 0 
L 581 4863 
L 1159 4863 
L 1159 2969 
z
" id="DejaVuSans-62" transform="scale(0.015625)"/>
       <path d="M 2059 -325 
Q 1816 -950 1584 -1140 
Q 1353 -1331 966 -1331 
L 506 -1331 
L 506 -850 
L 844 -850 
Q 1081 -850 1212 -737 
Q 1344 -625 1503 -206 
L 1606 56 
L 191 3500 
L 800 3500 
L 1894 763 
L 2988 3500 
L 3597 3500 
L 2059 -325 
z
" id="DejaVuSans-79" transform="scale(0.015625)"/>
       <path d="M 2834 3397 
L 2834 2853 
Q 2591 2978 2328 3040 
Q 2066 3103 1784 3103 
Q 1356 3103 1142 2972 
Q 928 2841 928 2578 
Q 928 2378 1081 2264 
Q 1234 2150 1697 2047 
L 1894 2003 
Q 2506 1872 2764 1633 
Q 3022 1394 3022 966 
Q 3022 478 2636 193 
Q 2250 -91 1575 -91 
Q 1294 -91 989 -36 
Q 684 19 347 128 
L 347 722 
Q 666 556 975 473 
Q 1284 391 1588 391 
Q 1994 391 2212 530 
Q 2431 669 2431 922 
Q 2431 1156 2273 1281 
Q 2116 1406 1581 1522 
L 1381 1569 
Q 847 1681 609 1914 
Q 372 2147 372 2553 
Q 372 3047 722 3315 
Q 1072 3584 1716 3584 
Q 2034 3584 2315 3537 
Q 2597 3491 2834 3397 
z
" id="DejaVuSans-73" transform="scale(0.015625)"/>
      </defs>
      <use xlink:href="#DejaVuSans-50"/>
      <use x="58.552734" xlink:href="#DejaVuSans-72"/>
      <use x="97.416016" xlink:href="#DejaVuSans-6f"/>
      <use x="158.597656" xlink:href="#DejaVuSans-62"/>
      <use x="222.074219" xlink:href="#DejaVuSans-61"/>
      <use x="283.353516" xlink:href="#DejaVuSans-62"/>
      <use x="346.830078" xlink:href="#DejaVuSans-69"/>
      <use x="374.613281" xlink:href="#DejaVuSans-6c"/>
      <use x="402.396484" xlink:href="#DejaVuSans-69"/>
      <use x="430.179688" xlink:href="#DejaVuSans-74"/>
      <use x="469.388672" xlink:href="#DejaVuSans-79"/>
      <use x="528.568359" xlink:href="#DejaVuSans-20"/>
      <use x="560.355469" xlink:href="#DejaVuSans-64"/>
      <use x="623.832031" xlink:href="#DejaVuSans-65"/>
      <use x="685.355469" xlink:href="#DejaVuSans-6e"/>
      <use x="748.734375" xlink:href="#DejaVuSans-73"/>
      <use x="800.833984" xlink:href="#DejaVuSans-69"/>
      <use x="828.617188" xlink:href="#DejaVuSans-74"/>
      <use x="867.826172" xlink:href="#DejaVuSans-79"/>
     </g>
    </g>
   </g>
   <g id="line2d_16">
    <path clip-path="url(#p4cacd9eb4e)" d="M 60.013977 273.312 
L 79.837728 229.177053 
L 90.237073 206.570847 
L 99.01152 188.013045 
L 106.811029 172.029103 
L 113.960578 157.881573 
L 120.460169 145.497704 
L 126.63478 134.200454 
L 132.484411 123.955146 
L 138.009063 114.717785 
L 143.208736 106.437301 
L 148.408408 98.579201 
L 153.283101 91.613547 
L 157.832814 85.476671 
L 162.382528 79.703821 
L 166.607261 74.67906 
L 170.831995 69.986228 
L 175.056729 65.633168 
L 178.956483 61.922832 
L 182.856238 58.513494 
L 186.755992 55.410007 
L 190.330767 52.837608 
L 193.905542 50.529006 
L 197.480316 48.486962 
L 201.055091 46.71392 
L 204.304886 45.337287 
L 207.554682 44.186088 
L 210.804477 43.261462 
L 214.054272 42.564322 
L 217.304067 42.095358 
L 220.553863 41.855035 
L 223.803658 41.843589 
L 227.053453 42.061031 
L 230.303248 42.507148 
L 233.553044 43.181498 
L 236.802839 44.083413 
L 240.052634 45.212002 
L 243.302429 46.56615 
L 246.552225 48.144516 
L 250.126999 50.137822 
L 253.701774 52.398156 
L 257.276549 54.922811 
L 260.851324 57.708768 
L 264.751078 61.042082 
L 268.650832 64.677647 
L 272.550587 68.610287 
L 276.77532 73.199383 
L 281.000054 78.122881 
L 285.549768 83.789637 
L 290.099481 89.823689 
L 294.974174 96.683029 
L 299.848867 103.935315 
L 305.048539 112.086006 
L 310.248212 120.644784 
L 315.772863 130.161378 
L 321.622495 140.683001 
L 327.797106 152.249371 
L 334.296696 164.890475 
L 341.446246 179.288915 
L 349.245755 195.506925 
L 358.020202 214.276997 
L 368.419546 237.062786 
L 383.693584 271.128092 
L 384.668523 273.312 
L 384.668523 273.312 
" style="fill:none;stroke:#ff7f0e;stroke-linecap:square;stroke-width:1.5;"/>
   </g>
   <g id="patch_203">
    <path d="M 43.78125 273.312 
L 43.78125 7.2 
" style="fill:none;stroke:#000000;stroke-linecap:square;stroke-linejoin:miter;stroke-width:0.8;"/>
   </g>
   <g id="patch_204">
    <path d="M 400.90125 273.312 
L 400.90125 7.2 
" style="fill:none;stroke:#000000;stroke-linecap:square;stroke-linejoin:miter;stroke-width:0.8;"/>
   </g>
   <g id="patch_205">
    <path d="M 43.78125 273.312 
L 400.90125 273.312 
" style="fill:none;stroke:#000000;stroke-linecap:square;stroke-linejoin:miter;stroke-width:0.8;"/>
   </g>
   <g id="patch_206">
    <path d="M 43.78125 7.2 
L 400.90125 7.2 
" style="fill:none;stroke:#000000;stroke-linecap:square;stroke-linejoin:miter;stroke-width:0.8;"/>
   </g>
  </g>
 </g>
 <defs>
  <clipPath id="p4cacd9eb4e">
   <rect height="266.112" width="357.12" x="43.78125" y="7.2"/>
  </clipPath>
 </defs>
</svg>
